<?xml version="1.0" standalone="no"?>
<!DOCTYPE svg PUBLIC "-//W3C//DTD SVG 20010904//EN"
 "http://www.w3.org/TR/2001/REC-SVG-20010904/DTD/svg10.dtd">
<svg version="1.0" xmlns="http://www.w3.org/2000/svg"
 width="576.000000pt" height="576.000000pt" viewBox="0 0 576.000000 576.000000"
 preserveAspectRatio="xMidYMid meet">
<metadata>
Created by potrace 1.11, written by Peter Selinger 2001-2013
</metadata>
<g transform="translate(0.000000,576.000000) scale(0.100000,-0.100000)"
fill="#000000" stroke="none">
<path d="M2699 5716 c-2 -2 -36 -7 -74 -10 -39 -4 -80 -8 -90 -10 -11 -2 -42
-7 -70 -10 -61 -9 -92 -14 -125 -21 -14 -3 -36 -8 -50 -11 -14 -3 -33 -7 -42
-10 -9 -3 -25 -7 -36 -9 -134 -25 -512 -169 -622 -235 -8 -5 -47 -27 -87 -49
-81 -44 -307 -193 -323 -212 -3 -3 -43 -37 -90 -74 -100 -80 -298 -278 -378
-379 -31 -39 -59 -73 -62 -76 -3 -3 -17 -21 -30 -40 -13 -19 -30 -41 -37 -48
-7 -7 -13 -17 -13 -22 0 -5 -6 -15 -13 -22 -16 -17 -85 -125 -134 -213 -136
-238 -263 -583 -307 -830 -3 -16 -8 -39 -10 -50 -5 -28 -17 -114 -22 -155 -2
-19 -7 -64 -11 -100 -15 -130 -7 -501 11 -610 3 -14 7 -43 11 -65 5 -35 17
-107 31 -181 12 -66 58 -224 94 -324 22 -63 43 -122 45 -130 2 -8 10 -28 18
-45 8 -16 35 -73 60 -125 25 -52 66 -131 92 -175 62 -107 64 -111 108 -172 20
-29 37 -55 37 -57 0 -3 6 -14 14 -23 8 -10 38 -47 66 -83 92 -117 111 -139
219 -248 126 -128 170 -167 281 -253 133 -103 390 -269 417 -269 5 0 15 -6 21
-13 7 -6 16 -12 20 -12 4 0 43 -18 87 -39 136 -65 362 -146 495 -177 25 -6 54
-13 65 -16 61 -15 156 -34 195 -38 25 -3 56 -8 70 -10 132 -26 603 -27 735 -1
11 2 41 6 66 10 65 10 93 15 179 32 14 3 59 14 100 25 41 11 82 21 90 23 29 7
175 57 240 82 63 25 345 161 385 186 175 111 321 212 345 238 3 3 32 27 65 54
101 83 305 295 398 413 211 269 381 591 477 901 18 57 33 109 34 115 2 7 8 30
14 52 10 38 15 59 27 123 3 15 8 38 10 52 54 265 60 661 15 935 -6 33 -13 76
-15 95 -3 19 -8 44 -12 55 -3 11 -7 29 -9 40 -8 59 -98 358 -114 380 -4 6 -10
22 -14 37 -11 49 -132 300 -183 380 -12 21 -23 42 -23 48 0 5 -4 10 -10 10 -5
0 -10 5 -10 11 0 10 -145 228 -159 239 -4 3 -22 25 -41 50 -35 46 -48 61 -142
164 -65 73 -156 159 -244 234 -22 17 -50 42 -64 53 -32 27 -201 147 -260 185
-53 34 -67 41 -145 83 -33 18 -64 36 -70 40 -34 25 -336 150 -430 177 -104 31
-265 73 -297 78 -18 3 -43 8 -56 10 -20 5 -63 11 -207 32 -38 5 -501 14 -506
10z m437 -709 c11 -3 47 -8 79 -11 82 -9 282 -58 390 -96 96 -34 308 -130 313
-142 2 -5 9 -8 16 -8 17 0 213 -129 299 -197 91 -72 278 -259 337 -338 25 -33
47 -62 50 -65 54 -50 217 -344 270 -485 12 -33 26 -69 31 -80 9 -18 26 -76 50
-165 11 -41 35 -160 44 -210 27 -169 27 -523 0 -660 -3 -14 -8 -41 -11 -60
-22 -128 -84 -332 -136 -450 -40 -88 -110 -225 -124 -241 -8 -9 -11 -19 -7
-22 3 -4 2 -7 -3 -7 -5 0 -20 -20 -34 -45 -14 -25 -28 -45 -32 -45 -5 0 -8 -6
-8 -14 0 -8 -3 -16 -7 -18 -5 -1 -28 -30 -53 -63 -67 -90 -77 -101 -185 -210
-55 -56 -136 -129 -180 -164 -44 -34 -87 -68 -95 -74 -23 -19 -178 -117 -184
-117 -3 0 -27 -13 -53 -28 -105 -61 -362 -162 -453 -178 -14 -3 -32 -7 -40
-10 -8 -4 -24 -8 -35 -9 -11 -2 -33 -6 -50 -10 -133 -30 -238 -39 -425 -39
-153 1 -261 7 -310 18 -14 3 -38 8 -55 10 -16 3 -41 7 -55 10 -14 3 -41 9 -60
13 -45 9 -38 7 -90 22 -48 13 -195 64 -245 84 -63 25 -232 112 -282 144 -29
18 -55 33 -58 33 -3 0 -11 5 -18 10 -7 6 -37 29 -67 50 -118 86 -180 139 -294
255 -78 79 -256 302 -256 320 0 3 -11 21 -24 38 -25 34 -130 233 -158 302 -32
78 -78 217 -99 298 -22 85 -24 94 -34 166 -3 25 -8 48 -10 52 -16 25 -24 376
-12 519 3 41 7 75 7 75 1 0 4 14 6 30 6 39 22 124 29 153 3 12 7 30 9 40 19
84 69 239 93 285 7 15 12 27 9 27 -2 0 9 26 25 57 16 31 29 60 29 63 0 8 81
149 125 220 31 50 135 189 174 234 58 66 212 215 277 267 119 97 264 189 409
259 125 60 345 147 345 135 0 -2 19 3 43 11 23 8 58 17 77 21 38 6 42 7 80 16
32 8 83 15 167 23 37 4 69 8 71 9 5 5 366 -3 388 -8z"/>
<path d="M3155 3992 c-1 -2 -15 -5 -31 -8 -16 -3 -60 -14 -99 -25 -38 -11 -77
-22 -85 -24 -8 -2 -15 -4 -15 -5 0 -1 -7 -3 -15 -5 -17 -3 -144 -50 -175 -64
-197 -90 -250 -115 -300 -143 -33 -19 -67 -37 -75 -41 -19 -10 -32 -17 -160
-96 -58 -36 -107 -67 -110 -71 -3 -3 -36 -28 -75 -55 -80 -56 -192 -142 -216
-164 -9 -9 -26 -23 -38 -31 -13 -8 -41 -33 -64 -54 -41 -38 -41 -39 -5 -12 20
14 40 26 43 26 4 0 26 14 50 30 24 17 47 30 51 30 4 0 15 6 23 14 43 37 331
182 471 237 58 22 114 45 125 51 12 5 27 10 35 12 8 1 48 13 89 25 41 13 83
25 95 27 104 23 174 34 188 30 10 -2 21 0 24 5 12 20 22 -3 19 -48 -6 -98 -17
-218 -21 -225 -3 -4 -7 -32 -9 -62 -9 -124 -3 -117 -123 -155 -117 -36 -353
-122 -417 -150 -22 -10 -58 -24 -80 -31 -22 -7 -44 -16 -50 -20 -5 -4 -46 -22
-90 -40 -44 -18 -101 -43 -127 -56 -27 -14 -50 -24 -53 -24 -3 0 -57 -25 -121
-55 -64 -30 -120 -55 -125 -55 -5 0 -9 -5 -9 -10 0 -6 -3 -9 -7 -8 -8 2 -99
-43 -300 -149 -51 -26 -93 -52 -93 -57 0 -5 6 -4 13 1 6 6 30 16 52 22 22 7
47 15 55 18 8 3 20 7 25 9 6 1 53 16 105 34 119 39 354 110 380 115 11 2 24 6
28 9 5 3 19 7 33 10 13 3 58 15 99 27 70 19 135 37 170 44 8 2 15 4 15 5 0 1
7 3 15 5 8 2 65 15 125 30 61 15 117 28 126 30 9 2 59 13 110 24 102 22 153
32 184 36 11 2 20 4 20 5 0 1 9 3 20 4 38 6 100 17 115 21 8 2 31 6 50 9 106
14 137 19 155 22 11 2 45 6 75 10 30 3 73 7 95 10 219 24 659 24 683 -1 4 -4
-15 -153 -23 -185 -1 -3 -5 -23 -9 -45 -41 -207 -113 -451 -156 -527 -15 -27
3 -21 24 7 11 14 29 36 40 49 71 78 89 100 216 259 8 11 20 24 25 31 12 13 98
129 168 226 25 36 51 70 57 77 5 7 10 14 10 17 0 3 20 36 44 73 58 91 121 216
139 280 l15 51 -26 10 c-41 15 -117 33 -202 47 -158 27 -517 22 -727 -9 -24
-3 -62 -9 -85 -12 -24 -3 -99 -17 -168 -31 -69 -13 -135 -27 -146 -29 -17 -3
-21 0 -19 19 11 86 16 125 20 142 16 79 23 353 12 452 l-8 63 -35 -3 c-20 -1
-37 -3 -39 -5z"/>
<path d="M1957 2484 c-1 -1 -20 -4 -42 -7 -130 -16 -263 -75 -379 -167 -70
-55 -186 -182 -186 -203 0 -5 17 -6 38 -2 45 7 99 15 132 19 14 2 54 7 90 12
79 10 403 11 482 1 61 -7 225 -49 293 -73 22 -8 48 -17 57 -19 9 -2 58 -17
110 -33 95 -31 263 -77 308 -86 14 -3 50 -10 80 -16 246 -50 547 -41 706 21
16 6 37 12 46 14 90 18 282 139 381 240 63 63 137 155 137 169 0 2 -38 -15
-84 -40 -156 -82 -316 -130 -501 -151 -116 -13 -393 -6 -485 12 -14 3 -45 8
-70 11 -133 18 -390 96 -615 189 -137 56 -164 67 -180 70 -5 2 -28 7 -50 13
-73 20 -255 37 -268 26z"/>
</g>
</svg>
