<svg width="24" height="23" viewBox="0 0 24 23" fill="none" xmlns="http://www.w3.org/2000/svg">
<path d="M2.29836 13.7267C2.44727 13.8756 2.61865 13.9501 2.81225 13.9501C3.00586 13.9501 3.17723 13.8756 3.32615 13.7267L12.1067 4.94608L20.8875 13.7267C21.0363 13.8756 21.2078 13.9501 21.401 13.9501C21.595 13.9501 21.7663 13.8756 21.9152 13.7267L23.0322 12.6095C23.181 12.4607 23.255 12.2892 23.255 12.0959C23.255 11.9022 23.1806 11.7309 23.0322 11.582L12.6202 1.17053C12.4714 1.02137 12.3003 0.947266 12.1067 0.947266C11.913 0.947266 11.7416 1.02161 11.5928 1.17053L1.1815 11.5819C1.03235 11.7309 0.958008 11.902 0.958008 12.0961C0.958008 12.2892 1.03258 12.4606 1.1815 12.6095L2.29836 13.7267Z" fill="white"/>
<path d="M12.6182 9.74986C12.4694 9.60071 12.2983 9.52637 12.1047 9.52637C11.9111 9.52637 11.7396 9.60094 11.5908 9.74986L1.17955 20.1613C1.0304 20.3102 0.956055 20.4815 0.956055 20.6754C0.956055 20.8688 1.03063 21.0401 1.17955 21.1891L2.2964 22.3062C2.44532 22.4551 2.6167 22.5291 2.8103 22.5291C3.0039 22.5291 3.17528 22.4547 3.3242 22.3062L12.1047 13.5253L20.8855 22.3062C21.0343 22.4551 21.2058 22.5294 21.3991 22.5294C21.593 22.5294 21.7644 22.4552 21.9132 22.3062L23.0302 21.1891C23.1791 21.0401 23.253 20.8688 23.253 20.6754C23.253 20.4815 23.1786 20.3102 23.0302 20.1613L12.6182 9.74986Z" fill="white"/>
</svg>
