<svg width="768" height="1465" viewBox="0 0 768 1465" fill="none" xmlns="http://www.w3.org/2000/svg">
<g opacity="0.2">
<path d="M722.891 1116.12C722.974 1116.05 723.108 1115.98 723.239 1115.96L892.605 1081.49C893.026 1081.41 893.4 1081.67 893.506 1082.06C893.585 1082.49 893.328 1082.86 892.908 1082.94L723.541 1117.41C723.121 1117.49 722.746 1117.23 722.668 1116.81C722.604 1116.57 722.699 1116.29 722.891 1116.12Z" fill="#808080" fill-opacity="0.3"/>
<path d="M722.255 1089.88C719.2 1090.53 717.226 1093.5 717.849 1096.53C718.496 1099.58 721.47 1101.56 724.498 1100.94C727.553 1100.29 729.527 1097.32 728.904 1094.29C728.309 1091.24 725.307 1089.29 722.255 1089.88Z" fill="#808080" fill-opacity="0.3"/>
<path d="M722.89 1094.86C723.083 1094.69 723.372 1094.63 723.628 1094.7C724.036 1094.83 724.218 1095.25 724.117 1095.64L669.347 1259.6C669.218 1260.01 668.791 1260.19 668.407 1260.09C667.999 1259.96 667.817 1259.53 667.945 1259.13L722.689 1095.19C722.722 1095.06 722.78 1094.96 722.89 1094.86Z" fill="#808080" fill-opacity="0.3"/>
<path d="M718.026 1093.63C719.037 1090.67 722.228 1089.07 725.158 1090.06C728.113 1091.07 729.713 1094.26 728.73 1097.19C727.719 1100.15 724.529 1101.75 721.598 1100.76C718.641 1099.8 717.04 1096.61 718.026 1093.63Z" fill="#808080" fill-opacity="0.3"/>
<path d="M663.281 1257.57C662.295 1260.55 663.896 1263.74 666.853 1264.7C669.808 1265.71 673.026 1264.09 673.985 1261.13C674.996 1258.18 673.371 1254.96 670.413 1254C667.483 1253.01 664.268 1254.59 663.281 1257.57Z" fill="#808080" fill-opacity="0.3"/>
<path d="M668.147 1280.06C668.449 1279.79 668.916 1279.82 669.183 1280.12L783.806 1409.59C784.074 1409.9 784.046 1410.36 783.743 1410.63C783.441 1410.9 782.975 1410.87 782.707 1410.57L668.084 1281.1C667.817 1280.8 667.845 1280.33 668.147 1280.06Z" fill="#808080" fill-opacity="0.3"/>
<path d="M674.269 1259.7C674.457 1256.59 672.084 1253.91 668.969 1253.72C665.853 1253.53 663.174 1255.9 662.986 1259.01C662.797 1262.13 665.17 1264.81 668.286 1265C671.402 1265.19 674.08 1262.82 674.269 1259.7Z" fill="#808080" fill-opacity="0.3"/>
<path d="M663.015 822.709C663.124 822.612 663.231 822.566 663.362 822.548L832.729 788.079C833.149 788.001 833.524 788.257 833.602 788.678C833.681 789.099 833.424 789.473 833.003 789.552L663.637 824.021C663.216 824.099 662.842 823.843 662.763 823.422C662.727 823.159 662.795 822.904 663.015 822.709Z" fill="#808080" fill-opacity="0.3"/>
<path d="M662.35 796.496C659.271 797.114 657.322 800.115 657.944 803.143C658.564 806.223 661.566 808.174 664.593 807.553C667.673 806.936 669.622 803.935 668.999 800.907C668.404 797.854 665.43 795.878 662.35 796.496Z" fill="#808080" fill-opacity="0.3"/>
<path d="M663.011 801.45C663.204 801.28 663.493 801.22 663.749 801.287C664.157 801.416 664.34 801.844 664.211 802.252L609.468 966.191C609.339 966.6 608.912 966.781 608.528 966.68C608.12 966.551 607.938 966.124 608.039 965.74L662.782 801.8C662.843 801.648 662.901 801.548 663.011 801.45Z" fill="#808080" fill-opacity="0.3"/>
<path d="M658.146 800.217C659.133 797.235 662.348 795.664 665.278 796.649C668.233 797.662 669.834 800.854 668.85 803.784C667.864 806.765 664.649 808.337 661.719 807.352C658.761 806.391 657.16 803.199 658.146 800.217Z" fill="#808080" fill-opacity="0.3"/>
<path d="M603.403 964.157C602.417 967.139 604.018 970.331 606.975 971.292C609.93 972.304 613.148 970.681 614.107 967.724C615.094 964.742 613.493 961.55 610.535 960.589C607.605 959.604 604.386 961.227 603.403 964.157Z" fill="#808080" fill-opacity="0.3"/>
<path d="M608.266 965.393C608.569 965.125 609.035 965.154 609.302 965.456L723.925 1094.93C724.193 1095.23 724.165 1095.69 723.863 1095.96C723.56 1096.23 723.094 1096.2 722.827 1095.9L608.204 966.429C607.908 966.151 607.937 965.684 608.266 965.393Z" fill="#808080" fill-opacity="0.3"/>
<path d="M604.549 969.714C602.48 967.377 602.696 963.802 605.031 961.735C607.366 959.668 610.941 959.886 613.01 962.223C615.078 964.559 614.862 968.134 612.527 970.201C610.192 972.269 606.617 972.05 604.549 969.714Z" fill="#808080" fill-opacity="0.3"/>
<path d="M719.145 1099.16C721.214 1101.49 724.789 1101.71 727.124 1099.65C729.459 1097.58 729.675 1094 727.606 1091.67C725.538 1089.33 721.963 1089.11 719.628 1091.18C717.293 1093.25 717.077 1096.82 719.145 1099.16Z" fill="#808080" fill-opacity="0.3"/>
<path d="M722.918 1116.1C723.001 1116.02 723.135 1115.95 723.266 1115.94L892.605 1081.49C893.025 1081.41 893.4 1081.67 893.506 1082.06C893.584 1082.49 893.328 1082.86 892.907 1082.94L723.568 1117.38C723.147 1117.46 722.773 1117.2 722.667 1116.81C722.631 1116.55 722.726 1116.27 722.918 1116.1Z" fill="#808080" fill-opacity="0.3"/>
<path d="M724.551 1100.94C721.496 1101.59 718.497 1099.59 717.902 1096.53C717.282 1093.45 719.256 1090.48 722.308 1089.89C725.387 1089.27 728.362 1091.24 728.957 1094.3C729.552 1097.35 727.578 1100.32 724.551 1100.94Z" fill="#808080" fill-opacity="0.3"/>
<path d="M768.695 499.228C766.626 496.891 766.843 493.316 769.178 491.249C771.513 489.182 775.088 489.4 777.156 491.737C779.225 494.073 779.008 497.648 776.673 499.715C774.338 501.783 770.764 501.564 768.695 499.228Z" fill="#808080" fill-opacity="0.3"/>
<path d="M768.725 499.201C766.657 496.864 766.873 493.289 769.208 491.222C771.543 489.155 775.118 489.373 777.186 491.71C779.255 494.046 779.039 497.621 776.704 499.689C774.369 501.756 770.794 501.537 768.725 499.201Z" fill="#808080" fill-opacity="0.3"/>
<path d="M603.103 529.376C603.213 529.279 603.319 529.234 603.451 529.216L772.817 494.746C773.237 494.668 773.612 494.925 773.69 495.345C773.769 495.766 773.512 496.141 773.092 496.219L603.725 530.688C603.305 530.767 602.93 530.51 602.824 530.113C602.791 529.799 602.911 529.547 603.103 529.376Z" fill="#808080" fill-opacity="0.3"/>
<path d="M771.833 489.929C774.912 489.311 777.887 491.287 778.482 494.339C779.129 497.395 777.128 500.393 774.076 500.986C771.021 501.631 768.022 499.628 767.427 496.576C766.804 493.547 768.781 490.522 771.833 489.929Z" fill="#808080" fill-opacity="0.3"/>
<path d="M602.466 503.139C599.411 503.784 597.437 506.758 598.06 509.786C598.707 512.841 601.681 514.817 604.709 514.196C607.788 513.579 609.738 510.578 609.115 507.55C608.52 504.497 605.521 502.494 602.466 503.139Z" fill="#808080" fill-opacity="0.3"/>
<path d="M603.101 508.116C603.293 507.946 603.583 507.886 603.839 507.953C604.247 508.082 604.429 508.509 604.328 508.893L549.585 672.833C549.456 673.241 549.029 673.423 548.645 673.322C548.237 673.193 548.055 672.765 548.156 672.382L602.899 508.442C602.933 508.314 603.019 508.189 603.101 508.116Z" fill="#808080" fill-opacity="0.3"/>
<path d="M598.236 506.882C599.247 503.928 602.438 502.329 605.368 503.314C608.323 504.327 609.924 507.519 608.94 510.449C607.954 513.431 604.739 515.002 601.809 514.017C598.878 513.032 597.253 509.812 598.236 506.882Z" fill="#808080" fill-opacity="0.3"/>
<path d="M543.521 670.799C542.535 673.78 544.136 676.972 547.094 677.933C550.076 678.922 553.266 677.323 554.225 674.365C555.236 671.411 553.611 668.192 550.653 667.231C547.695 666.27 544.48 667.841 543.521 670.799Z" fill="#808080" fill-opacity="0.3"/>
<path d="M548.385 672.034C548.687 671.766 549.153 671.795 549.421 672.097L664.044 801.567C664.311 801.87 664.283 802.336 663.981 802.603C663.679 802.871 663.212 802.842 662.945 802.54L548.322 673.07C548.027 672.792 548.055 672.326 548.385 672.034Z" fill="#808080" fill-opacity="0.3"/>
<path d="M544.642 676.327C542.574 673.991 542.79 670.416 545.125 668.349C547.46 666.282 551.035 666.5 553.103 668.837C555.172 671.173 554.956 674.748 552.621 676.815C550.286 678.883 546.711 678.664 544.642 676.327Z" fill="#808080" fill-opacity="0.3"/>
<path d="M659.264 805.798C661.333 808.135 664.908 808.353 667.243 806.286C669.578 804.219 669.794 800.644 667.725 798.307C665.657 795.971 662.082 795.752 659.747 797.82C657.412 799.887 657.196 803.462 659.264 805.798Z" fill="#808080" fill-opacity="0.3"/>
<path d="M663.012 822.711C663.122 822.614 663.228 822.568 663.359 822.55L832.698 788.105C833.119 788.027 833.493 788.284 833.572 788.704C833.65 789.125 833.394 789.5 832.973 789.578L663.634 824.023C663.214 824.101 662.839 823.844 662.761 823.424C662.724 823.161 662.792 822.906 663.012 822.711Z" fill="#808080" fill-opacity="0.3"/>
<path d="M664.645 807.557C661.565 808.175 658.591 806.199 657.996 803.147C657.376 800.067 659.35 797.093 662.402 796.5C665.481 795.882 668.455 797.858 669.051 800.91C669.646 803.963 667.696 806.964 664.645 807.557Z" fill="#808080" fill-opacity="0.3"/>
<path d="M548.414 672.009C548.716 671.741 549.182 671.77 549.45 672.072L664.073 801.542C664.341 801.845 664.312 802.311 664.01 802.579C663.708 802.846 663.242 802.818 662.974 802.515L548.351 673.045C548.056 672.767 548.084 672.301 548.414 672.009Z" fill="#808080" fill-opacity="0.3"/>
<path d="M544.67 676.304C542.601 673.967 542.817 670.392 545.152 668.325C547.487 666.258 551.062 666.476 553.131 668.813C555.199 671.149 554.983 674.724 552.648 676.791C550.313 678.859 546.738 678.64 544.67 676.304Z" fill="#808080" fill-opacity="0.3"/>
<path d="M659.294 805.774C661.362 808.11 664.937 808.329 667.272 806.262C669.607 804.194 669.823 800.619 667.755 798.283C665.686 795.946 662.112 795.728 659.776 797.795C657.441 799.862 657.225 803.437 659.294 805.774Z" fill="#808080" fill-opacity="0.3"/>
<path d="M379.047 706.477C379.13 706.405 379.264 706.335 379.395 706.317L548.761 671.847C549.182 671.769 549.556 672.026 549.662 672.422C549.741 672.843 549.484 673.217 549.063 673.296L379.697 707.765C379.277 707.844 378.902 707.587 378.824 707.166C378.736 706.9 378.855 706.648 379.047 706.477Z" fill="#808080" fill-opacity="0.3"/>
<path d="M547.752 667.053C550.831 666.435 553.806 668.411 554.401 671.463C555.021 674.543 553.047 677.517 549.995 678.11C546.94 678.755 543.941 676.752 543.346 673.7C542.751 670.647 544.7 667.646 547.752 667.053Z" fill="#808080" fill-opacity="0.3"/>
<path d="M378.412 701.499C375.357 702.144 373.383 705.117 374.006 708.145C374.653 711.201 377.628 713.177 380.655 712.556C383.735 711.938 385.684 708.937 385.061 705.909C384.466 702.857 381.44 700.878 378.412 701.499Z" fill="#808080" fill-opacity="0.3"/>
<path d="M379.045 706.478C379.237 706.308 379.527 706.247 379.783 706.315C380.191 706.444 380.373 706.871 380.272 707.255L325.501 871.219C325.373 871.627 324.946 871.809 324.562 871.708C324.154 871.579 323.971 871.152 324.1 870.743L378.843 706.804C378.877 706.676 378.935 706.575 379.045 706.478Z" fill="#808080" fill-opacity="0.3"/>
<path d="M374.181 705.244C375.192 702.29 378.382 700.691 381.313 701.676C384.267 702.689 385.868 705.881 384.885 708.811C383.899 711.792 380.684 713.364 377.753 712.379C374.795 711.418 373.17 708.198 374.181 705.244Z" fill="#808080" fill-opacity="0.3"/>
<path d="M319.437 869.184C318.451 872.166 320.052 875.358 323.01 876.319C325.964 877.332 329.182 875.708 330.141 872.751C331.152 869.797 329.527 866.577 326.569 865.616C323.639 864.631 320.424 866.203 319.437 869.184Z" fill="#808080" fill-opacity="0.3"/>
<path d="M324.3 870.418C324.602 870.151 325.068 870.179 325.336 870.482L439.959 999.952C440.227 1000.25 440.198 1000.72 439.896 1000.99C439.594 1001.26 439.128 1001.23 438.86 1000.92L324.237 871.455C323.97 871.152 323.998 870.686 324.3 870.418Z" fill="#808080" fill-opacity="0.3"/>
<path d="M320.557 874.713C318.489 872.376 318.705 868.801 321.04 866.734C323.375 864.667 326.95 864.885 329.018 867.222C331.087 869.558 330.871 873.133 328.536 875.201C326.201 877.268 322.626 877.049 320.557 874.713Z" fill="#808080" fill-opacity="0.3"/>
<path d="M435.179 1004.18C437.248 1006.52 440.823 1006.74 443.158 1004.67C445.493 1002.6 445.709 999.029 443.64 996.693C441.572 994.356 437.997 994.138 435.662 996.205C433.327 998.272 433.111 1001.85 435.179 1004.18Z" fill="#808080" fill-opacity="0.3"/>
<path d="M438.928 999.837C439.038 999.74 439.145 999.694 439.276 999.676L608.614 965.231C609.035 965.153 609.41 965.41 609.488 965.831C609.567 966.251 609.31 966.626 608.889 966.704L439.551 1001.15C439.13 1001.23 438.755 1000.97 438.649 1000.57C438.641 1000.29 438.736 1000.01 438.928 999.837Z" fill="#808080" fill-opacity="0.3"/>
<path d="M440.562 1005.94C437.482 1006.56 434.508 1004.58 433.913 1001.53C433.266 998.476 435.267 995.478 438.319 994.885C441.398 994.267 444.372 996.243 444.968 999.296C445.591 1002.32 443.641 1005.32 440.562 1005.94Z" fill="#808080" fill-opacity="0.3"/>
<path d="M609.902 971.497C612.981 970.879 614.931 967.878 614.308 964.85C613.689 961.77 610.687 959.819 607.659 960.44C604.58 961.057 602.63 964.058 603.253 967.086C603.848 970.139 606.823 972.115 609.902 971.497Z" fill="#808080" fill-opacity="0.3"/>
<path d="M663.013 801.451C663.206 801.281 663.495 801.22 663.751 801.288C664.159 801.417 664.341 801.844 664.213 802.252L609.47 966.192C609.341 966.6 608.914 966.782 608.53 966.68C608.122 966.551 607.94 966.124 608.041 965.741L662.784 801.801C662.845 801.649 662.903 801.548 663.013 801.451Z" fill="#808080" fill-opacity="0.3"/>
<path d="M614.132 967.751C613.121 970.705 609.93 972.304 607 971.319C604.045 970.306 602.445 967.114 603.428 964.184C604.439 961.23 607.629 959.631 610.56 960.616C613.517 961.577 615.091 964.794 614.132 967.751Z" fill="#808080" fill-opacity="0.3"/>
<path d="M668.848 803.835C669.834 800.853 668.234 797.661 665.276 796.701C662.294 795.712 659.103 797.311 658.144 800.269C657.133 803.223 658.758 806.442 661.716 807.403C664.674 808.364 667.889 806.793 668.848 803.835Z" fill="#808080" fill-opacity="0.3"/>
<path d="M499.733 392.466L603.04 509.154C603.308 509.456 603.774 509.485 604.104 509.193C604.433 508.901 604.462 508.435 604.194 508.132L500.887 391.444L499.733 392.466Z" fill="#808080" fill-opacity="0.3"/>
<path d="M599.387 512.389C601.456 514.725 605.031 514.944 607.366 512.876C609.701 510.809 609.917 507.234 607.849 504.898C605.78 502.561 602.205 502.343 599.87 504.41C597.508 506.502 597.319 510.052 599.387 512.389Z" fill="#808080" fill-opacity="0.3"/>
<path d="M603.127 529.355C603.21 529.282 603.344 529.212 603.475 529.194L772.814 494.749C773.234 494.671 773.609 494.928 773.687 495.348C773.766 495.769 773.509 496.143 773.089 496.222L603.75 530.667C603.329 530.745 602.955 530.488 602.849 530.092C602.816 529.778 602.935 529.525 603.127 529.355Z" fill="#808080" fill-opacity="0.3"/>
<path d="M604.761 514.2C601.682 514.818 598.707 512.842 598.112 509.79C597.492 506.71 599.466 503.737 602.518 503.143C605.597 502.525 608.572 504.501 609.167 507.554C609.79 510.582 607.816 513.555 604.761 514.2Z" fill="#808080" fill-opacity="0.3"/>
<path d="M774.074 500.987C777.153 500.37 779.103 497.369 778.48 494.341C777.86 491.261 774.858 489.309 771.831 489.93C768.752 490.548 766.802 493.549 767.425 496.577C768.044 499.657 771.046 501.608 774.074 500.987Z" fill="#808080" fill-opacity="0.3"/>
<path d="M499.758 392.442L603.064 509.13C603.332 509.432 603.798 509.461 604.101 509.193C604.403 508.926 604.458 508.435 604.191 508.133L500.884 391.445L499.758 392.442Z" fill="#808080" fill-opacity="0.3"/>
<path d="M599.385 512.389C601.454 514.725 605.029 514.944 607.364 512.876C609.699 510.809 609.915 507.234 607.847 504.898C605.778 502.561 602.203 502.343 599.868 504.41C597.533 506.477 597.317 510.052 599.385 512.389Z" fill="#808080" fill-opacity="0.3"/>
<path d="M275.65 590.851L378.957 707.539C379.224 707.842 379.69 707.87 379.993 707.603C380.295 707.335 380.323 706.869 380.055 706.567L276.749 589.878L275.65 590.851Z" fill="#808080" fill-opacity="0.3"/>
<path d="M375.304 710.774C377.372 713.111 380.947 713.329 383.282 711.262C385.617 709.195 385.834 705.62 383.765 703.283C381.696 700.947 378.122 700.728 375.787 702.796C373.452 704.863 373.235 708.438 375.304 710.774Z" fill="#808080" fill-opacity="0.3"/>
<path d="M379.072 706.455C379.154 706.382 379.288 706.312 379.419 706.294L548.758 671.849C549.179 671.771 549.553 672.028 549.659 672.424C549.738 672.845 549.481 673.22 549.06 673.298L379.694 707.767C379.273 707.846 378.899 707.589 378.793 707.192C378.76 706.878 378.879 706.625 379.072 706.455Z" fill="#808080" fill-opacity="0.3"/>
<path d="M380.706 712.561C377.627 713.178 374.652 711.202 374.057 708.15C373.438 705.07 375.411 702.097 378.463 701.503C381.543 700.885 384.517 702.861 385.112 705.914C385.708 708.966 383.734 711.94 380.706 712.561Z" fill="#808080" fill-opacity="0.3"/>
<path d="M550.02 678.087C553.099 677.469 555.049 674.469 554.426 671.44C553.807 668.361 550.805 666.409 547.777 667.03C544.698 667.648 542.748 670.649 543.371 673.677C543.991 676.757 546.965 678.732 550.02 678.087Z" fill="#808080" fill-opacity="0.3"/>
<path d="M603.129 508.093C603.322 507.923 603.611 507.863 603.867 507.93C604.275 508.059 604.458 508.487 604.356 508.87L549.613 672.81C549.484 673.218 549.057 673.4 548.674 673.299C548.265 673.17 548.083 672.742 548.184 672.359L602.928 508.419C602.961 508.291 603.047 508.166 603.129 508.093Z" fill="#808080" fill-opacity="0.3"/>
<path d="M554.224 674.366C553.238 677.348 550.023 678.919 547.092 677.934C544.11 676.946 542.537 673.73 543.52 670.8C544.507 667.818 547.722 666.247 550.652 667.232C553.634 668.22 555.235 671.412 554.224 674.366Z" fill="#808080" fill-opacity="0.3"/>
<path d="M608.991 510.454C610.002 507.499 608.377 504.28 605.419 503.319C602.437 502.331 599.246 503.93 598.287 506.887C597.277 509.841 598.902 513.061 601.86 514.022C604.79 515.007 608.008 513.383 608.991 510.454Z" fill="#808080" fill-opacity="0.3"/>
<path d="M23.1643 814.383L20.9116 816.377L155.058 789.062C155.478 788.984 155.711 788.582 155.656 788.189C155.578 787.768 155.176 787.535 154.783 787.589L23.1643 814.383Z" fill="#808080" fill-opacity="0.3"/>
<path d="M217.974 1058.06L266.269 913.462C266.398 913.054 266.188 912.651 265.808 912.498C265.527 912.403 265.262 912.49 265.07 912.661C264.987 912.734 264.902 912.858 264.868 912.986L216.83 1056.77L217.974 1058.06Z" fill="#808080" fill-opacity="0.3"/>
<path d="M154.462 787.726C154.764 787.458 155.231 787.487 155.498 787.789L266.106 912.724C266.373 913.026 266.345 913.492 266.043 913.76C265.741 914.027 265.275 913.999 265.007 913.696L154.399 788.762C154.104 788.484 154.133 788.017 154.462 787.726Z" fill="#808080" fill-opacity="0.3"/>
<path d="M23.1896 814.359L20.937 816.353L155.056 789.063C155.476 788.984 155.709 788.583 155.654 788.189C155.576 787.768 155.174 787.536 154.781 787.59L23.1896 814.359Z" fill="#808080" fill-opacity="0.3"/>
<path d="M154.434 787.751C154.736 787.484 155.203 787.512 155.47 787.815L266.078 912.749C266.345 913.051 266.317 913.518 266.015 913.785C265.713 914.053 265.247 914.024 264.979 913.722L154.396 788.815C154.076 788.509 154.132 788.019 154.434 787.751Z" fill="#808080" fill-opacity="0.3"/>
<path d="M265.041 912.686C265.123 912.613 265.257 912.543 265.388 912.525L428.806 879.252C429.227 879.173 429.601 879.43 429.707 879.827C429.786 880.248 429.529 880.622 429.133 880.728L265.691 913.973C265.27 914.052 264.896 913.795 264.79 913.398C264.753 913.136 264.848 912.856 265.041 912.686Z" fill="#808080" fill-opacity="0.3"/>
<path d="M338.363 1194.05L486.881 1163.81C487.302 1163.74 487.534 1163.33 487.456 1162.91C487.377 1162.49 486.975 1162.26 486.582 1162.31L337.219 1192.75L338.363 1194.05Z" fill="#808080" fill-opacity="0.3"/>
<path d="M539.067 1004.35C539.26 1004.18 539.549 1004.12 539.805 1004.18C540.213 1004.31 540.396 1004.74 540.267 1005.15L487.432 1163.33C487.303 1163.74 486.876 1163.92 486.493 1163.82C486.084 1163.69 485.902 1163.26 486.031 1162.85L538.866 1004.67C538.899 1004.54 538.958 1004.44 539.067 1004.35Z" fill="#808080" fill-opacity="0.3"/>
<path d="M428.46 879.412C428.762 879.144 429.228 879.173 429.496 879.475L540.103 1004.41C540.371 1004.71 540.343 1005.18 540.041 1005.45C539.738 1005.71 539.272 1005.68 539.004 1005.38L428.397 880.448C428.102 880.17 428.13 879.703 428.46 879.412Z" fill="#808080" fill-opacity="0.3"/>
<path d="M265.041 912.686C265.123 912.613 265.257 912.543 265.388 912.525L428.779 879.276C429.2 879.198 429.574 879.455 429.68 879.851C429.759 880.272 429.502 880.646 429.106 880.752L265.691 913.973C265.27 914.052 264.896 913.795 264.79 913.398C264.753 913.136 264.848 912.856 265.041 912.686Z" fill="#808080" fill-opacity="0.3"/>
<path d="M217.974 1058.06L266.242 913.486C266.371 913.078 266.161 912.675 265.753 912.546C265.472 912.451 265.207 912.539 265.015 912.709C264.932 912.782 264.847 912.907 264.813 913.035L216.83 1056.77L217.974 1058.06Z" fill="#808080" fill-opacity="0.3"/>
<path d="M428.432 879.436C428.735 879.168 429.201 879.197 429.469 879.499L540.076 1004.43C540.344 1004.74 540.315 1005.2 540.013 1005.47C539.711 1005.74 539.245 1005.71 538.977 1005.41L428.394 880.499C428.074 880.194 428.103 879.727 428.432 879.436Z" fill="#808080" fill-opacity="0.3"/>
<path d="M549.773 1432.84L598.068 1288.24C598.196 1287.83 597.987 1287.43 597.606 1287.27C597.326 1287.18 597.06 1287.27 596.868 1287.44C596.786 1287.51 596.7 1287.63 596.666 1287.76L548.629 1431.55L549.773 1432.84Z" fill="#808080" fill-opacity="0.3"/>
<path d="M486.26 1162.5C486.563 1162.23 487.029 1162.26 487.297 1162.57L597.904 1287.5C598.172 1287.8 598.144 1288.27 597.841 1288.54C597.539 1288.8 597.073 1288.78 596.805 1288.47L486.198 1163.54C485.903 1163.26 485.931 1162.79 486.26 1162.5Z" fill="#808080" fill-opacity="0.3"/>
<path d="M338.363 1194.05L486.881 1163.81C487.302 1163.74 487.534 1163.33 487.456 1162.91C487.377 1162.49 486.975 1162.26 486.582 1162.31L337.219 1192.75L338.363 1194.05Z" fill="#808080" fill-opacity="0.3"/>
<path d="M486.232 1162.53C486.534 1162.26 487 1162.29 487.268 1162.59L597.876 1287.53C598.143 1287.83 598.115 1288.29 597.813 1288.56C597.511 1288.83 597.044 1288.8 596.777 1288.5L486.169 1163.56C485.874 1163.29 485.93 1162.8 486.232 1162.53Z" fill="#808080" fill-opacity="0.3"/>
<path d="M596.839 1287.46C596.921 1287.39 597.056 1287.32 597.187 1287.3L760.605 1254.03C761.025 1253.95 761.4 1254.21 761.506 1254.6C761.584 1255.02 761.328 1255.4 760.907 1255.48L597.489 1288.75C597.068 1288.83 596.694 1288.57 596.588 1288.17C596.527 1287.88 596.647 1287.63 596.839 1287.46Z" fill="#808080" fill-opacity="0.3"/>
<path d="M539.067 1004.35C539.26 1004.18 539.549 1004.12 539.805 1004.18C540.213 1004.31 540.396 1004.74 540.267 1005.15L487.432 1163.33C487.303 1163.74 486.876 1163.92 486.493 1163.82C486.084 1163.69 485.902 1163.26 486.031 1162.85L538.866 1004.67C538.899 1004.54 538.958 1004.44 539.067 1004.35Z" fill="#808080" fill-opacity="0.3"/>
<path d="M870.865 1400.38C871.058 1400.21 871.347 1400.15 871.603 1400.22C872.011 1400.35 872.193 1400.78 872.065 1401.18L819.23 1559.36C819.101 1559.77 818.674 1559.95 818.29 1559.85C817.882 1559.72 817.7 1559.3 817.829 1558.89L870.664 1400.71C870.697 1400.58 870.755 1400.48 870.865 1400.38Z" fill="#808080" fill-opacity="0.3"/>
<path d="M760.258 1275.45C760.56 1275.18 761.026 1275.21 761.294 1275.51L871.901 1400.45C872.169 1400.75 872.141 1401.21 871.839 1401.48C871.536 1401.75 871.07 1401.72 870.802 1401.42L760.195 1276.48C759.9 1276.21 759.928 1275.74 760.258 1275.45Z" fill="#808080" fill-opacity="0.3"/>
<path d="M596.839 1287.46C596.921 1287.39 597.056 1287.32 597.187 1287.3L760.577 1254.05C760.998 1253.97 761.372 1254.23 761.478 1254.63C761.557 1255.05 761.3 1255.42 760.88 1255.5L597.489 1288.75C597.068 1288.83 596.694 1288.57 596.588 1288.17C596.527 1287.88 596.647 1287.63 596.839 1287.46Z" fill="#808080" fill-opacity="0.3"/>
<path d="M549.773 1432.84L598.04 1288.26C598.169 1287.85 597.959 1287.45 597.551 1287.32C597.271 1287.23 597.006 1287.32 596.813 1287.49C596.731 1287.56 596.645 1287.68 596.612 1287.81L548.604 1431.52L549.773 1432.84Z" fill="#808080" fill-opacity="0.3"/>
<path d="M760.229 1275.47C760.531 1275.2 760.998 1275.23 761.265 1275.53L871.873 1400.47C872.141 1400.77 872.112 1401.24 871.81 1401.51C871.508 1401.77 871.042 1401.74 870.774 1401.44L760.167 1276.51C759.871 1276.23 759.9 1275.76 760.229 1275.47Z" fill="#808080" fill-opacity="0.3"/>
<path d="M870.865 1400.38C871.058 1400.21 871.347 1400.15 871.603 1400.22C872.011 1400.35 872.193 1400.78 872.065 1401.18L819.23 1559.36C819.101 1559.77 818.674 1559.95 818.29 1559.85C817.882 1559.72 817.7 1559.3 817.829 1558.89L870.664 1400.71C870.697 1400.58 870.755 1400.48 870.865 1400.38Z" fill="#808080" fill-opacity="0.3"/>
</g>
</svg>
