<svg width="357" height="342" viewBox="0 0 357 342" fill="none" xmlns="http://www.w3.org/2000/svg">
<g opacity="0.2">
<path d="M0.269002 47.4479C0.421967 48.324 1.22174 48.939 2.1186 48.8535C3.06449 48.7601 3.74184 47.9151 3.6454 46.9845C3.58044 46.4011 3.24487 45.9171 2.75421 45.6546L0.269002 47.4479Z" fill="#636363"/>
<path d="M0.26832 47.4484C0.365296 47.9812 0.716369 48.4678 1.24955 48.7133C2.11785 49.1006 3.1268 48.7151 3.50456 47.8534C3.8683 47.0291 3.53679 46.0763 2.75353 45.655L0.26832 47.4484Z" fill="#636363"/>
<path d="M32.6987 89.7708C32.5996 89.8423 32.4601 89.8197 32.3885 89.7206L1.76707 47.2853C1.69555 47.1862 1.71808 47.0466 1.81712 46.9751C1.91616 46.9037 2.0557 46.9263 2.12721 47.0254L32.7487 89.4607C32.8292 89.5533 32.8067 89.6928 32.6987 89.7708Z" fill="#636363"/>
<path d="M33.9489 88.5812C34.5016 89.3471 34.3289 90.4171 33.5635 90.9694C32.7982 91.5217 31.7282 91.3483 31.1756 90.5825C30.623 89.8166 30.7956 88.7466 31.561 88.1943C32.3264 87.642 33.3963 87.8154 33.9489 88.5812Z" fill="#636363"/>
<path d="M0.268813 47.4488C0.308802 47.694 0.404318 47.9402 0.560357 48.1564C1.11299 48.9223 2.18292 49.0956 2.94829 48.5434C3.71365 47.9911 3.88634 46.921 3.33371 46.1552C3.17767 45.9389 2.9806 45.7797 2.75402 45.6555L0.268813 47.4488Z" fill="#636363"/>
<path d="M0.269002 47.4479C0.421967 48.324 1.22174 48.939 2.1186 48.8535C3.06449 48.7601 3.74184 47.9151 3.6454 46.9845C3.58044 46.4011 3.24487 45.9171 2.75421 45.6546L0.269002 47.4479Z" fill="#636363"/>
<path d="M32.6898 89.7772C32.5908 89.8486 32.4513 89.826 32.3798 89.7269L1.75828 47.2916C1.68676 47.1925 1.70926 47.053 1.8083 46.9815C1.90734 46.91 2.04691 46.9326 2.11842 47.0317L32.7399 89.467C32.8204 89.5597 32.7979 89.6992 32.6898 89.7772Z" fill="#636363"/>
<path d="M33.9392 88.5873C34.4918 89.3532 34.3191 90.4232 33.5538 90.9755C32.7884 91.5278 31.7185 91.3544 31.1658 90.5886C30.6132 89.8227 30.7859 88.7527 31.5512 88.2004C32.3166 87.6481 33.3865 87.8215 33.9392 88.5873Z" fill="#636363"/>
<path d="M0.258559 47.4547C0.298548 47.6998 0.394064 47.9461 0.550103 48.1623C1.10274 48.9282 2.17266 49.1015 2.93803 48.5492C3.7034 47.9969 3.87609 46.9269 3.32345 46.161C3.16742 45.9448 2.97034 45.7856 2.74377 45.6613L0.258559 47.4547Z" fill="#636363"/>
<path d="M84.7262 84.4934C84.6992 84.5129 84.6567 84.5299 84.6167 84.5313L32.5787 89.8162C32.4497 89.8271 32.3447 89.7384 32.3337 89.6094C32.3227 89.4803 32.4112 89.3753 32.5338 89.3554L84.5717 84.0705C84.7007 84.0596 84.8058 84.1483 84.8168 84.2773C84.8263 84.3664 84.7893 84.4479 84.7262 84.4934Z" fill="#636363"/>
<path d="M32.7384 91.2898C31.7925 91.3832 30.9562 90.6987 30.8688 89.7616C30.7748 88.8154 31.4587 87.9794 32.3956 87.8925C33.335 87.7901 34.1778 88.4836 34.2652 89.4207C34.3526 90.3579 33.6688 91.1939 32.7384 91.2898Z" fill="#636363"/>
<path d="M84.7615 86.0025C85.7008 85.9001 86.3847 85.0641 86.2883 84.1335C86.1853 83.1938 85.3491 82.5093 84.4187 82.6052C83.4793 82.7076 82.7954 83.5437 82.8919 84.4743C82.9858 85.4204 83.8311 86.0984 84.7615 86.0025Z" fill="#636363"/>
<path d="M84.7281 84.493C84.6651 84.5385 84.576 84.5479 84.501 84.5198C84.382 84.4687 84.3399 84.3346 84.391 84.2156L105.807 36.4954C105.865 36.3854 105.993 36.3345 106.112 36.3856C106.231 36.4367 106.273 36.5708 106.231 36.6833L84.8141 84.4035C84.7846 84.4385 84.7641 84.467 84.7281 84.493Z" fill="#636363"/>
<path d="M86.149 85.0018C85.7557 85.861 84.7468 86.2466 83.894 85.8617C83.0257 85.4744 82.6487 84.4585 83.0329 83.6058C83.4261 82.7465 84.4351 82.361 85.2879 82.7459C86.1562 83.1332 86.5422 84.1426 86.149 85.0018Z" fill="#636363"/>
<path d="M107.572 37.2906C107.959 36.4224 107.573 35.413 106.711 35.0347C105.843 34.6473 104.834 35.0328 104.456 35.8946C104.063 36.7538 104.455 37.7722 105.317 38.1506C106.17 38.5354 107.179 38.1499 107.572 37.2906Z" fill="#636363"/>
<path d="M106.145 36.7723C106.046 36.8437 105.907 36.8212 105.835 36.722L75.2135 -5.71326C75.142 -5.81236 75.1646 -5.95194 75.2636 -6.02341C75.3626 -6.09489 75.5022 -6.07225 75.5737 -5.97315L106.195 36.4622C106.267 36.5613 106.244 36.7008 106.145 36.7723Z" fill="#636363"/>
<path d="M107.393 35.5829C107.946 36.3488 107.773 37.4188 107.008 37.9711C106.243 38.5234 105.173 38.35 104.62 37.5842C104.067 36.8183 104.24 35.7483 105.005 35.196C105.771 34.6437 106.841 34.8171 107.393 35.5829Z" fill="#636363"/>
<path d="M0.260495 47.4547C0.357471 47.9876 0.708571 48.4741 1.24176 48.7196C2.11006 49.107 3.11901 48.7214 3.49676 47.8597C3.86051 47.0355 3.52897 46.0827 2.74571 45.6614L0.260495 47.4547Z" fill="#636363"/>
<path d="M106.135 36.7791C106.036 36.8506 105.897 36.828 105.825 36.7289L75.2036 -5.70644C75.1321 -5.80555 75.1546 -5.94513 75.2537 -6.0166C75.3527 -6.08807 75.4923 -6.06546 75.5638 -5.96635L106.185 36.469C106.266 36.5616 106.234 36.7076 106.135 36.7791Z" fill="#636363"/>
<path d="M107.385 35.5893C107.938 36.3551 107.765 37.4251 107 37.9774C106.234 38.5297 105.164 38.3564 104.612 37.5905C104.059 36.8247 104.232 35.7546 104.997 35.2023C105.762 34.6501 106.832 34.8234 107.385 35.5893Z" fill="#636363"/>
<path d="M158.172 31.4944C158.136 31.5204 158.102 31.5309 158.062 31.5324L106.024 36.8172C105.895 36.8281 105.79 36.7395 105.77 36.6169C105.759 36.4878 105.848 36.3829 105.97 36.3629L158.008 31.0781C158.137 31.0672 158.242 31.1558 158.262 31.2784C158.272 31.3674 158.235 31.449 158.172 31.4944Z" fill="#636363"/>
<path d="M106.175 38.2976C105.23 38.391 104.393 37.7064 104.306 36.7693C104.203 35.8297 104.896 34.9872 105.833 34.9003C106.772 34.7979 107.615 35.4914 107.702 36.4285C107.799 37.3592 107.115 38.1952 106.175 38.2976Z" fill="#636363"/>
<path d="M158.206 33.0037C159.146 32.9013 159.83 32.0653 159.733 31.1347C159.63 30.1951 158.794 29.5106 157.864 29.6065C156.924 29.7089 156.24 30.5449 156.337 31.4755C156.433 32.4061 157.267 33.1061 158.206 33.0037Z" fill="#636363"/>
<path d="M158.172 31.4933C158.109 31.5388 158.02 31.5482 157.945 31.5202C157.826 31.4691 157.784 31.335 157.826 31.2224L179.243 -16.4977C179.3 -16.6077 179.428 -16.6587 179.547 -16.6076C179.666 -16.5565 179.708 -16.4223 179.657 -16.3033L158.241 31.4168C158.229 31.4388 158.199 31.4738 158.172 31.4933Z" fill="#636363"/>
<path d="M159.594 32.0026C159.201 32.8618 158.192 33.2473 157.339 32.8625C156.471 32.4752 156.093 31.4593 156.478 30.6066C156.871 29.7473 157.88 29.3618 158.733 29.7466C159.601 30.134 159.978 31.1498 159.594 32.0026Z" fill="#636363"/>
<path d="M231.608 -21.4976C231.572 -21.4716 231.539 -21.4611 231.499 -21.4596L179.461 -16.1748C179.331 -16.1639 179.226 -16.2525 179.215 -16.3816C179.204 -16.5107 179.293 -16.6156 179.416 -16.6356L231.454 -21.9204C231.583 -21.9313 231.688 -21.8427 231.699 -21.7136C231.708 -21.6246 231.68 -21.5496 231.608 -21.4976Z" fill="#636363"/>
<path d="M84.7267 84.4931C84.6997 84.5126 84.6572 84.5296 84.6172 84.5311L32.5882 89.8094C32.4592 89.8203 32.3541 89.7317 32.3431 89.6026C32.3321 89.4736 32.4207 89.3686 32.5432 89.3487L84.5722 84.0703C84.7012 84.0594 84.8063 84.148 84.8173 84.2771C84.8268 84.3662 84.7897 84.4477 84.7267 84.4931Z" fill="#636363"/>
<path d="M84.4186 82.6053C85.3645 82.5119 86.2008 83.1964 86.2882 84.1335C86.3912 85.0731 85.6983 85.9156 84.7614 86.0025C83.8155 86.0959 82.9792 85.4114 82.8918 84.4743C82.7954 83.5437 83.4817 82.6922 84.4186 82.6053Z" fill="#636363"/>
<path d="M32.3893 87.8832C31.4499 87.9856 30.766 88.8217 30.8624 89.7523C30.9564 90.6984 31.8016 91.3764 32.732 91.2805C33.6714 91.1781 34.3553 90.3421 34.2588 89.4114C34.1714 88.4743 33.3287 87.7808 32.3893 87.8832Z" fill="#636363"/>
<path d="M167.381 121.634C167.318 121.68 167.229 121.689 167.154 121.661C167.035 121.61 166.993 121.476 167.044 121.357L188.46 73.6368C188.511 73.5178 188.645 73.4758 188.758 73.5179C188.877 73.5691 188.919 73.7032 188.868 73.8222L167.451 121.542C167.437 121.58 167.408 121.615 167.381 121.634Z" fill="#636363"/>
<path d="M168.808 122.152C168.415 123.011 167.406 123.397 166.553 123.012C165.694 122.618 165.308 121.609 165.692 120.756C166.085 119.897 167.094 119.511 167.947 119.896C168.809 120.275 169.195 121.284 168.808 122.152Z" fill="#636363"/>
<path d="M190.225 74.4319C190.612 73.5636 190.226 72.5543 189.364 72.1759C188.496 71.7886 187.487 72.1741 187.109 73.0359C186.716 73.8951 187.108 74.9135 187.97 75.2918C188.832 75.6701 189.838 75.3001 190.225 74.4319Z" fill="#636363"/>
<path d="M188.796 73.9141C188.697 73.9856 188.558 73.963 188.486 73.8639L157.865 31.4286C157.793 31.3295 157.816 31.1899 157.915 31.1184C158.014 31.047 158.154 31.0696 158.225 31.1687L188.847 73.604C188.918 73.7031 188.896 73.8427 188.796 73.9141Z" fill="#636363"/>
<path d="M190.052 72.7341C190.605 73.4999 190.432 74.5699 189.667 75.1222C188.901 75.6745 187.831 75.5011 187.279 74.7353C186.726 73.9695 186.899 72.8994 187.664 72.3471C188.429 71.7948 189.499 71.9682 190.052 72.7341Z" fill="#636363"/>
<path d="M159.432 30.298C158.879 29.5322 157.809 29.3588 157.044 29.9111C156.279 30.4634 156.106 31.5334 156.659 32.2993C157.211 33.0651 158.281 33.2385 159.046 32.6862C159.812 32.1339 159.984 31.0639 159.432 30.298Z" fill="#636363"/>
<path d="M158.172 31.4944C158.136 31.5204 158.103 31.5309 158.063 31.5324L106.034 36.8107C105.905 36.8216 105.8 36.733 105.78 36.6104C105.769 36.4814 105.857 36.3764 105.98 36.3564L158.009 31.0781C158.138 31.0672 158.243 31.1558 158.263 31.2784C158.273 31.3674 158.236 31.449 158.172 31.4944Z" fill="#636363"/>
<path d="M157.864 29.6062C158.81 29.5129 159.647 30.1974 159.734 31.1345C159.837 32.0741 159.144 32.9166 158.207 33.0035C157.261 33.0969 156.425 32.4124 156.338 31.4753C156.241 30.5446 156.919 29.6996 157.864 29.6062Z" fill="#636363"/>
<path d="M105.836 34.8847C104.896 34.9871 104.212 35.8231 104.309 36.7538C104.412 37.6934 105.248 38.3779 106.178 38.282C107.118 38.1796 107.802 37.3435 107.705 36.4129C107.618 35.4758 106.775 34.7823 105.836 34.8847Z" fill="#636363"/>
<path d="M84.7261 84.4927C84.6631 84.5382 84.5741 84.5476 84.499 84.5196C84.38 84.4685 84.338 84.3344 84.389 84.2153L105.806 36.4952C105.863 36.3852 105.991 36.3342 106.11 36.3853C106.229 36.4364 106.271 36.5706 106.229 36.6831L84.8122 84.4033C84.7826 84.4382 84.7621 84.4667 84.7261 84.4927Z" fill="#636363"/>
<path d="M104.448 35.8852C104.841 35.0259 105.85 34.6404 106.703 35.0252C107.562 35.4191 107.948 36.4284 107.564 37.2812C107.171 38.1404 106.162 38.5259 105.309 38.1411C104.447 37.7628 104.055 36.7444 104.448 35.8852Z" fill="#636363"/>
<path d="M83.0315 83.6056C82.6448 84.4739 83.0308 85.4833 83.8926 85.8616C84.7519 86.2555 85.7698 85.8634 86.1476 85.0017C86.5343 84.1334 86.1483 83.1241 85.2865 82.7457C84.4337 82.3609 83.4182 82.7374 83.0315 83.6056Z" fill="#636363"/>
<path d="M188.788 73.9205C188.689 73.9919 188.549 73.9693 188.478 73.8702L157.856 31.4349C157.785 31.3358 157.807 31.1963 157.906 31.1248C158.005 31.0533 158.145 31.0759 158.216 31.175L188.838 73.6103C188.909 73.7094 188.887 73.849 188.788 73.9205Z" fill="#636363"/>
<path d="M190.043 72.7402C190.595 73.506 190.423 74.576 189.657 75.1283C188.892 75.6806 187.822 75.5072 187.269 74.7414C186.717 73.9755 186.889 72.9055 187.655 72.3532C188.42 71.801 189.49 71.9743 190.043 72.7402Z" fill="#636363"/>
<path d="M159.422 30.3044C158.869 29.5385 157.8 29.3652 157.034 29.9175C156.269 30.4697 156.096 31.5398 156.649 32.3056C157.201 33.0714 158.271 33.2448 159.037 32.6925C159.802 32.1402 159.975 31.0702 159.422 30.3044Z" fill="#636363"/>
<path d="M240.826 68.6357C240.79 68.6617 240.756 68.6722 240.716 68.6736L188.678 73.9585C188.549 73.9694 188.444 73.8808 188.433 73.7517C188.422 73.6226 188.511 73.5176 188.64 73.5067L240.678 68.2219C240.807 68.211 240.912 68.2996 240.932 68.4222C240.926 68.5087 240.889 68.5902 240.826 68.6357Z" fill="#636363"/>
<path d="M188.829 75.4391C187.883 75.5325 187.047 74.848 186.96 73.9109C186.857 72.9712 187.55 72.1287 188.486 72.0418C189.426 71.9394 190.269 72.6329 190.356 73.5701C190.452 74.5007 189.766 75.3522 188.829 75.4391Z" fill="#636363"/>
<path d="M240.867 70.1541C241.807 70.0517 242.491 69.2157 242.394 68.2851C242.291 67.3455 241.455 66.661 240.525 66.7569C239.585 66.8593 238.901 67.6953 238.998 68.6259C239.085 69.563 239.921 70.2475 240.867 70.1541Z" fill="#636363"/>
<path d="M240.825 68.6361C240.762 68.6816 240.673 68.6911 240.598 68.663C240.479 68.6119 240.437 68.4778 240.479 68.3652L261.895 20.6451C261.946 20.526 262.08 20.4841 262.193 20.5262C262.312 20.5773 262.354 20.7114 262.312 20.824L240.896 68.5441C240.881 68.5816 240.852 68.6166 240.825 68.6361Z" fill="#636363"/>
<path d="M242.254 69.154C241.86 70.0132 240.851 70.3987 239.999 70.0139C239.139 69.6201 238.753 68.6107 239.137 67.758C239.531 66.8987 240.54 66.5132 241.392 66.8981C242.245 67.2829 242.631 68.2922 242.254 69.154Z" fill="#636363"/>
<path d="M263.661 21.4402C264.047 20.5719 263.661 19.5626 262.8 19.1842C261.931 18.7969 260.922 19.1824 260.545 20.0442C260.151 20.9034 260.544 21.9218 261.406 22.3001C262.268 22.6784 263.283 22.3019 263.661 21.4402Z" fill="#636363"/>
<path d="M262.232 20.9219C262.133 20.9934 261.994 20.9708 261.922 20.8717L231.301 -21.5636C231.229 -21.6627 231.252 -21.8023 231.351 -21.8737C231.45 -21.9452 231.589 -21.9226 231.661 -21.8235L262.282 20.6118C262.363 20.7044 262.34 20.844 262.232 20.9219Z" fill="#636363"/>
<path d="M263.487 19.7424C264.04 20.5082 263.867 21.5782 263.102 22.1305C262.336 22.6828 261.266 22.5094 260.714 21.7436C260.161 20.9778 260.334 19.9077 261.099 19.3554C261.864 18.8031 262.934 18.9765 263.487 19.7424Z" fill="#636363"/>
<path d="M231.609 -21.4978C231.573 -21.4718 231.54 -21.4614 231.499 -21.4599L179.471 -16.1815C179.341 -16.1706 179.236 -16.2592 179.225 -16.3883C179.214 -16.5174 179.303 -16.6224 179.426 -16.6423L231.455 -21.9207C231.584 -21.9316 231.689 -21.843 231.7 -21.7139C231.709 -21.6248 231.681 -21.5498 231.609 -21.4978Z" fill="#636363"/>
<path d="M158.172 31.4943C158.109 31.5398 158.02 31.5492 157.945 31.5212C157.826 31.47 157.784 31.3359 157.826 31.2234L179.242 -16.4967C179.3 -16.6067 179.427 -16.6577 179.546 -16.6066C179.666 -16.5555 179.708 -16.4214 179.656 -16.3023L158.24 31.4178C158.229 31.4398 158.199 31.4748 158.172 31.4943Z" fill="#636363"/>
<path d="M156.478 30.6066C156.092 31.4748 156.478 32.4842 157.339 32.8626C158.199 33.2564 159.217 32.8644 159.594 32.0027C159.981 31.1344 159.595 30.125 158.733 29.7467C157.88 29.3619 156.856 29.7449 156.478 30.6066Z" fill="#636363"/>
<path d="M262.224 20.9278C262.124 20.9993 261.985 20.9767 261.913 20.8776L231.292 -21.5577C231.22 -21.6568 231.243 -21.7964 231.342 -21.8679C231.441 -21.9394 231.581 -21.9167 231.652 -21.8176L262.274 20.6177C262.354 20.7103 262.332 20.8498 262.224 20.9278Z" fill="#636363"/>
<path d="M263.48 19.7475C264.033 20.5133 263.86 21.5833 263.095 22.1356C262.329 22.6879 261.26 22.5146 260.707 21.7487C260.154 20.9829 260.327 19.9129 261.092 19.3606C261.858 18.8083 262.928 18.9816 263.48 19.7475Z" fill="#636363"/>
<path d="M314.261 15.6436C314.234 15.6631 314.191 15.6801 314.151 15.6816L262.113 20.9664C261.984 20.9773 261.879 20.8887 261.859 20.7661C261.848 20.6371 261.937 20.5321 262.066 20.5211L314.104 15.2363C314.233 15.2254 314.338 15.314 314.349 15.4431C314.361 15.5166 314.324 15.5982 314.261 15.6436Z" fill="#636363"/>
<path d="M262.274 22.4406C261.328 22.534 260.491 21.8495 260.404 20.9123C260.31 19.9662 260.994 19.1302 261.931 19.0433C262.87 18.9409 263.713 19.6344 263.8 20.5715C263.888 21.5086 263.21 22.3537 262.274 22.4406Z" fill="#636363"/>
<path d="M314.302 17.1622C315.242 17.0598 315.926 16.2238 315.829 15.2931C315.726 14.3535 314.89 13.669 313.96 13.7649C313.02 13.8673 312.336 14.7033 312.433 15.634C312.52 16.5711 313.366 17.2491 314.302 17.1622Z" fill="#636363"/>
<path d="M314.262 15.6436C314.199 15.6891 314.11 15.6985 314.035 15.6705C313.915 15.6194 313.873 15.4853 313.916 15.3727L335.341 -32.3539C335.392 -32.473 335.526 -32.5149 335.639 -32.4728C335.758 -32.4217 335.8 -32.2876 335.749 -32.1685L314.332 15.5516C314.318 15.5891 314.298 15.6176 314.262 15.6436Z" fill="#636363"/>
<path d="M315.689 16.1615C315.296 17.0207 314.287 17.4062 313.434 17.0214C312.575 16.6276 312.189 15.6182 312.573 14.7655C312.966 13.9062 313.975 13.5207 314.828 13.9055C315.69 14.2839 316.076 15.2932 315.689 16.1615Z" fill="#636363"/>
<path d="M250.031 158.79C249.968 158.836 249.879 158.845 249.804 158.817C249.685 158.766 249.643 158.632 249.685 158.52L271.101 110.799C271.152 110.68 271.286 110.638 271.399 110.681C271.518 110.732 271.56 110.866 271.509 110.985L250.092 158.705C250.087 158.736 250.058 158.771 250.031 158.79Z" fill="#636363"/>
<path d="M251.459 159.308C251.072 160.177 250.056 160.553 249.204 160.168C248.335 159.781 247.958 158.765 248.343 157.912C248.729 157.044 249.745 156.668 250.597 157.052C251.459 157.431 251.836 158.447 251.459 159.308Z" fill="#636363"/>
<path d="M272.876 111.588C273.262 110.72 272.876 109.711 272.014 109.333C271.155 108.939 270.137 109.331 269.759 110.192C269.373 111.061 269.759 112.07 270.621 112.448C271.473 112.833 272.482 112.448 272.876 111.588Z" fill="#636363"/>
<path d="M271.447 111.071C271.348 111.143 271.208 111.12 271.137 111.021L240.515 68.5855C240.444 68.4864 240.466 68.3469 240.565 68.2754C240.664 68.2039 240.804 68.2265 240.875 68.3257L271.497 110.761C271.568 110.86 271.546 111 271.447 111.071Z" fill="#636363"/>
<path d="M272.697 109.882C273.249 110.647 273.076 111.717 272.311 112.27C271.546 112.822 270.476 112.649 269.923 111.883C269.371 111.117 269.543 110.047 270.309 109.495C271.074 108.942 272.144 109.116 272.697 109.882Z" fill="#636363"/>
<path d="M242.072 67.4616C241.52 66.6957 240.45 66.5224 239.685 67.0747C238.919 67.627 238.747 68.697 239.299 69.4628C239.852 70.2287 240.922 70.402 241.687 69.8498C242.461 69.291 242.625 68.2274 242.072 67.4616Z" fill="#636363"/>
<path d="M240.816 68.6416C240.789 68.6611 240.747 68.678 240.707 68.6795L188.678 73.9578C188.549 73.9688 188.444 73.8801 188.433 73.7511C188.422 73.622 188.51 73.517 188.639 73.5061L240.668 68.2277C240.797 68.2168 240.902 68.3054 240.922 68.428C240.916 68.5146 240.879 68.5961 240.816 68.6416Z" fill="#636363"/>
<path d="M240.508 66.754C241.448 66.6516 242.291 67.3451 242.378 68.2822C242.472 69.2283 241.788 70.0643 240.851 70.1512C239.905 70.2446 239.069 69.5601 238.982 68.623C238.885 67.6924 239.569 66.8563 240.508 66.754Z" fill="#636363"/>
<path d="M188.485 72.0413C187.54 72.1346 186.862 72.9797 186.959 73.9103C187.053 74.8564 187.898 75.5344 188.828 75.4385C189.768 75.3361 190.451 74.5001 190.355 73.5695C190.261 72.6233 189.416 71.9453 188.485 72.0413Z" fill="#636363"/>
<path d="M167.371 121.64C167.308 121.686 167.219 121.695 167.144 121.667C167.025 121.616 166.983 121.482 167.034 121.363L188.45 73.6429C188.501 73.5239 188.635 73.4819 188.748 73.524C188.867 73.5752 188.909 73.7093 188.858 73.8283L167.442 121.548C167.428 121.586 167.407 121.614 167.371 121.64Z" fill="#636363"/>
<path d="M187.099 73.0423C187.486 72.1741 188.502 71.7975 189.354 72.1824C190.214 72.5762 190.6 73.5856 190.216 74.4383C189.829 75.3065 188.813 75.6831 187.961 75.2982C187.108 74.9134 186.706 73.9015 187.099 73.0423Z" fill="#636363"/>
<path d="M165.676 120.754C165.289 121.622 165.675 122.631 166.537 123.01C167.396 123.403 168.414 123.011 168.792 122.15C169.179 121.281 168.793 120.272 167.931 119.894C167.078 119.509 166.069 119.894 165.676 120.754Z" fill="#636363"/>
<path d="M271.439 111.077C271.34 111.149 271.2 111.126 271.128 111.027L240.507 68.5917C240.435 68.4925 240.458 68.353 240.557 68.2815C240.656 68.2101 240.796 68.2327 240.867 68.3318L271.489 110.767C271.56 110.866 271.538 111.006 271.439 111.077Z" fill="#636363"/>
<path d="M272.689 109.887C273.241 110.653 273.069 111.723 272.303 112.276C271.538 112.828 270.468 112.654 269.915 111.889C269.363 111.123 269.535 110.053 270.301 109.5C271.066 108.948 272.136 109.122 272.689 109.887Z" fill="#636363"/>
<path d="M242.073 67.4611C241.52 66.6952 240.45 66.5219 239.685 67.0742C238.92 67.6265 238.747 68.6965 239.3 69.4623C239.852 70.2282 240.922 70.4016 241.688 69.8493C242.453 69.297 242.626 68.2269 242.073 67.4611Z" fill="#636363"/>
<path d="M323.466 105.8C323.43 105.826 323.397 105.836 323.357 105.837L271.319 111.122C271.19 111.133 271.085 111.045 271.074 110.916C271.063 110.786 271.151 110.681 271.28 110.671L323.318 105.386C323.447 105.375 323.553 105.463 323.564 105.593C323.567 105.673 323.538 105.748 323.466 105.8Z" fill="#636363"/>
<path d="M271.478 112.596C270.532 112.689 269.696 112.005 269.609 111.068C269.515 110.122 270.198 109.286 271.135 109.199C272.081 109.105 272.918 109.79 273.005 110.727C273.101 111.658 272.409 112.5 271.478 112.596Z" fill="#636363"/>
<path d="M323.517 107.311C324.463 107.218 325.14 106.373 325.044 105.442C324.95 104.496 324.104 103.818 323.174 103.914C322.228 104.007 321.551 104.852 321.647 105.783C321.735 106.72 322.571 107.405 323.517 107.311Z" fill="#636363"/>
<path d="M323.466 105.8C323.403 105.845 323.314 105.855 323.239 105.826C323.12 105.775 323.078 105.641 323.129 105.522L344.546 57.802C344.597 57.683 344.731 57.6411 344.843 57.6832C344.962 57.7343 345.004 57.8684 344.962 57.9809L323.546 105.701C323.523 105.745 323.502 105.774 323.466 105.8Z" fill="#636363"/>
<path d="M324.894 106.317C324.507 107.186 323.491 107.562 322.639 107.177C321.779 106.783 321.393 105.774 321.778 104.921C322.164 104.053 323.18 103.677 324.033 104.061C324.894 104.44 325.28 105.449 324.894 106.317Z" fill="#636363"/>
<path d="M346.311 58.597C346.697 57.7288 346.311 56.7194 345.449 56.3411C344.59 55.9472 343.572 56.3392 343.194 57.201C342.808 58.0692 343.194 59.0786 344.056 59.4569C344.908 59.8418 345.926 59.4498 346.311 58.597Z" fill="#636363"/>
<path d="M344.884 58.0784C344.785 58.1499 344.645 58.1273 344.574 58.0282L313.952 15.5929C313.881 15.4938 313.903 15.3542 314.002 15.2827C314.101 15.2113 314.241 15.2339 314.312 15.333L344.934 57.7683C345.014 57.8609 344.992 58.0005 344.884 58.0784Z" fill="#636363"/>
<path d="M346.133 56.8888C346.686 57.6547 346.513 58.7247 345.748 59.277C344.982 59.8293 343.912 59.6559 343.36 58.8901C342.807 58.1242 342.98 57.0542 343.745 56.5019C344.51 55.9496 345.58 56.123 346.133 56.8888Z" fill="#636363"/>
<path d="M315.519 14.4626C314.966 13.6967 313.896 13.5234 313.131 14.0757C312.365 14.6279 312.193 15.698 312.745 16.4638C313.298 17.2296 314.368 17.403 315.133 16.8507C315.899 16.2984 316.071 15.2284 315.519 14.4626Z" fill="#636363"/>
<path d="M314.252 15.6505C314.225 15.6699 314.183 15.6869 314.143 15.6884L262.114 20.9667C261.985 20.9776 261.88 20.889 261.86 20.7664C261.849 20.6374 261.937 20.5324 262.066 20.5214L314.095 15.2431C314.224 15.2322 314.329 15.3208 314.349 15.4434C314.352 15.5234 314.315 15.605 314.252 15.6505Z" fill="#636363"/>
<path d="M313.945 13.7623C314.884 13.6599 315.727 14.3534 315.815 15.2905C315.909 16.2366 315.225 17.0726 314.288 17.1595C313.342 17.2529 312.506 16.5684 312.418 15.6313C312.331 14.6942 313.015 13.8582 313.945 13.7623Z" fill="#636363"/>
<path d="M261.922 19.0498C260.976 19.1431 260.298 19.9882 260.395 20.9188C260.489 21.8649 261.334 22.5429 262.264 22.447C263.204 22.3446 263.888 21.5086 263.791 20.578C263.697 19.6318 262.861 18.9474 261.922 19.0498Z" fill="#636363"/>
<path d="M240.816 68.6425C240.753 68.6879 240.664 68.6974 240.589 68.6693C240.47 68.6182 240.428 68.4841 240.47 68.3716L261.886 20.6514C261.937 20.5324 262.071 20.4905 262.184 20.5326C262.303 20.5837 262.345 20.7178 262.303 20.8303L240.886 68.5504C240.872 68.588 240.843 68.623 240.816 68.6425Z" fill="#636363"/>
<path d="M260.545 20.044C260.931 19.1757 261.947 18.7992 262.8 19.184C263.668 19.5714 264.045 20.5872 263.661 21.44C263.274 22.3082 262.259 22.6847 261.406 22.2999C260.537 21.9126 260.151 20.9032 260.545 20.044Z" fill="#636363"/>
<path d="M239.121 67.7553C238.735 68.6236 239.121 69.6329 239.982 70.0113C240.851 70.3986 241.86 70.0131 242.237 69.1513C242.624 68.2831 242.238 67.2737 241.376 66.8954C240.524 66.5106 239.506 66.9026 239.121 67.7553Z" fill="#636363"/>
<path d="M280.654 201.211C280.555 201.282 280.416 201.26 280.344 201.161L249.723 158.725C249.651 158.626 249.674 158.487 249.773 158.415C249.872 158.344 250.011 158.366 250.083 158.465L280.704 200.901C280.776 201 280.753 201.139 280.654 201.211Z" fill="#636363"/>
<path d="M281.911 200.03C282.464 200.796 282.291 201.866 281.526 202.418C280.761 202.97 279.691 202.797 279.138 202.031C278.585 201.265 278.758 200.195 279.523 199.643C280.289 199.091 281.359 199.264 281.911 200.03Z" fill="#636363"/>
<path d="M251.29 157.594C250.737 156.829 249.667 156.655 248.902 157.207C248.137 157.76 247.964 158.83 248.516 159.596C249.069 160.361 250.139 160.535 250.904 159.983C251.67 159.43 251.842 158.36 251.29 157.594Z" fill="#636363"/>
<path d="M280.646 201.217C280.547 201.289 280.408 201.266 280.336 201.167L249.714 158.732C249.643 158.633 249.665 158.493 249.765 158.422C249.864 158.35 250.003 158.373 250.075 158.472L280.696 200.907C280.768 201.006 280.745 201.146 280.646 201.217Z" fill="#636363"/>
<path d="M281.902 200.037C282.455 200.803 282.282 201.873 281.517 202.425C280.751 202.977 279.681 202.804 279.129 202.038C278.576 201.272 278.749 200.202 279.514 199.65C280.28 199.098 281.349 199.271 281.902 200.037Z" fill="#636363"/>
<path d="M251.28 157.601C250.728 156.836 249.658 156.662 248.893 157.215C248.127 157.767 247.955 158.837 248.507 159.603C249.06 160.369 250.13 160.542 250.895 159.99C251.66 159.437 251.833 158.367 251.28 157.601Z" fill="#636363"/>
<path d="M332.683 195.933C332.647 195.959 332.613 195.969 332.573 195.971L280.536 201.255C280.406 201.266 280.301 201.178 280.29 201.049C280.279 200.92 280.368 200.815 280.497 200.804L332.535 195.519C332.664 195.508 332.769 195.596 332.789 195.719C332.79 195.815 332.746 195.887 332.683 195.933Z" fill="#636363"/>
<path d="M280.686 202.736C279.74 202.829 278.904 202.145 278.817 201.207C278.714 200.268 279.407 199.425 280.343 199.338C281.283 199.236 282.126 199.93 282.213 200.867C282.309 201.797 281.623 202.649 280.686 202.736Z" fill="#636363"/>
<path d="M332.725 197.451C333.664 197.349 334.348 196.513 334.252 195.582C334.149 194.642 333.312 193.958 332.382 194.054C331.436 194.147 330.759 194.992 330.855 195.923C330.943 196.86 331.785 197.553 332.725 197.451Z" fill="#636363"/>
<path d="M332.683 195.933C332.62 195.978 332.531 195.988 332.456 195.96C332.337 195.909 332.295 195.775 332.337 195.662L353.753 147.942C353.804 147.823 353.938 147.781 354.051 147.823C354.17 147.874 354.212 148.008 354.17 148.121L332.753 195.841C332.739 195.879 332.71 195.914 332.683 195.933Z" fill="#636363"/>
<path d="M334.111 196.451C333.717 197.31 332.708 197.696 331.856 197.311C330.996 196.917 330.61 195.908 330.994 195.055C331.381 194.187 332.397 193.81 333.249 194.195C334.102 194.58 334.495 195.598 334.111 196.451Z" fill="#636363"/>
<path d="M355.518 148.737C355.905 147.869 355.519 146.859 354.657 146.481C353.789 146.094 352.78 146.479 352.402 147.341C352.009 148.2 352.401 149.219 353.263 149.597C354.125 149.975 355.14 149.599 355.518 148.737Z" fill="#636363"/>
<path d="M354.09 148.219C353.991 148.29 353.852 148.268 353.78 148.169L323.159 105.733C323.087 105.634 323.11 105.495 323.209 105.423C323.308 105.352 323.447 105.374 323.519 105.473L354.14 147.909C354.221 148.001 354.198 148.141 354.09 148.219Z" fill="#636363"/>
<path d="M355.347 147.038C355.9 147.804 355.727 148.874 354.961 149.426C354.196 149.979 353.126 149.805 352.574 149.039C352.021 148.274 352.194 147.204 352.959 146.651C353.724 146.099 354.794 146.272 355.347 147.038Z" fill="#636363"/>
<path d="M324.725 104.603C324.172 103.837 323.102 103.664 322.337 104.216C321.572 104.768 321.399 105.838 321.952 106.604C322.504 107.37 323.574 107.543 324.339 106.991C325.105 106.439 325.277 105.369 324.725 104.603Z" fill="#636363"/>
<path d="M323.466 105.799C323.43 105.825 323.397 105.836 323.357 105.837L271.328 111.115C271.199 111.126 271.094 111.038 271.083 110.909C271.072 110.779 271.16 110.674 271.289 110.664L323.318 105.385C323.447 105.374 323.553 105.463 323.564 105.592C323.567 105.672 323.538 105.747 323.466 105.799Z" fill="#636363"/>
<path d="M323.158 103.911C324.104 103.818 324.941 104.503 325.028 105.44C325.122 106.386 324.438 107.222 323.501 107.309C322.555 107.402 321.719 106.718 321.632 105.78C321.544 104.843 322.222 103.998 323.158 103.911Z" fill="#636363"/>
<path d="M271.138 109.183C270.192 109.276 269.515 110.121 269.611 111.052C269.705 111.998 270.55 112.676 271.481 112.58C272.427 112.487 273.104 111.642 273.008 110.711C272.911 109.781 272.075 109.096 271.138 109.183Z" fill="#636363"/>
<path d="M250.031 158.791C249.968 158.837 249.879 158.846 249.804 158.818C249.685 158.767 249.643 158.633 249.685 158.52L271.102 110.8C271.153 110.681 271.287 110.639 271.399 110.681C271.518 110.732 271.56 110.866 271.509 110.986L250.093 158.706C250.088 158.737 250.058 158.772 250.031 158.791Z" fill="#636363"/>
<path d="M269.754 110.184C270.147 109.325 271.156 108.939 272.009 109.324C272.868 109.718 273.254 110.727 272.87 111.58C272.477 112.439 271.468 112.825 270.615 112.44C269.753 112.061 269.367 111.052 269.754 110.184Z" fill="#636363"/>
<path d="M248.337 157.904C247.95 158.772 248.336 159.782 249.198 160.16C250.058 160.554 251.076 160.162 251.453 159.3C251.846 158.441 251.454 157.422 250.592 157.044C249.739 156.659 248.715 157.042 248.337 157.904Z" fill="#636363"/>
<path d="M354.081 148.225C353.982 148.297 353.843 148.274 353.771 148.175L323.15 105.74C323.078 105.641 323.101 105.501 323.2 105.43C323.299 105.358 323.438 105.381 323.51 105.48L354.131 147.915C354.212 148.008 354.189 148.147 354.081 148.225Z" fill="#636363"/>
<path d="M355.339 147.045C355.891 147.81 355.719 148.88 354.953 149.433C354.188 149.985 353.118 149.812 352.565 149.046C352.013 148.28 352.185 147.21 352.951 146.658C353.716 146.105 354.786 146.279 355.339 147.045Z" fill="#636363"/>
<path d="M324.717 104.609C324.164 103.843 323.094 103.67 322.329 104.222C321.563 104.774 321.391 105.844 321.943 106.61C322.496 107.376 323.566 107.549 324.331 106.997C325.096 106.445 325.269 105.375 324.717 104.609Z" fill="#636363"/>
<path d="M406.121 142.941C406.094 142.96 406.051 142.977 406.011 142.979L353.973 148.264C353.844 148.274 353.739 148.186 353.719 148.063C353.708 147.934 353.797 147.829 353.926 147.818L405.964 142.533C406.093 142.523 406.198 142.611 406.209 142.74C406.228 142.823 406.184 142.895 406.121 142.941Z" fill="#636363"/>
<path d="M354.133 149.737C353.187 149.831 352.351 149.146 352.263 148.209C352.169 147.263 352.853 146.427 353.79 146.34C354.73 146.238 355.572 146.931 355.66 147.868C355.747 148.806 355.07 149.651 354.133 149.737Z" fill="#636363"/>
<path d="M396.913 52.8C396.877 52.826 396.843 52.8365 396.803 52.838L344.774 58.1163C344.645 58.1272 344.54 58.0386 344.529 57.9095C344.518 57.7804 344.607 57.6754 344.736 57.6645L396.765 52.3862C396.894 52.3753 396.999 52.4639 397.019 52.5865C397.013 52.673 396.976 52.7545 396.913 52.8Z" fill="#636363"/>
<path d="M344.575 56.1912C343.629 56.2846 342.952 57.1297 343.048 58.0603C343.142 59.0064 343.987 59.6844 344.918 59.5885C345.863 59.4951 346.541 58.6501 346.444 57.7195C346.357 56.7823 345.521 56.0979 344.575 56.1912Z" fill="#636363"/>
<path d="M323.466 105.799C323.403 105.845 323.314 105.854 323.239 105.826C323.12 105.775 323.078 105.641 323.129 105.522L344.546 57.8018C344.597 57.6828 344.731 57.6409 344.843 57.683C344.962 57.7341 345.004 57.8682 344.962 57.9807L323.546 105.701C323.523 105.745 323.502 105.773 323.466 105.799Z" fill="#636363"/>
<path d="M343.189 57.192C343.582 56.3328 344.591 55.9473 345.444 56.3321C346.303 56.726 346.689 57.7353 346.305 58.5881C345.912 59.4473 344.903 59.8328 344.05 59.448C343.188 59.0697 342.811 58.0538 343.189 57.192Z" fill="#636363"/>
<path d="M321.781 104.906C321.395 105.774 321.781 106.783 322.643 107.162C323.511 107.549 324.52 107.163 324.898 106.302C325.291 105.442 324.898 104.424 324.036 104.046C323.175 103.667 322.159 104.044 321.781 104.906Z" fill="#636363"/>
<path d="M360.332 233.868L332.733 195.622C332.662 195.523 332.522 195.5 332.414 195.578C332.306 195.656 332.284 195.796 332.355 195.895L359.953 234.141L360.332 233.868Z" fill="#636363"/>
<path d="M333.93 194.758C333.378 193.992 332.308 193.819 331.542 194.371C330.777 194.923 330.604 195.993 331.157 196.759C331.71 197.525 332.78 197.698 333.545 197.146C334.319 196.587 334.483 195.524 333.93 194.758Z" fill="#636363"/>
<path d="M332.675 195.938C332.648 195.958 332.605 195.975 332.565 195.976L280.536 201.255C280.407 201.266 280.302 201.177 280.291 201.048C280.28 200.919 280.369 200.814 280.498 200.803L332.527 195.525C332.656 195.514 332.761 195.602 332.781 195.725C332.781 195.82 332.738 195.893 332.675 195.938Z" fill="#636363"/>
<path d="M332.366 194.051C333.312 193.958 334.149 194.642 334.236 195.579C334.33 196.525 333.646 197.361 332.709 197.448C331.763 197.542 330.927 196.857 330.84 195.92C330.743 194.989 331.427 194.153 332.366 194.051Z" fill="#636363"/>
<path d="M280.344 199.338C279.398 199.432 278.721 200.277 278.817 201.207C278.911 202.153 279.756 202.831 280.687 202.736C281.633 202.642 282.31 201.797 282.213 200.866C282.12 199.92 281.274 199.242 280.344 199.338Z" fill="#636363"/>
<path d="M360.323 233.875L332.725 195.629C332.653 195.53 332.514 195.507 332.415 195.579C332.316 195.65 332.284 195.796 332.356 195.896L359.954 234.141L360.323 233.875Z" fill="#636363"/>
<path d="M333.931 194.758C333.379 193.993 332.309 193.819 331.543 194.372C330.778 194.924 330.605 195.994 331.158 196.76C331.711 197.526 332.781 197.699 333.546 197.147C334.311 196.594 334.484 195.524 333.931 194.758Z" fill="#636363"/>
<path d="M406.111 142.947C406.084 142.966 406.042 142.983 406.002 142.985L353.973 148.263C353.844 148.274 353.739 148.186 353.719 148.063C353.708 147.934 353.796 147.829 353.925 147.818L405.963 142.533C406.092 142.522 406.197 142.611 406.217 142.733C406.218 142.829 406.174 142.902 406.111 142.947Z" fill="#636363"/>
<path d="M353.78 146.347C352.835 146.44 352.157 147.285 352.254 148.216C352.348 149.162 353.193 149.84 354.123 149.744C355.069 149.651 355.746 148.806 355.65 147.875C355.556 146.929 354.72 146.245 353.78 146.347Z" fill="#636363"/>
<path d="M332.675 195.939C332.612 195.985 332.523 195.994 332.448 195.966C332.329 195.915 332.286 195.781 332.329 195.668L353.745 147.948C353.796 147.829 353.93 147.787 354.043 147.829C354.162 147.881 354.204 148.015 354.162 148.127L332.745 195.847C332.731 195.885 332.702 195.92 332.675 195.939Z" fill="#636363"/>
<path d="M352.403 147.341C352.789 146.473 353.805 146.096 354.658 146.481C355.526 146.868 355.903 147.884 355.519 148.737C355.132 149.605 354.116 149.982 353.264 149.597C352.395 149.21 352.009 148.2 352.403 147.341Z" fill="#636363"/>
<path d="M330.98 195.052C330.587 195.912 330.98 196.93 331.841 197.308C332.71 197.696 333.719 197.31 334.096 196.448C334.49 195.589 334.097 194.571 333.235 194.193C332.382 193.808 331.364 194.2 330.98 195.052Z" fill="#636363"/>
</g>
</svg>
