<svg width="35" height="28" viewBox="0 0 35 28" fill="none" xmlns="http://www.w3.org/2000/svg">
<path d="M34.1435 3.86742C32.9187 4.39577 31.5858 4.77601 30.2129 4.92411C31.6383 4.0773 32.7057 2.73949 33.2149 1.16167C31.8774 1.95734 30.4121 2.51528 28.8841 2.81074C28.2455 2.128 27.4731 1.5841 26.615 1.21293C25.757 0.841759 24.8317 0.651272 23.8969 0.653337C20.1144 0.653337 17.0724 3.71933 17.0724 7.48177C17.0724 8.01011 17.1365 8.53845 17.2405 9.04678C11.5769 8.75059 6.52558 6.04484 3.1674 1.90215C2.55551 2.94729 2.23485 4.1373 2.2388 5.34838C2.2388 7.71792 3.44358 9.80728 5.28077 11.0361C4.19809 10.9934 3.14076 10.6958 2.19477 10.1675V10.2516C2.19477 13.5697 4.54029 16.3195 7.66632 16.9519C7.07937 17.1044 6.47558 17.1824 5.86915 17.1841C5.42487 17.1841 5.00459 17.14 4.58032 17.08C5.44488 19.7858 7.96251 21.751 10.9605 21.8151C8.61494 23.6523 5.67703 24.733 2.48696 24.733C1.91459 24.733 1.38625 24.7129 0.837891 24.6489C3.86385 26.5902 7.45418 27.7109 11.3207 27.7109C23.8728 27.7109 30.7413 17.3121 30.7413 8.28629C30.7413 7.9901 30.7413 7.69391 30.7213 7.39771C32.0501 6.42508 33.2149 5.2203 34.1435 3.86742Z" fill="#5AE4A9"/>
</svg>
