<svg width="61" height="62" viewBox="0 0 61 62" fill="none" xmlns="http://www.w3.org/2000/svg">
<g clip-path="url(#clip0)">
<path opacity="0.5" d="M30.8975 9.01131V26.2566L45.8616 17.6162V0.370605L30.8975 9.01131V9.01131Z" fill="#13A049"/>
<path opacity="0.5" d="M30.898 9.01131L15.9341 0.370605V17.652L30.898 26.2927V9.01131Z" fill="#A2CC39"/>
<path opacity="0.9" d="M45.8619 0.370605L30.8978 9.01131L15.9339 0.370605L0.969727 9.01131L30.8978 26.2927L60.808 9.01131L45.8619 0.370605Z" fill="url(#paint0_linear)"/>
<path d="M30.8978 26.2926L0.969727 9.01123V26.2926L15.9339 34.9333V52.1969L30.8978 60.8376L45.8619 52.1969V34.9333L60.808 26.2926V9.01123L30.8978 26.2926Z" fill="url(#paint1_linear)"/>
<path d="M30.8975 26.2926V60.8376L45.8616 52.1969V34.9333L60.8077 26.2926V9.01123L30.8975 26.2926Z" fill="url(#paint2_linear)"/>
<path opacity="0.05" d="M30.8975 43.5564V60.8378L45.8616 52.1971L30.8975 43.5564V43.5564Z" fill="white"/>
<path opacity="0.1" d="M30.898 60.8735V43.592L15.9341 52.2328L30.898 60.8735Z" fill="white"/>
<path opacity="0.05" d="M15.9339 17.6521L0.969727 26.2928L15.9339 34.9335L30.8978 26.2928L15.9339 17.6521V17.6521Z" fill="white"/>
<path opacity="0.05" d="M45.8616 17.6521L30.8975 26.2928L45.8616 34.9335L60.8077 26.2928L45.8616 17.6521V17.6521Z" fill="white"/>
</g>
<defs>
<linearGradient id="paint0_linear" x1="60.8152" y1="13.3293" x2="0.969727" y2="13.3293" gradientUnits="userSpaceOnUse">
<stop stop-color="#37BDA6"/>
<stop offset="1" stop-color="#8AD3B8"/>
</linearGradient>
<linearGradient id="paint1_linear" x1="60.8152" y1="34.9234" x2="0.969727" y2="34.9234" gradientUnits="userSpaceOnUse">
<stop offset="0.5" stop-color="#4BB6AD"/>
<stop offset="1" stop-color="#78BBC1"/>
</linearGradient>
<linearGradient id="paint2_linear" x1="30.8921" y1="34.9234" x2="60.8146" y2="34.9234" gradientUnits="userSpaceOnUse">
<stop stop-color="#4379A7"/>
<stop offset="1" stop-color="#7CC9B8"/>
</linearGradient>
<clipPath id="clip0">
<rect width="60" height="60.7031" fill="white" transform="translate(0.969727 0.370605)"/>
</clipPath>
</defs>
</svg>
