<svg width="33" height="33" viewBox="0 0 33 33" fill="none" xmlns="http://www.w3.org/2000/svg">
<path d="M31.1965 0.171875H1.73737C1.02891 0.171875 0.456543 0.744246 0.456543 1.45271V30.9118C0.456543 31.6203 1.02891 32.1927 1.73737 32.1927H31.1965C31.9049 32.1927 32.4773 31.6203 32.4773 30.9118V1.45271C32.4773 0.744246 31.9049 0.171875 31.1965 0.171875ZM9.95471 27.4576H5.20362V12.1757H9.95471V27.4576ZM7.58117 10.0863C7.03652 10.0863 6.5041 9.9248 6.05124 9.62221C5.59839 9.31962 5.24543 8.88954 5.037 8.38635C4.82857 7.88316 4.77404 7.32947 4.88029 6.79528C4.98655 6.2611 5.24882 5.77042 5.63394 5.3853C6.01907 5.00018 6.50975 4.7379 7.04393 4.63165C7.57811 4.52539 8.13181 4.57993 8.63499 4.78835C9.13818 4.99678 9.56827 5.34974 9.87086 5.8026C10.1734 6.25546 10.335 6.78787 10.335 7.33252C10.3309 8.85351 9.09815 10.0863 7.58117 10.0863ZM27.7422 27.4576H22.9952V20.0248C22.9952 18.2516 22.9631 15.9741 20.5256 15.9741C18.056 15.9741 17.6757 17.9034 17.6757 19.8967V27.4576H12.9326V12.1757H17.4876V14.265H17.5516C18.184 13.0642 19.7331 11.7954 22.0466 11.7954C26.8577 11.7954 27.7422 14.9615 27.7422 19.0761V27.4576Z" fill="#5AE4A9"/>
</svg>
