<svg width="28" height="23" viewBox="0 0 28 23" fill="none" xmlns="http://www.w3.org/2000/svg">
<g clip-path="url(#clip0)">
<path d="M26.311 1.37646H1.93604C1.41748 1.37646 0.998535 1.79541 0.998535 2.31396V21.064C0.998535 21.5825 1.41748 22.0015 1.93604 22.0015H26.311C26.8296 22.0015 27.2485 21.5825 27.2485 21.064V2.31396C27.2485 1.79541 26.8296 1.37646 26.311 1.37646ZM25.1392 4.62256V19.8921H3.10791V4.62256L2.29932 3.99268L3.45068 2.51318L4.70459 3.48877H23.5454L24.7993 2.51318L25.9507 3.99268L25.1392 4.62256ZM23.5454 3.48584L14.1235 10.8101L4.70166 3.48584L3.44775 2.51025L2.29639 3.98975L3.10498 4.61963L13.1128 12.4009C13.4006 12.6245 13.7547 12.7459 14.1191 12.7459C14.4836 12.7459 14.8377 12.6245 15.1255 12.4009L25.1392 4.62256L25.9478 3.99268L24.7964 2.51318L23.5454 3.48584Z" fill="#5AE4A9"/>
</g>
<defs>
<clipPath id="clip0">
<rect width="27" height="22" fill="white" transform="translate(0.998535 0.688965)"/>
</clipPath>
</defs>
</svg>
