<svg width="31" height="31" viewBox="0 0 31 31" fill="none" xmlns="http://www.w3.org/2000/svg">
<path d="M30.265 7.38725V2.05391C30.265 1.70029 30.1245 1.36115 29.8744 1.1111C29.6244 0.861056 29.2853 0.720581 28.9316 0.720581H2.26497C1.91135 0.720581 1.57221 0.861056 1.32216 1.1111C1.07212 1.36115 0.931641 1.70029 0.931641 2.05391V7.38725H30.265Z" fill="#00FF92"/>
<path d="M0.931641 10.054V28.7206C0.931641 29.0742 1.07212 29.4134 1.32216 29.6634C1.57221 29.9135 1.91135 30.054 2.26497 30.054H8.93164V10.054H0.931641Z" fill="#00FF92"/>
<path d="M11.5977 30.054H28.931C29.2846 30.054 29.6238 29.9135 29.8738 29.6634C30.1238 29.4134 30.2643 29.0742 30.2643 28.7206V10.054H11.5977V30.054Z" fill="#15CF74"/>
</svg>
