<svg width="27" height="33" viewBox="0 0 27 33" fill="none" xmlns="http://www.w3.org/2000/svg">
<g clip-path="url(#clip0)">
<path d="M13.9984 19.8556C17.4912 19.8556 20.3317 17.0151 20.3317 13.5223C20.3317 10.0295 17.4912 7.18896 13.9984 7.18896C10.5055 7.18896 7.66504 10.0295 7.66504 13.5223C7.66504 17.0151 10.5055 19.8556 13.9984 19.8556ZM13.9984 10.3556C15.7448 10.3556 17.165 11.7759 17.165 13.5223C17.165 15.2687 15.7448 16.689 13.9984 16.689C12.252 16.689 10.8317 15.2687 10.8317 13.5223C10.8317 11.7759 12.252 10.3556 13.9984 10.3556Z" fill="#5AE4A9"/>
<path d="M12.747 32.2279C13.015 32.4192 13.336 32.5221 13.6653 32.5221C13.9946 32.5221 14.3157 32.4192 14.5837 32.2279C15.065 31.8875 26.3779 23.719 26.332 13.5224C26.332 6.5383 20.6494 0.855713 13.6653 0.855713C6.68126 0.855713 0.998675 6.5383 0.998675 13.5145C0.952758 23.719 12.2657 31.8875 12.747 32.2279ZM13.6653 4.02238C18.9046 4.02238 23.1653 8.28313 23.1653 13.5303C23.1986 20.5571 16.2177 26.8667 13.6653 28.9361C11.1146 26.8651 4.13209 20.554 4.16534 13.5224C4.16534 8.28313 8.42609 4.02238 13.6653 4.02238Z" fill="#5AE4A9"/>
</g>
<defs>
<clipPath id="clip0">
<rect width="26" height="32" fill="white" transform="translate(0.998535 0.688965)"/>
</clipPath>
</defs>
</svg>
