<svg width="61" height="61" viewBox="0 0 61 61" fill="none" xmlns="http://www.w3.org/2000/svg">
<g clip-path="url(#clip0)">
<path d="M14.1097 0.722168H47.8297C55.0869 0.722168 60.9697 6.60498 60.9697 13.8622V47.5822C60.9697 54.8394 55.0869 60.7222 47.8297 60.7222H14.1097C6.85254 60.7222 0.969727 54.8394 0.969727 47.5822V13.8622C0.969727 6.60498 6.85254 0.722168 14.1097 0.722168Z" fill="url(#paint0_linear)"/>
<path d="M20.1985 44.2714L20.2042 44.2733L18.1527 47.8264C17.4039 49.1234 15.7454 49.5678 14.4484 48.819C13.1516 48.0701 12.707 46.4117 13.4558 45.1147L14.9671 42.4972L15.1121 42.2459C15.3711 41.8737 16.0103 41.2311 17.2888 41.352C17.2888 41.352 20.2974 41.6785 20.5152 43.2423C20.5152 43.2423 20.5447 43.7567 20.1985 44.2714V44.2714ZM49.2946 35.1964H42.8975C42.4618 35.1671 42.2718 35.0115 42.1968 34.921L42.1921 34.9128L35.3443 23.052L35.3354 23.0579L34.9248 22.4691C34.2517 21.4397 33.1829 24.0722 33.1829 24.0722C31.9067 27.0057 33.3641 30.3406 33.872 31.3487L43.3834 47.8229C44.132 49.1197 45.7904 49.5643 47.0877 48.8152C48.3845 48.0664 48.8291 46.408 48.08 45.1109L45.7018 40.9915C45.6557 40.8917 45.5755 40.6208 46.0632 40.6196H49.2946C50.7922 40.6196 52.0063 39.4055 52.0063 37.9079C52.0063 36.4102 50.7922 35.1962 49.2946 35.1962V35.1964ZM36.8694 38.8826C36.8694 38.8826 37.2109 40.6196 35.8897 40.6196H12.2415C10.7438 40.6196 9.52979 39.4055 9.52979 37.9079C9.52979 36.4102 10.7438 35.1962 12.2415 35.1962H18.3212C19.3028 35.1394 19.5353 34.5727 19.5353 34.5727L19.5409 34.5755L27.4768 20.8299L27.4745 20.8294C27.6191 20.5639 27.4986 20.3129 27.4778 20.2733L24.8567 15.7337C24.1079 14.4369 24.5523 12.7782 25.8493 12.0296C27.1464 11.2808 28.8048 11.7249 29.5536 13.0219L30.7691 15.1273L31.9825 13.0257C32.7313 11.7289 34.3897 11.2843 35.6867 12.0333C36.9838 12.7822 37.4282 14.4404 36.6793 15.7374L25.636 34.8648C25.5878 34.9812 25.573 35.164 25.9323 35.1962H32.5332L32.5346 35.2606C32.5346 35.2606 36.3498 35.3199 36.8694 38.8826Z" fill="white"/>
</g>
<defs>
<linearGradient id="paint0_linear" x1="30.9697" y1="0.722168" x2="30.9697" y2="60.7222" gradientUnits="userSpaceOnUse">
<stop stop-color="#17C9FB"/>
<stop offset="1" stop-color="#1A74E8"/>
</linearGradient>
<clipPath id="clip0">
<rect width="60" height="60" fill="white" transform="translate(0.969727 0.722168)"/>
</clipPath>
</defs>
</svg>
