<svg width="27" height="33" viewBox="0 0 27 33" fill="none" xmlns="http://www.w3.org/2000/svg">
<path d="M25.5975 32.3872H13.5975C13.2439 32.3872 12.9047 32.2467 12.6547 31.9966C12.4046 31.7466 12.2642 31.4075 12.2642 31.0538V28.3872C12.2642 28.0335 12.4046 27.6944 12.6547 27.4444C12.9047 27.1943 13.2439 27.0538 13.5975 27.0538H25.5975C25.9511 27.0538 26.2903 27.1943 26.5403 27.4444C26.7904 27.6944 26.9308 28.0335 26.9308 28.3872V31.0538C26.9308 31.4075 26.7904 31.7466 26.5403 31.9966C26.2903 32.2467 25.9511 32.3872 25.5975 32.3872Z" fill="#00FF92"/>
<path d="M25.5975 0.387207H1.59749C1.24387 0.387207 0.904732 0.527682 0.654683 0.77773C0.404635 1.02778 0.26416 1.36692 0.26416 1.72054V4.38721C0.26416 4.74083 0.404635 5.07997 0.654683 5.33002C0.904732 5.58007 1.24387 5.72054 1.59749 5.72054H25.5975C25.9511 5.72054 26.2903 5.58007 26.5403 5.33002C26.7904 5.07997 26.9308 4.74083 26.9308 4.38721V1.72054C26.9308 1.36692 26.7904 1.02778 26.5403 0.77773C26.2903 0.527682 25.9511 0.387207 25.5975 0.387207Z" fill="#00FF92"/>
<path d="M25.5975 8.38721H1.59749C1.24387 8.38721 0.904732 8.52768 0.654683 8.77773C0.404635 9.02778 0.26416 9.36692 0.26416 9.72054V23.0539C0.26416 23.4075 0.404635 23.7466 0.654683 23.9967C0.904732 24.2467 1.24387 24.3872 1.59749 24.3872H25.5975C25.9511 24.3872 26.2903 24.2467 26.5403 23.9967C26.7904 23.7466 26.9308 23.4075 26.9308 23.0539V9.72054C26.9308 9.36692 26.7904 9.02778 26.5403 8.77773C26.2903 8.52768 25.9511 8.38721 25.5975 8.38721Z" fill="#15CF74"/>
</svg>
