<svg width="550" height="1040" viewBox="0 0 550 1040" fill="none" xmlns="http://www.w3.org/2000/svg">
<g opacity="0.2">
<path d="M5.68583 62.3539C6.01615 64.2459 7.74318 65.5738 9.67994 65.3893C11.7226 65.1877 13.1853 63.3628 12.9771 61.3532C12.8368 60.0934 12.1121 59.0481 11.0525 58.4813L5.68583 62.3539Z" fill="#636363"/>
<path d="M29.4686 256.799C29.3908 256.855 29.3184 256.877 29.232 256.88L-83.1425 268.293C-83.4212 268.317 -83.648 268.125 -83.6717 267.846C-83.6954 267.568 -83.5042 267.341 -83.2396 267.298L29.1349 255.885C29.4136 255.862 29.6404 256.053 29.6641 256.332C29.6846 256.524 29.6241 256.686 29.4686 256.799Z" fill="#636363"/>
<path d="M29.5642 260.044C31.5928 259.823 33.0695 258.017 32.8613 256.008C32.6584 253.964 30.8331 252.5 28.824 252.707C26.7954 252.928 25.3186 254.734 25.5269 256.743C25.7297 258.787 27.5356 260.265 29.5642 260.044Z" fill="#636363"/>
<path d="M29.4683 256.799C29.3321 256.897 29.1399 256.918 28.9778 256.857C28.7208 256.747 28.6301 256.457 28.7403 256.2L74.9886 153.15C75.1128 152.912 75.3882 152.802 75.6453 152.912C75.9023 153.023 75.993 153.312 75.9023 153.555L29.654 256.606C29.5903 256.681 29.546 256.743 29.4683 256.799Z" fill="#636363"/>
<path d="M32.5378 257.898C31.6885 259.753 29.5098 260.586 27.6682 259.755C25.8126 258.904 24.9789 256.724 25.8087 254.883C26.6579 253.027 28.8367 252.195 30.6782 253.026C32.5533 253.862 33.387 256.042 32.5378 257.898Z" fill="#636363"/>
<path d="M78.8004 154.867C79.6356 152.992 78.802 150.812 76.9409 149.995C75.0853 149.145 72.887 149.991 72.0713 151.852C71.2221 153.708 72.0698 155.907 73.9309 156.724C75.7725 157.555 77.9707 156.708 78.8004 154.867Z" fill="#636363"/>
<path d="M75.7185 153.747C75.5046 153.901 75.2033 153.852 75.0489 153.638L8.92267 62.0006C8.76823 61.7866 8.81685 61.4852 9.03073 61.3308C9.24462 61.1765 9.54599 61.2253 9.70042 61.4394L75.8266 153.077C76.0005 153.277 75.9519 153.579 75.7185 153.747Z" fill="#636363"/>
<path d="M78.4179 151.178C79.6113 152.831 79.2384 155.142 77.5856 156.335C75.9328 157.527 73.6224 157.153 72.429 155.499C71.2356 153.845 71.6085 151.535 73.2613 150.342C74.914 149.149 77.2245 149.524 78.4179 151.178Z" fill="#636363"/>
<path d="M5.6871 62.3529C5.77346 62.8824 5.97972 63.4141 6.31668 63.8811C7.51008 65.5349 9.82053 65.9093 11.4733 64.7166C13.1261 63.5239 13.499 61.2133 12.3056 59.5594C11.9686 59.0925 11.5431 58.7486 11.0538 58.4803L5.6871 62.3529Z" fill="#636363"/>
<path d="M5.66727 62.3678C5.9976 64.2598 7.72464 65.5877 9.6614 65.4032C11.704 65.2016 13.1667 63.3768 12.9585 61.3671C12.8182 60.1073 12.0935 59.062 11.0339 58.4952L5.66727 62.3678Z" fill="#636363"/>
<path d="M49.3725 451.439C49.2947 451.495 49.2223 451.518 49.1359 451.521L-63.2386 462.933C-63.5173 462.957 -63.7441 462.766 -63.7678 462.487C-63.7916 462.208 -63.6004 461.981 -63.3217 461.958L49.0528 450.545C49.3315 450.522 49.5583 450.713 49.6015 450.978C49.5885 451.165 49.5086 451.341 49.3725 451.439Z" fill="#636363"/>
<path d="M49.4624 454.718C51.491 454.496 52.9678 452.691 52.7596 450.681C52.5373 448.652 50.7314 447.174 48.7223 447.381C46.6937 447.602 45.2169 449.408 45.4252 451.418C45.614 453.441 47.4198 454.919 49.4624 454.718Z" fill="#636363"/>
<path d="M49.3705 451.44C49.2344 451.538 49.0421 451.559 48.8801 451.498C48.623 451.388 48.5323 451.098 48.6231 450.855L94.8713 347.805C94.9815 347.548 95.271 347.457 95.514 347.548C95.7711 347.658 95.8618 347.948 95.7711 348.191L49.5228 451.241C49.4925 451.322 49.4288 451.398 49.3705 451.44Z" fill="#636363"/>
<path d="M52.455 452.559C51.6057 454.414 49.4269 455.247 47.5854 454.416C45.7297 453.565 44.8961 451.385 45.7259 449.544C46.5751 447.688 48.7539 446.856 50.5955 447.687C52.4371 448.518 53.2707 450.698 52.455 452.559Z" fill="#636363"/>
<path d="M98.6839 349.521C99.519 347.646 98.6854 345.467 96.8244 344.65C94.9493 343.813 92.7705 344.646 91.9547 346.507C91.1055 348.362 91.9532 350.561 93.8143 351.378C95.6753 352.195 97.8681 351.382 98.6839 349.521Z" fill="#636363"/>
<path d="M95.6009 348.402C95.387 348.557 95.0856 348.508 94.9312 348.294L28.805 256.656C28.6505 256.442 28.6992 256.141 28.9131 255.986C29.1269 255.832 29.4283 255.881 29.5827 256.095L95.7089 347.733C95.8828 347.933 95.8342 348.234 95.6009 348.402Z" fill="#636363"/>
<path d="M98.3124 345.853C99.5059 347.507 99.133 349.818 97.4802 351.01C95.8274 352.203 93.5169 351.829 92.3235 350.175C91.1301 348.521 91.503 346.21 93.1558 345.018C94.8086 343.825 97.119 344.199 98.3124 345.853Z" fill="#636363"/>
<path d="M32.1884 254.215C30.995 252.561 28.6846 252.187 27.0318 253.38C25.379 254.572 25.0061 256.883 26.1995 258.537C27.3929 260.191 29.7034 260.565 31.3561 259.372C33.0089 258.18 33.3818 255.869 32.1884 254.215Z" fill="#636363"/>
<path d="M29.4696 256.798C29.3918 256.854 29.3194 256.876 29.233 256.88L-83.1221 268.278C-83.4008 268.302 -83.6276 268.11 -83.6513 267.832C-83.6751 267.553 -83.4838 267.326 -83.2192 267.283L29.1359 255.885C29.4145 255.861 29.6414 256.052 29.6651 256.331C29.6856 256.523 29.6251 256.685 29.4696 256.798Z" fill="#636363"/>
<path d="M28.804 252.721C30.8466 252.52 32.6525 253.998 32.8413 256.022C33.0442 258.065 31.5674 259.87 29.5443 260.058C27.5017 260.259 25.6958 258.781 25.507 256.757C25.3181 254.734 26.7809 252.909 28.804 252.721Z" fill="#636363"/>
<path d="M95.5813 348.416C95.3675 348.57 95.0661 348.521 94.9117 348.307L28.7854 256.669C28.631 256.455 28.6797 256.154 28.8935 256C29.1074 255.845 29.4088 255.894 29.5632 256.108L95.6894 347.746C95.8633 347.946 95.8147 348.247 95.5813 348.416Z" fill="#636363"/>
<path d="M98.2949 345.867C99.4883 347.521 99.1154 349.831 97.4626 351.024C95.8098 352.217 93.4993 351.842 92.3059 350.189C91.1125 348.535 91.4854 346.224 93.1382 345.031C94.791 343.839 97.1015 344.213 98.2949 345.867Z" fill="#636363"/>
<path d="M32.1694 254.229C30.976 252.575 28.6656 252.2 27.0128 253.393C25.36 254.586 24.987 256.896 26.1804 258.55C27.3738 260.204 29.6843 260.578 31.3371 259.386C32.9899 258.193 33.3628 255.882 32.1694 254.229Z" fill="#636363"/>
<path d="M207.955 337.004C207.896 337.046 207.805 337.083 207.718 337.086L95.3438 348.499C95.0651 348.522 94.8383 348.331 94.7951 348.066C94.7714 347.788 94.9626 347.561 95.2413 347.537L207.616 336.125C207.894 336.101 208.121 336.293 208.145 336.571C208.171 336.73 208.091 336.906 207.955 337.004Z" fill="#636363"/>
<path d="M95.6889 351.682C93.6463 351.883 91.8404 350.405 91.6516 348.382C91.4488 346.339 92.9256 344.533 94.9487 344.346C96.9773 344.124 98.7972 345.622 98.986 347.646C99.1748 349.669 97.7121 351.494 95.6889 351.682Z" fill="#636363"/>
<path d="M208.044 340.283C210.073 340.062 211.55 338.257 211.342 336.247C211.119 334.218 209.313 332.74 207.304 332.947C205.276 333.168 203.799 334.973 204.007 336.983C204.196 339.007 206.021 340.471 208.044 340.283Z" fill="#636363"/>
<path d="M207.956 337.004C207.82 337.102 207.628 337.123 207.466 337.062C207.209 336.952 207.118 336.662 207.209 336.419L253.476 233.355C253.587 233.098 253.876 233.007 254.119 233.098C254.376 233.208 254.467 233.498 254.357 233.755L208.108 336.805C208.078 336.886 208.034 336.948 207.956 337.004Z" fill="#636363"/>
<path d="M211.038 338.122C210.189 339.978 208.01 340.81 206.169 339.979C204.313 339.129 203.479 336.949 204.309 335.108C205.158 333.252 207.337 332.42 209.179 333.251C211.04 334.068 211.873 336.247 211.038 338.122Z" fill="#636363"/>
<path d="M257.287 235.072C258.122 233.197 257.288 231.018 255.427 230.201C253.572 229.35 251.374 230.197 250.558 232.058C249.709 233.913 250.556 236.112 252.417 236.929C254.259 237.76 256.452 236.947 257.287 235.072Z" fill="#636363"/>
<path d="M254.206 233.953C253.992 234.108 253.691 234.059 253.536 233.845L187.41 142.207C187.256 141.993 187.304 141.691 187.518 141.537C187.732 141.383 188.033 141.432 188.188 141.646L254.314 233.283C254.468 233.498 254.42 233.799 254.206 233.953Z" fill="#636363"/>
<path d="M250.284 232.97C249.959 234.983 251.328 236.881 253.341 237.207C255.355 237.533 257.251 236.165 257.576 234.151C257.901 232.137 256.532 230.24 254.518 229.914C252.505 229.587 250.609 230.956 250.284 232.97Z" fill="#636363"/>
<path d="M190.793 139.765C189.6 138.111 187.289 137.737 185.636 138.93C183.984 140.122 183.611 142.433 184.804 144.087C185.997 145.741 188.308 146.115 189.961 144.922C191.613 143.73 191.986 141.419 190.793 139.765Z" fill="#636363"/>
<path d="M188.071 142.349C187.993 142.405 187.921 142.428 187.834 142.431L75.4791 153.83C75.2004 153.853 74.9736 153.662 74.9499 153.383C74.9261 153.104 75.1174 152.878 75.382 152.835L187.737 141.436C188.016 141.413 188.243 141.604 188.286 141.869C188.287 142.075 188.207 142.251 188.071 142.349Z" fill="#636363"/>
<path d="M187.408 138.273C189.45 138.071 191.256 139.549 191.445 141.573C191.634 143.597 190.171 145.421 188.148 145.609C186.105 145.811 184.299 144.333 184.111 142.309C183.902 140.299 185.365 138.474 187.408 138.273Z" fill="#636363"/>
<path d="M75.0507 149.671C73.0221 149.892 71.5453 151.698 71.7536 153.707C71.9564 155.751 73.7817 157.215 75.7909 157.008C77.8194 156.786 79.2962 154.981 79.0879 152.971C78.8991 150.948 77.0792 149.45 75.0507 149.671Z" fill="#636363"/>
<path d="M29.4712 256.799C29.3351 256.897 29.1428 256.917 28.9808 256.857C28.7237 256.746 28.633 256.457 28.7432 256.2L74.9915 153.149C75.1157 152.912 75.3912 152.802 75.6482 152.912C75.9053 153.023 75.996 153.312 75.9052 153.555L29.657 256.606C29.5932 256.681 29.549 256.743 29.4712 256.799Z" fill="#636363"/>
<path d="M72.0598 151.833C72.9091 149.977 75.0878 149.145 76.9294 149.976C78.7851 150.826 79.6187 153.006 78.789 154.848C77.9397 156.703 75.7609 157.536 73.9193 156.705C72.0583 155.888 71.2301 153.674 72.0598 151.833Z" fill="#636363"/>
<path d="M25.832 254.869C24.9968 256.744 25.8305 258.924 27.6915 259.741C29.5666 260.577 31.7454 259.745 32.5612 257.884C33.3963 256.009 32.5627 253.829 30.7016 253.012C28.8406 252.195 26.6477 253.008 25.832 254.869Z" fill="#636363"/>
<path d="M69.2506 646.126C69.1145 646.224 68.9222 646.244 68.7602 646.184C68.5031 646.073 68.4124 645.784 68.5032 645.541L114.751 542.49C114.862 542.233 115.151 542.143 115.394 542.234C115.651 542.344 115.742 542.634 115.632 542.891L69.3835 645.941C69.3727 646.008 69.3089 646.084 69.2506 646.126Z" fill="#636363"/>
<path d="M72.3341 647.244C71.4989 649.119 69.3061 649.932 67.4645 649.101C65.5894 648.265 64.7752 646.071 65.605 644.23C66.4402 642.355 68.633 641.542 70.4746 642.373C72.3356 643.19 73.1499 645.383 72.3341 647.244Z" fill="#636363"/>
<path d="M118.583 544.194C119.418 542.319 118.585 540.139 116.724 539.322C114.868 538.472 112.67 539.319 111.854 541.18C111.019 543.054 111.852 545.234 113.714 546.051C115.555 546.882 117.734 546.05 118.583 544.194Z" fill="#636363"/>
<path d="M115.498 543.077C115.284 543.231 114.983 543.182 114.829 542.968L48.7024 451.33C48.548 451.116 48.5966 450.815 48.8105 450.661C49.0244 450.506 49.3257 450.555 49.4802 450.769L115.606 542.407C115.761 542.621 115.712 542.922 115.498 543.077Z" fill="#636363"/>
<path d="M118.197 540.508C119.391 542.162 119.018 544.472 117.365 545.665C115.712 546.858 113.402 546.483 112.208 544.83C111.015 543.176 111.388 540.865 113.041 539.672C114.693 538.48 117.004 538.854 118.197 540.508Z" fill="#636363"/>
<path d="M52.0663 448.903C50.8729 447.249 48.5625 446.875 46.9097 448.068C45.2569 449.26 44.884 451.571 46.0774 453.225C47.2708 454.879 49.5812 455.253 51.234 454.06C52.9063 452.854 53.2597 450.557 52.0663 448.903Z" fill="#636363"/>
<path d="M49.3534 451.452C49.2951 451.494 49.2033 451.531 49.1169 451.534L-63.2382 462.932C-63.5169 462.956 -63.7437 462.765 -63.7674 462.486C-63.7912 462.207 -63.6 461.98 -63.3213 461.957L49.0338 450.558C49.3125 450.535 49.5393 450.726 49.5825 450.991C49.5695 451.178 49.4895 451.354 49.3534 451.452Z" fill="#636363"/>
<path d="M48.6883 447.375C50.7169 447.154 52.5368 448.652 52.7256 450.676C52.9285 452.719 51.4517 454.524 49.4286 454.712C47.386 454.913 45.5801 453.435 45.3913 451.412C45.183 449.402 46.6598 447.597 48.6883 447.375Z" fill="#636363"/>
<path d="M115.481 543.091C115.267 543.245 114.966 543.196 114.811 542.982L48.6848 451.344C48.5304 451.13 48.579 450.829 48.7929 450.675C49.0068 450.52 49.3082 450.569 49.4626 450.783L115.589 542.421C115.743 542.635 115.695 542.936 115.481 543.091Z" fill="#636363"/>
<path d="M118.18 540.521C119.373 542.175 119 544.486 117.347 545.678C115.695 546.871 113.384 546.496 112.191 544.843C110.997 543.189 111.37 540.878 113.023 539.685C114.676 538.493 116.986 538.867 118.18 540.521Z" fill="#636363"/>
<path d="M52.0663 448.903C50.8729 447.249 48.5625 446.875 46.9097 448.067C45.2569 449.26 44.884 451.571 46.0774 453.224C47.2708 454.878 49.5812 455.253 51.234 454.06C52.8868 452.867 53.2597 450.557 52.0663 448.903Z" fill="#636363"/>
<path d="M227.833 531.693C227.756 531.749 227.683 531.772 227.597 531.775L115.222 543.187C114.944 543.211 114.717 543.02 114.693 542.741C114.669 542.462 114.861 542.235 115.139 542.212L227.514 530.799C227.792 530.776 228.019 530.967 228.043 531.246C228.049 531.419 227.989 531.581 227.833 531.693Z" fill="#636363"/>
<path d="M115.567 546.37C113.525 546.572 111.719 545.093 111.53 543.07C111.327 541.027 112.804 539.221 114.827 539.034C116.87 538.832 118.676 540.31 118.864 542.334C119.073 544.344 117.576 546.163 115.567 546.37Z" fill="#636363"/>
<path d="M227.942 534.957C229.985 534.756 231.448 532.931 231.239 530.921C231.036 528.878 229.211 527.414 227.202 527.621C225.159 527.823 223.697 529.648 223.905 531.657C224.094 533.681 225.9 535.159 227.942 534.957Z" fill="#636363"/>
<path d="M227.833 531.693C227.697 531.791 227.505 531.812 227.343 531.751C227.086 531.641 226.995 531.351 227.106 531.094L273.354 428.044C273.464 427.787 273.753 427.696 273.996 427.787C274.254 427.898 274.344 428.187 274.253 428.43L228.005 531.48C227.956 531.576 227.911 531.637 227.833 531.693Z" fill="#636363"/>
<path d="M230.916 532.811C230.081 534.686 227.888 535.499 226.047 534.668C224.191 533.818 223.357 531.638 224.187 529.796C225.022 527.922 227.215 527.108 229.057 527.939C230.918 528.756 231.751 530.936 230.916 532.811Z" fill="#636363"/>
<path d="M277.165 429.761C278 427.886 277.166 425.706 275.305 424.889C273.45 424.038 271.251 424.885 270.436 426.746C269.6 428.621 270.434 430.801 272.295 431.618C274.137 432.449 276.335 431.602 277.165 429.761Z" fill="#636363"/>
<path d="M274.083 428.641C273.869 428.795 273.568 428.746 273.414 428.532L207.287 336.894C207.133 336.68 207.182 336.379 207.395 336.225C207.609 336.07 207.911 336.119 208.065 336.333L274.191 427.971C274.365 428.171 274.317 428.472 274.083 428.641Z" fill="#636363"/>
<path d="M276.783 426.072C277.976 427.725 277.603 430.036 275.95 431.229C274.298 432.421 271.987 432.047 270.794 430.393C269.6 428.739 269.973 426.429 271.626 425.236C273.279 424.043 275.589 424.418 276.783 426.072Z" fill="#636363"/>
<path d="M210.671 334.454C209.477 332.8 207.167 332.425 205.514 333.618C203.861 334.811 203.489 337.121 204.682 338.775C205.875 340.429 208.186 340.803 209.839 339.611C211.491 338.418 211.864 336.107 210.671 334.454Z" fill="#636363"/>
<path d="M207.936 337.018C207.878 337.061 207.786 337.097 207.7 337.1L95.3447 348.499C95.0661 348.522 94.8392 348.331 94.7961 348.066C94.7723 347.788 94.9635 347.561 95.2422 347.537L207.597 336.139C207.876 336.115 208.103 336.307 208.146 336.571C208.152 336.744 208.072 336.92 207.936 337.018Z" fill="#636363"/>
<path d="M207.272 332.941C209.3 332.72 211.12 334.218 211.309 336.241C211.512 338.284 210.035 340.09 208.012 340.277C205.969 340.479 204.164 339.001 203.975 336.977C203.786 334.954 205.263 333.148 207.272 332.941Z" fill="#636363"/>
<path d="M94.9301 344.36C92.8875 344.561 91.4247 346.386 91.633 348.396C91.8358 350.439 93.6611 351.903 95.6703 351.696C97.6988 351.475 99.1756 349.669 98.9674 347.66C98.7645 345.617 96.9587 344.138 94.9301 344.36Z" fill="#636363"/>
<path d="M49.352 451.454C49.2159 451.552 49.0236 451.572 48.8616 451.512C48.6045 451.401 48.5138 451.112 48.6046 450.869L94.8528 347.818C94.963 347.561 95.2525 347.471 95.4955 347.562C95.7526 347.672 95.8432 347.962 95.7525 348.205L49.5043 451.255C49.474 451.336 49.4103 451.412 49.352 451.454Z" fill="#636363"/>
<path d="M91.9561 346.507C92.7913 344.632 94.9841 343.819 96.8257 344.65C98.7008 345.486 99.515 347.68 98.6852 349.521C97.85 351.396 95.6572 352.209 93.8156 351.378C91.9406 350.542 91.1069 348.362 91.9561 346.507Z" fill="#636363"/>
<path d="M45.6924 449.538C44.8572 451.413 45.6909 453.592 47.5519 454.409C49.427 455.246 51.6058 454.413 52.4215 452.552C53.2567 450.677 52.423 448.498 50.562 447.681C48.7204 446.85 46.5222 447.696 45.6924 449.538Z" fill="#636363"/>
<path d="M135.382 737.731C135.168 737.885 134.867 737.836 134.712 737.622L68.5862 645.984C68.4318 645.77 68.4804 645.469 68.6943 645.315C68.9082 645.16 69.2095 645.209 69.364 645.423L135.49 737.061C135.645 737.275 135.596 737.576 135.382 737.731Z" fill="#636363"/>
<path d="M138.095 735.181C139.289 736.835 138.916 739.146 137.263 740.338C135.61 741.531 133.3 741.157 132.106 739.503C130.913 737.849 131.286 735.538 132.939 734.346C134.591 733.153 136.902 733.527 138.095 735.181Z" fill="#636363"/>
<path d="M71.9697 643.543C70.7763 641.889 68.4658 641.514 66.8131 642.707C65.1603 643.9 64.7874 646.21 65.9808 647.864C67.1742 649.518 69.4846 649.892 71.1374 648.7C72.7902 647.507 73.1631 645.196 71.9697 643.543Z" fill="#636363"/>
<path d="M135.364 737.745C135.15 737.899 134.849 737.851 134.694 737.637L68.5681 645.999C68.4137 645.785 68.4623 645.483 68.6762 645.329C68.8901 645.175 69.1914 645.223 69.3459 645.437L135.472 737.075C135.627 737.289 135.578 737.591 135.364 737.745Z" fill="#636363"/>
<path d="M138.076 735.196C139.269 736.85 138.896 739.16 137.243 740.353C135.591 741.546 133.28 741.171 132.087 739.518C130.893 737.864 131.266 735.553 132.919 734.36C134.572 733.168 136.882 733.542 138.076 735.196Z" fill="#636363"/>
<path d="M71.9497 643.558C70.7562 641.904 68.4458 641.53 66.793 642.722C65.1403 643.915 64.7674 646.226 65.9608 647.879C67.1542 649.533 69.4646 649.908 71.1174 648.715C72.7701 647.522 73.1431 645.212 71.9497 643.558Z" fill="#636363"/>
<path d="M247.737 726.334C247.659 726.39 247.587 726.412 247.501 726.416L135.126 737.828C134.847 737.852 134.621 737.66 134.597 737.381C134.573 737.103 134.764 736.876 135.043 736.852L247.418 725.44C247.696 725.416 247.923 725.608 247.966 725.872C247.967 726.079 247.873 726.235 247.737 726.334Z" fill="#636363"/>
<path d="M135.452 741.025C133.409 741.226 131.603 739.748 131.414 737.724C131.192 735.695 132.688 733.876 134.711 733.688C136.74 733.467 138.56 734.965 138.749 736.988C138.957 738.998 137.475 740.837 135.452 741.025Z" fill="#636363"/>
<path d="M247.827 729.612C249.855 729.391 251.332 727.586 251.124 725.576C250.902 723.547 249.096 722.069 247.087 722.276C245.044 722.478 243.581 724.302 243.789 726.312C243.978 728.336 245.798 729.833 247.827 729.612Z" fill="#636363"/>
<path d="M247.737 726.334C247.601 726.432 247.408 726.452 247.246 726.392C246.989 726.281 246.899 725.992 246.989 725.749L293.238 622.698C293.348 622.441 293.637 622.351 293.88 622.442C294.137 622.552 294.228 622.842 294.137 623.085L247.889 726.135C247.859 726.216 247.795 726.292 247.737 726.334Z" fill="#636363"/>
<path d="M250.82 727.453C249.971 729.308 247.792 730.141 245.951 729.31C244.095 728.459 243.261 726.279 244.091 724.438C244.926 722.563 247.119 721.75 248.961 722.581C250.802 723.412 251.65 725.611 250.82 727.453Z" fill="#636363"/>
<path d="M297.049 624.416C297.884 622.541 297.051 620.361 295.19 619.544C293.315 618.707 291.136 619.54 290.32 621.401C289.471 623.256 290.318 625.456 292.179 626.272C294.041 627.089 296.233 626.276 297.049 624.416Z" fill="#636363"/>
<path d="M293.966 623.296C293.752 623.451 293.451 623.402 293.296 623.188L227.17 531.55C227.016 531.336 227.064 531.034 227.278 530.88C227.492 530.726 227.793 530.775 227.948 530.989L294.074 622.626C294.248 622.826 294.199 623.128 293.966 623.296Z" fill="#636363"/>
<path d="M296.679 620.747C297.873 622.401 297.5 624.711 295.847 625.904C294.194 627.096 291.884 626.722 290.69 625.068C289.497 623.415 289.87 621.104 291.523 619.911C293.175 618.719 295.486 619.093 296.679 620.747Z" fill="#636363"/>
<path d="M230.553 529.109C229.36 527.455 227.049 527.081 225.397 528.273C223.744 529.466 223.371 531.777 224.564 533.431C225.758 535.084 228.068 535.459 229.721 534.266C231.374 533.073 231.747 530.763 230.553 529.109Z" fill="#636363"/>
<path d="M227.833 531.692C227.756 531.748 227.683 531.771 227.597 531.774L115.242 543.172C114.963 543.196 114.736 543.004 114.712 542.726C114.689 542.447 114.88 542.22 115.159 542.197L227.514 530.798C227.792 530.775 228.019 530.966 228.043 531.245C228.049 531.417 227.989 531.579 227.833 531.692Z" fill="#636363"/>
<path d="M227.168 527.615C229.211 527.414 231.017 528.892 231.206 530.916C231.408 532.959 229.932 534.764 227.909 534.952C225.866 535.153 224.06 533.675 223.871 531.652C223.682 529.628 225.145 527.803 227.168 527.615Z" fill="#636363"/>
<path d="M114.833 539C112.79 539.201 111.327 541.026 111.536 543.036C111.738 545.079 113.564 546.543 115.573 546.336C117.616 546.134 119.078 544.309 118.87 542.3C118.662 540.29 116.856 538.812 114.833 539Z" fill="#636363"/>
<path d="M69.252 646.127C69.1159 646.226 68.9236 646.246 68.7616 646.185C68.5046 646.075 68.4138 645.785 68.5046 645.542L114.753 542.492C114.863 542.235 115.153 542.144 115.396 542.235C115.653 542.346 115.743 542.635 115.633 542.892L69.3849 645.943C69.3741 646.01 69.3103 646.085 69.252 646.127Z" fill="#636363"/>
<path d="M111.841 541.161C112.69 539.305 114.869 538.473 116.711 539.304C118.566 540.154 119.4 542.334 118.57 544.176C117.721 546.031 115.542 546.864 113.701 546.033C111.84 545.216 111.006 543.036 111.841 541.161Z" fill="#636363"/>
<path d="M65.5938 644.211C64.7587 646.086 65.5923 648.266 67.4533 649.083C69.3089 649.933 71.5072 649.087 72.3229 647.226C73.1721 645.37 72.3244 643.171 70.4634 642.354C68.6218 641.523 66.4095 642.35 65.5938 644.211Z" fill="#636363"/>
<path d="M293.946 623.311C293.732 623.465 293.43 623.416 293.276 623.202L227.15 531.564C226.995 531.35 227.044 531.049 227.258 530.894C227.472 530.74 227.773 530.789 227.927 531.003L294.054 622.641C294.228 622.841 294.179 623.142 293.946 623.311Z" fill="#636363"/>
<path d="M296.66 620.761C297.853 622.414 297.48 624.725 295.827 625.918C294.175 627.11 291.864 626.736 290.671 625.082C289.477 623.428 289.85 621.118 291.503 619.925C293.156 618.732 295.466 619.107 296.66 620.761Z" fill="#636363"/>
<path d="M230.533 529.123C229.339 527.469 227.029 527.095 225.376 528.287C223.723 529.48 223.35 531.791 224.544 533.444C225.737 535.098 228.048 535.472 229.7 534.28C231.353 533.087 231.726 530.777 230.533 529.123Z" fill="#636363"/>
<path d="M406.323 611.899C406.265 611.941 406.173 611.978 406.086 611.981L293.712 623.393C293.433 623.417 293.206 623.225 293.163 622.961C293.14 622.682 293.331 622.455 293.609 622.432L405.984 611.019C406.263 610.996 406.489 611.187 406.513 611.466C406.553 611.644 406.459 611.801 406.323 611.899Z" fill="#636363"/>
<path d="M294.056 626.576C292.013 626.778 290.208 625.3 290.019 623.276C289.816 621.233 291.293 619.427 293.316 619.24C295.344 619.019 297.164 620.516 297.353 622.54C297.542 624.564 296.079 626.388 294.056 626.576Z" fill="#636363"/>
<path d="M406.41 615.178C408.439 614.957 409.916 613.151 409.707 611.142C409.485 609.112 407.679 607.634 405.67 607.841C403.627 608.043 402.165 609.868 402.373 611.878C402.562 613.901 404.401 615.385 406.41 615.178Z" fill="#636363"/>
<path d="M406.322 611.899C406.186 611.997 405.994 612.017 405.832 611.957C405.574 611.846 405.484 611.557 405.575 611.314L451.842 508.249C451.952 507.992 452.242 507.902 452.485 507.993C452.742 508.103 452.833 508.393 452.722 508.65L406.474 611.7C406.444 611.781 406.4 611.842 406.322 611.899Z" fill="#636363"/>
<path d="M409.404 613.017C408.555 614.872 406.376 615.705 404.534 614.874C402.679 614.023 401.845 611.844 402.675 610.002C403.51 608.127 405.703 607.314 407.544 608.145C409.405 608.962 410.253 611.161 409.404 613.017Z" fill="#636363"/>
<path d="M455.653 509.967C456.488 508.092 455.654 505.912 453.793 505.095C451.937 504.245 449.739 505.091 448.924 506.952C448.074 508.808 448.922 511.007 450.783 511.824C452.625 512.655 454.817 511.842 455.653 509.967Z" fill="#636363"/>
<path d="M452.571 508.847C452.357 509.002 452.056 508.953 451.901 508.739L385.775 417.101C385.621 416.887 385.669 416.585 385.883 416.431C386.097 416.277 386.398 416.326 386.553 416.54L452.679 508.178C452.834 508.392 452.785 508.693 452.571 508.847Z" fill="#636363"/>
<path d="M455.283 506.299C456.476 507.953 456.103 510.264 454.45 511.456C452.798 512.649 450.487 512.275 449.294 510.621C448.1 508.967 448.473 506.656 450.126 505.464C451.779 504.271 454.089 504.645 455.283 506.299Z" fill="#636363"/>
<path d="M389.159 414.66C387.966 413.006 385.655 412.632 384.003 413.824C382.35 415.017 381.977 417.328 383.17 418.982C384.364 420.635 386.674 421.01 388.327 419.817C389.98 418.624 390.353 416.314 389.159 414.66Z" fill="#636363"/>
<path d="M386.439 417.243C386.361 417.299 386.289 417.321 386.202 417.324L273.847 428.723C273.569 428.746 273.342 428.555 273.318 428.276C273.294 427.998 273.486 427.771 273.764 427.747L386.119 416.349C386.398 416.325 386.625 416.517 386.668 416.781C386.655 416.968 386.575 417.144 386.439 417.243Z" fill="#636363"/>
<path d="M385.772 413.167C387.814 412.965 389.62 414.443 389.809 416.467C390.031 418.496 388.535 420.315 386.512 420.503C384.469 420.705 382.664 419.226 382.475 417.203C382.266 415.193 383.729 413.368 385.772 413.167Z" fill="#636363"/>
<path d="M273.416 424.565C271.374 424.767 269.911 426.592 270.119 428.601C270.322 430.644 272.148 432.108 274.157 431.901C276.199 431.7 277.662 429.875 277.454 427.865C277.265 425.842 275.459 424.363 273.416 424.565Z" fill="#636363"/>
<path d="M227.833 531.692C227.697 531.791 227.505 531.811 227.343 531.75C227.086 531.64 226.995 531.35 227.106 531.093L273.354 428.043C273.464 427.786 273.753 427.695 273.996 427.786C274.254 427.897 274.344 428.186 274.253 428.429L228.005 531.48C227.956 531.575 227.911 531.636 227.833 531.692Z" fill="#636363"/>
<path d="M270.423 426.726C271.272 424.871 273.451 424.038 275.293 424.869C277.148 425.72 277.982 427.9 277.152 429.741C276.303 431.597 274.124 432.429 272.283 431.598C270.422 430.781 269.607 428.587 270.423 426.726Z" fill="#636363"/>
<path d="M224.195 529.763C223.36 531.638 224.194 533.818 226.055 534.635C227.93 535.471 230.109 534.638 230.924 532.778C231.774 530.922 230.926 528.723 229.065 527.906C227.204 527.089 225.011 527.902 224.195 529.763Z" fill="#636363"/>
<path d="M307.443 808.253L247.845 725.663C247.691 725.449 247.39 725.4 247.156 725.568C246.923 725.737 246.874 726.038 247.029 726.252L306.627 808.843L307.443 808.253Z" fill="#636363"/>
<path d="M250.431 723.796C249.237 722.142 246.927 721.768 245.274 722.961C243.621 724.153 243.248 726.464 244.442 728.118C245.635 729.772 247.945 730.146 249.598 728.953C251.271 727.747 251.624 725.45 250.431 723.796Z" fill="#636363"/>
<path d="M247.718 726.346C247.66 726.388 247.568 726.425 247.482 726.428L135.127 737.826C134.848 737.85 134.621 737.659 134.597 737.38C134.574 737.101 134.765 736.874 135.043 736.851L247.399 725.452C247.677 725.429 247.904 725.62 247.947 725.885C247.948 726.091 247.854 726.248 247.718 726.346Z" fill="#636363"/>
<path d="M247.053 722.27C249.095 722.068 250.901 723.546 251.09 725.57C251.293 727.613 249.816 729.418 247.793 729.606C245.75 729.808 243.944 728.33 243.756 726.306C243.547 724.296 245.024 722.491 247.053 722.27Z" fill="#636363"/>
<path d="M134.711 733.688C132.669 733.889 131.206 735.714 131.414 737.724C131.617 739.767 133.442 741.231 135.451 741.024C137.494 740.822 138.957 738.997 138.749 736.988C138.546 734.945 136.72 733.481 134.711 733.688Z" fill="#636363"/>
<path d="M307.425 808.269L247.827 725.678C247.673 725.464 247.372 725.415 247.158 725.569C246.944 725.724 246.876 726.039 247.03 726.253L306.628 808.844L307.425 808.269Z" fill="#636363"/>
<path d="M250.432 723.797C249.239 722.144 246.928 721.769 245.275 722.962C243.623 724.155 243.25 726.465 244.443 728.119C245.637 729.773 247.947 730.147 249.6 728.955C251.253 727.762 251.625 725.451 250.432 723.797Z" fill="#636363"/>
<path d="M466.045 693.805L406.448 611.214C406.293 611 405.992 610.951 405.778 611.106C405.564 611.26 405.515 611.561 405.67 611.775L465.268 694.366L466.045 693.805Z" fill="#636363"/>
<path d="M409.034 609.348C407.841 607.694 405.53 607.32 403.877 608.513C402.225 609.705 401.852 612.016 403.045 613.67C404.239 615.323 406.549 615.698 408.202 614.505C409.855 613.313 410.228 611.002 409.034 609.348Z" fill="#636363"/>
<path d="M406.302 611.912C406.244 611.954 406.152 611.991 406.066 611.994L293.711 623.392C293.432 623.416 293.205 623.224 293.162 622.96C293.138 622.681 293.329 622.454 293.608 622.431L405.983 611.018C406.261 610.995 406.488 611.186 406.531 611.451C406.532 611.657 406.438 611.814 406.302 611.912Z" fill="#636363"/>
<path d="M405.637 607.836C407.679 607.634 409.485 609.112 409.674 611.136C409.877 613.179 408.4 614.984 406.377 615.172C404.334 615.374 402.528 613.895 402.339 611.872C402.151 609.848 403.627 608.043 405.637 607.836Z" fill="#636363"/>
<path d="M293.295 619.254C291.253 619.456 289.79 621.281 289.998 623.29C290.201 625.333 292.026 626.797 294.036 626.59C296.078 626.389 297.541 624.564 297.333 622.554C297.13 620.511 295.324 619.033 293.295 619.254Z" fill="#636363"/>
<path d="M247.718 726.347C247.582 726.445 247.39 726.466 247.228 726.405C246.971 726.295 246.88 726.005 246.971 725.762L293.219 622.712C293.329 622.455 293.619 622.364 293.862 622.455C294.119 622.566 294.209 622.855 294.119 623.098L247.871 726.149C247.84 726.23 247.777 726.305 247.718 726.347Z" fill="#636363"/>
<path d="M290.321 621.401C291.156 619.526 293.349 618.713 295.19 619.544C297.066 620.38 297.88 622.574 297.05 624.415C296.215 626.29 294.022 627.103 292.18 626.272C290.305 625.436 289.472 623.256 290.321 621.401Z" fill="#636363"/>
<path d="M244.059 724.432C243.209 726.288 244.057 728.487 245.918 729.304C247.793 730.14 249.972 729.308 250.788 727.447C251.637 725.592 250.789 723.392 248.928 722.575C247.087 721.744 244.888 722.591 244.059 724.432Z" fill="#636363"/>
</g>
</svg>
