<svg width="74" height="61" viewBox="0 0 74 61" fill="none" xmlns="http://www.w3.org/2000/svg">
<g clip-path="url(#clip0)">
<path d="M37.1105 0.722168C17.7753 0.722168 2.62709 25.3222 1.19385 46.0996C7.26145 56.6301 21.8933 60.5884 37.111 60.5884C52.3276 60.5884 66.9603 56.6301 73.0248 46.0994C71.5913 25.3222 56.4451 0.722168 37.1107 0.722168" fill="#B6DEFF"/>
<path d="M67.9724 41.1504C67.9724 41.1504 63.702 31.9177 59.3614 26.5312C55.0178 21.1425 49.7132 15.2749 46.5769 15.2749C43.4423 15.2749 34.6794 30.7898 30.6594 30.7898C26.6386 30.7898 24.549 23.7566 19.6056 23.7566C14.6603 23.7566 6.80339 40.7169 6.80339 40.7169L6.271 43.5921C6.271 43.5921 9.00057 55.6938 37.5566 55.6938C66.1138 55.6938 68.3961 43.7907 68.3961 43.7907L67.9727 41.1501" fill="#66CC66"/>
<path d="M31.1072 37.411C26.6723 37.411 24.3987 33.0352 23.1661 30.3341C22.0576 27.9009 21.8658 24.0592 18.7207 23.9516C19.0297 23.829 19.3272 23.7566 19.6061 23.7566C24.5494 23.7566 26.639 30.7899 30.6599 30.7899C34.6799 30.7899 43.4427 15.2747 46.5773 15.2747C47.168 15.2747 47.8334 15.4831 48.5553 15.8538C48.0213 15.7834 47.3365 15.8324 46.8089 16.3617C45.7956 17.3752 36.5976 37.411 31.1072 37.411Z" fill="#17AD49"/>
</g>
<defs>
<clipPath id="clip0">
<rect width="72.1127" height="60" fill="white" transform="translate(0.969727 0.722168)"/>
</clipPath>
</defs>
</svg>
