<svg width="31" height="31" viewBox="0 0 31 31" fill="none" xmlns="http://www.w3.org/2000/svg">
<path d="M6.26449 0.720581H2.26449C1.91086 0.720581 1.57172 0.861056 1.32168 1.1111C1.07163 1.36115 0.931152 1.70029 0.931152 2.05391V28.7206C0.931152 29.0742 1.07163 29.4133 1.32168 29.6634C1.57172 29.9134 1.91086 30.0539 2.26449 30.0539H6.26449V0.720581Z" fill="#00FF92"/>
<path d="M8.93115 30.0539H22.2645V0.720581H8.93115V30.0539ZM15.5978 24.7206C15.2442 24.7206 14.9051 24.5801 14.655 24.3301C14.405 24.08 14.2645 23.7409 14.2645 23.3872C14.2645 23.0336 14.405 22.6945 14.655 22.4444C14.9051 22.1944 15.2442 22.0539 15.5978 22.0539C15.9514 22.0539 16.2906 22.1944 16.5406 22.4444C16.7907 22.6945 16.9312 23.0336 16.9312 23.3872C16.9312 23.7409 16.7907 24.08 16.5406 24.3301C16.2906 24.5801 15.9514 24.7206 15.5978 24.7206ZM15.5978 6.05391C15.9514 6.05391 16.2906 6.19439 16.5406 6.44444C16.7907 6.69449 16.9312 7.03363 16.9312 7.38725C16.9312 7.74087 16.7907 8.08001 16.5406 8.33006C16.2906 8.58011 15.9514 8.72058 15.5978 8.72058C15.2442 8.72058 14.9051 8.58011 14.655 8.33006C14.405 8.08001 14.2645 7.74087 14.2645 7.38725C14.2645 7.03363 14.405 6.69449 14.655 6.44444C14.9051 6.19439 15.2442 6.05391 15.5978 6.05391ZM15.5978 14.0539C15.9514 14.0539 16.2906 14.1944 16.5406 14.4444C16.7907 14.6945 16.9312 15.0336 16.9312 15.3872C16.9312 15.7409 16.7907 16.08 16.5406 16.3301C16.2906 16.5801 15.9514 16.7206 15.5978 16.7206C15.2442 16.7206 14.9051 16.5801 14.655 16.3301C14.405 16.08 14.2645 15.7409 14.2645 15.3872C14.2645 15.0336 14.405 14.6945 14.655 14.4444C14.9051 14.1944 15.2442 14.0539 15.5978 14.0539Z" fill="#15CF74"/>
<path d="M28.9312 0.720581H24.9312V30.0539H28.9312C29.2848 30.0539 29.6239 29.9134 29.874 29.6634C30.124 29.4133 30.2645 29.0742 30.2645 28.7206V2.05391C30.2645 1.70029 30.124 1.36115 29.874 1.1111C29.6239 0.861056 29.2848 0.720581 28.9312 0.720581Z" fill="#00FF92"/>
</svg>
