<svg width="273" height="271" viewBox="0 0 273 271" fill="none" xmlns="http://www.w3.org/2000/svg">
<g filter="url(#filter0_d)">
<rect x="45.2646" y="10.6111" width="182" height="180" rx="24" fill="#565656"/>
</g>
<circle opacity="0.2" cx="136.265" cy="100.611" r="56" stroke="#FFFBFB" stroke-width="20"/>
<path opacity="0.2" d="M80.2246 100.611C80.2246 131.561 105.314 156.651 136.264 156.651C167.214 156.651 192.304 131.561 192.304 100.611C192.304 69.6612 167.214 44.5713 136.264 44.5713" stroke="#FFFBFB" stroke-width="20" stroke-linecap="round"/>
<path opacity="0.2" d="M136.265 44.5713C167.214 44.5713 192.304 69.6612 192.304 100.611C192.304 131.561 167.214 156.651 136.265 156.651C121.514 156.651 108.094 150.952 98.0874 141.635" stroke="#FFFBFB" stroke-width="20" stroke-linecap="round"/>
<path opacity="0.6" d="M136.265 44.5713C167.215 44.5713 192.304 69.6612 192.304 100.611C192.304 122.907 179.284 142.162 160.432 151.186" stroke="#FFFBFB" stroke-width="20" stroke-linecap="round"/>
<circle cx="80.2247" cy="101.312" r="1.401" fill="#FFFBFB"/>
<circle cx="97.7374" cy="141.24" r="1.401" fill="#FFFBFB"/>
<circle cx="160.082" cy="151.047" r="1.401" fill="#FFFBFB"/>
<circle cx="136.265" cy="44.5713" r="1.401" fill="#FFFBFB"/>
<path d="M116.432 108.611L122.888 91.0911H125.648L119.192 108.611H116.432ZM115.184 100.643C114.256 100.643 113.488 100.435 112.88 100.019C112.272 99.5871 111.816 99.0191 111.512 98.3151C111.224 97.6111 111.08 96.8431 111.08 96.0111V95.3871C111.08 94.4751 111.232 93.6751 111.536 92.9871C111.84 92.2831 112.296 91.7391 112.904 91.3551C113.528 90.9551 114.288 90.7551 115.184 90.7551C116.112 90.7551 116.88 90.9551 117.488 91.3551C118.096 91.7391 118.552 92.2831 118.856 92.9871C119.16 93.6751 119.312 94.4751 119.312 95.3871V96.0111C119.312 96.8431 119.16 97.6111 118.856 98.3151C118.568 99.0191 118.12 99.5871 117.512 100.019C116.92 100.435 116.144 100.643 115.184 100.643ZM115.184 98.4111C115.76 98.4111 116.184 98.2031 116.456 97.7871C116.744 97.3551 116.888 96.6671 116.888 95.7231C116.888 94.6991 116.744 93.9871 116.456 93.5871C116.168 93.1871 115.744 92.9871 115.184 92.9871C114.624 92.9871 114.2 93.1871 113.912 93.5871C113.64 93.9871 113.504 94.6911 113.504 95.6991C113.504 96.6431 113.64 97.3311 113.912 97.7631C114.2 98.1951 114.624 98.4111 115.184 98.4111ZM126.776 108.971C125.848 108.971 125.08 108.763 124.472 108.347C123.864 107.915 123.408 107.347 123.104 106.643C122.816 105.939 122.672 105.171 122.672 104.339V103.715C122.672 102.803 122.824 102.003 123.128 101.315C123.432 100.611 123.888 100.067 124.496 99.6831C125.12 99.2831 125.88 99.0831 126.776 99.0831C127.704 99.0831 128.472 99.2831 129.08 99.6831C129.688 100.067 130.144 100.611 130.448 101.315C130.752 102.003 130.904 102.803 130.904 103.715V104.339C130.904 105.171 130.752 105.939 130.448 106.643C130.16 107.347 129.712 107.915 129.104 108.347C128.512 108.763 127.736 108.971 126.776 108.971ZM126.776 106.739C127.352 106.739 127.776 106.531 128.048 106.115C128.336 105.683 128.48 104.995 128.48 104.051C128.48 103.027 128.336 102.315 128.048 101.915C127.76 101.515 127.336 101.315 126.776 101.315C126.216 101.315 125.792 101.515 125.504 101.915C125.232 102.315 125.096 103.019 125.096 104.027C125.096 104.971 125.232 105.659 125.504 106.091C125.792 106.523 126.216 106.739 126.776 106.739ZM138.75 90.5871C140.046 90.5871 141.142 90.8111 142.038 91.2591C142.95 91.6911 143.686 92.2911 144.246 93.0591C144.806 93.8271 145.214 94.7231 145.47 95.7471C145.726 96.7551 145.854 97.8271 145.854 98.9631V100.019C145.854 102.883 145.126 105.059 143.67 106.547C142.23 108.019 140.11 108.755 137.31 108.755C136.702 108.755 136.134 108.739 135.606 108.707C135.078 108.675 134.55 108.627 134.022 108.563V105.707C134.55 105.771 135.086 105.819 135.63 105.851C136.19 105.883 136.79 105.899 137.43 105.899C138.774 105.899 139.83 105.667 140.598 105.203C141.366 104.739 141.91 104.059 142.23 103.163C142.566 102.267 142.734 101.155 142.734 99.8271V98.2671L143.502 97.1631C143.486 98.3951 143.238 99.4191 142.758 100.235C142.294 101.035 141.646 101.643 140.814 102.059C139.982 102.459 139.03 102.659 137.958 102.659C136.71 102.659 135.646 102.411 134.766 101.915C133.886 101.419 133.206 100.731 132.726 99.8511C132.262 98.9711 132.03 97.9471 132.03 96.7791C132.03 95.5631 132.302 94.4911 132.846 93.5631C133.39 92.6191 134.158 91.8911 135.15 91.3791C136.158 90.8511 137.358 90.5871 138.75 90.5871ZM138.822 93.4431C138.07 93.4431 137.43 93.5871 136.902 93.8751C136.374 94.1471 135.974 94.5311 135.702 95.0271C135.43 95.5231 135.294 96.0911 135.294 96.7311C135.294 97.3871 135.422 97.9631 135.678 98.4591C135.95 98.9551 136.342 99.3391 136.854 99.6111C137.366 99.8831 137.982 100.019 138.702 100.019C139.39 100.019 140.014 99.8991 140.574 99.6591C141.15 99.4031 141.598 99.0351 141.918 98.5551C142.254 98.0591 142.422 97.4511 142.422 96.7311C142.422 96.1071 142.286 95.5471 142.014 95.0511C141.758 94.5551 141.358 94.1631 140.814 93.8751C140.286 93.5871 139.622 93.4431 138.822 93.4431ZM155.352 109.115C154.056 109.115 152.952 108.899 152.04 108.467C151.144 108.019 150.416 107.411 149.856 106.643C149.296 105.875 148.888 104.987 148.632 103.979C148.376 102.955 148.248 101.875 148.248 100.739V99.6831C148.248 96.8191 148.968 94.6511 150.408 93.1791C151.864 91.6911 153.992 90.9471 156.792 90.9471C157.4 90.9471 157.968 90.9631 158.496 90.9951C159.024 91.0271 159.552 91.0751 160.08 91.1391V93.9951C159.552 93.9311 159.008 93.8831 158.448 93.8511C157.904 93.8191 157.312 93.8031 156.672 93.8031C155.328 93.8031 154.272 94.0351 153.504 94.4991C152.736 94.9631 152.184 95.6431 151.848 96.5391C151.528 97.4351 151.368 98.5471 151.368 99.8751V101.435L150.6 102.539C150.616 101.307 150.856 100.291 151.32 99.4911C151.8 98.6751 152.456 98.0671 153.288 97.6671C154.12 97.2511 155.072 97.0431 156.144 97.0431C157.392 97.0431 158.456 97.2911 159.336 97.7871C160.216 98.2831 160.888 98.9711 161.352 99.8511C161.832 100.731 162.072 101.755 162.072 102.923C162.072 104.139 161.8 105.219 161.256 106.163C160.712 107.091 159.936 107.819 158.928 108.347C157.936 108.859 156.744 109.115 155.352 109.115ZM155.28 106.259C156.032 106.259 156.672 106.123 157.2 105.851C157.728 105.563 158.128 105.171 158.4 104.675C158.672 104.179 158.808 103.611 158.808 102.971C158.808 102.315 158.672 101.739 158.4 101.243C158.144 100.747 157.76 100.363 157.248 100.091C156.736 99.8191 156.12 99.6831 155.4 99.6831C154.712 99.6831 154.08 99.8111 153.504 100.067C152.944 100.307 152.496 100.675 152.16 101.171C151.84 101.651 151.68 102.251 151.68 102.971C151.68 103.595 151.808 104.155 152.064 104.651C152.336 105.147 152.736 105.539 153.264 105.827C153.808 106.115 154.48 106.259 155.28 106.259Z" fill="#FFFBFB"/>
<defs>
<filter id="filter0_d" x="0.264648" y="0.611084" width="272" height="270" filterUnits="userSpaceOnUse" color-interpolation-filters="sRGB">
<feFlood flood-opacity="0" result="BackgroundImageFix"/>
<feColorMatrix in="SourceAlpha" type="matrix" values="0 0 0 0 0 0 0 0 0 0 0 0 0 0 0 0 0 0 127 0"/>
<feOffset dy="35"/>
<feGaussianBlur stdDeviation="22.5"/>
<feColorMatrix type="matrix" values="0 0 0 0 0.027451 0 0 0 0 0.054902 0 0 0 0 0.152941 0 0 0 0.05 0"/>
<feBlend mode="normal" in2="BackgroundImageFix" result="effect1_dropShadow"/>
<feBlend mode="normal" in="SourceGraphic" in2="effect1_dropShadow" result="shape"/>
</filter>
</defs>
</svg>
