<svg width="61" height="66" viewBox="0 0 61 66" fill="none" xmlns="http://www.w3.org/2000/svg">
<g clip-path="url(#clip0)">
<path d="M55.8732 52.6729C55.4208 56.0347 53.1584 58.9438 49.9911 60.2366C48.4395 60.8823 46.759 61.0769 45.0781 60.8823C43.4623 60.6887 41.8461 60.1715 40.1656 59.2028C37.8383 57.9086 35.5111 55.9056 32.7964 52.9319C37.0629 47.6959 39.6479 42.9123 40.6179 38.6467C41.0705 36.6426 41.135 34.8325 40.9414 33.1515C40.6831 31.5358 40.1011 30.0484 39.1958 28.7558C37.1918 25.8472 33.8309 24.1663 30.0816 24.1663C26.3323 24.1663 22.9711 25.9119 20.9672 28.7558C20.0619 30.0487 19.4808 31.5358 19.2219 33.1515C18.9636 34.8325 19.028 36.707 19.5453 38.6469C20.5147 42.9121 23.1647 47.7606 27.3669 52.9956C24.7165 55.9701 22.3247 57.9737 19.9974 59.2668C18.3169 60.2366 16.7007 60.7539 15.0849 60.947C13.4192 61.1331 11.7332 60.9115 10.1722 60.3013C7.00459 59.0085 4.74263 56.0985 4.28982 52.7373C4.09623 51.1218 4.22537 49.506 4.87177 47.6959C5.06537 47.049 5.38904 46.4038 5.71177 45.6276C6.16459 44.5937 6.68185 43.494 7.19841 42.3948L7.26357 42.2664C11.7233 32.6343 16.5071 22.809 21.4845 13.2426L21.6783 12.854C22.1956 11.8853 22.7122 10.8515 23.2299 9.88139C23.7467 8.84686 24.3284 7.87701 25.0393 7.03607C26.3968 5.48451 28.2069 4.64428 30.2108 4.64428C32.2147 4.64428 34.0245 5.48451 35.382 7.03631C36.0931 7.87701 36.6748 8.84686 37.1921 9.88162C37.7094 10.8515 38.2259 11.8853 38.7432 12.854L38.9377 13.2426C43.85 22.8735 48.6338 32.6987 53.094 42.3308V42.3948C53.6112 43.4294 54.0633 44.5937 54.5806 45.6276C54.904 46.4038 55.227 47.0488 55.4206 47.6959C55.9379 49.3764 56.1317 50.9931 55.8734 52.6729H55.8732ZM30.0816 49.6344C26.5913 45.2394 24.3284 41.102 23.5529 37.6124C23.2301 36.1253 23.1647 34.8325 23.3593 33.6688C23.4882 32.6343 23.8765 31.7289 24.3929 30.9526C25.6212 29.2089 27.6896 28.108 30.0816 28.108C32.4734 28.108 34.6065 29.1433 35.7699 30.9526C36.2867 31.7289 36.6748 32.6343 36.804 33.6688C36.9978 34.8325 36.9331 36.1897 36.6101 37.6124C35.8346 41.038 33.5719 45.175 30.0816 49.6344ZM59.2346 46.2735C58.9116 45.4977 58.5882 44.6577 58.2652 43.9466C57.7479 42.7836 57.2307 41.684 56.7781 40.6494L56.7134 40.5854C52.2537 30.8887 47.4699 21.0634 42.4278 11.3687L42.2342 10.9797C41.7169 10.0101 41.1997 8.97553 40.6831 7.94146C40.0362 6.77732 39.3896 5.55037 38.3558 4.386C36.2865 1.80037 33.3136 0.378418 30.1458 0.378418C26.9138 0.378418 24.0052 1.80037 21.8717 4.25732C20.9026 5.42053 20.1915 6.64865 19.5451 7.81303C19.0278 8.84686 18.5105 9.88139 17.9935 10.8515L17.7997 11.2382C12.8227 20.9343 7.97443 30.7602 3.51404 40.4563L3.44959 40.5854C2.99677 41.6193 2.47951 42.7178 1.96224 43.8822C1.61643 44.6483 1.29325 45.4244 0.993102 46.2095C0.152399 48.6006 -0.105882 50.8635 0.217086 53.1901C0.928649 58.0384 4.16068 62.1114 8.62084 63.9208C10.3011 64.6323 12.0465 64.9553 13.8568 64.9553C14.3738 64.9553 15.0202 64.8906 15.5375 64.8254C17.6703 64.5665 19.868 63.8568 22.0008 62.6279C24.6516 61.1413 27.1728 59.0085 30.0167 55.9056C32.8606 59.0085 35.4465 61.1415 38.0321 62.6279C40.1656 63.8568 42.3631 64.5665 44.4961 64.8254C45.0134 64.8906 45.6598 64.9553 46.1768 64.9553C47.9869 64.9553 49.7965 64.6323 51.4128 63.9208C55.9376 62.1114 59.105 57.974 59.8161 53.1901C60.3333 50.9272 60.0743 48.666 59.2343 46.2733L59.2346 46.2735Z" fill="#E0565B"/>
</g>
<defs>
<clipPath id="clip0">
<rect width="60" height="64.6875" fill="white" transform="translate(0.0825195 0.378418)"/>
</clipPath>
</defs>
</svg>
