<svg width="32" height="33" viewBox="0 0 32 33" fill="none" xmlns="http://www.w3.org/2000/svg">
<path d="M14.806 0.56326L0.379303 7.30326C0.281743 7.348 0.199095 7.41983 0.141198 7.51021C0.0833007 7.60058 0.0525944 7.70569 0.0527349 7.81302C0.0528753 7.92035 0.0838552 8.02538 0.141989 8.1156C0.200122 8.20583 0.282959 8.27744 0.380636 8.32193L14.9206 15.0126C15.35 15.2099 15.846 15.2099 16.2753 15.0126L30.8153 8.32193C30.913 8.27757 30.996 8.20606 31.0542 8.11592C31.1125 8.02577 31.1436 7.92078 31.1439 7.81345C31.1442 7.70612 31.1136 7.60097 31.0558 7.51052C30.998 7.42007 30.9155 7.34813 30.818 7.30326L16.39 0.56326C16.142 0.447385 15.8717 0.387329 15.598 0.387329C15.3243 0.387329 15.0539 0.447385 14.806 0.56326Z" fill="#00FF92"/>
<path opacity="0.64" d="M30.8177 15.9553L27.8377 14.5633C27.6242 14.4636 27.3917 14.4116 27.1561 14.4109C26.9205 14.4102 26.6877 14.4609 26.4737 14.5593L16.275 19.2526C16.0626 19.3503 15.8315 19.4009 15.5977 19.4009C15.3638 19.4009 15.1328 19.3503 14.9203 19.2526L4.72033 14.5593C4.50651 14.4611 4.27387 14.4105 4.03856 14.4112C3.80324 14.4119 3.5709 14.4638 3.35766 14.5633L0.377662 15.9553C0.280159 16.0002 0.197605 16.0721 0.139826 16.1626C0.0820467 16.253 0.0514788 16.3582 0.0517597 16.4655C0.0520407 16.5728 0.0831583 16.6778 0.14141 16.768C0.199662 16.8581 0.282593 16.9296 0.38033 16.974L14.9203 23.6633C15.1326 23.7615 15.3637 23.8124 15.5977 23.8124C15.8316 23.8124 16.0627 23.7615 16.275 23.6633L30.815 16.974C30.9127 16.9296 30.9957 16.8581 31.0539 16.768C31.1122 16.6778 31.1433 16.5728 31.1436 16.4655C31.1438 16.3582 31.1133 16.253 31.0555 16.1626C30.9977 16.0721 30.9152 16.0002 30.8177 15.9553Z" fill="#5AE4A9"/>
<path d="M30.8172 24.5313L27.8372 23.1393C27.6238 23.0396 27.3912 22.9876 27.1556 22.9869C26.9201 22.9862 26.6872 23.0368 26.4732 23.1353L16.2745 27.8273C16.0621 27.925 15.831 27.9756 15.5972 27.9756C15.3634 27.9756 15.1323 27.925 14.9199 27.8273L4.71985 23.134C4.50604 23.0357 4.27339 22.9852 4.03808 22.9858C3.80277 22.9865 3.57042 23.0384 3.35719 23.138L0.377186 24.5313C0.280059 24.5763 0.197876 24.6482 0.140373 24.7386C0.082869 24.8289 0.0524557 24.9338 0.0527363 25.0408C0.0530169 25.1479 0.0839808 25.2526 0.141957 25.3426C0.199933 25.4326 0.282492 25.5041 0.379854 25.5486L14.9199 32.2393C15.3492 32.4366 15.8452 32.4366 16.2745 32.2393L30.8145 25.5486C30.9119 25.5041 30.9944 25.4326 31.0524 25.3426C31.1104 25.2526 31.1414 25.1479 31.1416 25.0408C31.1419 24.9338 31.1115 24.8289 31.054 24.7386C30.9965 24.6482 30.9143 24.5763 30.8172 24.5313Z" fill="#00FF92"/>
</svg>
