<svg width="150" height="61" viewBox="0 0 150 61" fill="none" xmlns="http://www.w3.org/2000/svg">
<g clip-path="url(#clip0)">
<path d="M0.0825195 0.722168V4.82324H29.2513V0.722168H0.0825195ZM33.384 0.722168V4.82324H74.9508C74.9508 4.82324 70.7049 0.722168 65.0815 0.722168H33.384ZM83.105 0.722168V4.82324H108.252L106.76 0.722168H83.105ZM126.282 0.722168L124.789 4.82324H149.708V0.722168H126.282ZM0.0825195 8.69778V12.7989H29.2513V8.69778H0.0825195ZM33.384 8.70363V12.7989H79.7742C79.7742 12.7989 79.2325 9.64256 78.2874 8.70363H33.384ZM83.105 8.70363V12.7989H111.009L109.628 8.70363H83.105ZM123.296 8.70363L121.915 12.7989H149.708V8.70363H123.296ZM8.46496 16.6734V20.7797H21.0972V16.6734H8.46496ZM41.7664 16.6734V20.7797H54.3986V16.6734H41.7664ZM66.6854 16.6734V20.7797H79.3176C79.3176 20.7797 80.1196 18.6109 80.1196 16.6731H66.6854V16.6734ZM91.4874 16.6734V20.7797H113.883L112.391 16.6731H91.4874V16.6734ZM120.545 16.6734L119.046 20.78H141.554V16.6734H120.545ZM8.46496 24.6548V28.7553H21.0972V24.6548H8.46496ZM41.7664 24.6548V28.7553H74.0318C74.0318 28.7553 76.7309 26.6509 77.5908 24.6543H41.7664V24.6548ZM91.4874 24.6548V28.7553H104.12V26.4724L104.922 28.7553H128.061L128.922 26.4724V28.7553H141.554V24.6548H117.841L116.582 28.1287L115.318 24.6548H91.4874ZM8.46496 32.6299V36.7309H21.0972V32.6299H8.46496ZM41.7664 32.6299V36.7309H77.5908C76.7306 34.7407 74.0318 32.6299 74.0318 32.6299H41.7664ZM91.4874 32.6299V36.7309H104.12V32.6299H91.4874ZM106.414 32.6299L107.942 36.7309H125.292L126.744 32.6299H106.414ZM128.922 32.6299V36.7309H141.554V32.6299H128.922ZM8.46496 40.6055V44.7066H21.0972V40.6055H8.46496ZM41.7664 40.6055V44.7066H54.3986V40.6055H41.7664ZM66.6854 40.6055V44.7066H80.1196C80.1196 42.771 79.3176 40.6055 79.3176 40.6055H66.6854ZM91.4874 40.6055V44.7066H104.12V40.6055H91.4874ZM109.283 40.6055L110.763 44.7066H122.395L123.887 40.6055H109.283ZM128.922 40.6055V44.7066H141.554V40.6055H128.922ZM0.310812 48.5814V52.688H29.4796V48.5811H0.310812V48.5814ZM33.384 48.5814V52.688H78.2874C79.2325 51.7476 79.7742 48.5811 79.7742 48.5811H33.384V48.5814ZM83.3333 48.5814V52.688H104.12V48.5811H83.3333V48.5814ZM112.157 48.5814L113.679 52.688H119.597L121.025 48.5811H112.157V48.5814ZM128.922 48.5814V52.688H149.936V48.5811H128.922V48.5814ZM0.310812 56.5626V60.6636H29.4796V56.5626H0.310812ZM33.384 56.5626V60.6575H65.0815C70.7049 60.6575 74.9508 56.5623 74.9508 56.5623H33.384V56.5626ZM83.3333 56.5626V60.6636H104.12V56.5626H83.3333ZM115.043 56.5626L116.506 60.6516L116.758 60.6575L118.244 56.5623H115.043V56.5626ZM128.922 56.5626V60.6636H149.936V56.5626H128.922Z" fill="#1F70C1"/>
</g>
<defs>
<clipPath id="clip0">
<rect width="149.854" height="60" fill="white" transform="translate(0.0825195 0.722168)"/>
</clipPath>
</defs>
</svg>
