<svg width="61" height="71" viewBox="0 0 61 71" fill="none" xmlns="http://www.w3.org/2000/svg">
<g clip-path="url(#clip0)">
<path d="M19.3421 0.649753C18.9987 0.651965 18.6612 0.739683 18.3601 0.904987C17.3715 1.45296 17.0089 2.72303 17.5567 3.71093L19.7886 7.74124C14.4111 11.0682 10.8479 16.7513 10.8479 23.2376V24.4428C9.81504 23.2545 8.29699 22.5043 6.60082 22.5043C3.49301 22.5043 0.969727 25.0276 0.969727 28.1351V45.481C0.969727 48.5884 3.49324 51.1119 6.60082 51.1119C8.29699 51.1119 9.81504 50.3614 10.8477 49.1731V51.6029C10.8477 54.8787 13.5282 57.5591 16.8041 57.5591H18.3154V65.2754C18.3154 68.3832 20.8389 70.9065 23.9464 70.9065C27.054 70.9065 29.5773 68.383 29.5773 65.2754V57.5591H32.192V65.2754C32.192 68.3832 34.7155 70.9065 37.8231 70.9065C40.9307 70.9065 43.4539 68.383 43.4539 65.2754V57.5591H44.9654C48.2411 57.5591 50.9216 54.8787 50.9216 51.6029V49.1731C51.9543 50.3614 53.4725 51.1119 55.1687 51.1119C58.2763 51.1119 60.7996 48.5884 60.7996 45.481V28.1351C60.7996 25.0276 58.2763 22.5043 55.1687 22.5043C53.4725 22.5043 51.9543 23.2545 50.9216 24.4428V23.4416V23.3841C50.9221 23.3232 50.9216 23.2744 50.9216 23.2376C50.9216 16.7525 47.3502 11.075 41.9746 7.7478L44.2129 3.71093C44.7603 2.72303 44.398 1.45296 43.4094 0.904987C43.1083 0.739683 42.7708 0.651965 42.4274 0.649753C41.6973 0.642722 40.9808 1.02757 40.6035 1.70842L38.263 5.93655C35.9746 5.0921 33.4846 4.62921 30.8849 4.62921C28.2875 4.62921 25.7929 5.08718 23.5063 5.92999L21.1661 1.70842C20.7885 1.02757 20.0722 0.64319 19.3421 0.649753Z" fill="white"/>
<path d="M6.60115 23.9712C4.28225 23.9712 2.43701 25.8164 2.43701 28.1353V45.4812C2.43701 47.8001 4.28225 49.6453 6.60115 49.6453C8.92006 49.6453 10.7655 47.8001 10.7655 45.4812V28.1353C10.7655 25.8164 8.92006 23.9712 6.60115 23.9712ZM55.1693 23.9712C52.8501 23.9712 51.0049 25.8164 51.0049 28.1353V45.4812C51.0049 47.8001 52.8501 49.6453 55.1693 49.6453C57.4882 49.6453 59.3334 47.8001 59.3334 45.4812V28.1353C59.3334 25.8164 57.4882 23.9712 55.1693 23.9712Z" fill="#A4C639"/>
<path d="M23.9466 43.7654C21.6277 43.7654 19.7822 45.6106 19.7822 47.9298V65.2754C19.7822 67.5943 21.6277 69.4395 23.9466 69.4395C26.2655 69.4395 28.1107 67.5943 28.1107 65.2754V47.9298C28.1107 45.6106 26.2655 43.7654 23.9466 43.7654ZM37.8232 43.7654C35.5041 43.7654 33.6589 45.6106 33.6589 47.9298V65.2754C33.6589 67.5943 35.5041 69.4395 37.8232 69.4395C40.1421 69.4395 41.9874 67.5943 41.9874 65.2754V47.9298C41.9874 45.6106 40.1421 43.7654 37.8232 43.7654Z" fill="#A4C639"/>
<path d="M19.3546 2.11678C19.2561 2.11797 19.1596 2.14427 19.0741 2.19319C18.7771 2.35772 18.6796 2.69897 18.8444 2.99662L21.7781 8.29608C16.1343 11.2328 12.322 16.8135 12.3145 23.2185H49.4547C49.447 16.8135 45.6349 11.2326 39.9911 8.29608L42.9245 2.99686C43.0895 2.6992 42.9918 2.35772 42.6949 2.19319C42.6094 2.14424 42.5128 2.11794 42.4143 2.11678C42.2034 2.11444 42.0039 2.21991 41.8914 2.42287L38.9195 7.77951C36.4886 6.70139 33.7619 6.096 30.8845 6.096C28.007 6.096 25.2806 6.70116 22.8494 7.77951L19.8775 2.42287C19.8268 2.32885 19.7513 2.25056 19.6591 2.19658C19.5669 2.14259 19.4617 2.11499 19.3549 2.11678H19.3546ZM12.3145 24.6852V51.6032C12.3132 52.1931 12.4285 52.7774 12.6536 53.3227C12.8788 53.8679 13.2094 54.3633 13.6266 54.7804C14.0437 55.1976 14.5391 55.5282 15.0844 55.7533C15.6297 55.9785 16.214 56.0937 16.8039 56.0924H44.9652C45.5552 56.0937 46.1395 55.9785 46.6848 55.7533C47.2301 55.5281 47.7255 55.1975 48.1427 54.7804C48.5598 54.3632 48.8904 53.8678 49.1156 53.3225C49.3408 52.7772 49.456 52.1929 49.4547 51.6029V24.6854H12.3145V24.6852Z" fill="#A4C639"/>
<path d="M22.3138 13.3213C21.4661 13.3213 20.7642 14.023 20.7642 14.8707C20.7642 15.7187 21.4661 16.4204 22.3138 16.4204C23.1618 16.4204 23.8635 15.7187 23.8635 14.8707C23.8635 14.023 23.1618 13.3213 22.3138 13.3213ZM39.4556 13.3213C38.6076 13.3213 37.9059 14.023 37.9059 14.8707C37.9059 15.7187 38.6076 16.4204 39.4556 16.4204C40.3033 16.4204 41.0052 15.7187 41.0052 14.8707C41.0052 14.023 40.3033 13.3213 39.4556 13.3213Z" fill="white"/>
</g>
<defs>
<clipPath id="clip0">
<rect width="60" height="70.5469" fill="white" transform="translate(0.969727 0.44873)"/>
</clipPath>
</defs>
</svg>
