<svg width="33" height="33" viewBox="0 0 33 33" fill="none" xmlns="http://www.w3.org/2000/svg">
<path d="M31.2092 0.171875H1.75007C1.04161 0.171875 0.469238 0.744246 0.469238 1.45271V30.9118C0.469238 31.6203 1.04161 32.1927 1.75007 32.1927H31.2092C31.9176 32.1927 32.49 31.6203 32.49 30.9118V1.45271C32.49 0.744246 31.9176 0.171875 31.2092 0.171875ZM27.5108 9.51794H24.9531C22.9478 9.51794 22.5596 10.4706 22.5596 11.8715V14.9575H27.3467L26.7223 19.7886H22.5596V32.1927H17.5683V19.7926H13.3936V14.9575H17.5683V11.3952C17.5683 7.26047 20.094 5.00701 23.7844 5.00701C25.5535 5.00701 27.0705 5.1391 27.5148 5.19914V9.51794H27.5108Z" fill="#5AE4A9"/>
</svg>
