<svg width="33" height="33" viewBox="0 0 33 33" fill="none" xmlns="http://www.w3.org/2000/svg">
<path d="M24.5977 13.7205H32.5977L28.5977 8.38721L24.5977 13.7205ZM24.5977 19.0539H32.5977L28.5977 24.3872L24.5977 19.0539Z" fill="#5AE4A9" fill-opacity="0.4"/>
<path d="M1.93099 0.387207H9.93099V32.3872H1.93099C1.57737 32.3872 1.23823 32.2467 0.98818 31.9967C0.738131 31.7466 0.597656 31.4075 0.597656 31.0539V1.72054C0.597656 1.36692 0.738131 1.02778 0.98818 0.77773C1.23823 0.527682 1.57737 0.387207 1.93099 0.387207Z" fill="#5AE4A9" fill-opacity="0.4"/>
<path d="M12.5977 0.387207H20.5977C20.9513 0.387207 21.2904 0.527682 21.5405 0.77773C21.7905 1.02778 21.931 1.36692 21.931 1.72054V31.0539C21.931 31.4075 21.7905 31.7466 21.5405 31.9967C21.2904 32.2467 20.9513 32.3872 20.5977 32.3872H12.5977V0.387207Z" fill="#5AE4A9" fill-opacity="0.4"/>
<path d="M24.5977 13.7205H32.5977L28.5977 8.38721L24.5977 13.7205ZM24.5977 19.0539H32.5977L28.5977 24.3872L24.5977 19.0539Z" fill="#00FF92"/>
<path d="M1.93099 0.387207H9.93099V32.3872H1.93099C1.57737 32.3872 1.23823 32.2467 0.98818 31.9967C0.738131 31.7466 0.597656 31.4075 0.597656 31.0539V1.72054C0.597656 1.36692 0.738131 1.02778 0.98818 0.77773C1.23823 0.527682 1.57737 0.387207 1.93099 0.387207Z" fill="#00FF92"/>
<path d="M12.5977 0.387207H20.5977C20.9513 0.387207 21.2904 0.527682 21.5405 0.77773C21.7905 1.02778 21.931 1.36692 21.931 1.72054V31.0539C21.931 31.4075 21.7905 31.7466 21.5405 31.9967C21.2904 32.2467 20.9513 32.3872 20.5977 32.3872H12.5977V0.387207Z" fill="#15CF74"/>
</svg>
