<svg width="33" height="33" viewBox="0 0 33 33" fill="none" xmlns="http://www.w3.org/2000/svg">
<path d="M28.266 4.61108C28.6196 4.61108 28.9587 4.75156 29.2088 5.00161C29.4588 5.25166 29.5993 5.5908 29.5993 5.94442V13.2778C28.7152 13.2778 27.8674 13.6289 27.2423 14.2541C26.6171 14.8792 26.266 15.727 26.266 16.6111C26.266 17.4951 26.6171 18.343 27.2423 18.9681C27.8674 19.5932 28.7152 19.9444 29.5993 19.9444V27.2778C29.5993 27.6314 29.4588 27.9705 29.2088 28.2206C28.9587 28.4706 28.6196 28.6111 28.266 28.6111H4.26595C3.91233 28.6111 3.57319 28.4706 3.32314 28.2206C3.07309 27.9705 2.93262 27.6314 2.93262 27.2778V19.9444C3.81667 19.9444 4.66452 19.5932 5.28964 18.9681C5.91476 18.343 6.26595 17.4951 6.26595 16.6111C6.26595 15.727 5.91476 14.8792 5.28964 14.2541C4.66452 13.6289 3.81667 13.2778 2.93262 13.2778V5.94442C2.93262 5.5908 3.07309 5.25166 3.32314 5.00161C3.57319 4.75156 3.91233 4.61108 4.26595 4.61108H28.266ZM21.5993 12.6111H10.9326V20.6111H21.5993V12.6111Z" fill="#F4F7FF"/>
</svg>
