<svg width="890" height="1705" viewBox="0 0 890 1705" fill="none" xmlns="http://www.w3.org/2000/svg">
<g opacity="0.2">
<path d="M-46.1841 960.143C-45.9918 959.973 -45.7021 959.912 -45.4462 959.98C-45.038 960.109 -44.8559 960.536 -44.9846 960.944L-97.8194 1119.12C-97.948 1119.53 -98.3751 1119.71 -98.7589 1119.61C-99.1671 1119.48 -99.3492 1119.06 -99.2206 1118.65L-46.3858 960.468C-46.352 960.341 -46.2939 960.24 -46.1841 960.143Z" fill="#545454" fill-opacity="0.2"/>
<path d="M-35.4789 1388.63L12.8162 1244.04C12.9449 1243.63 12.7353 1243.22 12.3546 1243.07C12.0743 1242.98 11.809 1243.06 11.6167 1243.23C11.5343 1243.31 11.4487 1243.43 11.415 1243.56L-36.6227 1387.34L-35.4789 1388.63Z" fill="#545454" fill-opacity="0.2"/>
<path d="M-98.9915 1118.3C-98.6893 1118.03 -98.223 1118.06 -97.9553 1118.36L12.6521 1243.3C12.9198 1243.6 12.8916 1244.07 12.5895 1244.33C12.2873 1244.6 11.821 1244.57 11.5533 1244.27L-99.0542 1119.33C-99.3493 1119.06 -99.3211 1118.59 -98.9915 1118.3Z" fill="#545454" fill-opacity="0.2"/>
<path d="M-99.019 1118.32C-98.7168 1118.06 -98.2505 1118.09 -97.9829 1118.39L12.6246 1243.32C12.8923 1243.62 12.8641 1244.09 12.5619 1244.36C12.2598 1244.63 11.7935 1244.6 11.5258 1244.3L-99.0817 1119.36C-99.3769 1119.08 -99.3212 1118.59 -99.019 1118.32Z" fill="#545454" fill-opacity="0.2"/>
<path d="M11.5871 1243.26C11.6695 1243.19 11.8037 1243.12 11.9348 1243.1L175.353 1209.83C175.773 1209.75 176.148 1210 176.254 1210.4C176.332 1210.82 176.076 1211.2 175.655 1211.27L12.2371 1244.55C11.8164 1244.63 11.442 1244.37 11.336 1243.97C11.2755 1243.68 11.3948 1243.43 11.5871 1243.26Z" fill="#545454" fill-opacity="0.2"/>
<path d="M-46.1841 960.143C-45.9918 959.973 -45.7021 959.912 -45.4462 959.98C-45.038 960.109 -44.8559 960.536 -44.9846 960.944L-97.8194 1119.12C-97.948 1119.53 -98.3751 1119.71 -98.7589 1119.61C-99.1671 1119.48 -99.3492 1119.06 -99.2206 1118.65L-46.3858 960.468C-46.352 960.341 -46.2939 960.24 -46.1841 960.143Z" fill="#545454" fill-opacity="0.2"/>
<path d="M84.9099 1545.88L233.428 1515.65C233.849 1515.57 234.081 1515.17 234.027 1514.77C233.948 1514.35 233.547 1514.12 233.153 1514.17L83.7661 1544.59L84.9099 1545.88Z" fill="#545454" fill-opacity="0.2"/>
<path d="M285.614 1356.18C285.807 1356.01 286.096 1355.95 286.352 1356.02C286.76 1356.14 286.942 1356.57 286.814 1356.98L233.979 1515.16C233.85 1515.57 233.423 1515.75 233.039 1515.65C232.631 1515.52 232.449 1515.09 232.578 1514.68L285.413 1356.5C285.446 1356.38 285.504 1356.28 285.614 1356.18Z" fill="#545454" fill-opacity="0.2"/>
<path d="M175.006 1231.24C175.308 1230.98 175.775 1231.01 176.042 1231.31L286.65 1356.24C286.917 1356.54 286.889 1357.01 286.587 1357.28C286.285 1357.55 285.819 1357.52 285.551 1357.22L174.943 1232.28C174.648 1232 174.676 1231.54 175.006 1231.24Z" fill="#545454" fill-opacity="0.2"/>
<path d="M11.5871 1243.26C11.6695 1243.19 11.8037 1243.12 11.9348 1243.1L175.325 1209.85C175.746 1209.77 176.12 1210.03 176.226 1210.42C176.305 1210.85 176.048 1211.22 175.628 1211.3L12.2371 1244.55C11.8164 1244.63 11.442 1244.37 11.336 1243.97C11.2755 1243.68 11.3948 1243.43 11.5871 1243.26Z" fill="#545454" fill-opacity="0.2"/>
<path d="M-35.4789 1388.63L12.7887 1244.06C12.9174 1243.65 12.7078 1243.25 12.2996 1243.12C12.0194 1243.02 11.754 1243.11 11.5617 1243.28C11.4793 1243.36 11.3938 1243.48 11.36 1243.61L-36.6471 1387.32L-35.4789 1388.63Z" fill="#545454" fill-opacity="0.2"/>
<path d="M174.978 1231.27C175.28 1231 175.746 1231.03 176.014 1231.33L286.621 1356.27C286.889 1356.57 286.861 1357.03 286.559 1357.3C286.257 1357.57 285.79 1357.54 285.523 1357.24L174.915 1232.3C174.62 1232.03 174.648 1231.56 174.978 1231.27Z" fill="#545454" fill-opacity="0.2"/>
<path d="M285.585 1356.2C285.695 1356.11 285.802 1356.06 285.933 1356.04L449.35 1322.77C449.771 1322.69 450.146 1322.95 450.224 1323.37C450.303 1323.79 450.046 1324.16 449.625 1324.24L286.207 1357.52C285.787 1357.59 285.412 1357.34 285.334 1356.92C285.273 1356.63 285.393 1356.37 285.585 1356.2Z" fill="#545454" fill-opacity="0.2"/>
<path d="M317.923 1609.37L233.842 1514.4C233.574 1514.1 233.108 1514.07 232.805 1514.34C232.503 1514.6 232.447 1515.09 232.715 1515.4L316.796 1610.37L317.923 1609.37Z" fill="#545454" fill-opacity="0.2"/>
<path d="M84.9099 1545.88L233.428 1515.65C233.849 1515.57 234.081 1515.17 234.027 1514.77C233.948 1514.35 233.547 1514.12 233.153 1514.17L83.7661 1544.59L84.9099 1545.88Z" fill="#545454" fill-opacity="0.2"/>
<path d="M317.895 1609.4L233.814 1514.42C233.546 1514.12 233.08 1514.09 232.778 1514.36C232.476 1514.63 232.447 1515.09 232.715 1515.4L316.796 1610.37L317.895 1609.4Z" fill="#545454" fill-opacity="0.2"/>
<path d="M534.148 1417.94L450.067 1322.97C449.799 1322.67 449.333 1322.64 449.031 1322.91C448.728 1323.17 448.673 1323.66 448.94 1323.97L533.021 1418.94L534.148 1417.94Z" fill="#545454" fill-opacity="0.2"/>
<path d="M285.614 1356.18C285.697 1356.11 285.831 1356.04 285.962 1356.02L449.352 1322.77C449.773 1322.69 450.147 1322.95 450.226 1323.37C450.305 1323.79 450.048 1324.16 449.627 1324.24L286.237 1357.49C285.816 1357.57 285.442 1357.31 285.363 1356.89C285.303 1356.6 285.422 1356.35 285.614 1356.18Z" fill="#545454" fill-opacity="0.2"/>
<path d="M285.614 1356.18C285.807 1356.01 286.096 1355.95 286.352 1356.02C286.76 1356.14 286.942 1356.57 286.814 1356.98L233.979 1515.16C233.85 1515.57 233.423 1515.75 233.039 1515.65C232.631 1515.52 232.449 1515.09 232.578 1514.68L285.413 1356.5C285.446 1356.38 285.504 1356.28 285.614 1356.18Z" fill="#545454" fill-opacity="0.2"/>
<path d="M534.12 1417.97L450.039 1322.99C449.771 1322.69 449.305 1322.66 449.003 1322.93C448.701 1323.2 448.673 1323.66 448.94 1323.97L533.021 1418.94L534.12 1417.97Z" fill="#545454" fill-opacity="0.2"/>
<path d="M-99.139 1065.64C-99.0566 1065.57 -98.9224 1065.5 -98.7913 1065.48L1.60707 1045.05C2.0278 1044.97 2.40223 1045.23 2.50823 1045.62C2.58677 1046.04 2.33014 1046.42 1.90941 1046.5L-98.4889 1066.93C-98.9097 1067.01 -99.2841 1066.75 -99.3901 1066.35C-99.4262 1066.09 -99.3313 1065.81 -99.139 1065.64Z" fill="#545454" fill-opacity="0.2"/>
<path d="M2.88975 1051.31C5.96906 1050.7 7.91861 1047.7 7.29588 1044.67C6.67627 1041.59 3.67447 1039.64 0.646966 1040.26C-2.43235 1040.87 -4.3819 1043.88 -3.75916 1046.9C-3.1639 1049.96 -0.189566 1051.93 2.88975 1051.31Z" fill="#545454" fill-opacity="0.2"/>
<path d="M33.7061 948.027C33.8984 947.857 34.188 947.797 34.4439 947.864C34.8521 947.993 35.0342 948.42 34.933 948.804L2.45357 1046.01C2.32488 1046.42 1.89784 1046.6 1.51399 1046.5C1.1058 1046.37 0.923664 1045.94 1.05236 1045.53L33.5044 948.353C33.5381 948.225 33.5962 948.124 33.7061 948.027Z" fill="#545454" fill-opacity="0.2"/>
<path d="M7.11816 1047.57C6.13175 1050.55 2.91675 1052.12 -0.013556 1051.14C-2.9682 1050.12 -4.56899 1046.93 -3.58572 1044C-2.59931 1041.02 0.61569 1039.45 3.546 1040.43C6.47631 1041.42 8.0771 1044.61 7.11816 1047.57Z" fill="#545454" fill-opacity="0.2"/>
<path d="M39.5705 950.387C40.5569 947.405 38.9561 944.213 35.9983 943.252C33.0162 942.264 29.8255 943.863 28.8666 946.82C27.8802 949.802 29.481 952.994 32.4388 953.955C35.3691 954.94 38.5598 953.341 39.5705 950.387Z" fill="#545454" fill-opacity="0.2"/>
<path d="M-34.239 871.278C-33.9369 871.011 -33.4706 871.039 -33.2029 871.342L34.7434 948.089C35.0111 948.392 34.9829 948.858 34.6807 949.126C34.3786 949.393 33.9123 949.365 33.6446 949.062L-34.3017 872.315C-34.5969 872.037 -34.5687 871.57 -34.239 871.278Z" fill="#545454" fill-opacity="0.2"/>
<path d="M38.4501 944.859C40.5187 947.195 40.3023 950.77 37.9673 952.837C35.6322 954.904 32.0575 954.686 29.989 952.349C27.9204 950.013 28.1367 946.438 30.4718 944.371C32.8068 942.304 36.3815 942.522 38.4501 944.859Z" fill="#545454" fill-opacity="0.2"/>
<path d="M-34.2689 871.305C-33.9667 871.037 -33.5005 871.066 -33.2328 871.368L34.7136 948.116C34.9813 948.418 34.953 948.884 34.6509 949.152C34.3487 949.42 33.8824 949.391 33.6147 949.089L-34.3316 872.341C-34.5993 872.039 -34.5711 871.572 -34.2689 871.305Z" fill="#545454" fill-opacity="0.2"/>
<path d="M38.4213 944.884C40.4898 947.221 40.2735 950.795 37.9385 952.863C35.6034 954.93 32.0287 954.711 29.9602 952.375C27.8916 950.038 28.1079 946.463 30.443 944.396C32.778 942.329 36.3527 942.548 38.4213 944.884Z" fill="#545454" fill-opacity="0.2"/>
<path d="M33.6801 948.05C33.79 947.953 33.8968 947.908 34.0278 947.89L134.426 927.456C134.847 927.377 135.221 927.634 135.3 928.055C135.378 928.476 135.122 928.85 134.701 928.929L34.3027 949.363C33.882 949.441 33.5076 949.184 33.429 948.763C33.3929 948.501 33.4878 948.221 33.6801 948.05Z" fill="#545454" fill-opacity="0.2"/>
<path d="M35.3112 954.158C32.2319 954.775 29.2575 952.799 28.6622 949.747C28.0151 946.691 30.0165 943.694 33.0683 943.1C36.1476 942.483 39.122 944.458 39.7173 947.511C40.34 950.539 38.3661 953.512 35.3112 954.158Z" fill="#545454" fill-opacity="0.2"/>
<path d="M135.709 933.724C138.788 933.106 140.738 930.106 140.115 927.077C139.468 924.022 136.494 922.046 133.466 922.667C130.387 923.285 128.437 926.285 129.06 929.314C129.655 932.366 132.63 934.342 135.709 933.724Z" fill="#545454" fill-opacity="0.2"/>
<path d="M69.2012 1121.96C69.3935 1121.79 69.6831 1121.73 69.939 1121.79C70.3472 1121.92 70.5294 1122.35 70.4007 1122.76L37.9487 1219.94C37.82 1220.35 37.393 1220.53 36.9848 1220.4C36.5766 1220.27 36.3944 1219.85 36.5231 1219.44L68.9752 1122.26C69.0332 1122.16 69.0913 1122.05 69.2012 1121.96Z" fill="#545454" fill-opacity="0.2"/>
<path d="M42.6134 1221.5C41.6027 1224.45 38.4119 1226.05 35.4816 1225.07C32.5269 1224.05 30.9262 1220.86 31.9094 1217.93C32.8958 1214.95 36.1109 1213.38 39.0412 1214.36C41.999 1215.33 43.5724 1218.54 42.6134 1221.5Z" fill="#545454" fill-opacity="0.2"/>
<path d="M75.0661 1124.32C76.0525 1121.34 74.4517 1118.14 71.4939 1117.18C68.5392 1116.17 65.3211 1117.79 64.3622 1120.75C63.3514 1123.7 64.9766 1126.92 67.9344 1127.88C70.8647 1128.87 74.0553 1127.27 75.0661 1124.32Z" fill="#545454" fill-opacity="0.2"/>
<path d="M1.25461 1045.21C1.55679 1044.94 2.02305 1044.97 2.29075 1045.27L70.237 1122.02C70.5047 1122.32 70.4765 1122.79 70.1743 1123.06C69.8721 1123.32 69.4059 1123.3 69.1382 1122.99L1.19192 1046.25C0.896757 1045.97 0.924966 1045.5 1.25461 1045.21Z" fill="#545454" fill-opacity="0.2"/>
<path d="M73.9437 1118.79C76.0123 1121.13 75.796 1124.7 73.461 1126.77C71.1259 1128.83 67.5512 1128.62 65.4826 1126.28C63.4141 1123.94 63.6304 1120.37 65.9654 1118.3C68.3005 1116.23 71.8752 1116.45 73.9437 1118.79Z" fill="#545454" fill-opacity="0.2"/>
<path d="M5.51368 1050.02C7.85014 1047.95 8.06627 1044.38 5.99644 1042.04C3.92661 1039.7 0.354611 1039.48 -1.98185 1041.55C-4.31832 1043.62 -4.53449 1047.19 -2.46466 1049.53C-0.394823 1051.87 3.17721 1052.09 5.51368 1050.02Z" fill="#545454" fill-opacity="0.2"/>
<path d="M-99.1413 1065.64C-99.0589 1065.57 -98.9247 1065.5 -98.7936 1065.48L1.57727 1045.07C1.998 1044.99 2.37244 1045.25 2.45098 1045.67C2.52951 1046.09 2.27288 1046.47 1.85216 1046.55L-98.5187 1066.96C-98.9394 1067.03 -99.3139 1066.78 -99.4199 1066.38C-99.4286 1066.09 -99.3336 1065.81 -99.1413 1065.64Z" fill="#545454" fill-opacity="0.2"/>
<path d="M0.595124 1040.25C3.67443 1039.64 6.6488 1041.61 7.24407 1044.66C7.86368 1047.74 5.88979 1050.72 2.83795 1051.31C-0.241356 1051.93 -3.21572 1049.95 -3.81099 1046.9C-4.43373 1043.87 -2.43238 1040.87 0.595124 1040.25Z" fill="#545454" fill-opacity="0.2"/>
<path d="M1.22912 1045.23C1.53131 1044.97 1.99755 1045 2.26525 1045.3L70.2115 1122.05C70.4792 1122.35 70.451 1122.81 70.1488 1123.08C69.8466 1123.35 69.3804 1123.32 69.1127 1123.02L1.1664 1046.27C0.898705 1045.97 0.92694 1045.5 1.22912 1045.23Z" fill="#545454" fill-opacity="0.2"/>
<path d="M73.9173 1118.81C75.9859 1121.15 75.7696 1124.72 73.4345 1126.79C71.0995 1128.86 67.5248 1128.64 65.4562 1126.3C63.3877 1123.97 63.604 1120.39 65.9391 1118.33C68.2741 1116.26 71.8488 1116.48 73.9173 1118.81Z" fill="#545454" fill-opacity="0.2"/>
<path d="M5.97251 1042.06C3.90394 1039.73 0.329277 1039.51 -2.00577 1041.58C-4.34082 1043.64 -4.55715 1047.22 -2.48858 1049.55C-0.420011 1051.89 3.15471 1052.11 5.48976 1050.04C7.82481 1047.97 8.04109 1044.4 5.97251 1042.06Z" fill="#545454" fill-opacity="0.2"/>
<path d="M69.1787 1121.98C69.2885 1121.88 69.3953 1121.84 69.5264 1121.82L169.925 1101.38C170.345 1101.31 170.72 1101.56 170.798 1101.98C170.877 1102.4 170.62 1102.78 170.224 1102.88L69.8256 1123.32C69.4049 1123.4 69.0304 1123.14 68.9519 1122.72C68.8914 1122.43 68.9864 1122.15 69.1787 1121.98Z" fill="#545454" fill-opacity="0.2"/>
<path d="M70.8092 1128.09C67.7299 1128.7 64.7555 1126.73 64.1602 1123.68C63.5132 1120.62 65.5145 1117.62 68.5664 1117.03C71.6213 1116.38 74.62 1118.39 75.2153 1121.44C75.838 1124.47 73.8642 1127.44 70.8092 1128.09Z" fill="#545454" fill-opacity="0.2"/>
<path d="M171.207 1107.65C174.262 1107.01 176.236 1104.03 175.613 1101.01C174.993 1097.93 171.991 1095.97 168.964 1096.6C165.885 1097.21 163.935 1100.21 164.558 1103.24C165.153 1106.29 168.127 1108.27 171.207 1107.65Z" fill="#545454" fill-opacity="0.2"/>
<path d="M202.027 1004.36C202.22 1004.19 202.509 1004.13 202.765 1004.2C203.173 1004.33 203.355 1004.76 203.254 1005.14L170.802 1102.32C170.673 1102.73 170.246 1102.91 169.838 1102.78C169.43 1102.65 169.248 1102.23 169.349 1101.84L201.801 1004.66C201.859 1004.56 201.917 1004.46 202.027 1004.36Z" fill="#545454" fill-opacity="0.2"/>
<path d="M175.438 1103.91C174.427 1106.86 171.236 1108.46 168.306 1107.47C165.324 1106.49 163.75 1103.27 164.734 1100.34C165.72 1097.36 168.935 1095.79 171.865 1096.77C174.823 1097.73 176.424 1100.92 175.438 1103.91Z" fill="#545454" fill-opacity="0.2"/>
<path d="M207.889 1006.72C208.876 1003.74 207.275 1000.55 204.317 999.589C201.335 998.601 198.144 1000.2 197.185 1003.16C196.175 1006.11 197.8 1009.33 200.758 1010.29C203.688 1011.28 206.879 1009.68 207.889 1006.72Z" fill="#545454" fill-opacity="0.2"/>
<path d="M134.08 927.618C134.382 927.35 134.848 927.379 135.116 927.681L203.062 1004.43C203.33 1004.73 203.302 1005.2 202.999 1005.46C202.697 1005.73 202.231 1005.7 201.963 1005.4L134.017 928.654C133.722 928.376 133.777 927.886 134.08 927.618Z" fill="#545454" fill-opacity="0.2"/>
<path d="M206.768 1001.2C208.836 1003.53 208.62 1007.11 206.285 1009.18C203.95 1011.24 200.375 1011.02 198.307 1008.69C196.238 1006.35 196.455 1002.78 198.79 1000.71C201.125 998.642 204.699 998.86 206.768 1001.2Z" fill="#545454" fill-opacity="0.2"/>
<path d="M138.823 924.448C136.755 922.112 133.18 921.893 130.845 923.96C128.51 926.028 128.293 929.602 130.362 931.939C132.431 934.276 136.005 934.494 138.34 932.427C140.675 930.36 140.892 926.785 138.823 924.448Z" fill="#545454" fill-opacity="0.2"/>
<path d="M33.684 948.051C33.7939 947.954 33.9007 947.908 34.0317 947.89L134.403 927.481C134.823 927.402 135.198 927.659 135.276 928.08C135.355 928.501 135.098 928.875 134.678 928.953L34.3066 949.363C33.8859 949.441 33.5115 949.184 33.4329 948.764C33.3968 948.501 33.4917 948.221 33.684 948.051Z" fill="#545454" fill-opacity="0.2"/>
<path d="M133.419 922.663C136.498 922.046 139.473 924.022 140.068 927.074C140.687 930.154 138.714 933.127 135.662 933.721C132.582 934.338 129.608 932.363 129.013 929.31C128.417 926.258 130.391 923.284 133.419 922.663Z" fill="#545454" fill-opacity="0.2"/>
<path d="M38.4976 944.938C36.4595 942.572 32.8908 942.305 30.5267 944.342C28.1625 946.379 27.8981 949.948 29.9362 952.313C31.9743 954.679 35.543 954.946 37.9072 952.909C40.2714 950.872 40.5357 947.303 38.4976 944.938Z" fill="#545454" fill-opacity="0.2"/>
<path d="M33.6831 948.05C33.8754 947.88 34.165 947.82 34.4209 947.887C34.8291 948.016 35.0113 948.443 34.91 948.827L2.43056 1046.03C2.30186 1046.44 1.87485 1046.62 1.491 1046.52C1.08281 1046.39 0.900664 1045.97 1.00189 1045.58L33.4539 948.4C33.5151 948.248 33.6007 948.123 33.6831 948.05Z" fill="#545454" fill-opacity="0.2"/>
<path d="M28.8163 946.818C29.8027 943.836 33.0177 942.265 35.948 943.25C38.9301 944.238 40.5035 947.454 39.5202 950.384C38.5094 953.338 35.3188 954.937 32.3885 953.952C29.4307 952.991 27.8299 949.8 28.8163 946.818Z" fill="#545454" fill-opacity="0.2"/>
<path d="M-3.63494 1044C-4.64569 1046.95 -3.02053 1050.17 -0.0627429 1051.13C2.89191 1052.15 6.11005 1050.52 7.06899 1047.57C8.05541 1044.58 6.45458 1041.39 3.4968 1040.43C0.566482 1039.45 -2.62419 1041.04 -3.63494 1044Z" fill="#545454" fill-opacity="0.2"/>
<path d="M134.05 927.641C134.352 927.374 134.818 927.402 135.086 927.705L203.032 1004.45C203.3 1004.75 203.272 1005.22 202.97 1005.49C202.667 1005.76 202.201 1005.73 201.933 1005.42L133.987 928.677C133.72 928.375 133.748 927.909 134.05 927.641Z" fill="#545454" fill-opacity="0.2"/>
<path d="M206.739 1001.22C208.808 1003.56 208.591 1007.13 206.256 1009.2C203.921 1011.27 200.347 1011.05 198.278 1008.71C196.209 1006.37 196.426 1002.8 198.761 1000.73C201.096 998.665 204.671 998.884 206.739 1001.22Z" fill="#545454" fill-opacity="0.2"/>
<path d="M138.792 924.473C136.724 922.136 133.149 921.918 130.814 923.985C128.479 926.052 128.263 929.627 130.331 931.963C132.4 934.3 135.975 934.519 138.31 932.451C140.645 930.384 140.861 926.809 138.792 924.473Z" fill="#545454" fill-opacity="0.2"/>
<path d="M201.998 1004.39C202.108 1004.29 202.215 1004.25 202.346 1004.23L302.744 983.794C303.165 983.716 303.539 983.973 303.645 984.369C303.724 984.79 303.467 985.164 303.071 985.27L202.673 1005.7C202.252 1005.78 201.877 1005.53 201.771 1005.13C201.738 1004.81 201.806 1004.56 201.998 1004.39Z" fill="#545454" fill-opacity="0.2"/>
<path d="M203.658 1010.47C200.579 1011.09 197.605 1009.11 197.009 1006.06C196.39 1002.98 198.364 1000.01 201.415 999.413C204.47 998.767 207.469 1000.77 208.064 1003.82C208.66 1006.88 206.686 1009.85 203.658 1010.47Z" fill="#545454" fill-opacity="0.2"/>
<path d="M304.03 990.06C307.085 989.414 309.059 986.441 308.436 983.413C307.816 980.333 304.815 978.381 301.787 979.002C298.708 979.62 296.758 982.621 297.381 985.649C298.004 988.677 300.978 990.653 304.03 990.06Z" fill="#545454" fill-opacity="0.2"/>
<path d="M334.848 886.773C335.041 886.603 335.33 886.543 335.586 886.61C335.995 886.739 336.177 887.166 336.075 887.55L303.623 984.732C303.495 985.14 303.068 985.322 302.66 985.193C302.251 985.064 302.069 984.637 302.17 984.253L334.622 887.071C334.681 886.971 334.766 886.846 334.848 886.773Z" fill="#545454" fill-opacity="0.2"/>
<path d="M308.259 986.315C307.248 989.269 304.057 990.868 301.127 989.883C298.172 988.87 296.572 985.678 297.555 982.748C298.541 979.767 301.756 978.195 304.687 979.18C307.645 980.141 309.245 983.333 308.259 986.315Z" fill="#545454" fill-opacity="0.2"/>
<path d="M340.711 889.133C341.697 886.151 340.096 882.959 337.138 881.998C334.156 881.01 330.966 882.609 330.007 885.566C328.996 888.52 330.621 891.74 333.579 892.701C336.537 893.662 339.727 892.063 340.711 889.133Z" fill="#545454" fill-opacity="0.2"/>
<path d="M266.902 810.025C267.204 809.758 267.67 809.786 267.938 810.089L335.884 886.836C336.152 887.139 336.124 887.605 335.822 887.872C335.519 888.14 335.053 888.111 334.786 887.809L266.839 811.062C266.572 810.759 266.6 810.293 266.902 810.025Z" fill="#545454" fill-opacity="0.2"/>
<path d="M339.59 883.604C341.658 885.941 341.442 889.516 339.107 891.583C336.772 893.65 333.197 893.432 331.129 891.095C329.06 888.759 329.276 885.184 331.611 883.117C333.946 881.049 337.521 881.268 339.59 883.604Z" fill="#545454" fill-opacity="0.2"/>
<path d="M271.645 806.855C269.576 804.519 266.002 804.3 263.667 806.368C261.332 808.435 261.115 812.01 263.184 814.346C265.252 816.683 268.827 816.901 271.162 814.834C273.497 812.767 273.714 809.192 271.645 806.855Z" fill="#545454" fill-opacity="0.2"/>
<path d="M266.903 810.027C267.206 809.759 267.672 809.788 267.94 810.09L335.886 886.837C336.154 887.14 336.125 887.606 335.823 887.874C335.521 888.141 335.055 888.113 334.787 887.81L266.841 811.063C266.545 810.785 266.601 810.294 266.903 810.027Z" fill="#545454" fill-opacity="0.2"/>
<path d="M339.591 883.606C341.66 885.942 341.443 889.517 339.108 891.584C336.773 893.652 333.199 893.433 331.13 891.096C329.062 888.76 329.278 885.185 331.613 883.118C333.948 881.05 337.523 881.269 339.591 883.606Z" fill="#545454" fill-opacity="0.2"/>
<path d="M271.643 806.858C269.574 804.522 266 804.303 263.665 806.371C261.33 808.438 261.113 812.013 263.182 814.349C265.25 816.686 268.825 816.904 271.16 814.837C273.495 812.77 273.712 809.195 271.643 806.858Z" fill="#545454" fill-opacity="0.2"/>
<path d="M334.85 886.774C334.932 886.701 335.066 886.631 335.197 886.613L435.596 866.179C436.016 866.101 436.391 866.358 436.469 866.779C436.548 867.2 436.291 867.574 435.895 867.68L335.496 888.114C335.076 888.192 334.701 887.935 334.623 887.514C334.562 887.224 334.657 886.944 334.85 886.774Z" fill="#545454" fill-opacity="0.2"/>
<path d="M336.483 892.879C333.404 893.497 330.429 891.521 329.834 888.469C329.187 885.413 331.188 882.415 334.24 881.822C337.295 881.177 340.294 883.18 340.889 886.232C341.512 889.261 339.511 892.258 336.483 892.879Z" fill="#545454" fill-opacity="0.2"/>
<path d="M436.88 872.446C439.935 871.801 441.909 868.827 441.286 865.799C440.639 862.743 437.665 860.767 434.637 861.388C431.558 862.006 429.608 865.007 430.231 868.035C430.826 871.087 433.801 873.063 436.88 872.446Z" fill="#545454" fill-opacity="0.2"/>
<path d="M169.6 1101.52C169.902 1101.25 170.368 1101.28 170.636 1101.58L238.582 1178.33C238.85 1178.63 238.822 1179.1 238.52 1179.37C238.217 1179.63 237.751 1179.61 237.483 1179.3L169.537 1102.56C169.242 1102.28 169.27 1101.81 169.6 1101.52Z" fill="#545454" fill-opacity="0.2"/>
<path d="M242.262 1175.07C244.331 1177.41 244.114 1180.98 241.779 1183.05C239.444 1185.12 235.87 1184.9 233.801 1182.56C231.732 1180.23 231.949 1176.65 234.284 1174.59C236.619 1172.52 240.194 1172.74 242.262 1175.07Z" fill="#545454" fill-opacity="0.2"/>
<path d="M174.314 1098.38C172.246 1096.04 168.671 1095.82 166.336 1097.89C164.001 1099.96 163.785 1103.53 165.853 1105.87C167.922 1108.2 171.496 1108.42 173.832 1106.36C176.17 1104.24 176.383 1100.71 174.314 1098.38Z" fill="#545454" fill-opacity="0.2"/>
<path d="M69.2019 1121.96C69.2843 1121.88 69.4186 1121.81 69.5497 1121.79L169.921 1101.38C170.341 1101.31 170.716 1101.56 170.794 1101.98C170.873 1102.4 170.616 1102.78 170.22 1102.89L69.8489 1123.29C69.4281 1123.37 69.0537 1123.12 68.9477 1122.72C68.9147 1122.41 69.0096 1122.13 69.2019 1121.96Z" fill="#545454" fill-opacity="0.2"/>
<path d="M168.939 1096.57C172.018 1095.95 174.993 1097.92 175.588 1100.98C176.235 1104.03 174.234 1107.03 171.182 1107.62C168.127 1108.27 165.128 1106.27 164.533 1103.21C163.91 1100.18 165.884 1097.21 168.939 1096.57Z" fill="#545454" fill-opacity="0.2"/>
<path d="M68.5682 1116.98C65.4889 1117.59 63.5394 1120.59 64.1621 1123.62C64.7817 1126.7 67.7835 1128.65 70.811 1128.03C73.866 1127.39 75.8399 1124.41 75.2171 1121.39C74.5944 1118.36 71.62 1116.38 68.5682 1116.98Z" fill="#545454" fill-opacity="0.2"/>
<path d="M69.2026 1121.96C69.3949 1121.79 69.6846 1121.73 69.9405 1121.79C70.3487 1121.92 70.5309 1122.35 70.4022 1122.76L37.9502 1219.94C37.8215 1220.35 37.3944 1220.53 36.9862 1220.4C36.5781 1220.27 36.3959 1219.84 36.5246 1219.44L68.9766 1122.25C69.0347 1122.15 69.0928 1122.05 69.2026 1121.96Z" fill="#545454" fill-opacity="0.2"/>
<path d="M64.3363 1120.72C65.3227 1117.74 68.5378 1116.17 71.4681 1117.15C74.4502 1118.14 76.0236 1121.36 75.0403 1124.29C74.0295 1127.24 70.8388 1128.84 67.9085 1127.86C64.9507 1126.9 63.3499 1123.7 64.3363 1120.72Z" fill="#545454" fill-opacity="0.2"/>
<path d="M31.8851 1217.9C30.8987 1220.89 32.4995 1224.08 35.4573 1225.04C38.412 1226.05 41.6302 1224.43 42.5891 1221.47C43.5755 1218.49 41.9746 1215.3 39.0168 1214.34C36.0865 1213.35 32.8684 1214.97 31.8851 1217.9Z" fill="#545454" fill-opacity="0.2"/>
<path d="M169.574 1101.55C169.876 1101.28 170.342 1101.31 170.61 1101.61L238.556 1178.36C238.824 1178.66 238.796 1179.13 238.494 1179.39C238.191 1179.66 237.725 1179.63 237.457 1179.33L169.511 1102.58C169.243 1102.28 169.272 1101.81 169.574 1101.55Z" fill="#545454" fill-opacity="0.2"/>
<path d="M242.239 1175.1C244.307 1177.44 244.091 1181.01 241.756 1183.08C239.421 1185.14 235.846 1184.93 233.778 1182.59C231.709 1180.25 231.925 1176.68 234.26 1174.61C236.62 1172.57 240.17 1172.76 242.239 1175.1Z" fill="#545454" fill-opacity="0.2"/>
<path d="M174.316 1098.38C172.247 1096.04 168.673 1095.82 166.337 1097.89C164.002 1099.96 163.786 1103.53 165.855 1105.87C167.923 1108.21 171.498 1108.42 173.833 1106.36C176.144 1104.26 176.384 1100.71 174.316 1098.38Z" fill="#545454" fill-opacity="0.2"/>
<path d="M237.524 1178.29C237.634 1178.2 237.741 1178.15 237.872 1178.13L338.27 1157.7C338.691 1157.62 339.065 1157.88 339.144 1158.3C339.222 1158.72 338.966 1159.09 338.569 1159.2L238.171 1179.63C237.75 1179.71 237.376 1179.45 237.297 1179.03C237.237 1178.74 237.332 1178.46 237.524 1178.29Z" fill="#545454" fill-opacity="0.2"/>
<path d="M239.154 1184.4C236.075 1185.02 233.1 1183.04 232.505 1179.99C231.858 1176.93 233.859 1173.94 236.911 1173.34C239.966 1172.7 242.965 1174.7 243.56 1177.75C244.183 1180.78 242.209 1183.75 239.154 1184.4Z" fill="#545454" fill-opacity="0.2"/>
<path d="M339.552 1163.97C342.632 1163.35 344.581 1160.35 343.959 1157.32C343.311 1154.26 340.337 1152.29 337.31 1152.91C334.23 1153.53 332.281 1156.53 332.903 1159.56C333.499 1162.61 336.473 1164.58 339.552 1163.97Z" fill="#545454" fill-opacity="0.2"/>
<path d="M370.371 1060.68C370.564 1060.51 370.853 1060.45 371.109 1060.52C371.517 1060.65 371.7 1061.07 371.598 1061.46L339.146 1158.64C339.018 1159.05 338.591 1159.23 338.183 1159.1C337.774 1158.97 337.592 1158.54 337.693 1158.16L370.145 1060.98C370.204 1060.88 370.262 1060.78 370.371 1060.68Z" fill="#545454" fill-opacity="0.2"/>
<path d="M343.782 1160.22C342.795 1163.2 339.58 1164.77 336.65 1163.79C333.695 1162.78 332.095 1159.58 333.078 1156.65C334.064 1153.67 337.279 1152.1 340.21 1153.09C343.168 1154.05 344.768 1157.24 343.782 1160.22Z" fill="#545454" fill-opacity="0.2"/>
<path d="M376.235 1063.04C377.221 1060.06 375.62 1056.86 372.662 1055.9C369.68 1054.92 366.49 1056.51 365.531 1059.47C364.52 1062.43 366.145 1065.65 369.103 1066.61C372.033 1067.59 375.224 1065.99 376.235 1063.04Z" fill="#545454" fill-opacity="0.2"/>
<path d="M302.422 983.932C302.725 983.664 303.191 983.693 303.458 983.995L371.405 1060.74C371.673 1061.04 371.644 1061.51 371.342 1061.78C371.04 1062.05 370.574 1062.02 370.306 1061.72L302.36 984.968C302.065 984.69 302.12 984.199 302.422 983.932Z" fill="#545454" fill-opacity="0.2"/>
<path d="M375.087 1057.48C377.156 1059.82 376.94 1063.39 374.605 1065.46C372.269 1067.53 368.695 1067.31 366.626 1064.97C364.558 1062.64 364.774 1059.06 367.109 1056.99C369.468 1054.96 373.019 1055.15 375.087 1057.48Z" fill="#545454" fill-opacity="0.2"/>
<path d="M307.167 980.762C305.098 978.426 301.524 978.207 299.189 980.275C296.853 982.342 296.637 985.917 298.706 988.253C300.774 990.59 304.349 990.808 306.684 988.741C308.995 986.646 309.235 983.099 307.167 980.762Z" fill="#545454" fill-opacity="0.2"/>
<path d="M202.026 1004.36C202.136 1004.27 202.242 1004.22 202.373 1004.2L302.744 983.795C303.165 983.716 303.539 983.973 303.645 984.37C303.724 984.791 303.467 985.165 303.071 985.271L202.7 1005.68C202.279 1005.76 201.905 1005.5 201.826 1005.08C201.738 1004.82 201.833 1004.54 202.026 1004.36Z" fill="#545454" fill-opacity="0.2"/>
<path d="M301.763 978.977C304.842 978.359 307.817 980.335 308.412 983.387C309.032 986.467 307.058 989.441 304.006 990.034C300.951 990.679 297.952 988.676 297.357 985.623C296.762 982.571 298.736 979.598 301.763 978.977Z" fill="#545454" fill-opacity="0.2"/>
<path d="M201.393 999.386C198.314 1000 196.364 1003 196.987 1006.03C197.634 1009.09 200.608 1011.06 203.636 1010.44C206.691 1009.8 208.665 1006.82 208.042 1003.8C207.447 1000.74 204.472 998.768 201.393 999.386Z" fill="#545454" fill-opacity="0.2"/>
<path d="M202.027 1004.36C202.219 1004.19 202.509 1004.13 202.765 1004.2C203.173 1004.33 203.355 1004.76 203.254 1005.14L170.802 1102.32C170.673 1102.73 170.246 1102.91 169.838 1102.78C169.43 1102.66 169.247 1102.23 169.349 1101.84L201.801 1004.66C201.859 1004.56 201.917 1004.46 202.027 1004.36Z" fill="#545454" fill-opacity="0.2"/>
<path d="M197.161 1003.13C198.147 1000.15 201.363 998.579 204.293 999.564C207.247 1000.58 208.848 1003.77 207.865 1006.7C206.854 1009.65 203.664 1011.25 200.733 1010.27C197.775 1009.31 196.175 1006.11 197.161 1003.13Z" fill="#545454" fill-opacity="0.2"/>
<path d="M164.71 1100.31C163.723 1103.29 165.324 1106.49 168.282 1107.45C171.237 1108.46 174.455 1106.84 175.414 1103.88C176.4 1100.9 174.799 1097.71 171.842 1096.74C168.911 1095.76 165.721 1097.36 164.71 1100.31Z" fill="#545454" fill-opacity="0.2"/>
<path d="M302.393 983.955C302.695 983.688 303.161 983.716 303.429 984.018L371.375 1060.77C371.643 1061.07 371.615 1061.53 371.312 1061.8C371.01 1062.07 370.544 1062.04 370.276 1061.74L302.33 984.991C302.062 984.689 302.091 984.223 302.393 983.955Z" fill="#545454" fill-opacity="0.2"/>
<path d="M375.057 1057.51C377.126 1059.84 376.909 1063.42 374.574 1065.48C372.239 1067.55 368.664 1067.33 366.596 1065C364.527 1062.66 364.744 1059.09 367.079 1057.02C369.438 1054.98 372.989 1055.17 375.057 1057.51Z" fill="#545454" fill-opacity="0.2"/>
<path d="M307.136 980.787C305.068 978.45 301.493 978.232 299.158 980.299C296.823 982.366 296.606 985.941 298.675 988.278C300.744 990.614 304.318 990.833 306.653 988.765C308.964 986.67 309.205 983.123 307.136 980.787Z" fill="#545454" fill-opacity="0.2"/>
<path d="M370.342 1060.7C370.452 1060.61 370.559 1060.56 370.69 1060.54L471.088 1040.11C471.509 1040.03 471.883 1040.29 471.962 1040.71C472.041 1041.13 471.784 1041.5 471.387 1041.61L370.989 1062.04C370.568 1062.12 370.194 1061.86 370.115 1061.44C370.055 1061.15 370.15 1060.87 370.342 1060.7Z" fill="#545454" fill-opacity="0.2"/>
<path d="M371.975 1066.81C368.896 1067.43 365.922 1065.45 365.326 1062.4C364.707 1059.32 366.681 1056.34 369.732 1055.75C372.787 1055.11 375.786 1057.11 376.381 1060.16C377.004 1063.19 375.03 1066.16 371.975 1066.81Z" fill="#545454" fill-opacity="0.2"/>
<path d="M472.374 1046.37C475.453 1045.76 477.403 1042.76 476.78 1039.73C476.133 1036.67 473.159 1034.7 470.131 1035.32C467.052 1035.93 465.102 1038.94 465.725 1041.96C466.348 1044.99 469.322 1046.97 472.374 1046.37Z" fill="#545454" fill-opacity="0.2"/>
<path d="M503.193 943.087C503.386 942.917 503.675 942.857 503.931 942.924C504.339 943.053 504.521 943.481 504.42 943.864L471.968 1041.05C471.839 1041.45 471.412 1041.64 471.004 1041.51C470.596 1041.38 470.414 1040.95 470.515 1040.57L502.967 943.386C503.025 943.285 503.111 943.16 503.193 943.087Z" fill="#545454" fill-opacity="0.2"/>
<path d="M476.604 1042.63C475.617 1045.61 472.402 1047.18 469.472 1046.2C466.517 1045.18 464.916 1041.99 465.9 1039.06C466.886 1036.08 470.101 1034.51 473.031 1035.49C475.989 1036.46 477.59 1039.65 476.604 1042.63Z" fill="#545454" fill-opacity="0.2"/>
<path d="M509.056 945.447C510.043 942.465 508.442 939.273 505.484 938.312C502.53 937.299 499.311 938.923 498.352 941.88C497.342 944.834 498.967 948.054 501.925 949.015C504.855 950 508.073 948.377 509.056 945.447Z" fill="#545454" fill-opacity="0.2"/>
<path d="M435.247 866.339C435.549 866.072 436.015 866.1 436.283 866.403L504.229 943.15C504.497 943.452 504.469 943.919 504.166 944.186C503.864 944.454 503.398 944.425 503.13 944.123L435.184 867.375C434.916 867.073 434.945 866.607 435.247 866.339Z" fill="#545454" fill-opacity="0.2"/>
<path d="M507.912 939.891C509.98 942.227 509.764 945.802 507.429 947.869C505.094 949.937 501.519 949.718 499.45 947.382C497.382 945.045 497.598 941.47 499.933 939.403C502.293 937.363 505.843 937.554 507.912 939.891Z" fill="#545454" fill-opacity="0.2"/>
<path d="M439.988 863.171C437.92 860.834 434.345 860.616 432.01 862.683C429.675 864.75 429.458 868.325 431.527 870.662C433.596 872.998 437.17 873.217 439.505 871.149C441.816 869.055 442.057 865.507 439.988 863.171Z" fill="#545454" fill-opacity="0.2"/>
<path d="M334.85 886.773C334.959 886.675 335.066 886.63 335.197 886.612L435.568 866.202C435.989 866.124 436.363 866.381 436.442 866.802C436.52 867.222 436.264 867.597 435.867 867.702L335.496 888.112C335.076 888.19 334.701 887.933 334.623 887.513C334.562 887.223 334.657 886.943 334.85 886.773Z" fill="#545454" fill-opacity="0.2"/>
<path d="M434.615 861.359C437.694 860.742 440.668 862.718 441.264 865.77C441.883 868.85 439.909 871.823 436.858 872.417C433.803 873.062 430.804 871.059 430.209 868.006C429.586 864.978 431.56 862.005 434.615 861.359Z" fill="#545454" fill-opacity="0.2"/>
<path d="M334.214 881.793C331.135 882.411 329.185 885.412 329.808 888.44C330.428 891.52 333.43 893.472 336.457 892.851C339.512 892.206 341.486 889.232 340.863 886.204C340.268 883.152 337.294 881.176 334.214 881.793Z" fill="#545454" fill-opacity="0.2"/>
<path d="M334.849 886.773C335.042 886.602 335.331 886.542 335.587 886.61C335.995 886.739 336.178 887.166 336.076 887.55L303.624 984.731C303.496 985.139 303.069 985.321 302.661 985.192C302.252 985.063 302.07 984.636 302.171 984.252L334.623 887.071C334.682 886.97 334.767 886.846 334.849 886.773Z" fill="#545454" fill-opacity="0.2"/>
<path d="M329.983 885.539C330.97 882.557 334.185 880.986 337.115 881.971C340.07 882.984 341.67 886.176 340.687 889.106C339.676 892.06 336.486 893.659 333.555 892.674C330.625 891.688 329.024 888.497 329.983 885.539Z" fill="#545454" fill-opacity="0.2"/>
<path d="M297.53 982.721C296.544 985.702 298.145 988.894 301.102 989.855C304.084 990.844 307.275 989.245 308.234 986.287C309.221 983.305 307.62 980.113 304.662 979.153C301.732 978.167 298.541 979.766 297.53 982.721Z" fill="#545454" fill-opacity="0.2"/>
<path d="M435.246 866.34C435.548 866.073 436.015 866.101 436.282 866.404L504.229 943.151C504.496 943.454 504.468 943.92 504.166 944.188C503.864 944.455 503.398 944.427 503.13 944.124L435.184 867.377C434.888 867.099 434.917 866.632 435.246 866.34Z" fill="#545454" fill-opacity="0.2"/>
<path d="M507.909 939.892C509.978 942.229 509.761 945.803 507.426 947.871C505.091 949.938 501.517 949.719 499.448 947.383C497.379 945.046 497.596 941.471 499.931 939.404C502.29 937.364 505.84 937.556 507.909 939.892Z" fill="#545454" fill-opacity="0.2"/>
<path d="M439.989 863.172C437.92 860.835 434.345 860.616 432.01 862.684C429.675 864.751 429.459 868.326 431.528 870.662C433.596 872.999 437.171 873.217 439.506 871.15C441.817 869.055 442.057 865.508 439.989 863.172Z" fill="#545454" fill-opacity="0.2"/>
<path d="M503.192 943.088C503.302 942.99 503.409 942.945 503.54 942.927L603.938 922.493C604.359 922.415 604.734 922.672 604.812 923.092C604.891 923.513 604.634 923.887 604.238 923.993L503.839 944.427C503.419 944.505 503.044 944.249 502.966 943.828C502.905 943.538 503 943.258 503.192 943.088Z" fill="#545454" fill-opacity="0.2"/>
<path d="M504.826 949.193C501.746 949.811 498.772 947.835 498.177 944.782C497.53 941.727 499.531 938.729 502.583 938.136C505.638 937.49 508.637 939.494 509.232 942.546C509.855 945.574 507.853 948.572 504.826 949.193Z" fill="#545454" fill-opacity="0.2"/>
<path d="M605.224 928.759C608.304 928.141 610.253 925.141 609.63 922.112C608.983 919.057 606.009 917.081 602.981 917.702C599.902 918.32 597.953 921.321 598.575 924.349C599.171 927.401 602.145 929.377 605.224 928.759Z" fill="#545454" fill-opacity="0.2"/>
<path d="M636.043 825.471C636.236 825.301 636.525 825.24 636.781 825.308C637.189 825.437 637.372 825.864 637.27 826.248L604.818 923.429C604.69 923.838 604.263 924.019 603.854 923.891C603.446 923.762 603.264 923.334 603.393 922.926L635.845 825.745C635.875 825.669 635.933 825.568 636.043 825.471Z" fill="#545454" fill-opacity="0.2"/>
<path d="M609.455 925.013C608.468 927.994 605.253 929.566 602.323 928.581C599.341 927.592 597.767 924.376 598.751 921.446C599.737 918.464 602.952 916.893 605.883 917.878C608.813 918.863 610.414 922.055 609.455 925.013Z" fill="#545454" fill-opacity="0.2"/>
<path d="M641.907 827.831C642.893 824.85 641.292 821.658 638.334 820.697C635.38 819.684 632.161 821.307 631.203 824.265C630.192 827.219 631.817 830.439 634.775 831.399C637.705 832.385 640.896 830.786 641.907 827.831Z" fill="#545454" fill-opacity="0.2"/>
<path d="M375.506 1199.21L338.954 1157.92C338.686 1157.62 338.22 1157.59 337.918 1157.86C337.615 1158.13 337.587 1158.59 337.855 1158.9L374.408 1200.18L375.506 1199.21Z" fill="#545454" fill-opacity="0.2"/>
<path d="M342.634 1154.66C340.566 1152.33 336.991 1152.11 334.656 1154.18C332.321 1156.24 332.104 1159.82 334.173 1162.16C336.242 1164.49 339.816 1164.71 342.151 1162.64C344.486 1160.58 344.703 1157 342.634 1154.66Z" fill="#545454" fill-opacity="0.2"/>
<path d="M237.519 1178.29C237.628 1178.2 237.735 1178.15 237.866 1178.13L338.237 1157.72C338.658 1157.65 339.032 1157.9 339.111 1158.32C339.189 1158.74 338.933 1159.12 338.536 1159.22L238.165 1179.63C237.745 1179.71 237.37 1179.46 237.292 1179.03C237.231 1178.75 237.326 1178.46 237.519 1178.29Z" fill="#545454" fill-opacity="0.2"/>
<path d="M337.256 1152.91C340.311 1152.26 343.309 1154.26 343.905 1157.32C344.524 1160.4 342.55 1163.37 339.498 1163.96C336.447 1164.56 333.445 1162.6 332.849 1159.55C332.254 1156.5 334.228 1153.53 337.256 1152.91Z" fill="#545454" fill-opacity="0.2"/>
<path d="M236.884 1173.32C233.804 1173.93 231.855 1176.93 232.477 1179.96C233.097 1183.04 236.099 1184.99 239.126 1184.37C242.206 1183.75 244.155 1180.75 243.532 1177.73C242.937 1174.67 239.963 1172.7 236.884 1173.32Z" fill="#545454" fill-opacity="0.2"/>
<path d="M375.509 1199.21L338.956 1157.92C338.689 1157.62 338.222 1157.59 337.92 1157.86C337.618 1158.13 337.562 1158.62 337.83 1158.92L374.383 1200.21L375.509 1199.21Z" fill="#545454" fill-opacity="0.2"/>
<path d="M342.61 1154.69C340.541 1152.35 336.966 1152.13 334.631 1154.2C332.296 1156.27 332.08 1159.84 334.149 1162.18C336.217 1164.52 339.792 1164.73 342.127 1162.67C344.462 1160.6 344.678 1157.02 342.61 1154.69Z" fill="#545454" fill-opacity="0.2"/>
<path d="M508.357 1081.59L471.804 1040.31C471.537 1040 471.07 1039.98 470.768 1040.24C470.466 1040.51 470.438 1040.98 470.705 1041.28L507.258 1082.57L508.357 1081.59Z" fill="#545454" fill-opacity="0.2"/>
<path d="M475.46 1037.07C473.391 1034.74 469.817 1034.52 467.482 1036.58C465.146 1038.65 464.93 1042.23 466.999 1044.56C469.067 1046.9 472.642 1047.12 474.977 1045.05C477.312 1042.98 477.528 1039.41 475.46 1037.07Z" fill="#545454" fill-opacity="0.2"/>
<path d="M370.343 1060.7C370.453 1060.61 370.559 1060.56 370.69 1060.54L471.061 1040.13C471.482 1040.05 471.857 1040.31 471.935 1040.73C472.014 1041.15 471.757 1041.53 471.361 1041.63L370.99 1062.04C370.569 1062.12 370.195 1061.86 370.116 1061.44C370.056 1061.15 370.15 1060.87 370.343 1060.7Z" fill="#545454" fill-opacity="0.2"/>
<path d="M470.106 1035.29C473.161 1034.64 476.16 1036.65 476.755 1039.7C477.374 1042.78 475.401 1045.75 472.349 1046.35C469.269 1046.96 466.295 1044.99 465.7 1041.94C465.077 1038.91 467.051 1035.93 470.106 1035.29Z" fill="#545454" fill-opacity="0.2"/>
<path d="M369.708 1055.72C366.629 1056.34 364.679 1059.34 365.302 1062.37C365.922 1065.45 368.924 1067.4 371.951 1066.78C375.03 1066.16 376.98 1063.16 376.357 1060.13C375.762 1057.08 372.788 1055.11 369.708 1055.72Z" fill="#545454" fill-opacity="0.2"/>
<path d="M370.343 1060.7C370.536 1060.53 370.825 1060.47 371.081 1060.54C371.489 1060.67 371.671 1061.09 371.543 1061.5L339.091 1158.68C338.962 1159.09 338.535 1159.27 338.127 1159.15C337.719 1159.02 337.537 1158.59 337.665 1158.18L370.117 1061C370.175 1060.9 370.261 1060.77 370.343 1060.7Z" fill="#545454" fill-opacity="0.2"/>
<path d="M365.478 1059.47C366.489 1056.51 369.68 1054.91 372.61 1055.9C375.592 1056.89 377.165 1060.1 376.182 1063.03C375.171 1065.99 371.981 1067.59 369.05 1066.6C366.12 1065.62 364.519 1062.43 365.478 1059.47Z" fill="#545454" fill-opacity="0.2"/>
<path d="M333.054 1156.63C332.043 1159.58 333.668 1162.8 336.626 1163.76C339.608 1164.75 342.799 1163.15 343.757 1160.19C344.768 1157.24 343.143 1154.02 340.185 1153.06C337.228 1152.1 334.037 1153.7 333.054 1156.63Z" fill="#545454" fill-opacity="0.2"/>
<path d="M508.328 1081.62L471.776 1040.33C471.508 1040.03 471.042 1040 470.712 1040.29C470.382 1040.58 470.382 1041.03 470.649 1041.33L507.202 1082.62L508.328 1081.62Z" fill="#545454" fill-opacity="0.2"/>
<path d="M475.457 1037.07C473.388 1034.74 469.814 1034.52 467.479 1036.59C465.144 1038.65 464.927 1042.23 466.996 1044.56C469.064 1046.9 472.639 1047.12 474.974 1045.05C477.309 1042.98 477.525 1039.41 475.457 1037.07Z" fill="#545454" fill-opacity="0.2"/>
<path d="M641.179 964.004L604.627 922.716C604.359 922.414 603.893 922.385 603.591 922.653C603.288 922.921 603.233 923.411 603.5 923.713L640.053 965.001L641.179 964.004Z" fill="#545454" fill-opacity="0.2"/>
<path d="M608.309 919.457C606.241 917.121 602.666 916.902 600.331 918.969C597.996 921.037 597.78 924.611 599.848 926.948C601.917 929.285 605.492 929.503 607.827 927.436C610.162 925.369 610.378 921.794 608.309 919.457Z" fill="#545454" fill-opacity="0.2"/>
<path d="M503.194 943.087C503.304 942.99 503.411 942.944 503.542 942.926L603.913 922.516C604.334 922.438 604.708 922.695 604.787 923.116C604.865 923.537 604.608 923.911 604.212 924.017L503.841 944.426C503.421 944.505 503.046 944.248 502.968 943.827C502.907 943.537 503.002 943.257 503.194 943.087Z" fill="#545454" fill-opacity="0.2"/>
<path d="M602.931 917.697C605.986 917.052 608.985 919.056 609.58 922.108C610.2 925.188 608.226 928.161 605.174 928.755C602.095 929.373 599.12 927.397 598.525 924.344C597.902 921.316 599.904 918.318 602.931 917.697Z" fill="#545454" fill-opacity="0.2"/>
<path d="M502.561 938.107C499.482 938.725 497.532 941.726 498.155 944.754C498.774 947.834 501.776 949.785 504.804 949.164C507.883 948.547 509.833 945.546 509.21 942.518C508.615 939.465 505.613 937.514 502.561 938.107Z" fill="#545454" fill-opacity="0.2"/>
<path d="M503.194 943.087C503.386 942.917 503.676 942.856 503.932 942.924C504.34 943.053 504.522 943.48 504.421 943.864L471.969 1041.05C471.84 1041.45 471.413 1041.64 471.005 1041.51C470.597 1041.38 470.414 1040.95 470.516 1040.57L502.968 943.385C503.026 943.285 503.084 943.184 503.194 943.087Z" fill="#545454" fill-opacity="0.2"/>
<path d="M498.328 941.854C499.339 938.9 502.529 937.301 505.46 938.286C508.414 939.298 510.015 942.49 509.032 945.42C508.021 948.374 504.83 949.973 501.9 948.988C498.942 948.027 497.342 944.836 498.328 941.854Z" fill="#545454" fill-opacity="0.2"/>
<path d="M465.876 1039.03C464.866 1041.99 466.491 1045.21 469.448 1046.17C472.403 1047.18 475.621 1045.56 476.58 1042.6C477.591 1039.65 475.966 1036.43 473.008 1035.47C470.078 1034.48 466.86 1036.1 465.876 1039.03Z" fill="#545454" fill-opacity="0.2"/>
<path d="M641.179 964.006L604.627 922.719C604.359 922.417 603.893 922.388 603.59 922.656C603.288 922.923 603.26 923.389 603.528 923.692L640.08 964.979L641.179 964.006Z" fill="#545454" fill-opacity="0.2"/>
<path d="M608.281 919.483C606.213 917.147 602.638 916.928 600.303 918.996C597.968 921.063 597.751 924.638 599.82 926.974C601.889 929.311 605.463 929.529 607.798 927.462C610.133 925.395 610.35 921.82 608.281 919.483Z" fill="#545454" fill-opacity="0.2"/>
<path d="M636.016 825.497C636.208 825.327 636.498 825.267 636.754 825.334C637.162 825.463 637.344 825.89 637.243 826.274L604.791 923.456C604.662 923.864 604.235 924.046 603.827 923.917C603.419 923.788 603.237 923.361 603.338 922.977L635.79 825.795C635.848 825.695 635.934 825.57 636.016 825.497Z" fill="#545454" fill-opacity="0.2"/>
<path d="M631.15 824.264C632.16 821.31 635.351 819.711 638.281 820.696C641.264 821.684 642.837 824.901 641.854 827.831C640.843 830.785 637.652 832.384 634.722 831.399C631.764 830.438 630.163 827.246 631.15 824.264Z" fill="#545454" fill-opacity="0.2"/>
<path d="M598.698 921.445C597.687 924.399 599.312 927.618 602.27 928.579C605.252 929.568 608.443 927.969 609.402 925.011C610.412 922.057 608.787 918.838 605.829 917.877C602.899 916.892 599.708 918.49 598.698 921.445Z" fill="#545454" fill-opacity="0.2"/>
</g>
</svg>
