<svg width="50" height="50" viewBox="0 0 50 50" fill="none" xmlns="http://www.w3.org/2000/svg">
<path d="M24.6582 49.2549C11.1484 49.2549 0.158203 38.2647 0.158203 24.7549C0.158203 11.2451 11.1484 0.254883 24.6582 0.254883C38.168 0.254883 49.1582 11.2451 49.1582 24.7549C49.1582 38.2647 38.168 49.2549 24.6582 49.2549ZM24.6582 6.30427C14.4847 6.30427 6.20759 14.5813 6.20759 24.7549C6.20759 34.9284 14.4847 43.2055 24.6582 43.2055C34.8318 43.2055 43.1088 34.9284 43.1088 24.7549C43.1088 14.5813 34.8318 6.30427 24.6582 6.30427Z" fill="#565656"/>
<path d="M27.1034 21.8414C27.1034 21.8414 27.9685 17.3346 27.4679 15.0752C27.4679 15.0752 21.3217 15.6408 13.6436 22.4781C13.6436 22.4781 19.4041 18.2738 24.7109 17.811C24.7109 17.811 24.7109 19.6243 24.0984 22.8426C24.7139 23.3432 27.1034 21.8414 27.1034 21.8414Z" fill="#EAEAEA"/>
<path d="M32.65 30.2381C32.65 30.2381 38.5603 23.7093 39.1168 20.7073C39.1168 20.7073 30.4405 16.8372 10.3066 27.8485C10.3066 27.8485 25.8793 22.1757 34.4437 23.3992C34.4452 23.3992 33.8735 27.6792 32.65 30.2381Z" fill="#EAEAEA"/>
<path d="M11.1978 31.5186C11.1978 31.5186 14.2708 26.18 20.4654 28.9597C26.66 31.7409 32.3328 31.629 36.0032 29.182C36.0032 29.182 33.2236 34.8412 24.7136 33.0748C19.2495 31.942 18.761 30.1832 11.1978 31.5186Z" fill="#565656"/>
<path d="M9.28193 11.0258C8.99195 11.3529 8.65112 11.5192 8.26081 11.5247C7.8705 11.5302 7.50218 11.379 7.15585 11.0725C6.78478 10.7427 6.57726 10.3799 6.53466 9.9827C6.49205 9.58552 6.62399 9.21445 6.93046 8.8695C7.21357 8.55065 7.54891 8.38848 7.93647 8.38436C8.32403 8.38024 8.69097 8.53141 9.0373 8.83926C9.41387 9.17322 9.62277 9.53742 9.66537 9.93185C9.70798 10.3263 9.58016 10.6905 9.28193 11.0258ZM7.1586 9.10588C6.94283 9.34776 6.85625 9.62263 6.8961 9.9291C6.93596 10.2356 7.0995 10.5146 7.38399 10.7674C7.66847 11.0203 7.96258 11.1495 8.26768 11.1564C8.57141 11.1633 8.82978 11.0478 9.04005 10.81C9.26544 10.5572 9.3589 10.2837 9.32316 9.99095C9.28743 9.69822 9.12114 9.41923 8.82428 9.15536C8.51918 8.88461 8.22095 8.74581 7.9296 8.74031C7.63687 8.73481 7.37987 8.85713 7.1586 9.10588Z" fill="#EAEAEA"/>
<path d="M11.0017 10.3423L8.88135 7.6881L9.61332 7.10282C10.548 6.35572 11.3601 6.41319 12.0497 7.27523C12.3764 7.68507 12.5095 8.1176 12.449 8.57433C12.3885 9.03106 12.1405 9.43183 11.7049 9.78118L11.0017 10.3423ZM9.41672 7.72137L11.0879 9.81294L11.4841 9.49686C11.8319 9.21859 12.0285 8.90856 12.0739 8.56828C12.1193 8.22801 12.0043 7.88622 11.7321 7.54443C11.1892 6.86538 10.5555 6.81396 9.83261 7.39168L9.41672 7.72137Z" fill="#EAEAEA"/>
<path d="M13.8159 4.31006L13.9263 6.72376L14.5585 7.80812L14.2152 8.00775L13.5876 6.93095L11.561 5.62278L11.9527 5.39441L13.3819 6.33811C13.4 6.35021 13.4575 6.39558 13.5588 6.47725L13.5649 6.47423C13.5513 6.41978 13.5422 6.34416 13.5377 6.24889L13.4515 4.5233L13.8159 4.31006Z" fill="#EAEAEA"/>
<path d="M15.6144 7.06948L15.4299 6.63846C15.4979 6.66115 15.5735 6.67476 15.6582 6.68081C15.7429 6.68686 15.8276 6.68383 15.9138 6.67627C16 6.6672 16.0847 6.65358 16.1679 6.63392C16.2511 6.61426 16.3237 6.59007 16.3902 6.56284C16.6156 6.46605 16.7653 6.35263 16.8409 6.22257C16.9165 6.09099 16.921 5.94732 16.853 5.79155C16.8167 5.70686 16.7668 5.64182 16.7033 5.59494C16.6398 5.54806 16.5641 5.51328 16.4764 5.48908C16.3887 5.46488 16.2904 5.44976 16.1815 5.44068C16.0726 5.43161 15.9547 5.42253 15.8291 5.41497C15.696 5.4059 15.5705 5.3938 15.4526 5.37716C15.3346 5.36053 15.2257 5.33331 15.1259 5.2955C15.0261 5.25769 14.9384 5.20324 14.8627 5.13368C14.7856 5.06411 14.7221 4.97186 14.6722 4.8554C14.6117 4.71324 14.589 4.57562 14.6072 4.44405C14.6253 4.31247 14.6692 4.18997 14.7418 4.07806C14.8143 3.96615 14.9081 3.86633 15.0231 3.7771C15.1395 3.68787 15.2635 3.61528 15.3996 3.5563C15.7081 3.42473 15.9471 3.36574 16.1195 3.37936L16.2964 3.79071C16.0575 3.74232 15.7928 3.78013 15.504 3.90263C15.4238 3.93741 15.3482 3.97976 15.2756 4.02966C15.203 4.07957 15.144 4.13855 15.0972 4.20207C15.0503 4.2671 15.0215 4.33667 15.0079 4.4138C14.9943 4.48942 15.0049 4.57108 15.0427 4.65729C15.0775 4.73744 15.1214 4.79945 15.1758 4.84482C15.2302 4.89019 15.2968 4.92497 15.3754 4.94766C15.4541 4.97034 15.5448 4.98698 15.6477 4.99605C15.7505 5.00513 15.8669 5.0142 16 5.02025C16.1361 5.02781 16.2662 5.03991 16.3932 5.05806C16.5188 5.07621 16.6367 5.10645 16.7441 5.14729C16.8515 5.18963 16.9468 5.24559 17.0284 5.31667C17.1116 5.38775 17.1766 5.48152 17.2265 5.59797C17.2931 5.75223 17.3173 5.89439 17.3037 6.02747C17.2901 6.16056 17.2447 6.28155 17.1721 6.39195C17.098 6.50235 17.0012 6.60065 16.8802 6.68837C16.7592 6.77608 16.6246 6.85019 16.4764 6.91371C16.4265 6.93488 16.3645 6.95757 16.2889 6.98025C16.2133 7.00294 16.1346 7.02411 16.0514 7.04074C15.9683 7.05738 15.8896 7.06948 15.8125 7.07553C15.7323 7.08158 15.6673 7.08007 15.6144 7.06948Z" fill="#EAEAEA"/>
<path d="M17.9218 6.115L17.7917 5.66432C17.8568 5.69457 17.9309 5.71877 18.0125 5.73389C18.0957 5.74901 18.1804 5.75809 18.2666 5.7596C18.3543 5.76111 18.439 5.75809 18.5237 5.7475C18.6084 5.73843 18.684 5.7233 18.7521 5.70364C18.9865 5.63559 19.1498 5.54182 19.2406 5.42084C19.3313 5.29985 19.354 5.15769 19.3056 4.99435C19.2799 4.90664 19.239 4.83556 19.1816 4.78111C19.1241 4.72667 19.053 4.68281 18.9699 4.64803C18.8867 4.61324 18.7899 4.58602 18.6825 4.56334C18.5751 4.54065 18.4587 4.51797 18.3362 4.49377C18.2061 4.46957 18.0821 4.44084 17.9672 4.41059C17.8522 4.38034 17.7464 4.33951 17.6541 4.2896C17.5603 4.23969 17.4802 4.17466 17.4121 4.09753C17.3441 4.01889 17.2927 3.91908 17.2579 3.79809C17.2155 3.64988 17.2095 3.51074 17.2443 3.38219C17.2775 3.25364 17.3365 3.13719 17.4227 3.03587C17.5089 2.93454 17.6133 2.84531 17.7403 2.77121C17.8658 2.6971 17.9989 2.63963 18.1411 2.5988C18.4632 2.50655 18.7082 2.4763 18.8776 2.51108L19.0016 2.94059C18.7702 2.86195 18.504 2.868 18.2016 2.9542C18.1184 2.9784 18.0367 3.01167 17.9596 3.0525C17.881 3.09485 17.8144 3.14476 17.7615 3.20222C17.707 3.25969 17.6692 3.32624 17.6465 3.40034C17.6239 3.47445 17.6254 3.55611 17.6511 3.64534C17.6753 3.72852 17.7116 3.79658 17.76 3.848C17.8084 3.89942 17.8704 3.94176 17.946 3.97503C18.0216 4.0083 18.1093 4.03401 18.2091 4.0567C18.3105 4.07787 18.4254 4.10056 18.5555 4.12476C18.6886 4.14895 18.8171 4.17769 18.9396 4.21096C19.0636 4.24423 19.1755 4.28809 19.2769 4.34253C19.3782 4.39698 19.4659 4.46503 19.5385 4.54519C19.6126 4.62534 19.667 4.72667 19.7018 4.84766C19.7487 5.00797 19.7563 5.15315 19.726 5.28321C19.6958 5.41327 19.6368 5.52821 19.5491 5.62954C19.4629 5.73087 19.354 5.81707 19.2224 5.88815C19.0924 5.95923 18.9487 6.01821 18.7944 6.06207C18.743 6.07719 18.678 6.0908 18.5993 6.10442C18.5207 6.11803 18.4405 6.12861 18.3558 6.13466C18.2727 6.14222 18.1925 6.14374 18.1154 6.14071C18.0352 6.14071 17.9717 6.13164 17.9218 6.115Z" fill="#EAEAEA"/>
<path d="M22.2854 5.27339L20.5084 5.56225L19.9624 2.20938L21.6653 1.93262L21.7228 2.28802L20.4131 2.50126L20.5946 3.61586L21.806 3.41925L21.8634 3.77163L20.652 3.96823L20.8426 5.14181L22.2264 4.91648L22.2854 5.27339Z" fill="#EAEAEA"/>
<path d="M24.9164 1.74707L23.8789 3.92938L23.9273 5.18312L23.5296 5.19824L23.4812 3.95358L22.3076 1.84689L22.7598 1.82874L23.5795 3.33352C23.5901 3.35167 23.6203 3.42124 23.6702 3.5392H23.6778C23.6914 3.48476 23.7186 3.41368 23.7595 3.32747L24.496 1.76219L24.9164 1.74707Z" fill="#EAEAEA"/>
<path d="M26.5527 5.11824L26.6238 4.65395C26.6692 4.7084 26.7267 4.76133 26.7947 4.80972C26.8628 4.85812 26.9369 4.90198 27.014 4.93979C27.0926 4.97759 27.1713 5.01087 27.2514 5.03658C27.3316 5.0638 27.4072 5.08195 27.4783 5.09253C27.7203 5.12883 27.9078 5.11219 28.0409 5.04111C28.174 4.97003 28.2541 4.84905 28.2798 4.68118C28.2934 4.59043 28.2859 4.50877 28.2556 4.43618C28.2254 4.36358 28.18 4.29401 28.118 4.22747C28.056 4.16093 27.9804 4.0959 27.8927 4.03087C27.805 3.96584 27.7097 3.89627 27.6068 3.82368C27.4995 3.74655 27.3981 3.66942 27.3059 3.5938C27.2136 3.51818 27.1365 3.43651 27.0715 3.35182C27.008 3.26713 26.9611 3.17488 26.9323 3.07506C26.9036 2.97525 26.8991 2.86334 26.9172 2.73781C26.9399 2.58506 26.9943 2.45651 27.079 2.35368C27.1637 2.25084 27.265 2.17068 27.386 2.11472C27.507 2.05726 27.6386 2.02247 27.7838 2.00735C27.929 1.99222 28.0742 1.99676 28.2193 2.01945C28.5505 2.06935 28.785 2.14648 28.9241 2.24932L28.856 2.69244C28.6791 2.52457 28.4341 2.41719 28.1241 2.37031C28.0379 2.3567 27.9517 2.35368 27.8624 2.35821C27.7732 2.36275 27.693 2.3809 27.6189 2.41114C27.5463 2.44139 27.4828 2.48525 27.4314 2.54272C27.38 2.60019 27.3467 2.67581 27.3316 2.76655C27.318 2.85275 27.3225 2.92837 27.3452 2.99642C27.3679 3.06448 27.4057 3.128 27.4601 3.18849C27.5146 3.24898 27.5826 3.31099 27.6658 3.373C27.7475 3.435 27.8443 3.50457 27.9517 3.58019C28.0636 3.65732 28.1679 3.73747 28.2647 3.81914C28.363 3.9008 28.4462 3.98852 28.5142 4.08077C28.5838 4.17303 28.6337 4.27133 28.667 4.37568C28.7003 4.48003 28.7063 4.59346 28.6882 4.71898C28.6625 4.88383 28.6095 5.01994 28.5263 5.12429C28.4432 5.22864 28.3418 5.3088 28.2209 5.36476C28.0999 5.4192 27.9653 5.45247 27.8171 5.46306C27.6688 5.47364 27.5146 5.46608 27.3558 5.44188C27.3029 5.43432 27.2378 5.4192 27.1607 5.39954C27.0836 5.37988 27.0064 5.35417 26.9278 5.32543C26.8492 5.2967 26.775 5.26494 26.707 5.23016C26.6389 5.19537 26.5921 5.15454 26.5527 5.11824Z" fill="#EAEAEA"/>
<path d="M30.8679 6.18928L29.1348 5.70382L30.0512 2.43262L31.7118 2.89842L31.615 3.24475L30.3371 2.88632L30.0331 3.9737L31.2142 4.3049L31.1175 4.64972L29.9363 4.31851L29.6157 5.46336L30.9662 5.84144L30.8679 6.18928Z" fill="#EAEAEA"/>
<path d="M33.8171 7.41722L33.4133 7.24179L33.4617 6.2255L32.1399 5.65232L31.4503 6.39185L31.0435 6.21642L33.5887 3.6167L33.9668 3.78003L33.8171 7.41722ZM33.4844 5.8459L33.5706 4.30633C33.5736 4.25642 33.5872 4.17929 33.6129 4.07645L33.6039 4.07192C33.5509 4.15358 33.504 4.2171 33.4632 4.25945L32.4031 5.37707L33.4844 5.8459Z" fill="#EAEAEA"/>
<path d="M36.2137 8.90089L35.8099 8.65438L35.822 7.54583C35.8235 7.44299 35.8205 7.35225 35.8099 7.2736C35.8008 7.19496 35.7842 7.12539 35.7615 7.0649C35.7388 7.00441 35.7056 6.95147 35.6647 6.90459C35.6239 6.85771 35.571 6.81536 35.5074 6.77755L35.2292 6.60666L34.4745 7.83922L34.1357 7.63203L35.9082 4.73438L36.7733 5.2637C36.9003 5.34083 37.0077 5.42854 37.0954 5.52533C37.1831 5.62212 37.2466 5.72799 37.286 5.8399C37.3253 5.95333 37.3374 6.07129 37.3238 6.19379C37.3102 6.3178 37.2633 6.44333 37.1831 6.57339C37.1211 6.67471 37.05 6.75789 36.9684 6.82292C36.8867 6.88796 36.7975 6.93786 36.7007 6.96962C36.6039 7.00138 36.5026 7.0165 36.3952 7.01499C36.2878 7.01348 36.1774 6.99533 36.0625 6.96055L36.0579 6.96811C36.0927 7.01953 36.1199 7.06944 36.1396 7.11934C36.1577 7.16925 36.1729 7.22218 36.1819 7.27965C36.191 7.33712 36.1971 7.39913 36.2001 7.46718C36.2031 7.53373 36.2031 7.61237 36.2046 7.69857L36.2137 8.90089ZM36.0594 5.24706L35.4167 6.29814L35.878 6.57944C35.9627 6.63086 36.0489 6.66715 36.1366 6.6853C36.2243 6.70345 36.309 6.70496 36.3907 6.68984C36.4723 6.67471 36.5494 6.63993 36.622 6.59002C36.6946 6.5386 36.7566 6.47055 36.8096 6.38434C36.9048 6.23008 36.9275 6.07734 36.8807 5.92913C36.8338 5.78092 36.7143 5.64934 36.5252 5.53289L36.0594 5.24706Z" fill="#EAEAEA"/>
<path d="M38.3116 10.4564C38.0333 10.399 37.7505 10.2508 37.4616 10.0133C37.0881 9.70633 36.8884 9.34034 36.8627 8.91537C36.837 8.4904 36.9837 8.08358 37.3059 7.69339C37.6507 7.27447 38.0575 7.04006 38.5218 6.98864C38.9876 6.93873 39.4141 7.07333 39.8012 7.39244C40.0492 7.59812 40.2262 7.80379 40.3305 8.00947L40.0613 8.33614C39.96 8.07602 39.7967 7.8537 39.5698 7.66617C39.2689 7.41815 38.9422 7.31682 38.5898 7.3637C38.2375 7.41058 37.9214 7.60265 37.6446 7.93839C37.3815 8.2575 37.259 8.58417 37.2771 8.91688C37.2953 9.25111 37.4465 9.53392 37.7308 9.76833C37.994 9.9846 38.2707 10.1147 38.5596 10.157L38.3116 10.4564Z" fill="#EAEAEA"/>
<path d="M40.3277 12.8696L40.063 12.5717L41.2215 11.5433L40.054 10.229L38.8955 11.2574L38.6309 10.9595L41.1716 8.70459L41.4363 9.00252L40.3217 9.9916L41.4892 11.3058L42.6038 10.3167L42.8685 10.6147L40.3277 12.8696Z" fill="#EAEAEA"/>
<path d="M8.35817 41.8537C8.01789 41.5331 7.85153 41.1656 7.85758 40.7482C7.86363 40.3323 8.03604 39.9436 8.3748 39.5852C8.73777 39.1996 9.13249 38.9909 9.55746 38.9576C9.98243 38.9243 10.3741 39.0771 10.7325 39.4143C11.0638 39.7259 11.2256 40.0888 11.218 40.5032C11.2105 40.9161 11.0365 41.3032 10.6978 41.6632C10.3288 42.0549 9.93403 42.2666 9.51209 42.2984C9.09014 42.3286 8.70601 42.1804 8.35817 41.8537ZM10.4724 39.6487C10.2199 39.4113 9.93101 39.31 9.60283 39.3432C9.27465 39.3765 8.97067 39.5414 8.6924 39.8363C8.41412 40.1312 8.26743 40.4412 8.25079 40.7664C8.23415 41.09 8.34909 41.3683 8.59561 41.6012C8.85875 41.8492 9.1461 41.9581 9.46067 41.9294C9.77372 41.9006 10.0762 41.7312 10.3666 41.4227C10.6645 41.1066 10.8218 40.7921 10.8369 40.4805C10.8535 40.1705 10.7325 39.8922 10.4724 39.6487Z" fill="#EAEAEA"/>
<path d="M10.3125 43.4762L12.1621 40.751L12.9152 41.2621C13.8756 41.914 14.0556 42.6822 13.4536 43.5685C13.1678 43.9889 12.8048 44.2369 12.3648 44.311C11.9247 44.3851 11.4815 44.2702 11.0339 43.9662L10.3125 43.4762ZM12.2861 41.2576L10.8282 43.4051L11.235 43.6819C11.5919 43.9239 11.9352 44.0176 12.2634 43.9617C12.5916 43.9057 12.8759 43.7016 13.1134 43.3507C13.5882 42.6535 13.4536 42.0516 12.7111 41.548L12.2861 41.2576Z" fill="#EAEAEA"/>
<path d="M16.702 43.3916L14.8086 44.7724L14.2702 45.8643L13.9238 45.6934L14.4592 44.6106L14.432 42.2725L14.8252 42.466L14.8282 44.1266C14.8282 44.1478 14.8222 44.2189 14.8116 44.3429L14.8176 44.3459C14.8539 44.3066 14.9099 44.2582 14.9855 44.2037L16.336 43.2101L16.702 43.3916Z" fill="#EAEAEA"/>
<path d="M15.7402 46.3904L15.893 45.9624C15.9263 46.0229 15.9716 46.0834 16.0276 46.1424C16.0835 46.2014 16.1455 46.2558 16.2121 46.3072C16.2801 46.3571 16.3497 46.404 16.4208 46.4433C16.4919 46.4842 16.5614 46.5144 16.6265 46.5386C16.8503 46.6188 17.0318 46.6354 17.1724 46.5915C17.3116 46.5477 17.4099 46.4479 17.4658 46.2921C17.4961 46.2089 17.5036 46.1288 17.4885 46.0531C17.4734 45.9775 17.4431 45.9034 17.3963 45.8293C17.3494 45.7552 17.2904 45.6781 17.2178 45.601C17.1452 45.5238 17.0681 45.4391 16.9834 45.3514C16.8942 45.2577 16.814 45.1669 16.7399 45.0777C16.6658 44.9885 16.6068 44.8977 16.5614 44.8039C16.5161 44.7117 16.4888 44.6149 16.4798 44.5151C16.4707 44.4153 16.4858 44.3079 16.5282 44.1914C16.5781 44.0493 16.6537 43.9389 16.752 43.8557C16.8518 43.7725 16.9637 43.7166 17.0877 43.6833C17.2133 43.6515 17.3463 43.6425 17.487 43.6546C17.6276 43.6667 17.7653 43.6969 17.8999 43.7453C18.2054 43.8542 18.4156 43.9706 18.529 44.0931L18.3838 44.5015C18.2462 44.3094 18.033 44.1627 17.7456 44.0599C17.6655 44.0311 17.5838 44.0115 17.4991 44.0009C17.4144 43.9903 17.3342 43.9918 17.2586 44.0069C17.183 44.0221 17.115 44.0523 17.056 44.0977C16.9955 44.1431 16.9501 44.2081 16.9199 44.2928C16.8911 44.3729 16.8821 44.4455 16.8911 44.5136C16.9002 44.5816 16.9259 44.6497 16.9667 44.7177C17.0076 44.7858 17.0605 44.8569 17.1286 44.931C17.1951 45.0051 17.2738 45.0883 17.363 45.1805C17.4552 45.2743 17.5399 45.3696 17.6171 45.4664C17.6957 45.5616 17.7592 45.6599 17.8076 45.7613C17.856 45.8611 17.8863 45.9639 17.8984 46.0698C17.9105 46.1756 17.8968 46.2845 17.8545 46.401C17.8001 46.5537 17.7244 46.6732 17.6261 46.7579C17.5293 46.8426 17.4174 46.9001 17.2919 46.9303C17.1664 46.9606 17.0318 46.9666 16.8896 46.9485C16.7459 46.9303 16.6008 46.8955 16.4541 46.8441C16.4057 46.826 16.3452 46.8018 16.2771 46.767C16.2075 46.7337 16.138 46.6959 16.0684 46.6535C15.9988 46.6112 15.9338 46.5673 15.8748 46.522C15.8159 46.4766 15.7705 46.4327 15.7402 46.3904Z" fill="#EAEAEA"/>
<path d="M18.3125 47.2571L18.4138 46.814C18.4547 46.8699 18.5061 46.9244 18.5681 46.9773C18.6316 47.0287 18.6981 47.0771 18.7707 47.1195C18.8433 47.1618 18.9174 47.1996 18.9946 47.2299C19.0717 47.2601 19.1428 47.2843 19.2093 47.2995C19.4407 47.3524 19.6237 47.3494 19.7568 47.2889C19.8914 47.2299 19.9761 47.1195 20.0124 46.9577C20.032 46.8715 20.0305 46.7913 20.0063 46.7187C19.9821 46.6461 19.9443 46.575 19.8884 46.507C19.8339 46.4389 19.7659 46.3694 19.6842 46.2998C19.604 46.2302 19.5163 46.1561 19.4226 46.079C19.3243 45.9973 19.232 45.9157 19.1488 45.8355C19.0656 45.7554 18.9961 45.6722 18.9401 45.5845C18.8842 45.4967 18.8464 45.406 18.8252 45.3077C18.804 45.2094 18.807 45.1005 18.8343 44.981C18.8675 44.8343 18.9295 44.7149 19.0173 44.6211C19.1065 44.5273 19.2108 44.4578 19.3318 44.4109C19.4528 44.364 19.5829 44.3398 19.725 44.3353C19.8657 44.3307 20.0063 44.3458 20.1455 44.3776C20.4615 44.4502 20.6839 44.5409 20.8109 44.6498L20.7141 45.0733C20.5553 44.8979 20.3254 44.7769 20.029 44.7088C19.9473 44.6907 19.8627 44.6801 19.7765 44.6786C19.6902 44.6771 19.6116 44.6876 19.5375 44.7118C19.4649 44.736 19.4014 44.7738 19.3469 44.8253C19.2925 44.8767 19.2562 44.9478 19.235 45.0355C19.2169 45.1171 19.2154 45.1928 19.232 45.2593C19.2486 45.3258 19.2819 45.3909 19.3303 45.4544C19.3787 45.5179 19.4407 45.5814 19.5163 45.648C19.5919 45.7145 19.6797 45.7871 19.778 45.8688C19.8793 45.952 19.9746 46.0367 20.0638 46.1229C20.153 46.2091 20.2271 46.2998 20.2876 46.3936C20.3481 46.4873 20.3905 46.5856 20.4147 46.6885C20.4389 46.7913 20.4373 46.9032 20.4101 47.0227C20.3738 47.1815 20.3118 47.307 20.2256 47.4038C20.1394 47.5006 20.0351 47.5702 19.9141 47.614C19.7931 47.6579 19.66 47.6806 19.5163 47.6791C19.3711 47.6775 19.2229 47.6609 19.0717 47.6261C19.0218 47.614 18.9598 47.5959 18.8872 47.5702C18.8146 47.5445 18.7405 47.5157 18.6664 47.4824C18.5923 47.4492 18.5227 47.4129 18.4592 47.3736C18.3957 47.3342 18.3488 47.2949 18.3125 47.2571Z" fill="#EAEAEA"/>
<path d="M22.8234 48.1704L21.0918 47.9557L21.4986 44.6875L23.1577 44.8947L23.1138 45.241L21.8374 45.0822L21.7028 46.1696L22.8839 46.3163L22.8416 46.6611L21.6604 46.5144L21.5183 47.6593L22.8673 47.8271L22.8234 48.1704Z" fill="#EAEAEA"/>
<path d="M25.8349 44.9039L24.7521 46.9819L24.7551 48.1993H24.3694L24.3664 46.9909L23.3032 44.9069L23.7418 44.9054L24.4829 46.3921C24.4919 46.4102 24.5191 46.4783 24.563 46.5932H24.5691C24.5842 46.5418 24.6129 46.4737 24.6553 46.3905L25.4235 44.9009L25.8349 44.9039Z" fill="#EAEAEA"/>
<path d="M27.7599 47.8613L27.6782 47.4137C27.7372 47.45 27.8068 47.4787 27.8854 47.5014C27.9641 47.5241 28.0442 47.5407 28.1274 47.5513C28.2106 47.5619 28.2938 47.5664 28.3769 47.5649C28.4586 47.5634 28.5342 47.5573 28.6023 47.5452C28.8352 47.5029 29.0015 47.4273 29.1014 47.3199C29.2012 47.2125 29.236 47.0764 29.2057 46.9146C29.1891 46.8269 29.1558 46.7543 29.1059 46.6968C29.056 46.6393 28.9925 46.5894 28.9138 46.5486C28.8367 46.5078 28.746 46.4715 28.6446 46.4397C28.5433 46.408 28.4329 46.3747 28.3164 46.3399C28.1924 46.3036 28.0775 46.2643 27.9686 46.2235C27.8597 46.1826 27.7629 46.1342 27.6782 46.0752C27.5935 46.0178 27.521 45.9482 27.4635 45.8665C27.406 45.7849 27.3652 45.6835 27.344 45.5626C27.3168 45.4143 27.3259 45.2813 27.3697 45.1588C27.4136 45.0378 27.4831 44.9319 27.5754 44.8412C27.6676 44.7519 27.778 44.6763 27.9066 44.6173C28.0351 44.5584 28.1697 44.516 28.3089 44.4903C28.628 44.4313 28.8685 44.4268 29.0272 44.4767L29.1059 44.9032C28.8896 44.8064 28.6325 44.7852 28.3331 44.8397C28.2499 44.8548 28.1697 44.879 28.0896 44.9107C28.0094 44.944 27.9414 44.9848 27.8839 45.0363C27.8264 45.0877 27.7826 45.1482 27.7539 45.2162C27.7251 45.2858 27.7176 45.3644 27.7342 45.4537C27.7493 45.5368 27.7781 45.6049 27.8204 45.6593C27.8627 45.7138 27.9187 45.7607 27.9868 45.8C28.0563 45.8378 28.138 45.8726 28.2333 45.9043C28.3285 45.9346 28.4374 45.9679 28.5614 46.0026C28.6885 46.0389 28.8095 46.0783 28.9244 46.1221C29.0393 46.166 29.1437 46.2189 29.236 46.2824C29.3282 46.3444 29.4053 46.4185 29.4689 46.5032C29.5324 46.5879 29.5747 46.6908 29.5959 46.8118C29.6246 46.9706 29.6186 47.1127 29.5762 47.2337C29.5339 47.3562 29.4658 47.4606 29.3736 47.5498C29.2798 47.639 29.1664 47.7116 29.0333 47.7676C28.9002 47.8235 28.7565 47.8659 28.6038 47.8946C28.5524 47.9037 28.4889 47.9112 28.4117 47.9173C28.3346 47.9233 28.256 47.9248 28.1743 47.9233C28.0926 47.9218 28.0155 47.9158 27.9414 47.9052C27.8673 47.8976 27.8068 47.8825 27.7599 47.8613Z" fill="#EAEAEA"/>
<path d="M32.273 46.898L30.6034 47.4077L29.6431 44.2575L31.2431 43.7705L31.3445 44.1047L30.1149 44.4798L30.434 45.5279L31.5728 45.1815L31.6741 45.5127L30.5353 45.8591L30.8711 46.9616L32.1717 46.5653L32.273 46.898Z" fill="#EAEAEA"/>
<path d="M35.4585 45.534L35.0683 45.7094L34.3711 45.0107L33.0977 45.5854L33.1778 46.5624L32.7862 46.7393L32.5835 43.2171L32.948 43.0522L35.4585 45.534ZM34.1125 44.7461L33.0644 43.6799C33.0296 43.6451 32.9843 43.5846 32.9283 43.4999L32.9192 43.5044C32.9434 43.5967 32.957 43.6708 32.9616 43.7268L33.072 45.2164L34.1125 44.7461Z" fill="#EAEAEA"/>
<path d="M38.1124 43.8924L37.7237 44.1359L36.7664 43.6459C36.6787 43.6005 36.597 43.5642 36.5259 43.5385C36.4533 43.5128 36.3868 43.4962 36.3233 43.4901C36.2613 43.4841 36.2008 43.4886 36.1418 43.5037C36.0843 43.5189 36.0238 43.5461 35.9633 43.5839L35.6941 43.7518L36.4382 44.939L36.1116 45.1431L34.3633 42.3513L35.1966 41.8296C35.3191 41.754 35.4401 41.698 35.5626 41.6632C35.6851 41.6284 35.803 41.6194 35.918 41.6345C36.0329 41.6496 36.1403 41.6889 36.2416 41.7555C36.3429 41.822 36.4322 41.9173 36.5108 42.0413C36.5713 42.1381 36.6137 42.2364 36.6348 42.3362C36.656 42.436 36.6605 42.5343 36.6469 42.6311C36.6333 42.7279 36.6016 42.8232 36.5547 42.9154C36.5063 43.0077 36.4428 43.0954 36.3641 43.1801L36.3687 43.1877C36.4276 43.1786 36.4836 43.1771 36.535 43.1831C36.5864 43.1877 36.6379 43.1998 36.6923 43.2164C36.7467 43.233 36.8027 43.2557 36.8617 43.2814C36.9207 43.3087 36.9887 43.3404 37.0643 43.3782L38.1124 43.8924ZM34.876 42.4451L35.5096 43.4569L35.9543 43.1786C36.0359 43.1272 36.104 43.0682 36.1584 43.0001C36.2129 42.9321 36.2507 42.8595 36.2719 42.7808C36.293 42.7037 36.2976 42.622 36.284 42.5374C36.2703 42.4527 36.2386 42.368 36.1857 42.2863C36.0919 42.1366 35.9709 42.0504 35.8212 42.0277C35.6715 42.005 35.5066 42.0504 35.3236 42.1653L34.876 42.4451Z" fill="#EAEAEA"/>
<path d="M40.2668 41.9642C40.161 42.2183 39.9674 42.4602 39.6876 42.6916C39.3262 42.9896 38.9405 43.112 38.5307 43.0576C38.1208 43.0032 37.7609 42.7884 37.4493 42.4103C37.1136 42.0035 36.9654 41.574 37.0047 41.1218C37.0425 40.6696 37.2497 40.2885 37.6263 39.98C37.8668 39.7819 38.0951 39.6518 38.3114 39.5913L38.573 39.9089C38.3068 39.9573 38.0649 40.0722 37.8441 40.2537C37.5522 40.4942 37.3964 40.7861 37.3752 41.1309C37.3541 41.4757 37.4781 41.8114 37.7473 42.1366C38.0029 42.4466 38.2902 42.6236 38.6108 42.6674C38.9314 42.7113 39.2309 42.6205 39.5061 42.3937C39.7617 42.1835 39.9356 41.9445 40.0294 41.6768L40.2668 41.9642Z" fill="#EAEAEA"/>
<path d="M42.7187 39.5715L42.4585 39.8573L41.347 38.8485L40.2021 40.1098L41.3152 41.1201L41.0566 41.4059L38.6172 39.1919L38.8758 38.906L39.945 39.8769L41.0899 38.6156L40.0206 37.6447L40.2793 37.3589L42.7187 39.5715Z" fill="#EAEAEA"/>
</svg>
