<svg width="72" height="71" viewBox="0 0 72 71" fill="none" xmlns="http://www.w3.org/2000/svg">
<path d="M36.2676 71C16.6922 71 0.767578 55.0754 0.767578 35.5C0.767578 15.9246 16.6922 0 36.2676 0C55.843 0 71.7676 15.9246 71.7676 35.5C71.7676 55.0754 55.843 71 36.2676 71ZM36.2676 8.76543C21.5263 8.76543 9.53301 20.7587 9.53301 35.5C9.53301 50.2413 21.5263 62.2346 36.2676 62.2346C51.0088 62.2346 63.0021 50.2413 63.0021 35.5C63.0021 20.7587 51.0088 8.76543 36.2676 8.76543Z" fill="#565656"/>
<path d="M39.8102 31.278C39.8102 31.278 41.0637 24.7478 40.3383 21.4739C40.3383 21.4739 31.4327 22.2934 20.3071 32.2006C20.3071 32.2006 28.654 26.1086 36.3435 25.438C36.3435 25.438 36.3435 28.0655 35.456 32.7287C36.3479 33.454 39.8102 31.278 39.8102 31.278Z" fill="#73FFC3"/>
<path d="M47.8478 43.4453C47.8478 43.4453 56.4116 33.9852 57.218 29.6354C57.218 29.6354 44.6462 24.0277 15.4727 39.983C15.4727 39.983 38.0371 31.7632 50.4467 33.536C50.4489 33.536 49.6206 39.7375 47.8478 43.4453Z" fill="#73FFC3"/>
<path d="M16.7637 45.3005C16.7637 45.3005 21.2165 37.565 30.1923 41.5927C39.1681 45.6226 47.3879 45.4605 52.7063 41.9148C52.7063 41.9148 48.6786 50.1149 36.3478 47.5554C28.4305 45.9141 27.7227 43.3655 16.7637 45.3005Z" fill="#565656"/>
<path d="M13.9877 15.6068C13.5675 16.0808 13.0736 16.3217 12.5081 16.3297C11.9425 16.3377 11.4088 16.1186 10.907 15.6745C10.3693 15.1966 10.0686 14.6709 10.0069 14.0954C9.94517 13.5199 10.1363 12.9822 10.5804 12.4824C10.9906 12.0204 11.4765 11.7854 12.0381 11.7794C12.5997 11.7734 13.1314 11.9925 13.6332 12.4386C14.1788 12.9225 14.4815 13.4502 14.5433 14.0217C14.605 14.5932 14.4198 15.1209 13.9877 15.6068ZM10.911 12.8249C10.5983 13.1754 10.4729 13.5736 10.5306 14.0177C10.5884 14.4618 10.8254 14.866 11.2376 15.2325C11.6498 15.5989 12.0759 15.7861 12.518 15.796C12.9581 15.806 13.3325 15.6387 13.6372 15.2942C13.9638 14.9278 14.0992 14.5315 14.0474 14.1073C13.9956 13.6832 13.7547 13.2789 13.3245 12.8966C12.8824 12.5043 12.4503 12.3031 12.0282 12.2952C11.604 12.2872 11.2316 12.4644 10.911 12.8249Z" fill="#EAEAEA"/>
<path d="M16.479 14.6165L13.4067 10.7707L14.4674 9.92261C15.8216 8.84008 16.9984 8.92335 17.9976 10.1724C18.471 10.7663 18.6638 11.393 18.5762 12.0548C18.4885 12.7166 18.1291 13.2973 17.498 13.8035L16.479 14.6165ZM14.1825 10.8189L16.6039 13.8495L17.1781 13.3915C17.6821 12.9883 17.967 12.5391 18.0327 12.046C18.0984 11.553 17.9319 11.0577 17.5374 10.5625C16.7508 9.57856 15.8326 9.50406 14.7851 10.3412L14.1825 10.8189Z" fill="#EAEAEA"/>
<path d="M20.5574 5.87598L20.7173 9.37338L21.6333 10.9446L21.1359 11.2338L20.2265 9.6736L17.29 7.77808L17.8576 7.44718L19.9284 8.81459C19.9547 8.83212 20.038 8.89786 20.1848 9.01619L20.1936 9.01181C20.1739 8.93292 20.1607 8.82335 20.1541 8.6853L20.0292 6.18496L20.5574 5.87598Z" fill="#EAEAEA"/>
<path d="M23.1631 9.8741L22.8957 9.24956C22.9943 9.28243 23.1039 9.30216 23.2266 9.31092C23.3493 9.31969 23.4721 9.3153 23.597 9.30435C23.7219 9.2912 23.8446 9.27148 23.9651 9.24299C24.0856 9.2145 24.1908 9.17944 24.2872 9.14C24.6138 8.99975 24.8307 8.8354 24.9403 8.64694C25.0498 8.45629 25.0564 8.24811 24.9578 8.0224C24.9052 7.89969 24.8329 7.80546 24.7409 7.73753C24.6488 7.6696 24.5393 7.61919 24.4122 7.58413C24.2851 7.54907 24.1426 7.52716 23.9848 7.51401C23.8271 7.50086 23.6561 7.48771 23.4743 7.47676C23.2814 7.46361 23.0995 7.44608 22.9286 7.42197C22.7577 7.39787 22.5999 7.35842 22.4553 7.30364C22.3106 7.24885 22.1835 7.16996 22.074 7.06916C21.9622 6.96836 21.8702 6.83469 21.7979 6.66595C21.7102 6.45997 21.6773 6.26055 21.7036 6.0699C21.7299 5.87926 21.7935 5.70176 21.8987 5.5396C22.0039 5.37743 22.1397 5.2328 22.3063 5.10351C22.475 4.97422 22.6547 4.86904 22.8519 4.78358C23.2989 4.59293 23.6452 4.50747 23.895 4.52719L24.1514 5.12324C23.8052 5.05311 23.4217 5.1079 23.0031 5.2854C22.887 5.3358 22.7774 5.39716 22.6722 5.46947C22.567 5.54179 22.4816 5.62725 22.4136 5.71929C22.3457 5.81351 22.3041 5.91432 22.2843 6.02608C22.2646 6.13564 22.28 6.25398 22.3347 6.37889C22.3852 6.49503 22.4487 6.58487 22.5276 6.65061C22.6065 6.71635 22.7029 6.76676 22.8168 6.79963C22.9308 6.8325 23.0623 6.8566 23.2113 6.86975C23.3603 6.8829 23.529 6.89605 23.7219 6.90481C23.9191 6.91577 24.1076 6.9333 24.2916 6.95959C24.4735 6.98589 24.6444 7.02972 24.8 7.08888C24.9556 7.15024 25.0937 7.23132 25.212 7.33432C25.3325 7.43731 25.4268 7.57318 25.4991 7.74191C25.5955 7.96543 25.6306 8.17142 25.6108 8.36425C25.5911 8.55709 25.5254 8.7324 25.4202 8.89237C25.3128 9.05234 25.1726 9.19478 24.9972 9.32188C24.8219 9.44898 24.6269 9.55635 24.4122 9.64839C24.3398 9.67907 24.25 9.71194 24.1404 9.74481C24.0309 9.77768 23.9169 9.80836 23.7964 9.83247C23.6759 9.85657 23.5619 9.8741 23.4502 9.88287C23.334 9.89163 23.2398 9.88944 23.1631 9.8741Z" fill="#EAEAEA"/>
<path d="M26.5066 8.49133L26.3182 7.83831C26.4124 7.88213 26.5198 7.9172 26.6381 7.93911C26.7586 7.96102 26.8814 7.97417 27.0063 7.97636C27.1334 7.97855 27.2561 7.97417 27.3788 7.95883C27.5015 7.94568 27.6111 7.92377 27.7097 7.89528C28.0494 7.79667 28.286 7.66081 28.4175 7.4855C28.549 7.31019 28.5819 7.1042 28.5117 6.86754C28.4745 6.74044 28.4153 6.63744 28.332 6.55855C28.2488 6.47967 28.1458 6.41612 28.0253 6.36572C27.9047 6.31531 27.7645 6.27587 27.6089 6.243C27.4533 6.21013 27.2846 6.17726 27.1071 6.1422C26.9186 6.10714 26.7389 6.0655 26.5724 6.02167C26.4058 5.97784 26.2524 5.91868 26.1188 5.84636C25.9829 5.77405 25.8668 5.67982 25.7682 5.56806C25.6695 5.45411 25.595 5.30948 25.5446 5.13417C25.4833 4.91942 25.4745 4.71781 25.5249 4.53155C25.5731 4.34528 25.6586 4.17655 25.7835 4.02973C25.9084 3.88291 26.0596 3.75362 26.2437 3.64624C26.4256 3.53886 26.6184 3.45559 26.8244 3.39643C27.2911 3.26275 27.6461 3.21893 27.8916 3.26933L28.0713 3.89167C27.736 3.77772 27.3503 3.78649 26.912 3.9114C26.7915 3.94646 26.6732 3.99467 26.5614 4.05383C26.4475 4.11519 26.3511 4.18751 26.2744 4.27078C26.1955 4.35405 26.1407 4.45047 26.1078 4.55785C26.0749 4.66522 26.0771 4.78356 26.1144 4.91285C26.1495 5.03337 26.202 5.13198 26.2722 5.20649C26.3423 5.28099 26.4321 5.34235 26.5417 5.39056C26.6513 5.43877 26.7784 5.47602 26.923 5.50889C27.0698 5.53957 27.2364 5.57244 27.4248 5.60751C27.6177 5.64257 27.8039 5.6842 27.9814 5.73241C28.1611 5.78062 28.3233 5.84417 28.4701 5.92306C28.6169 6.00195 28.744 6.10056 28.8492 6.2167C28.9566 6.33285 29.0355 6.47967 29.0859 6.65497C29.1538 6.88726 29.1648 7.09763 29.1209 7.28609C29.0771 7.47454 28.9916 7.64109 28.8645 7.78791C28.7396 7.93473 28.5819 8.05963 28.3912 8.16263C28.2028 8.26562 27.9946 8.35109 27.7711 8.41464C27.6965 8.43655 27.6023 8.45627 27.4884 8.47599C27.3744 8.49572 27.2583 8.51105 27.1356 8.51982C27.015 8.53078 26.8989 8.53297 26.7871 8.52858C26.671 8.52858 26.579 8.51544 26.5066 8.49133Z" fill="#EAEAEA"/>
<path d="M32.8293 7.27162L30.2545 7.69017L29.4634 2.83193L31.9308 2.43091L32.0141 2.94588L30.1164 3.25486L30.3794 4.86989L32.1346 4.58501L32.2179 5.0956L30.4626 5.38048L30.7388 7.08097L32.7438 6.75446L32.8293 7.27162Z" fill="#EAEAEA"/>
<path d="M36.6419 2.16235L35.1386 5.32448L35.2088 7.14112L34.6324 7.16303L34.5623 5.35954L32.8618 2.30698L33.517 2.28069L34.7047 4.46109C34.7201 4.48738 34.7639 4.58819 34.8362 4.75911H34.8472C34.8669 4.68022 34.9064 4.57723 34.9655 4.45232L36.0327 2.18427L36.6419 2.16235Z" fill="#EAEAEA"/>
<path d="M39.0127 7.047L39.1157 6.37426C39.1814 6.45315 39.2647 6.52984 39.3633 6.59997C39.4619 6.67009 39.5693 6.73364 39.6811 6.78842C39.795 6.84321 39.909 6.89142 40.0251 6.92867C40.1412 6.96812 40.2508 6.99441 40.3538 7.00975C40.7044 7.06234 40.9762 7.03824 41.169 6.93525C41.3618 6.83225 41.478 6.65694 41.5152 6.4137C41.535 6.28222 41.524 6.16389 41.4802 6.0587C41.4363 5.95352 41.3706 5.85271 41.2808 5.75629C41.1909 5.65988 41.0813 5.56565 40.9542 5.47142C40.8271 5.37719 40.6891 5.27639 40.5401 5.1712C40.3845 5.05944 40.2377 4.94768 40.104 4.83812C39.9703 4.72855 39.8586 4.61021 39.7643 4.4875C39.6723 4.36478 39.6044 4.23111 39.5627 4.08648C39.5211 3.94185 39.5145 3.77969 39.5408 3.59781C39.5737 3.37648 39.6526 3.19021 39.7753 3.0412C39.898 2.89219 40.0448 2.77605 40.2201 2.69497C40.3954 2.6117 40.5861 2.56129 40.7965 2.53938C41.0068 2.51747 41.2172 2.52404 41.4276 2.55691C41.9075 2.62923 42.2471 2.74099 42.4487 2.89L42.3501 3.53207C42.0937 3.28883 41.7387 3.13324 41.2895 3.06531C41.1646 3.04558 41.0397 3.0412 40.9104 3.04778C40.7811 3.05435 40.665 3.08065 40.5576 3.12447C40.4524 3.1683 40.3604 3.23185 40.2859 3.31512C40.2114 3.39839 40.1632 3.50796 40.1412 3.63944C40.1215 3.76435 40.1281 3.87392 40.161 3.97253C40.1938 4.07114 40.2486 4.16318 40.3275 4.25083C40.4064 4.33849 40.505 4.42833 40.6255 4.51818C40.7439 4.60802 40.8841 4.70883 41.0397 4.81839C41.2019 4.93015 41.3531 5.04629 41.4933 5.16463C41.6358 5.28296 41.7563 5.41006 41.8549 5.54373C41.9557 5.67741 42.028 5.81984 42.0762 5.97105C42.1244 6.12225 42.1332 6.2866 42.1069 6.46849C42.0696 6.70734 41.9929 6.90457 41.8724 7.05577C41.7519 7.20697 41.6051 7.32312 41.4298 7.4042C41.2545 7.48309 41.0594 7.53129 40.8447 7.54663C40.6299 7.56197 40.4064 7.55102 40.1763 7.51595C40.0996 7.505 40.0054 7.48309 39.8936 7.4546C39.7819 7.42611 39.6701 7.38886 39.5562 7.34722C39.4422 7.30558 39.3348 7.25957 39.2362 7.20917C39.1376 7.15876 39.0697 7.0996 39.0127 7.047Z" fill="#EAEAEA"/>
<path d="M45.2657 8.59861L42.7544 7.89518L44.0824 3.15527L46.4885 3.83021L46.3482 4.33203L44.4965 3.81268L44.0561 5.38827L45.7675 5.86817L45.6273 6.3678L43.9158 5.8879L43.4512 7.54675L45.4081 8.09459L45.2657 8.59861Z" fill="#EAEAEA"/>
<path d="M49.5385 10.3782L48.9534 10.124L49.0235 8.65143L47.1083 7.82091L46.109 8.89248L45.5195 8.63828L49.2076 4.87134L49.7554 5.108L49.5385 10.3782ZM49.0564 8.1014L49.1813 5.8706C49.1857 5.79828 49.2054 5.68652 49.2427 5.53751L49.2295 5.53094C49.1528 5.64927 49.0849 5.74131 49.0257 5.80266L47.4896 7.42208L49.0564 8.1014Z" fill="#EAEAEA"/>
<path d="M53.0114 12.5277L52.4263 12.1705L52.4439 10.5642C52.446 10.4152 52.4417 10.2837 52.4263 10.1698C52.4132 10.0558 52.3891 9.95502 52.3562 9.86736C52.3233 9.77971 52.2751 9.70301 52.216 9.63508C52.1568 9.56715 52.0801 9.50579 51.9881 9.451L51.5848 9.20338L50.4914 10.9893L50.0005 10.6891L52.5688 6.49048L53.8222 7.25745C54.0063 7.36921 54.1619 7.49631 54.289 7.63656C54.4161 7.77681 54.5081 7.9302 54.5651 8.09236C54.6221 8.25671 54.6396 8.42764 54.6199 8.60514C54.6002 8.78483 54.5322 8.96671 54.4161 9.15517C54.3262 9.30199 54.2232 9.42252 54.1049 9.51674C53.9866 9.61097 53.8573 9.68329 53.717 9.72931C53.5768 9.77532 53.43 9.79724 53.2744 9.79505C53.1188 9.79286 52.9588 9.76656 52.7923 9.71616L52.7857 9.72711C52.8361 9.80162 52.8756 9.87394 52.904 9.94625C52.9303 10.0186 52.9522 10.0953 52.9654 10.1785C52.9785 10.2618 52.9873 10.3517 52.9917 10.4503C52.9961 10.5467 52.9961 10.6606 52.9983 10.7855L53.0114 12.5277ZM52.7879 7.23335L51.8566 8.75634L52.5249 9.16394C52.6477 9.23844 52.7726 9.29103 52.8997 9.31733C53.0268 9.34363 53.1495 9.34582 53.2678 9.3239C53.3861 9.30199 53.4979 9.25159 53.6031 9.17927C53.7083 9.10477 53.7981 9.00616 53.8748 8.88125C54.0129 8.65773 54.0457 8.4364 53.9778 8.22165C53.9099 8.0069 53.7368 7.81625 53.4628 7.64752L52.7879 7.23335Z" fill="#EAEAEA"/>
<path d="M56.0508 14.7819C55.6475 14.6986 55.2378 14.4839 54.8192 14.1398C54.2779 13.695 53.9887 13.1647 53.9514 12.5489C53.9142 11.9331 54.1267 11.3436 54.5935 10.7783C55.0931 10.1713 55.6826 9.83161 56.3554 9.7571C57.0303 9.68479 57.6483 9.87982 58.2092 10.3422C58.5686 10.6402 58.825 10.9382 58.9762 11.2363L58.5862 11.7096C58.4393 11.3327 58.2027 11.0106 57.874 10.7388C57.4379 10.3794 56.9645 10.2326 56.454 10.3006C55.9434 10.3685 55.4854 10.6468 55.0844 11.1333C54.7031 11.5957 54.5256 12.069 54.5519 12.5511C54.5782 13.0354 54.7973 13.4452 55.2093 13.7848C55.5906 14.0982 55.9916 14.2866 56.4101 14.348L56.0508 14.7819Z" fill="#EAEAEA"/>
<path d="M58.9724 18.2782L58.5889 17.8465L60.2675 16.3563L58.5757 14.4521L56.8972 15.9422L56.5137 15.5105L60.1952 12.2432L60.5786 12.6749L58.9636 14.108L60.6553 16.0123L62.2704 14.5792L62.6539 15.0108L58.9724 18.2782Z" fill="#EAEAEA"/>
<path d="M12.6494 60.2762C12.1563 59.8116 11.9153 59.2791 11.9241 58.6743C11.9328 58.0717 12.1826 57.5085 12.6735 56.9891C13.1994 56.4303 13.7714 56.1279 14.3871 56.0797C15.0029 56.0315 15.5705 56.2528 16.0898 56.7415C16.5697 57.1929 16.8042 57.7188 16.7933 58.3193C16.7823 58.9175 16.5303 59.4785 16.0394 60C15.5047 60.5676 14.9328 60.8744 14.3214 60.9204C13.71 60.9642 13.1534 60.7495 12.6494 60.2762ZM15.7129 57.0812C15.347 56.7371 14.9284 56.5903 14.4529 56.6385C13.9774 56.6867 13.5369 56.9256 13.1337 57.3529C12.7305 57.7802 12.5179 58.2294 12.4938 58.7006C12.4697 59.1695 12.6363 59.5727 12.9934 59.9102C13.3747 60.2696 13.7911 60.4274 14.2469 60.3857C14.7005 60.3441 15.1388 60.0987 15.5595 59.6516C15.9912 59.1936 16.2191 58.7378 16.241 58.2864C16.2651 57.8372 16.0898 57.434 15.7129 57.0812Z" fill="#EAEAEA"/>
<path d="M15.481 62.6271L18.161 58.6782L19.2523 59.4189C20.6438 60.3634 20.9046 61.4766 20.0324 62.7607C19.6182 63.3699 19.0923 63.7293 18.4546 63.8367C17.8169 63.9441 17.1749 63.7775 16.5262 63.337L15.481 62.6271ZM18.3407 59.4123L16.2282 62.5241L16.8177 62.9251C17.3348 63.2757 17.8323 63.4116 18.3078 63.3305C18.7833 63.2494 19.1953 62.9536 19.5394 62.4452C20.2274 61.435 20.0324 60.5628 18.9564 59.8331L18.3407 59.4123Z" fill="#EAEAEA"/>
<path d="M24.7389 62.5042L21.9953 64.5049L21.2152 66.0871L20.7134 65.8394L21.4891 64.2704L21.4497 60.8826L22.0194 61.1631L22.0238 63.5692C22.0238 63.5999 22.015 63.7029 21.9997 63.8825L22.0085 63.8869C22.0611 63.83 22.1421 63.7598 22.2517 63.6809L24.2086 62.2412L24.7389 62.5042Z" fill="#EAEAEA"/>
<path d="M23.3452 66.8493L23.5665 66.2292C23.6148 66.3168 23.6805 66.4045 23.7616 66.4899C23.8427 66.5754 23.9325 66.6543 24.0289 66.7288C24.1275 66.8011 24.2283 66.869 24.3313 66.926C24.4343 66.9852 24.5351 67.029 24.6294 67.0641C24.9537 67.1802 25.2166 67.2043 25.4204 67.1408C25.622 67.0772 25.7645 66.9326 25.8456 66.7069C25.8894 66.5863 25.9003 66.4702 25.8784 66.3606C25.8565 66.2511 25.8127 66.1437 25.7448 66.0363C25.6768 65.9289 25.5914 65.8172 25.4862 65.7054C25.381 65.5937 25.2692 65.4709 25.1465 65.3439C25.0172 65.208 24.9011 65.0765 24.7937 64.9472C24.6863 64.8179 24.6009 64.6864 24.5351 64.5506C24.4694 64.4169 24.4299 64.2767 24.4168 64.132C24.4036 63.9874 24.4256 63.8318 24.4869 63.6631C24.5592 63.4571 24.6688 63.2971 24.8112 63.1766C24.9559 63.0561 25.118 62.975 25.2977 62.9268C25.4796 62.8808 25.6724 62.8676 25.8762 62.8851C26.08 62.9027 26.2794 62.9465 26.4745 63.0166C26.9171 63.1744 27.2217 63.3431 27.3861 63.5206L27.1757 64.1123C26.9763 63.834 26.6673 63.6214 26.251 63.4724C26.1348 63.4308 26.0165 63.4023 25.8938 63.387C25.771 63.3716 25.6549 63.3738 25.5453 63.3957C25.4358 63.4176 25.3372 63.4615 25.2517 63.5272C25.164 63.593 25.0983 63.6872 25.0545 63.8099C25.0128 63.926 24.9997 64.0312 25.0128 64.1298C25.026 64.2284 25.0632 64.3271 25.1224 64.4257C25.1816 64.5243 25.2583 64.6273 25.3569 64.7347C25.4533 64.842 25.5673 64.9626 25.6965 65.0962C25.8302 65.2321 25.9529 65.3701 26.0647 65.5104C26.1786 65.6485 26.2707 65.7909 26.3408 65.9377C26.4109 66.0823 26.4548 66.2313 26.4723 66.3847C26.4898 66.5381 26.4701 66.6959 26.4087 66.8647C26.3298 67.086 26.2203 67.2591 26.0778 67.3818C25.9376 67.5045 25.7754 67.5878 25.5935 67.6316C25.4117 67.6755 25.2166 67.6842 25.0106 67.6579C24.8025 67.6316 24.5921 67.5812 24.3795 67.5067C24.3094 67.4804 24.2218 67.4454 24.1231 67.395C24.0223 67.3467 23.9215 67.292 23.8207 67.2306C23.7199 67.1692 23.6257 67.1057 23.5402 67.04C23.4548 66.9742 23.389 66.9107 23.3452 66.8493Z" fill="#EAEAEA"/>
<path d="M27.0728 68.1054L27.2196 67.4634C27.2787 67.5445 27.3532 67.6233 27.4431 67.7C27.5351 67.7746 27.6316 67.8447 27.7367 67.906C27.8419 67.9674 27.9493 68.0222 28.0611 68.066C28.1728 68.1098 28.2758 68.1449 28.3722 68.1668C28.7075 68.2435 28.9727 68.2391 29.1655 68.1515C29.3605 68.066 29.4832 67.906 29.5358 67.6716C29.5643 67.5467 29.5621 67.4305 29.5271 67.3253C29.492 67.2201 29.4372 67.1171 29.3562 67.0185C29.2773 66.9199 29.1787 66.8191 29.0603 66.7183C28.9442 66.6175 28.8171 66.5101 28.6812 66.3984C28.5388 66.28 28.4051 66.1617 28.2846 66.0456C28.1641 65.9294 28.0632 65.8089 27.9822 65.6818C27.9011 65.5547 27.8463 65.4232 27.8156 65.2808C27.7849 65.1384 27.7893 64.9806 27.8288 64.8075C27.877 64.5949 27.9668 64.4218 28.0939 64.2859C28.2232 64.15 28.3744 64.0492 28.5497 63.9813C28.725 63.9134 28.9135 63.8783 29.1195 63.8718C29.3233 63.8652 29.5271 63.8871 29.7287 63.9331C30.1867 64.0383 30.5088 64.1698 30.6929 64.3275L30.5526 64.9411C30.3225 64.6869 29.9895 64.5116 29.5599 64.413C29.4416 64.3867 29.3189 64.3714 29.194 64.3692C29.0691 64.367 28.9551 64.3823 28.8478 64.4174C28.7426 64.4525 28.6505 64.5072 28.5716 64.5817C28.4928 64.6563 28.4402 64.7592 28.4095 64.8863C28.3832 65.0047 28.381 65.1142 28.4051 65.2107C28.4292 65.3071 28.4774 65.4013 28.5475 65.4934C28.6177 65.5854 28.7075 65.6774 28.8171 65.7738C28.9266 65.8703 29.0537 65.9754 29.1962 66.0938C29.343 66.2143 29.4811 66.337 29.6103 66.4619C29.7396 66.5868 29.847 66.7183 29.9347 66.8542C30.0223 66.99 30.0837 67.1325 30.1187 67.2815C30.1538 67.4305 30.1516 67.5927 30.1122 67.7658C30.0596 67.9959 29.9697 68.1778 29.8448 68.318C29.7199 68.4583 29.5687 68.5591 29.3934 68.6226C29.2181 68.6862 29.0253 68.719 28.8171 68.7168C28.6067 68.7146 28.392 68.6905 28.1728 68.6401C28.1005 68.6226 28.0107 68.5963 27.9055 68.5591C27.8003 68.5218 27.6929 68.4802 27.5855 68.432C27.4782 68.3837 27.3774 68.3312 27.2853 68.2742C27.1933 68.2172 27.1253 68.1602 27.0728 68.1054Z" fill="#EAEAEA"/>
<path d="M33.6092 69.4283L31.1001 69.1171L31.6896 64.3816L34.0935 64.6818L34.0299 65.1836L32.1804 64.9535L31.9854 66.5291L33.6969 66.7417L33.6355 67.2413L31.924 67.0288L31.7181 68.6876L33.6728 68.9309L33.6092 69.4283Z" fill="#EAEAEA"/>
<path d="M37.9725 64.6953L36.4035 67.7062L36.4079 69.4703H35.8491L35.8447 67.7194L34.3042 64.6997L34.9397 64.6975L36.0135 66.8516C36.0266 66.8779 36.066 66.9765 36.1296 67.143H36.1384C36.1603 67.0685 36.2019 66.9699 36.2633 66.8494L37.3765 64.6909L37.9725 64.6953Z" fill="#EAEAEA"/>
<path d="M40.7616 68.9806L40.6433 68.3319C40.7288 68.3845 40.8296 68.4262 40.9435 68.459C41.0575 68.4919 41.1736 68.516 41.2941 68.5314C41.4147 68.5467 41.5352 68.5533 41.6557 68.5511C41.7741 68.5489 41.8836 68.5401 41.9822 68.5226C42.3197 68.4612 42.5607 68.3517 42.7054 68.1961C42.85 68.0405 42.9004 67.8433 42.8566 67.6088C42.8325 67.4817 42.7843 67.3765 42.712 67.2932C42.6396 67.21 42.5476 67.1376 42.4336 67.0785C42.3219 67.0193 42.1904 66.9667 42.0436 66.9207C41.8968 66.8747 41.7368 66.8265 41.5681 66.7761C41.3884 66.7235 41.2218 66.6665 41.0641 66.6073C40.9063 66.5482 40.766 66.4781 40.6433 66.3926C40.5206 66.3093 40.4154 66.2085 40.3321 66.0902C40.2489 65.9719 40.1897 65.825 40.159 65.6497C40.1196 65.435 40.1327 65.2421 40.1963 65.0646C40.2598 64.8893 40.3606 64.7359 40.4943 64.6044C40.628 64.4752 40.7879 64.3656 40.9742 64.2801C41.1605 64.1947 41.3555 64.1333 41.5571 64.096C42.0195 64.0106 42.3679 64.004 42.598 64.0763L42.712 64.6943C42.3986 64.554 42.0261 64.5234 41.5922 64.6023C41.4716 64.6242 41.3555 64.6592 41.2394 64.7052C41.1232 64.7535 41.0246 64.8126 40.9413 64.8871C40.8581 64.9616 40.7945 65.0493 40.7529 65.1479C40.7112 65.2487 40.7003 65.3627 40.7244 65.4919C40.7463 65.6125 40.7879 65.7111 40.8493 65.79C40.9107 65.8689 40.9917 65.9368 41.0903 65.9938C41.1912 66.0485 41.3095 66.099 41.4475 66.145C41.5856 66.1888 41.7434 66.237 41.9231 66.2874C42.1071 66.34 42.2824 66.397 42.449 66.4605C42.6155 66.5241 42.7667 66.6008 42.9004 66.6928C43.0341 66.7827 43.1458 66.89 43.2379 67.0127C43.3299 67.1355 43.3913 67.2845 43.4219 67.4598C43.4636 67.6899 43.4548 67.8959 43.3935 68.0712C43.3321 68.2487 43.2335 68.3999 43.0998 68.5292C42.964 68.6585 42.7996 68.7636 42.6068 68.8447C42.4139 68.9258 42.2057 68.9872 41.9844 69.0288C41.9099 69.0419 41.8179 69.0529 41.7061 69.0617C41.5944 69.0704 41.4804 69.0726 41.3621 69.0704C41.2437 69.0682 41.132 69.0595 41.0246 69.0441C40.9172 69.0332 40.8296 69.0113 40.7616 68.9806Z" fill="#EAEAEA"/>
<path d="M47.3015 67.5847L44.8822 68.3232L43.4907 63.7586L45.8092 63.053L45.956 63.5373L44.1744 64.0807L44.6368 65.5993L46.2869 65.0975L46.4337 65.5774L44.7836 66.0792L45.2701 67.6767L47.1547 67.1026L47.3015 67.5847Z" fill="#EAEAEA"/>
<path d="M51.9172 65.6087L51.3519 65.8629L50.3417 64.8505L48.4965 65.6832L48.6127 67.0988L48.0451 67.3552L47.7515 62.2516L48.2796 62.0127L51.9172 65.6087ZM49.9669 64.467L48.4483 62.9221C48.3979 62.8717 48.3322 62.7841 48.2511 62.6613L48.2379 62.6679C48.273 62.8016 48.2927 62.909 48.2993 62.99L48.4593 65.1485L49.9669 64.467Z" fill="#EAEAEA"/>
<path d="M55.7625 63.2297L55.1993 63.5825L53.8121 62.8725C53.685 62.8067 53.5667 62.7541 53.4637 62.7169C53.3585 62.6796 53.2621 62.6555 53.1701 62.6468C53.0802 62.638 52.9926 62.6446 52.9071 62.6665C52.8238 62.6884 52.7362 62.7278 52.6485 62.7826L52.2585 63.0259L53.3366 64.7461L52.8633 65.0419L50.3301 60.9967L51.5375 60.2406C51.715 60.1311 51.8903 60.05 52.0678 59.9996C52.2453 59.9492 52.4162 59.936 52.5828 59.958C52.7493 59.9799 52.9049 60.0369 53.0517 60.1333C53.1986 60.2297 53.3279 60.3677 53.4418 60.5474C53.5295 60.6877 53.5908 60.8301 53.6215 60.9748C53.6522 61.1194 53.6587 61.2618 53.639 61.4021C53.6193 61.5423 53.5733 61.6804 53.5054 61.814C53.4352 61.9477 53.3432 62.0748 53.2292 62.1975L53.2358 62.2085C53.3213 62.1953 53.4024 62.1932 53.4769 62.2019C53.5514 62.2085 53.6259 62.226 53.7048 62.2501C53.7837 62.2742 53.8647 62.3071 53.9502 62.3444C54.0357 62.3838 54.1343 62.4298 54.2438 62.4846L55.7625 63.2297ZM51.0729 61.1325L51.9911 62.5986L52.6354 62.1953C52.7537 62.1208 52.8523 62.0354 52.9312 61.9368C53.0101 61.8382 53.0649 61.733 53.0956 61.619C53.1262 61.5073 53.1328 61.3889 53.1131 61.2662C53.0934 61.1435 53.0474 61.0208 52.9707 60.9024C52.8348 60.6855 52.6595 60.5606 52.4425 60.5277C52.2256 60.4948 51.9867 60.5606 51.7216 60.7271L51.0729 61.1325Z" fill="#EAEAEA"/>
<path d="M58.8842 60.4358C58.7308 60.8039 58.4503 61.1546 58.0449 61.4898C57.5211 61.9215 56.9623 62.099 56.3685 62.0201C55.7746 61.9413 55.2531 61.6301 54.8017 61.0822C54.3152 60.4928 54.1004 59.8704 54.1574 59.2152C54.2122 58.56 54.5124 58.0078 55.058 57.5607C55.4065 57.2737 55.7374 57.0852 56.0507 56.9976L56.4298 57.4577C56.0442 57.5279 55.6935 57.6944 55.3736 57.9574C54.9507 58.3058 54.725 58.7287 54.6943 59.2284C54.6636 59.728 54.8433 60.2145 55.2334 60.6856C55.6037 61.1348 56.0201 61.3912 56.4846 61.4548C56.9492 61.5183 57.3831 61.3868 57.7819 61.0581C58.1522 60.7535 58.4043 60.4073 58.5401 60.0194L58.8842 60.4358Z" fill="#EAEAEA"/>
<path d="M62.4366 56.9691L62.0597 57.3833L60.4491 55.9217L58.7902 57.7493L60.403 59.2131L60.0283 59.6273L56.4937 56.4191L56.8684 56.0049L58.4177 57.4118L60.0765 55.5842L58.5272 54.1774L58.902 53.7632L62.4366 56.9691Z" fill="#EAEAEA"/>
</svg>
