<svg width="30" height="29" viewBox="0 0 30 29" fill="none" xmlns="http://www.w3.org/2000/svg">
<circle cx="14.9812" cy="14.3147" r="14.3083" fill="white"/>
<g clip-path="url(#clip0)">
<path d="M14.4892 10.0351C15.4541 10.7665 16.4908 11.1449 17.5573 11.1599L17.8202 10.8461C16.6566 10.8956 15.5288 10.4901 14.4907 9.64307C13.0178 10.8325 11.3717 11.1494 9.71364 10.5592L8.79199 11.193L8.79647 11.3417C8.95481 15.6595 10.9266 19.1753 14.3502 21.2419L14.4892 21.3245L14.6266 21.2419C17.8651 19.288 19.2468 16.4359 19.8144 14.042L19.3513 14.5917V14.5932C18.7135 16.7754 17.3467 19.2324 14.4892 20.9655C11.176 18.9576 9.26551 15.5454 9.10568 11.3537L9.75994 10.9016C11.4016 11.4363 13.0238 11.1374 14.4892 10.0351Z" fill="url(#paint0_linear)"/>
<path d="M15.2249 22.4524L14.4885 22.8985L13.7505 22.4524C8.49254 19.279 7.53205 14.0586 7.42898 11.2291L7.4006 10.4361L9.4097 9.04988L9.51874 9.09344C11.1768 9.76477 12.0118 10.1012 14.3973 8.01661L14.5452 7.88595L14.6901 8.02111C16.8232 10.0081 17.7389 9.78279 19.2147 9.19406L19.6195 8.71347L19.6046 8.70296L19.3432 8.80809C17.7359 9.45839 17.0024 9.75425 14.8992 7.79433L14.5512 7.47144L14.1957 7.78382C11.9506 9.74524 11.2246 9.45238 9.63376 8.80809L9.37236 8.70296L7.08691 10.2784L7.12127 11.2411C7.22882 14.1337 8.21022 19.4697 13.5922 22.7183L14.487 23.2574L15.3817 22.7183C19.261 20.3769 21.5405 16.454 21.8303 11.6451L21.4912 12.0476C21.1088 16.5592 18.901 20.2342 15.2249 22.4524Z" fill="url(#paint1_linear)"/>
<path d="M18.2257 10.3653L18.6529 9.85917L18.9218 9.53928C17.561 10.0364 16.5542 10.0589 14.5406 8.18311C12.1192 10.3007 11.1976 10.0109 9.43646 9.30049L7.62305 10.5485L7.64695 11.2214C7.79483 15.2163 9.40808 19.5762 13.8625 22.2645L14.4868 22.6415L15.1097 22.2645C19.0786 19.869 20.8458 16.1114 21.2476 12.3417L20.9892 12.6466L20.4066 13.3375L20.1243 13.6724C19.5342 16.6055 17.9464 19.4951 14.7378 21.431L14.4868 21.5826L14.2344 21.431C10.2745 19.04 8.71647 15.1457 8.57756 11.3505L8.56859 11.0817L9.68293 10.3142C11.5412 11.0186 13.1843 10.4719 14.4928 9.35756C15.4877 10.2136 16.6857 10.7287 18.0196 10.6116L18.2257 10.3653Z" fill="url(#paint2_linear)"/>
<path d="M20.9455 7.95215L20.0538 9.01246L19.8536 9.24975L19.7117 9.41946L19.5683 9.58917L19.0963 10.1509L18.8304 10.4663L18.5929 10.7501L18.2852 11.1166H18.2837L14.9376 15.0935L12.1936 12.7566L10.5654 14.694L13.3095 17.0294L15.2334 18.6664L16.8631 16.729L19.628 13.4444V13.4429L20.0209 12.9758L20.2898 12.656L20.5437 12.3556L21.08 11.7173L21.3145 11.4395V11.438L21.5475 11.1631L21.8687 10.7816L22.871 9.59067L20.9455 7.95215ZM15.1722 17.92L11.3063 14.6294L12.2549 13.5015L14.9989 15.8369L19.1321 10.9273C19.1605 10.9198 19.1874 10.9108 19.2158 10.9018L19.8715 11.3538C19.8596 11.6813 19.8342 12.0447 19.7864 12.4382L15.1722 17.92ZM20.4899 9.31283L21.0098 8.69707L22.1316 9.65074L21.7088 10.1524L20.4899 9.31283Z" fill="#333333"/>
<path d="M22.873 9.59067L21.8707 10.7816L21.5495 11.1631L21.3165 11.438V11.4395L21.082 11.7188L20.5457 12.3556L20.2918 12.656L20.0229 12.9758L19.63 13.4429V13.4444L16.8651 16.729L15.2339 18.6664L13.31 17.0278L10.5645 14.6925L12.1941 12.7566L14.9382 15.092L18.2842 11.1151H18.2857L18.5934 10.7486L18.8309 10.4647L19.0968 10.1509L19.5703 9.58917L19.7122 9.41946L19.8541 9.24975L20.0543 9.01246L20.946 7.95215L22.873 9.59067Z" fill="url(#paint3_linear)"/>
</g>
<defs>
<linearGradient id="paint0_linear" x1="18.788" y1="19.2776" x2="8.98313" y2="8.851" gradientUnits="userSpaceOnUse">
<stop offset="0.0121" stop-color="#008C0F"/>
<stop offset="1" stop-color="#5CC467"/>
</linearGradient>
<linearGradient id="paint1_linear" x1="19.2" y1="18.8909" x2="9.39524" y2="8.4643" gradientUnits="userSpaceOnUse">
<stop offset="0.0121" stop-color="#008C0F"/>
<stop offset="1" stop-color="#5CC467"/>
</linearGradient>
<linearGradient id="paint2_linear" x1="19.0007" y1="19.078" x2="9.1959" y2="8.65143" gradientUnits="userSpaceOnUse">
<stop/>
<stop offset="0.6766" stop-color="#686868"/>
<stop offset="1" stop-color="#9C9C9C"/>
</linearGradient>
<linearGradient id="paint3_linear" x1="14.7722" y1="10.72" x2="18.8967" y2="13.9038" gradientUnits="userSpaceOnUse">
<stop stop-color="#5CC467"/>
<stop offset="0.9879" stop-color="#008C0F"/>
</linearGradient>
<clipPath id="clip0">
<rect width="15.786" height="15.786" fill="white" transform="translate(7.08691 7.47144)"/>
</clipPath>
</defs>
</svg>
