<svg width="577" height="1134" viewBox="0 0 577 1134" fill="none" xmlns="http://www.w3.org/2000/svg">
<g opacity="0.2" filter="url(#filter0_d)">
<path d="M-60.5254 332.573C-60.6615 332.671 -60.8538 332.691 -61.0158 332.631C-61.2729 332.52 -61.3636 332.231 -61.2534 331.974L-15.0051 228.923C-14.8808 228.686 -14.6054 228.576 -14.3484 228.686C-14.0913 228.797 -14.0006 229.086 -14.0914 229.329L-60.3396 332.379C-60.4034 332.455 -60.4476 332.517 -60.5254 332.573Z" fill="#636363"/>
<path d="M-40.6232 527.214C-40.7593 527.312 -40.9516 527.332 -41.1136 527.272C-41.3706 527.161 -41.4613 526.872 -41.3706 526.629L4.87768 423.578C4.98788 423.321 5.27737 423.231 5.52039 423.322C5.77745 423.432 5.86816 423.722 5.77741 423.965L-40.4709 527.015C-40.5011 527.096 -40.5648 527.172 -40.6232 527.214Z" fill="#636363"/>
<path d="M8.69021 425.295C9.52539 423.42 8.69175 421.241 6.83071 420.424C4.95563 419.587 2.77683 420.42 1.9611 422.281C1.11188 424.136 1.95956 426.335 3.8206 427.152C5.68164 427.969 7.87448 427.156 8.69021 425.295Z" fill="#636363"/>
<path d="M5.60721 424.176C5.39332 424.33 5.09198 424.282 4.93754 424.068L-61.1887 332.43C-61.3431 332.216 -61.2945 331.914 -61.0806 331.76C-60.8667 331.606 -60.5654 331.655 -60.4109 331.869L5.7153 423.506C5.88918 423.706 5.84054 424.008 5.60721 424.176Z" fill="#636363"/>
<path d="M8.3188 421.627C9.5122 423.281 9.1393 425.591 7.48651 426.784C5.83373 427.977 3.52329 427.602 2.32988 425.949C1.13648 424.295 1.50939 421.984 3.16217 420.791C4.81496 419.599 7.12539 419.973 8.3188 421.627Z" fill="#636363"/>
<path d="M5.58769 424.189C5.37381 424.344 5.07245 424.295 4.91801 424.081L-61.2082 332.443C-61.3626 332.229 -61.314 331.928 -61.1001 331.773C-60.8862 331.619 -60.5849 331.668 -60.4305 331.882L5.69577 423.52C5.86964 423.72 5.82101 424.021 5.58769 424.189Z" fill="#636363"/>
<path d="M8.30122 421.641C9.49462 423.295 9.12171 425.605 7.46892 426.798C5.81613 427.99 3.50568 427.616 2.31227 425.962C1.11887 424.309 1.49179 421.998 3.14458 420.805C4.79737 419.612 7.10781 419.987 8.30122 421.641Z" fill="#636363"/>
<path d="M117.961 412.778C117.903 412.82 117.811 412.857 117.725 412.86L5.35014 424.273C5.07146 424.296 4.84466 424.105 4.80148 423.84C4.77775 423.561 4.96894 423.335 5.24762 423.311L117.622 411.898C117.901 411.875 118.128 412.066 118.151 412.345C118.177 412.504 118.097 412.68 117.961 412.778Z" fill="#636363"/>
<path d="M5.69524 427.455C3.65262 427.657 1.84676 426.179 1.65796 424.155C1.45511 422.112 2.93191 420.307 4.95509 420.119C6.98367 419.898 8.80357 421.396 8.99238 423.419C9.18118 425.443 7.71842 427.268 5.69524 427.455Z" fill="#636363"/>
<path d="M118.051 416.057C120.079 415.836 121.556 414.03 121.348 412.021C121.126 409.992 119.32 408.513 117.311 408.721C115.282 408.942 113.805 410.747 114.014 412.757C114.202 414.78 116.028 416.244 118.051 416.057Z" fill="#636363"/>
<path d="M117.963 412.778C117.826 412.876 117.634 412.896 117.472 412.836C117.215 412.725 117.124 412.436 117.215 412.193L163.483 309.128C163.593 308.871 163.883 308.781 164.126 308.872C164.383 308.982 164.473 309.272 164.363 309.529L118.115 412.579C118.085 412.66 118.04 412.722 117.963 412.778Z" fill="#636363"/>
<path d="M121.045 413.896C120.195 415.752 118.017 416.584 116.175 415.753C114.319 414.903 113.486 412.723 114.315 410.881C115.165 409.026 117.344 408.193 119.185 409.024C121.046 409.841 121.88 412.021 121.045 413.896Z" fill="#636363"/>
<path d="M167.293 310.846C168.128 308.971 167.295 306.791 165.434 305.974C163.578 305.124 161.38 305.97 160.564 307.831C159.715 309.687 160.563 311.886 162.424 312.703C164.265 313.534 166.458 312.721 167.293 310.846Z" fill="#636363"/>
<path d="M164.212 309.727C163.998 309.881 163.697 309.833 163.543 309.619L97.4163 217.981C97.2619 217.767 97.3105 217.465 97.5244 217.311C97.7383 217.157 98.0396 217.205 98.1941 217.419L164.32 309.057C164.475 309.271 164.426 309.573 164.212 309.727Z" fill="#636363"/>
<path d="M160.29 308.743C159.965 310.757 161.334 312.654 163.348 312.981C165.361 313.307 167.257 311.939 167.582 309.925C167.907 307.911 166.538 306.014 164.525 305.688C162.511 305.361 160.615 306.729 160.29 308.743Z" fill="#636363"/>
<path d="M100.799 215.539C99.6059 213.885 97.2954 213.511 95.6427 214.704C93.9899 215.896 93.617 218.207 94.8104 219.861C96.0038 221.515 98.3142 221.889 99.967 220.696C101.62 219.504 101.993 217.193 100.799 215.539Z" fill="#636363"/>
<path d="M98.0771 218.123C97.9993 218.179 97.9269 218.202 97.8405 218.205L-14.5146 229.603C-14.7933 229.627 -15.0201 229.436 -15.0438 229.157C-15.0675 228.878 -14.8763 228.651 -14.6117 228.608L97.7434 217.21C98.0221 217.186 98.2489 217.378 98.2921 217.642C98.2931 217.849 98.2132 218.025 98.0771 218.123Z" fill="#636363"/>
<path d="M97.4141 214.047C99.4567 213.845 101.263 215.323 101.451 217.347C101.64 219.37 100.177 221.195 98.1543 221.383C96.1116 221.585 94.3058 220.106 94.117 218.083C93.9087 216.073 95.3715 214.248 97.4141 214.047Z" fill="#636363"/>
<path d="M-60.5225 332.572C-60.6586 332.671 -60.8509 332.691 -61.0129 332.63C-61.2699 332.52 -61.3606 332.23 -61.2504 331.973L-15.0022 228.923C-14.8779 228.686 -14.6025 228.576 -14.3454 228.686C-14.0884 228.796 -13.9977 229.086 -14.0884 229.329L-60.3367 332.379C-60.4004 332.455 -60.4447 332.516 -60.5225 332.572Z" fill="#636363"/>
<path d="M-20.7431 721.899C-20.8792 721.998 -21.0714 722.018 -21.2335 721.957C-21.4905 721.847 -21.5812 721.557 -21.4905 721.314L24.7577 618.264C24.8679 618.007 25.1574 617.917 25.4004 618.007C25.6575 618.118 25.7482 618.407 25.638 618.664L-20.6102 721.715C-20.621 721.782 -20.6848 721.857 -20.7431 721.899Z" fill="#636363"/>
<path d="M28.5895 619.968C29.4247 618.093 28.591 615.913 26.73 615.096C24.8743 614.246 22.6761 615.092 21.8604 616.953C21.0252 618.828 21.8588 621.008 23.7199 621.825C25.5615 622.656 27.7403 621.823 28.5895 619.968Z" fill="#636363"/>
<path d="M25.5047 618.85C25.2908 619.005 24.9895 618.956 24.835 618.742L-41.2912 527.104C-41.4457 526.89 -41.397 526.589 -41.1831 526.434C-40.9693 526.28 -40.6679 526.329 -40.5135 526.543L25.6128 618.181C25.7672 618.395 25.7186 618.696 25.5047 618.85Z" fill="#636363"/>
<path d="M28.2036 616.282C29.397 617.935 29.0241 620.246 27.3713 621.439C25.7185 622.631 23.408 622.257 22.2146 620.603C21.0212 618.949 21.3941 616.639 23.0469 615.446C24.6997 614.253 27.0102 614.628 28.2036 616.282Z" fill="#636363"/>
<path d="M25.4871 618.864C25.2732 619.019 24.9719 618.97 24.8174 618.756L-41.3088 527.118C-41.4633 526.904 -41.4146 526.603 -41.2007 526.448C-40.9869 526.294 -40.6855 526.343 -40.5311 526.557L25.5952 618.195C25.7496 618.409 25.701 618.71 25.4871 618.864Z" fill="#636363"/>
<path d="M28.186 616.295C29.3794 617.949 29.0064 620.259 27.3537 621.452C25.7009 622.645 23.3904 622.27 22.197 620.616C21.0036 618.963 21.3765 616.652 23.0293 615.459C24.6821 614.267 26.9926 614.641 28.186 616.295Z" fill="#636363"/>
<path d="M137.84 607.467C137.762 607.523 137.69 607.545 137.603 607.549L25.2286 618.961C24.9499 618.985 24.7231 618.793 24.6994 618.515C24.6757 618.236 24.8669 618.009 25.1455 617.985L137.52 606.573C137.799 606.549 138.026 606.741 138.049 607.02C138.056 607.192 137.995 607.354 137.84 607.467Z" fill="#636363"/>
<path d="M25.5736 622.144C23.531 622.345 21.7251 620.867 21.5363 618.844C21.3334 616.8 22.8102 614.995 24.8334 614.807C26.876 614.606 28.6819 616.084 28.8707 618.108C29.0789 620.117 27.5827 621.937 25.5736 622.144Z" fill="#636363"/>
<path d="M137.949 610.731C139.991 610.529 141.454 608.705 141.246 606.695C141.043 604.652 139.217 603.188 137.208 603.395C135.166 603.596 133.703 605.421 133.911 607.431C134.1 609.455 135.906 610.933 137.949 610.731Z" fill="#636363"/>
<path d="M137.84 607.467C137.704 607.565 137.511 607.586 137.349 607.525C137.092 607.415 137.002 607.125 137.112 606.868L183.36 503.818C183.47 503.561 183.76 503.47 184.003 503.561C184.26 503.671 184.351 503.961 184.26 504.204L138.012 607.254C137.962 607.349 137.918 607.411 137.84 607.467Z" fill="#636363"/>
<path d="M140.923 608.585C140.087 610.46 137.895 611.273 136.053 610.442C134.197 609.591 133.364 607.412 134.194 605.57C135.029 603.695 137.222 602.882 139.063 603.713C140.924 604.53 141.758 606.71 140.923 608.585Z" fill="#636363"/>
<path d="M187.171 505.534C188.006 503.659 187.173 501.48 185.312 500.663C183.456 499.812 181.258 500.659 180.442 502.52C179.607 504.395 180.44 506.574 182.301 507.391C184.143 508.222 186.341 507.376 187.171 505.534Z" fill="#636363"/>
<path d="M184.09 504.415C183.876 504.569 183.574 504.52 183.42 504.306L117.294 412.668C117.139 412.454 117.188 412.153 117.402 411.999C117.616 411.844 117.917 411.893 118.071 412.107L184.198 503.745C184.372 503.945 184.323 504.246 184.09 504.415Z" fill="#636363"/>
<path d="M186.789 501.845C187.982 503.499 187.609 505.81 185.957 507.002C184.304 508.195 181.994 507.821 180.8 506.167C179.607 504.513 179.98 502.202 181.632 501.01C183.285 499.817 185.596 500.192 186.789 501.845Z" fill="#636363"/>
<path d="M120.677 410.227C119.484 408.574 117.173 408.199 115.521 409.392C113.868 410.585 113.495 412.895 114.688 414.549C115.882 416.203 118.192 416.577 119.845 415.385C121.498 414.192 121.871 411.881 120.677 410.227Z" fill="#636363"/>
<path d="M117.943 412.792C117.884 412.834 117.793 412.871 117.706 412.874L5.35108 424.273C5.0724 424.296 4.84559 424.105 4.80241 423.84C4.77868 423.561 4.96988 423.335 5.24855 423.311L117.604 411.913C117.882 411.889 118.109 412.08 118.152 412.345C118.159 412.518 118.079 412.694 117.943 412.792Z" fill="#636363"/>
<path d="M117.278 408.715C119.307 408.494 121.127 409.991 121.315 412.015C121.518 414.058 120.042 415.864 118.018 416.051C115.976 416.253 114.17 414.775 113.981 412.751C113.792 410.727 115.269 408.922 117.278 408.715Z" fill="#636363"/>
<path d="M4.93644 420.133C2.89383 420.335 1.43109 422.16 1.63934 424.169C1.84218 426.213 3.66748 427.677 5.67661 427.47C7.70519 427.248 9.18197 425.443 8.97372 423.433C8.77088 421.39 6.96502 419.912 4.93644 420.133Z" fill="#636363"/>
<path d="M-40.6417 527.227C-40.7778 527.326 -40.97 527.346 -41.1321 527.285C-41.3891 527.175 -41.4798 526.885 -41.3891 526.642L4.85913 423.592C4.96933 423.335 5.25883 423.244 5.50184 423.335C5.7589 423.446 5.84959 423.735 5.75883 423.978L-40.4894 527.029C-40.5196 527.11 -40.5834 527.185 -40.6417 527.227Z" fill="#636363"/>
<path d="M1.96249 422.28C2.79766 420.405 4.99048 419.592 6.83206 420.423C8.70713 421.26 9.52132 423.453 8.69156 425.295C7.85639 427.17 5.66357 427.983 3.82199 427.152C1.94693 426.315 1.11329 424.136 1.96249 422.28Z" fill="#636363"/>
<path d="M45.3885 813.505C45.1746 813.659 44.8733 813.61 44.7188 813.396L-21.4074 721.758C-21.5619 721.544 -21.5133 721.243 -21.2994 721.088C-21.0855 720.934 -20.7841 720.983 -20.6297 721.197L45.4966 812.835C45.651 813.049 45.6024 813.35 45.3885 813.505Z" fill="#636363"/>
<path d="M48.1015 810.955C49.2949 812.609 48.922 814.919 47.2692 816.112C45.6164 817.305 43.306 816.93 42.1126 815.276C40.9192 813.623 41.2921 811.312 42.9449 810.119C44.5977 808.927 46.9081 809.301 48.1015 810.955Z" fill="#636363"/>
<path d="M45.3704 813.519C45.1565 813.673 44.8552 813.624 44.7007 813.41L-21.4255 721.773C-21.5799 721.558 -21.5313 721.257 -21.3175 721.103C-21.1036 720.948 -20.8022 720.997 -20.6478 721.211L45.4785 812.849C45.6329 813.063 45.5843 813.365 45.3704 813.519Z" fill="#636363"/>
<path d="M48.082 810.97C49.2754 812.623 48.9025 814.934 47.2497 816.127C45.5969 817.319 43.2865 816.945 42.0931 815.291C40.8997 813.637 41.2726 811.327 42.9254 810.134C44.5781 808.941 46.8886 809.316 48.082 810.97Z" fill="#636363"/>
<path d="M157.744 802.107C157.666 802.164 157.593 802.186 157.507 802.189L45.1325 813.602C44.8538 813.625 44.627 813.434 44.6033 813.155C44.5795 812.877 44.7707 812.65 45.0494 812.626L157.424 801.214C157.703 801.19 157.929 801.382 157.973 801.646C157.974 801.853 157.88 802.009 157.744 802.107Z" fill="#636363"/>
<path d="M45.458 816.798C43.4154 817 41.6095 815.522 41.4207 813.498C41.1984 811.469 42.6946 809.65 44.7178 809.462C46.7464 809.241 48.5663 810.739 48.7551 812.762C48.9633 814.772 47.4812 816.611 45.458 816.798Z" fill="#636363"/>
<path d="M157.833 805.386C159.862 805.165 161.338 803.359 161.13 801.35C160.908 799.321 159.102 797.843 157.093 798.05C155.05 798.251 153.587 800.076 153.796 802.086C153.985 804.109 155.804 805.607 157.833 805.386Z" fill="#636363"/>
<path d="M157.743 802.107C157.607 802.206 157.415 802.226 157.253 802.165C156.996 802.055 156.905 801.765 156.996 801.522L203.244 698.472C203.354 698.215 203.644 698.124 203.887 698.215C204.144 698.326 204.234 698.615 204.144 698.858L157.895 801.909C157.865 801.99 157.801 802.065 157.743 802.107Z" fill="#636363"/>
<path d="M160.827 803.226C159.977 805.082 157.799 805.914 155.957 805.083C154.101 804.233 153.268 802.053 154.097 800.212C154.933 798.337 157.125 797.524 158.967 798.355C160.809 799.186 161.656 801.385 160.827 803.226Z" fill="#636363"/>
<path d="M207.055 700.189C207.891 698.314 207.057 696.135 205.196 695.318C203.321 694.481 201.142 695.314 200.326 697.175C199.477 699.03 200.325 701.229 202.186 702.046C204.047 702.863 206.24 702.05 207.055 700.189Z" fill="#636363"/>
<path d="M203.972 699.07C203.759 699.224 203.457 699.176 203.303 698.962L137.177 607.324C137.022 607.11 137.071 606.808 137.285 606.654C137.498 606.5 137.8 606.548 137.954 606.762L204.081 698.4C204.254 698.6 204.206 698.902 203.972 699.07Z" fill="#636363"/>
<path d="M206.685 696.521C207.879 698.174 207.506 700.485 205.853 701.678C204.2 702.87 201.89 702.496 200.697 700.842C199.503 699.188 199.876 696.878 201.529 695.685C203.182 694.492 205.492 694.867 206.685 696.521Z" fill="#636363"/>
<path d="M140.56 604.883C139.366 603.229 137.056 602.854 135.403 604.047C133.75 605.24 133.377 607.55 134.571 609.204C135.764 610.858 138.074 611.232 139.727 610.04C141.38 608.847 141.753 606.536 140.56 604.883Z" fill="#636363"/>
<path d="M137.84 607.465C137.762 607.522 137.69 607.544 137.603 607.547L25.248 618.946C24.9693 618.969 24.7425 618.778 24.7188 618.499C24.6951 618.221 24.8863 617.994 25.1649 617.97L137.52 606.572C137.799 606.548 138.026 606.74 138.049 607.018C138.056 607.191 137.995 607.353 137.84 607.465Z" fill="#636363"/>
<path d="M137.175 603.389C139.217 603.187 141.023 604.666 141.212 606.689C141.415 608.732 139.938 610.538 137.915 610.725C135.872 610.927 134.066 609.449 133.878 607.425C133.689 605.402 135.151 603.577 137.175 603.389Z" fill="#636363"/>
<path d="M24.8391 614.773C22.7965 614.975 21.3337 616.8 21.542 618.81C21.7448 620.853 23.5701 622.317 25.5793 622.11C27.6219 621.908 29.0846 620.083 28.8764 618.074C28.6681 616.064 26.8622 614.586 24.8391 614.773Z" fill="#636363"/>
<path d="M-20.7417 721.901C-20.8778 721.999 -21.07 722.02 -21.232 721.959C-21.4891 721.849 -21.5798 721.559 -21.489 721.316L24.7592 618.266C24.8694 618.009 25.1589 617.918 25.4019 618.009C25.659 618.119 25.7497 618.409 25.6395 618.666L-20.6088 721.716C-20.6196 721.783 -20.6833 721.859 -20.7417 721.901Z" fill="#636363"/>
<path d="M21.8474 616.935C22.6966 615.079 24.8754 614.247 26.717 615.078C28.5727 615.928 29.4063 618.108 28.5765 619.949C27.7273 621.805 25.5485 622.637 23.7069 621.806C21.8459 620.989 21.0122 618.81 21.8474 616.935Z" fill="#636363"/>
<path d="M203.952 699.084C203.738 699.239 203.437 699.19 203.282 698.976L137.156 607.338C137.002 607.124 137.05 606.823 137.264 606.668C137.478 606.514 137.779 606.563 137.934 606.777L204.06 698.415C204.234 698.615 204.185 698.916 203.952 699.084Z" fill="#636363"/>
<path d="M206.666 696.534C207.859 698.188 207.486 700.499 205.834 701.692C204.181 702.884 201.87 702.51 200.677 700.856C199.484 699.202 199.857 696.892 201.509 695.699C203.162 694.506 205.473 694.881 206.666 696.534Z" fill="#636363"/>
<path d="M140.539 604.896C139.346 603.243 137.035 602.868 135.382 604.061C133.73 605.254 133.357 607.564 134.55 609.218C135.743 610.872 138.054 611.246 139.707 610.054C141.36 608.861 141.732 606.55 140.539 604.896Z" fill="#636363"/>
<path d="M316.329 687.673C316.271 687.715 316.179 687.751 316.093 687.754L203.718 699.167C203.44 699.19 203.213 698.999 203.17 698.734C203.146 698.456 203.337 698.229 203.616 698.205L315.99 686.793C316.269 686.769 316.496 686.961 316.519 687.239C316.559 687.418 316.465 687.574 316.329 687.673Z" fill="#636363"/>
<path d="M204.062 702.35C202.02 702.551 200.214 701.073 200.025 699.05C199.822 697.006 201.299 695.201 203.322 695.013C205.351 694.792 207.171 696.29 207.36 698.314C207.548 700.337 206.086 702.162 204.062 702.35Z" fill="#636363"/>
<path d="M316.417 690.951C318.445 690.73 319.922 688.925 319.714 686.915C319.491 684.886 317.685 683.408 315.676 683.615C313.634 683.817 312.171 685.642 312.379 687.651C312.568 689.675 314.407 691.159 316.417 690.951Z" fill="#636363"/>
<path d="M316.328 687.672C316.192 687.771 316 687.791 315.838 687.73C315.581 687.62 315.49 687.33 315.581 687.087L361.849 584.023C361.959 583.766 362.248 583.675 362.491 583.766C362.748 583.877 362.839 584.166 362.729 584.423L316.481 687.474C316.45 687.555 316.406 687.616 316.328 687.672Z" fill="#636363"/>
<path d="M319.41 688.791C318.561 690.646 316.382 691.479 314.541 690.648C312.685 689.797 311.851 687.617 312.681 685.776C313.516 683.901 315.709 683.088 317.551 683.919C319.412 684.736 320.26 686.935 319.41 688.791Z" fill="#636363"/>
<path d="M365.659 585.741C366.494 583.866 365.66 581.686 363.799 580.869C361.944 580.018 359.746 580.865 358.93 582.726C358.081 584.581 358.928 586.781 360.789 587.598C362.631 588.429 364.824 587.616 365.659 585.741Z" fill="#636363"/>
<path d="M362.577 584.621C362.364 584.775 362.062 584.727 361.908 584.513L295.782 492.875C295.627 492.661 295.676 492.359 295.89 492.205C296.103 492.051 296.405 492.099 296.559 492.313L362.686 583.951C362.84 584.165 362.791 584.467 362.577 584.621Z" fill="#636363"/>
<path d="M365.289 582.073C366.482 583.727 366.11 586.038 364.457 587.23C362.804 588.423 360.494 588.048 359.3 586.395C358.107 584.741 358.48 582.43 360.132 581.238C361.785 580.045 364.096 580.419 365.289 582.073Z" fill="#636363"/>
<path d="M299.165 490.434C297.972 488.78 295.662 488.406 294.009 489.598C292.356 490.791 291.983 493.102 293.177 494.755C294.37 496.409 296.68 496.784 298.333 495.591C299.986 494.398 300.359 492.088 299.165 490.434Z" fill="#636363"/>
<path d="M296.445 493.016C296.367 493.072 296.295 493.095 296.209 493.098L183.854 504.497C183.575 504.52 183.348 504.329 183.324 504.05C183.301 503.771 183.492 503.545 183.771 503.521L296.126 492.123C296.404 492.099 296.631 492.29 296.674 492.555C296.661 492.742 296.581 492.918 296.445 493.016Z" fill="#636363"/>
<path d="M295.778 488.94C297.821 488.739 299.627 490.217 299.815 492.24C300.038 494.27 298.542 496.089 296.518 496.277C294.476 496.478 292.67 495 292.481 492.976C292.273 490.967 293.736 489.142 295.778 488.94Z" fill="#636363"/>
<path d="M183.423 500.339C181.38 500.541 179.917 502.365 180.126 504.375C180.329 506.418 182.154 507.882 184.163 507.675C186.206 507.474 187.668 505.649 187.46 503.639C187.271 501.615 185.465 500.137 183.423 500.339Z" fill="#636363"/>
<path d="M137.84 607.466C137.704 607.564 137.511 607.585 137.349 607.524C137.092 607.414 137.002 607.124 137.112 606.867L183.36 503.817C183.47 503.56 183.76 503.469 184.003 503.56C184.26 503.67 184.351 503.96 184.26 504.203L138.012 607.253C137.962 607.348 137.918 607.41 137.84 607.466Z" fill="#636363"/>
<path d="M180.429 502.5C181.279 500.645 183.457 499.812 185.299 500.643C187.155 501.494 187.988 503.673 187.159 505.515C186.309 507.37 184.131 508.203 182.289 507.372C180.428 506.555 179.614 504.361 180.429 502.5Z" fill="#636363"/>
<path d="M134.202 605.537C133.366 607.412 134.2 609.591 136.061 610.408C137.936 611.245 140.115 610.412 140.931 608.551C141.78 606.696 140.932 604.497 139.071 603.68C137.21 602.863 135.017 603.676 134.202 605.537Z" fill="#636363"/>
<path d="M217.45 884.027L157.852 801.436C157.697 801.222 157.396 801.173 157.163 801.342C156.929 801.51 156.881 801.812 157.035 802.026L216.633 884.616L217.45 884.027Z" fill="#636363"/>
<path d="M160.437 799.57C159.244 797.916 156.933 797.542 155.28 798.734C153.628 799.927 153.255 802.238 154.448 803.891C155.641 805.545 157.952 805.92 159.605 804.727C161.277 803.52 161.63 801.224 160.437 799.57Z" fill="#636363"/>
<path d="M157.725 802.12C157.666 802.162 157.574 802.198 157.488 802.202L45.1329 813.6C44.8542 813.624 44.6274 813.432 44.6037 813.153C44.58 812.875 44.7712 812.648 45.0498 812.624L157.405 801.226C157.684 801.202 157.91 801.394 157.954 801.658C157.955 801.865 157.861 802.021 157.725 802.12Z" fill="#636363"/>
<path d="M157.059 798.044C159.102 797.842 160.907 799.32 161.096 801.344C161.299 803.387 159.822 805.192 157.799 805.38C155.757 805.581 153.951 804.103 153.762 802.08C153.554 800.07 155.03 798.265 157.059 798.044Z" fill="#636363"/>
<path d="M44.7176 809.461C42.675 809.663 41.2123 811.488 41.4205 813.498C41.6234 815.541 43.4487 817.005 45.4578 816.798C47.5005 816.596 48.9632 814.771 48.7549 812.761C48.5521 810.718 46.7268 809.254 44.7176 809.461Z" fill="#636363"/>
<path d="M217.432 884.042L157.834 801.451C157.679 801.237 157.378 801.189 157.164 801.343C156.95 801.497 156.882 801.813 157.037 802.027L216.634 884.617L217.432 884.042Z" fill="#636363"/>
<path d="M160.438 799.571C159.245 797.917 156.935 797.543 155.282 798.736C153.629 799.928 153.256 802.239 154.449 803.893C155.643 805.547 157.953 805.921 159.606 804.728C161.259 803.536 161.632 801.225 160.438 799.571Z" fill="#636363"/>
<path d="M376.052 769.579L316.454 686.988C316.299 686.774 315.998 686.725 315.784 686.879C315.57 687.034 315.522 687.335 315.676 687.549L375.274 770.14L376.052 769.579Z" fill="#636363"/>
<path d="M319.04 685.122C317.847 683.468 315.537 683.094 313.884 684.286C312.231 685.479 311.858 687.79 313.052 689.443C314.245 691.097 316.555 691.472 318.208 690.279C319.861 689.086 320.234 686.776 319.04 685.122Z" fill="#636363"/>
<path d="M316.309 687.686C316.25 687.728 316.158 687.764 316.072 687.767L203.717 699.166C203.438 699.189 203.211 698.998 203.168 698.733C203.145 698.455 203.336 698.228 203.614 698.204L315.989 686.792C316.268 686.768 316.494 686.96 316.538 687.224C316.539 687.431 316.445 687.587 316.309 687.686Z" fill="#636363"/>
<path d="M315.643 683.609C317.686 683.408 319.491 684.886 319.68 686.91C319.883 688.953 318.406 690.758 316.383 690.946C314.341 691.147 312.535 689.669 312.346 687.645C312.157 685.622 313.634 683.816 315.643 683.609Z" fill="#636363"/>
<path d="M203.302 695.028C201.259 695.229 199.796 697.054 200.005 699.064C200.208 701.107 202.033 702.571 204.042 702.364C206.085 702.162 207.547 700.338 207.339 698.328C207.136 696.285 205.33 694.807 203.302 695.028Z" fill="#636363"/>
<path d="M157.725 802.121C157.588 802.219 157.396 802.239 157.234 802.179C156.977 802.068 156.886 801.779 156.977 801.536L203.225 698.486C203.336 698.229 203.625 698.138 203.868 698.229C204.125 698.339 204.216 698.629 204.125 698.872L157.877 801.922C157.847 802.003 157.783 802.079 157.725 802.121Z" fill="#636363"/>
<path d="M200.327 697.174C201.162 695.299 203.355 694.486 205.197 695.317C207.072 696.154 207.886 698.347 207.056 700.189C206.221 702.064 204.028 702.877 202.187 702.046C200.312 701.209 199.478 699.03 200.327 697.174Z" fill="#636363"/>
<path d="M154.065 800.206C153.216 802.061 154.063 804.261 155.924 805.078C157.8 805.914 159.978 805.082 160.794 803.221C161.643 801.365 160.796 799.166 158.935 798.349C157.093 797.518 154.895 798.365 154.065 800.206Z" fill="#636363"/>
<path d="M554.76 668.687L556.354 667.536L467.348 676.584C467.069 676.608 466.892 676.854 466.902 677.113C466.925 677.392 467.172 677.569 467.431 677.56L554.76 668.687Z" fill="#636363"/>
<path d="M443.909 497.571L403.111 588.464C403 588.721 403.111 588.997 403.348 589.121C403.524 589.201 403.702 589.161 403.839 589.063C403.897 589.021 403.961 588.946 403.991 588.865L444.569 498.486L443.909 497.571Z" fill="#636363"/>
<path d="M467.648 677.492C467.434 677.646 467.133 677.597 466.979 677.383L403.169 588.956C403.014 588.742 403.063 588.44 403.277 588.286C403.491 588.131 403.792 588.18 403.947 588.394L467.756 676.822C467.93 677.022 467.882 677.323 467.648 677.492Z" fill="#636363"/>
<path d="M554.741 668.701L556.335 667.55L467.348 676.584C467.069 676.607 466.892 676.854 466.902 677.113C466.926 677.392 467.172 677.569 467.431 677.56L554.741 668.701Z" fill="#636363"/>
<path d="M467.668 677.477C467.454 677.631 467.153 677.582 466.999 677.368L403.189 588.941C403.035 588.727 403.083 588.425 403.297 588.271C403.511 588.117 403.812 588.165 403.967 588.379L467.762 676.788C467.95 677.007 467.882 677.322 467.668 677.477Z" fill="#636363"/>
<path d="M403.858 560.985C403.8 561.027 403.708 561.064 403.622 561.067L295.193 572.088C294.914 572.112 294.687 571.92 294.644 571.656C294.621 571.377 294.812 571.15 295.076 571.107L403.519 560.106C403.798 560.082 404.025 560.273 404.068 560.538C404.074 560.711 403.994 560.887 403.858 560.985Z" fill="#636363"/>
<path d="M374.456 373.259L275.914 383.271C275.635 383.294 275.458 383.54 275.482 383.819C275.506 384.098 275.752 384.275 276.011 384.266L375.116 374.174L374.456 373.259Z" fill="#636363"/>
<path d="M231.619 483.579C231.483 483.677 231.291 483.698 231.129 483.637C230.872 483.527 230.781 483.237 230.892 482.98L275.525 383.551C275.635 383.294 275.924 383.204 276.167 383.294C276.424 383.405 276.515 383.694 276.405 383.951L231.772 483.381C231.742 483.462 231.697 483.523 231.619 483.579Z" fill="#636363"/>
<path d="M295.429 572.007C295.215 572.161 294.914 572.113 294.759 571.899L230.95 483.471C230.795 483.257 230.844 482.956 231.058 482.801C231.272 482.647 231.573 482.696 231.727 482.91L295.537 571.337C295.711 571.537 295.662 571.839 295.429 572.007Z" fill="#636363"/>
<path d="M403.858 560.985C403.8 561.027 403.708 561.064 403.622 561.067L295.212 572.074C294.934 572.098 294.707 571.906 294.664 571.642C294.64 571.363 294.831 571.136 295.096 571.093L403.519 560.106C403.798 560.082 404.025 560.273 404.068 560.538C404.074 560.711 403.994 560.887 403.858 560.985Z" fill="#636363"/>
<path d="M443.909 497.572L403.13 588.45C403.02 588.707 403.13 588.983 403.387 589.093C403.563 589.173 403.741 589.133 403.877 589.035C403.936 588.993 404 588.918 404.03 588.837L444.569 498.486L443.909 497.572Z" fill="#636363"/>
<path d="M295.449 571.993C295.235 572.147 294.933 572.099 294.779 571.885L230.969 483.457C230.815 483.243 230.863 482.942 231.077 482.787C231.291 482.633 231.592 482.682 231.747 482.896L295.543 571.304C295.73 571.523 295.682 571.825 295.449 571.993Z" fill="#636363"/>
<path d="M252.494 204.245L211.695 295.138C211.585 295.395 211.695 295.67 211.933 295.795C212.109 295.875 212.287 295.835 212.423 295.737C212.481 295.695 212.545 295.619 212.575 295.538L253.154 205.159L252.494 204.245Z" fill="#636363"/>
<path d="M276.233 384.165C276.019 384.319 275.717 384.27 275.563 384.056L211.753 295.629C211.599 295.415 211.647 295.113 211.861 294.959C212.075 294.805 212.377 294.853 212.531 295.067L276.341 383.495C276.515 383.695 276.466 383.996 276.233 384.165Z" fill="#636363"/>
<path d="M374.456 373.259L275.914 383.271C275.635 383.294 275.458 383.54 275.482 383.819C275.506 384.098 275.752 384.275 276.011 384.266L375.116 374.174L374.456 373.259Z" fill="#636363"/>
<path d="M276.252 384.15C276.038 384.304 275.737 384.255 275.583 384.041L211.773 295.614C211.619 295.4 211.667 295.098 211.881 294.944C212.095 294.789 212.396 294.838 212.551 295.052L276.36 383.48C276.534 383.68 276.466 383.995 276.252 384.15Z" fill="#636363"/>
<path d="M212.443 295.722C212.385 295.764 212.293 295.801 212.207 295.804L103.778 306.825C103.499 306.849 103.272 306.657 103.229 306.393C103.205 306.114 103.397 305.887 103.675 305.864L212.104 294.843C212.383 294.819 212.61 295.011 212.653 295.275C212.673 295.468 212.579 295.624 212.443 295.722Z" fill="#636363"/>
<path d="M231.619 483.579C231.483 483.677 231.291 483.698 231.129 483.637C230.872 483.527 230.781 483.237 230.892 482.98L275.525 383.551C275.635 383.294 275.924 383.204 276.167 383.294C276.424 383.405 276.515 383.694 276.405 383.951L231.772 483.381C231.742 483.462 231.697 483.523 231.619 483.579Z" fill="#636363"/>
<path d="M183.04 107.996L84.4981 118.007C84.2194 118.031 84.0423 118.277 84.0519 118.536C84.0757 118.815 84.3219 118.992 84.5812 118.983L183.7 108.91L183.04 107.996Z" fill="#636363"/>
<path d="M40.2044 218.316C40.0683 218.415 39.8761 218.435 39.7141 218.374C39.457 218.264 39.3663 217.974 39.4765 217.717L84.1096 118.288C84.2198 118.031 84.5093 117.941 84.7523 118.032C85.0093 118.142 85.1 118.432 84.9898 118.689L40.3568 218.118C40.3265 218.199 40.2822 218.26 40.2044 218.316Z" fill="#636363"/>
<path d="M104.015 306.743C103.801 306.898 103.5 306.849 103.345 306.635L39.5355 218.207C39.3811 217.993 39.4297 217.692 39.6436 217.538C39.8574 217.383 40.1588 217.432 40.3133 217.646L104.123 306.074C104.297 306.274 104.248 306.575 104.015 306.743Z" fill="#636363"/>
<path d="M212.443 295.722C212.385 295.764 212.293 295.801 212.207 295.804L103.797 306.811C103.519 306.835 103.292 306.643 103.249 306.379C103.225 306.1 103.416 305.873 103.695 305.85L212.104 294.843C212.383 294.819 212.61 295.011 212.653 295.275C212.673 295.468 212.579 295.624 212.443 295.722Z" fill="#636363"/>
<path d="M252.494 204.245L211.715 295.124C211.604 295.381 211.714 295.656 211.972 295.767C212.148 295.847 212.326 295.807 212.462 295.709C212.52 295.666 212.584 295.591 212.614 295.51L253.168 205.179L252.494 204.245Z" fill="#636363"/>
<path d="M104.033 306.73C103.82 306.884 103.518 306.836 103.364 306.621L39.5541 218.194C39.3996 217.98 39.4482 217.678 39.6621 217.524C39.876 217.37 40.1774 217.419 40.3318 217.633L104.142 306.06C104.315 306.26 104.267 306.562 104.033 306.73Z" fill="#636363"/>
<path d="M40.2239 218.302C40.1462 218.358 40.0738 218.38 39.9874 218.384L-68.4414 229.405C-68.72 229.428 -68.9468 229.237 -68.9706 228.958C-68.9943 228.679 -68.8031 228.453 -68.5244 228.429L39.9044 217.408C40.183 217.384 40.4098 217.576 40.4336 217.855C40.4541 218.047 40.36 218.203 40.2239 218.302Z" fill="#636363"/>
<path d="M35.6425 51.5719L84.1491 118.792C84.3035 119.006 84.6048 119.055 84.8187 118.901C85.0326 118.747 85.1007 118.431 84.9463 118.217L36.4397 50.9966L35.6425 51.5719Z" fill="#636363"/>
<path d="M183.04 107.996L84.4981 118.007C84.2194 118.031 84.0423 118.277 84.0519 118.536C84.0757 118.815 84.3219 118.992 84.5812 118.983L183.7 108.91L183.04 107.996Z" fill="#636363"/>
<path d="M35.6619 51.5578L84.1685 118.778C84.323 118.992 84.6243 119.041 84.8382 118.887C85.0521 118.732 85.1007 118.431 84.9463 118.217L36.4397 50.9966L35.6619 51.5578Z" fill="#636363"/>
<path d="M40.2044 218.316C40.1461 218.358 40.0543 218.395 39.9679 218.398L-68.4414 229.405C-68.7201 229.429 -68.9469 229.237 -68.9706 228.958C-68.9944 228.68 -68.8031 228.453 -68.5245 228.429L39.8848 217.423C40.1635 217.399 40.3903 217.59 40.414 217.869C40.4345 218.061 40.3405 218.218 40.2044 218.316Z" fill="#636363"/>
<path d="M40.2044 218.316C40.0683 218.415 39.8761 218.435 39.7141 218.374C39.457 218.264 39.3663 217.974 39.4765 217.717L84.1096 118.288C84.2198 118.031 84.5093 117.941 84.7523 118.032C85.0093 118.142 85.1 118.432 84.9898 118.689L40.3568 218.118C40.3265 218.199 40.2822 218.26 40.2044 218.316Z" fill="#636363"/>
<path d="M544.22 636.584L523.784 638.668C523.505 638.691 523.328 638.938 523.337 639.197C523.361 639.476 523.607 639.653 523.867 639.643L544.88 637.499L544.22 636.584Z" fill="#636363"/>
<path d="M523.461 635.471C521.432 635.692 519.955 637.497 520.164 639.507C520.386 641.536 522.192 643.014 524.201 642.807C526.243 642.605 527.706 640.781 527.498 638.771C527.276 636.742 525.47 635.264 523.461 635.471Z" fill="#636363"/>
<path d="M496.71 700.634C496.574 700.732 496.381 700.753 496.219 700.692C495.962 700.582 495.872 700.292 495.982 700.035L523.364 638.943C523.475 638.685 523.764 638.595 524.007 638.686C524.264 638.796 524.355 639.086 524.245 639.343L496.862 700.435C496.832 700.516 496.768 700.592 496.71 700.634Z" fill="#636363"/>
<path d="M520.464 637.631C521.314 635.776 523.492 634.943 525.334 635.774C527.209 636.611 528.023 638.804 527.193 640.646C526.358 642.521 524.166 643.334 522.324 642.503C520.449 641.666 519.615 639.487 520.464 637.631Z" fill="#636363"/>
<path d="M493.05 698.718C492.215 700.593 493.049 702.773 494.91 703.59C496.765 704.44 498.964 703.594 499.779 701.733C500.629 699.877 499.781 697.678 497.92 696.861C496.045 696.025 493.866 696.857 493.05 698.718Z" fill="#636363"/>
<path d="M496.71 700.635C496.652 700.677 496.56 700.714 496.474 700.717L429.859 707.483C429.581 707.506 429.354 707.315 429.311 707.05C429.287 706.772 429.478 706.545 429.757 706.521L496.357 699.736C496.636 699.712 496.863 699.904 496.886 700.183C496.926 700.361 496.846 700.537 496.71 700.635Z" fill="#636363"/>
<path d="M496.044 696.558C498.087 696.356 499.893 697.834 500.082 699.858C500.284 701.901 498.808 703.706 496.784 703.894C494.756 704.115 492.936 702.617 492.747 700.594C492.525 698.565 494.021 696.745 496.044 696.558Z" fill="#636363"/>
<path d="M429.431 703.323C427.402 703.544 425.925 705.35 426.134 707.359C426.336 709.402 428.162 710.866 430.171 710.659C432.213 710.458 433.676 708.633 433.468 706.623C433.265 704.58 431.459 703.102 429.431 703.323Z" fill="#636363"/>
<path d="M492.824 565.356L484.179 584.642C484.069 584.899 484.179 585.175 484.417 585.299C484.593 585.379 484.771 585.339 484.907 585.241C484.965 585.199 485.029 585.123 485.059 585.042L493.484 566.27L492.824 565.356Z" fill="#636363"/>
<path d="M481.248 583.325C480.412 585.2 481.246 587.38 483.107 588.197C484.982 589.033 487.161 588.201 487.977 586.34C488.826 584.484 487.978 582.285 486.117 581.468C484.276 580.637 482.083 581.45 481.248 583.325Z" fill="#636363"/>
<path d="M524.104 639.563C523.891 639.717 523.589 639.668 523.435 639.454L484.236 585.133C484.082 584.919 484.131 584.617 484.344 584.463C484.558 584.309 484.86 584.358 485.014 584.572L524.198 638.873C524.372 639.073 524.318 639.408 524.104 639.563Z" fill="#636363"/>
<path d="M481.616 586.994C480.423 585.34 480.796 583.029 482.448 581.837C484.101 580.644 486.412 581.018 487.605 582.672C488.798 584.326 488.425 586.637 486.773 587.829C485.12 589.022 482.809 588.648 481.616 586.994Z" fill="#636363"/>
<path d="M520.813 641.314C522.007 642.968 524.317 643.342 525.97 642.15C527.623 640.957 527.996 638.646 526.802 636.993C525.609 635.339 523.298 634.964 521.646 636.157C519.993 637.35 519.62 639.66 520.813 641.314Z" fill="#636363"/>
<path d="M544.22 636.585L523.769 638.65C523.491 638.673 523.314 638.919 523.323 639.179C523.347 639.458 523.593 639.635 523.853 639.625L544.88 637.5L544.22 636.585Z" fill="#636363"/>
<path d="M524.2 642.808C522.171 643.029 520.352 641.531 520.163 639.508C519.94 637.479 521.437 635.659 523.46 635.472C525.488 635.25 527.308 636.748 527.497 638.772C527.7 640.815 526.223 642.62 524.2 642.808Z" fill="#636363"/>
<path d="M524.123 639.547C523.909 639.701 523.608 639.652 523.454 639.438L484.255 585.117C484.101 584.903 484.149 584.601 484.363 584.447C484.577 584.293 484.879 584.342 485.033 584.556L524.217 638.857C524.372 639.071 524.337 639.392 524.123 639.547Z" fill="#636363"/>
<path d="M481.637 586.978C480.444 585.325 480.817 583.014 482.47 581.821C484.123 580.629 486.433 581.003 487.626 582.657C488.82 584.311 488.447 586.621 486.794 587.814C485.141 589.007 482.831 588.632 481.637 586.978Z" fill="#636363"/>
<path d="M520.834 641.301C522.028 642.955 524.338 643.329 525.991 642.136C527.644 640.944 528.017 638.633 526.823 636.979C525.63 635.325 523.319 634.951 521.667 636.144C520.014 637.336 519.641 639.647 520.834 641.301Z" fill="#636363"/>
<path d="M484.927 585.227C484.869 585.269 484.777 585.306 484.691 585.309L418.076 592.074C417.797 592.098 417.571 591.907 417.527 591.642C417.504 591.363 417.695 591.136 417.96 591.093L484.574 584.328C484.853 584.304 485.079 584.496 485.123 584.76C485.143 584.953 485.063 585.129 484.927 585.227Z" fill="#636363"/>
<path d="M484.263 581.15C486.306 580.948 488.112 582.426 488.3 584.45C488.523 586.479 487.026 588.298 485.003 588.486C482.975 588.707 481.155 587.209 480.966 585.186C480.758 583.176 482.22 581.351 484.263 581.15Z" fill="#636363"/>
<path d="M417.647 559.852C415.605 560.054 414.142 561.879 414.35 563.888C414.572 565.918 416.378 567.396 418.387 567.189C420.43 566.987 421.893 565.162 421.684 563.153C421.462 561.123 419.656 559.645 417.647 559.852Z" fill="#636363"/>
<path d="M390.897 653.08C390.761 653.178 390.569 653.198 390.407 653.138C390.15 653.027 390.059 652.738 390.15 652.495L417.552 591.388C417.662 591.131 417.952 591.041 418.209 591.151C418.466 591.261 418.556 591.551 418.446 591.808L391.03 652.895C391.019 652.962 390.956 653.037 390.897 653.08Z" fill="#636363"/>
<path d="M414.652 562.013C415.487 560.138 417.68 559.325 419.521 560.156C421.397 560.992 422.211 563.186 421.381 565.028C420.546 566.902 418.353 567.716 416.511 566.885C414.636 566.048 413.803 563.868 414.652 562.013Z" fill="#636363"/>
<path d="M387.237 623.101C386.402 624.976 387.236 627.156 389.097 627.972C390.972 628.809 393.151 627.976 393.966 626.116C394.816 624.26 393.968 622.061 392.107 621.244C390.265 620.413 388.053 621.24 387.237 623.101Z" fill="#636363"/>
<path d="M430.095 707.399C429.882 707.554 429.58 707.505 429.426 707.291L390.227 652.97C390.073 652.756 390.122 652.454 390.335 652.3C390.549 652.146 390.851 652.194 391.005 652.408L430.19 706.71C430.344 706.924 430.309 707.245 430.095 707.399Z" fill="#636363"/>
<path d="M387.606 626.768C386.413 625.114 386.786 622.803 388.439 621.611C390.091 620.418 392.402 620.792 393.595 622.446C394.789 624.1 394.416 626.411 392.763 627.603C391.11 628.796 388.8 628.421 387.606 626.768Z" fill="#636363"/>
<path d="M426.805 709.152C427.999 710.806 430.309 711.18 431.962 709.988C433.615 708.795 433.988 706.484 432.794 704.831C431.601 703.177 429.291 702.802 427.638 703.995C425.985 705.188 425.612 707.498 426.805 709.152Z" fill="#636363"/>
<path d="M496.71 700.635C496.651 700.677 496.56 700.714 496.473 700.717L429.878 707.468C429.6 707.492 429.373 707.301 429.33 707.036C429.306 706.757 429.497 706.53 429.776 706.507L496.357 699.736C496.635 699.712 496.862 699.904 496.905 700.168C496.926 700.361 496.846 700.537 496.71 700.635Z" fill="#636363"/>
<path d="M430.169 710.661C428.14 710.882 426.32 709.384 426.131 707.361C425.909 705.332 427.405 703.512 429.429 703.325C431.457 703.103 433.277 704.601 433.466 706.625C433.688 708.654 432.211 710.459 430.169 710.661Z" fill="#636363"/>
<path d="M496.784 703.895C498.826 703.693 500.289 701.868 500.081 699.859C499.878 697.815 498.052 696.351 496.043 696.558C494.001 696.76 492.538 698.585 492.746 700.595C492.949 702.638 494.755 704.116 496.784 703.895Z" fill="#636363"/>
<path d="M496.708 700.635C496.572 700.733 496.38 700.753 496.217 700.693C495.96 700.583 495.87 700.293 495.98 700.036L523.362 638.943C523.473 638.686 523.762 638.596 524.005 638.687C524.262 638.797 524.353 639.087 524.243 639.344L496.86 700.436C496.83 700.517 496.766 700.593 496.708 700.635Z" fill="#636363"/>
<path d="M499.779 701.733C498.944 703.608 496.751 704.421 494.909 703.59C493.054 702.74 492.22 700.56 493.05 698.719C493.899 696.863 496.078 696.031 497.919 696.862C499.775 697.712 500.609 699.892 499.779 701.733Z" fill="#636363"/>
<path d="M527.192 640.646C528.041 638.79 527.194 636.591 525.333 635.774C523.477 634.924 521.279 635.77 520.463 637.631C519.628 639.506 520.461 641.686 522.322 642.503C524.178 643.353 526.357 642.521 527.192 640.646Z" fill="#636363"/>
<path d="M430.096 707.4C429.882 707.554 429.581 707.505 429.426 707.291L390.228 652.97C390.073 652.756 390.122 652.455 390.336 652.3C390.55 652.146 390.851 652.195 391.006 652.409L430.19 706.711C430.364 706.911 430.329 707.231 430.096 707.4Z" fill="#636363"/>
<path d="M387.606 626.769C386.412 625.115 386.785 622.804 388.438 621.611C390.091 620.419 392.401 620.793 393.595 622.447C394.788 624.101 394.415 626.411 392.762 627.604C391.11 628.797 388.799 628.422 387.606 626.769Z" fill="#636363"/>
<path d="M426.805 709.152C427.999 710.806 430.309 711.181 431.962 709.988C433.615 708.795 433.988 706.485 432.794 704.831C431.601 703.177 429.291 702.803 427.638 703.995C425.985 705.188 425.612 707.499 426.805 709.152Z" fill="#636363"/>
<path d="M390.895 625.017C390.837 625.059 390.745 625.096 390.659 625.099L324.044 631.865C323.766 631.888 323.539 631.697 323.496 631.432C323.472 631.154 323.663 630.927 323.928 630.884L390.542 624.118C390.821 624.095 391.048 624.286 391.091 624.551C391.111 624.743 391.031 624.919 390.895 625.017Z" fill="#636363"/>
<path d="M390.23 620.94C392.273 620.738 394.079 622.216 394.268 624.24C394.49 626.269 392.994 628.088 390.971 628.276C388.942 628.497 387.122 626.999 386.933 624.976C386.725 622.966 388.207 621.127 390.23 620.94Z" fill="#636363"/>
<path d="M323.617 627.706C321.575 627.907 320.112 629.732 320.32 631.742C320.523 633.785 322.348 635.249 324.357 635.042C326.4 634.84 327.863 633.015 327.654 631.006C327.452 628.963 325.646 627.485 323.617 627.706Z" fill="#636363"/>
<path d="M418.312 563.929C418.098 564.084 417.797 564.035 417.642 563.821L378.444 509.5C378.289 509.286 378.338 508.984 378.552 508.83C378.766 508.675 379.067 508.724 379.221 508.938L418.42 563.259C418.56 563.454 418.526 563.775 418.312 563.929Z" fill="#636363"/>
<path d="M375.823 511.36C374.63 509.707 375.003 507.396 376.655 506.203C378.308 505.011 380.619 505.385 381.812 507.039C383.005 508.693 382.632 511.003 380.98 512.196C379.327 513.389 377.016 513.014 375.823 511.36Z" fill="#636363"/>
<path d="M415.023 565.681C416.217 567.335 418.527 567.71 420.18 566.517C421.833 565.324 422.206 563.014 421.012 561.36C419.819 559.706 417.508 559.332 415.856 560.524C414.203 561.717 413.83 564.028 415.023 565.681Z" fill="#636363"/>
<path d="M484.928 585.226C484.869 585.268 484.777 585.305 484.691 585.308L418.077 592.073C417.798 592.097 417.571 591.906 417.547 591.627C417.524 591.348 417.715 591.121 417.98 591.078L484.574 584.327C484.853 584.303 485.08 584.494 485.123 584.759C485.144 584.952 485.064 585.128 484.928 585.226Z" fill="#636363"/>
<path d="M418.388 567.189C416.345 567.39 414.54 565.912 414.351 563.889C414.128 561.859 415.625 560.04 417.648 559.852C419.69 559.651 421.496 561.129 421.685 563.153C421.907 565.182 420.431 566.987 418.388 567.189Z" fill="#636363"/>
<path d="M485.002 588.486C487.045 588.285 488.508 586.46 488.299 584.45C488.097 582.407 486.271 580.943 484.262 581.15C482.219 581.352 480.757 583.176 480.965 585.186C481.168 587.229 482.974 588.707 485.002 588.486Z" fill="#636363"/>
<path d="M492.824 565.356L484.165 584.623C484.055 584.88 484.165 585.156 484.422 585.266C484.598 585.346 484.776 585.306 484.912 585.208C484.971 585.166 485.034 585.09 485.065 585.009L493.483 566.271L492.824 565.356Z" fill="#636363"/>
<path d="M487.996 586.326C487.147 588.181 484.968 589.014 483.127 588.183C481.271 587.332 480.438 585.153 481.267 583.311C482.117 581.456 484.295 580.623 486.137 581.454C487.993 582.305 488.826 584.485 487.996 586.326Z" fill="#636363"/>
<path d="M418.311 563.928C418.098 564.082 417.796 564.033 417.642 563.819L378.443 509.498C378.289 509.284 378.338 508.983 378.551 508.828C378.765 508.674 379.067 508.723 379.221 508.937L418.405 563.239C418.579 563.438 418.525 563.773 418.311 563.928Z" fill="#636363"/>
<path d="M375.825 511.36C374.631 509.706 375.004 507.395 376.657 506.203C378.31 505.01 380.62 505.385 381.813 507.038C383.007 508.692 382.634 511.003 380.981 512.195C379.328 513.388 377.018 513.014 375.825 511.36Z" fill="#636363"/>
<path d="M415.023 565.68C416.217 567.333 418.527 567.708 420.18 566.515C421.833 565.323 422.206 563.012 421.012 561.358C419.819 559.704 417.508 559.33 415.856 560.523C414.203 561.715 413.83 564.026 415.023 565.68Z" fill="#636363"/>
<path d="M379.113 509.608C379.055 509.65 378.963 509.687 378.876 509.69L312.262 516.456C311.983 516.479 311.757 516.288 311.713 516.023C311.69 515.745 311.881 515.518 312.16 515.494L378.76 508.709C379.039 508.686 379.265 508.877 379.289 509.156C379.329 509.334 379.249 509.51 379.113 509.608Z" fill="#636363"/>
<path d="M378.449 505.531C380.477 505.31 382.297 506.808 382.486 508.831C382.689 510.874 381.212 512.68 379.189 512.867C377.166 513.055 375.34 511.591 375.151 509.567C374.963 507.543 376.425 505.719 378.449 505.531Z" fill="#636363"/>
<path d="M311.834 512.297C309.805 512.518 308.328 514.323 308.537 516.333C308.74 518.376 310.565 519.84 312.574 519.633C314.617 519.431 316.079 517.606 315.871 515.597C315.663 513.587 313.862 512.075 311.834 512.297Z" fill="#636363"/>
<path d="M285.083 577.46C284.947 577.558 284.755 577.578 284.593 577.518C284.336 577.407 284.245 577.118 284.356 576.861L311.771 515.774C311.882 515.517 312.171 515.426 312.414 515.517C312.671 515.627 312.762 515.917 312.652 516.174L285.236 577.261C285.206 577.342 285.161 577.404 285.083 577.46Z" fill="#636363"/>
<path d="M308.838 514.456C309.687 512.601 311.866 511.768 313.708 512.599C315.549 513.43 316.397 515.629 315.567 517.471C314.732 519.346 312.539 520.159 310.698 519.328C308.837 518.511 308.008 516.298 308.838 514.456Z" fill="#636363"/>
<path d="M281.423 575.544C280.574 577.4 281.421 579.599 283.282 580.416C285.138 581.266 287.336 580.42 288.152 578.559C288.987 576.684 288.154 574.504 286.292 573.687C284.451 572.856 282.258 573.669 281.423 575.544Z" fill="#636363"/>
<path d="M324.282 631.782C324.068 631.936 323.767 631.887 323.612 631.673L284.414 577.352C284.26 577.138 284.308 576.837 284.522 576.682C284.736 576.528 285.037 576.577 285.192 576.791L324.376 631.092C324.55 631.292 324.515 631.613 324.282 631.782Z" fill="#636363"/>
<path d="M281.793 579.213C280.6 577.559 280.973 575.248 282.626 574.056C284.278 572.863 286.589 573.237 287.782 574.891C288.976 576.545 288.603 578.856 286.95 580.048C285.297 581.241 282.987 580.867 281.793 579.213Z" fill="#636363"/>
<path d="M321.824 628.377C320.17 629.57 319.798 631.879 320.992 633.534C322.186 635.189 324.495 635.563 326.149 634.369C327.802 633.176 328.175 630.867 326.981 629.212C325.787 627.557 323.478 627.183 321.824 628.377Z" fill="#636363"/>
<path d="M390.895 625.015C390.837 625.057 390.745 625.094 390.659 625.097L324.064 631.849C323.785 631.872 323.558 631.681 323.535 631.402C323.511 631.124 323.702 630.897 323.967 630.854L390.542 624.116C390.821 624.093 391.048 624.284 391.091 624.549C391.111 624.741 391.031 624.917 390.895 625.015Z" fill="#636363"/>
<path d="M324.375 635.028C322.333 635.229 320.527 633.751 320.338 631.728C320.135 629.684 321.612 627.879 323.635 627.691C325.678 627.49 327.484 628.968 327.672 630.992C327.895 633.021 326.398 634.84 324.375 635.028Z" fill="#636363"/>
<path d="M390.97 628.276C393.012 628.074 394.475 626.249 394.267 624.239C394.064 622.196 392.238 620.732 390.229 620.939C388.187 621.141 386.724 622.966 386.932 624.975C387.135 627.019 388.96 628.483 390.97 628.276Z" fill="#636363"/>
<path d="M390.894 653.08C390.758 653.178 390.566 653.198 390.404 653.138C390.147 653.027 390.056 652.738 390.166 652.481L417.568 591.374C417.679 591.117 417.968 591.027 418.225 591.137C418.482 591.248 418.573 591.537 418.482 591.78L391.066 652.867C391.016 652.962 390.972 653.024 390.894 653.08Z" fill="#636363"/>
<path d="M393.966 626.115C393.117 627.971 390.938 628.803 389.096 627.972C387.221 627.136 386.407 624.942 387.237 623.101C388.086 621.245 390.265 620.412 392.106 621.244C393.982 622.08 394.815 624.26 393.966 626.115Z" fill="#636363"/>
<path d="M421.381 565.027C422.23 563.172 421.383 560.972 419.521 560.155C417.646 559.319 415.468 560.151 414.652 562.012C413.803 563.868 414.65 566.067 416.511 566.884C418.367 567.734 420.565 566.888 421.381 565.027Z" fill="#636363"/>
<path d="M324.302 631.768C324.088 631.922 323.786 631.874 323.632 631.66L284.433 577.338C284.279 577.124 284.328 576.823 284.542 576.669C284.755 576.514 285.057 576.563 285.211 576.777L324.396 631.079C324.55 631.293 324.515 631.614 324.302 631.768Z" fill="#636363"/>
<path d="M281.814 579.199C280.62 577.545 280.993 575.234 282.646 574.041C284.299 572.849 286.609 573.223 287.803 574.877C288.996 576.531 288.623 578.841 286.97 580.034C285.318 581.227 283.007 580.852 281.814 579.199Z" fill="#636363"/>
<path d="M321.012 633.52C322.205 635.174 324.516 635.548 326.169 634.355C327.821 633.163 328.194 630.852 327.001 629.198C325.808 627.544 323.497 627.17 321.844 628.363C320.192 629.555 319.819 631.866 321.012 633.52Z" fill="#636363"/>
<path d="M285.103 577.447C285.025 577.503 284.953 577.525 284.867 577.528L218.252 584.294C217.974 584.318 217.747 584.126 217.723 583.848C217.699 583.569 217.891 583.342 218.169 583.319L284.75 576.547C285.029 576.524 285.256 576.715 285.279 576.994C285.319 577.172 285.239 577.348 285.103 577.447Z" fill="#636363"/>
<path d="M284.437 573.37C286.466 573.149 288.286 574.647 288.475 576.67C288.697 578.699 287.201 580.519 285.178 580.706C283.135 580.908 281.329 579.43 281.14 577.406C280.932 575.397 282.395 573.572 284.437 573.37Z" fill="#636363"/>
<path d="M217.825 580.135C215.797 580.356 214.32 582.162 214.528 584.171C214.731 586.214 216.556 587.679 218.565 587.471C220.608 587.27 222.071 585.445 221.862 583.435C221.674 581.412 219.854 579.914 217.825 580.135Z" fill="#636363"/>
<path d="M367.328 394.201C367.27 394.243 367.178 394.279 367.091 394.283L300.477 401.048C300.198 401.072 299.972 400.881 299.928 400.616C299.905 400.337 300.096 400.11 300.375 400.087L366.989 393.321C367.268 393.298 367.494 393.489 367.538 393.754C367.544 393.926 367.464 394.103 367.328 394.201Z" fill="#636363"/>
<path d="M366.665 390.124C368.708 389.922 370.514 391.4 370.703 393.424C370.925 395.453 369.429 397.272 367.406 397.46C365.363 397.662 363.557 396.184 363.368 394.16C363.16 392.15 364.623 390.325 366.665 390.124Z" fill="#636363"/>
<path d="M300.05 396.889C298.008 397.091 296.545 398.916 296.753 400.925C296.962 402.935 298.781 404.433 300.791 404.225C302.819 404.004 304.296 402.199 304.088 400.189C303.879 398.18 302.06 396.682 300.05 396.889Z" fill="#636363"/>
<path d="M273.298 462.053C273.162 462.151 272.97 462.172 272.808 462.111C272.551 462.001 272.46 461.711 272.551 461.468L299.967 400.381C300.077 400.124 300.366 400.034 300.609 400.124C300.867 400.235 300.957 400.524 300.847 400.781L273.431 461.868C273.42 461.935 273.357 462.011 273.298 462.053Z" fill="#636363"/>
<path d="M297.054 399.049C297.889 397.174 300.082 396.361 301.924 397.192C303.799 398.029 304.613 400.222 303.783 402.064C302.934 403.919 300.755 404.752 298.914 403.921C297.053 403.104 296.205 400.905 297.054 399.049Z" fill="#636363"/>
<path d="M269.639 460.138C268.804 462.013 269.637 464.192 271.498 465.009C273.373 465.846 275.552 465.013 276.368 463.152C277.203 461.277 276.369 459.098 274.508 458.281C272.667 457.45 270.454 458.277 269.639 460.138Z" fill="#636363"/>
<path d="M312.499 516.374C312.285 516.528 311.984 516.48 311.829 516.266L272.631 461.944C272.476 461.73 272.525 461.429 272.739 461.275C272.953 461.12 273.254 461.169 273.408 461.383L312.607 515.704C312.747 515.899 312.713 516.22 312.499 516.374Z" fill="#636363"/>
<path d="M270.01 463.805C268.817 462.151 269.19 459.841 270.842 458.648C272.495 457.455 274.806 457.83 275.999 459.483C277.192 461.137 276.819 463.448 275.167 464.641C273.514 465.833 271.203 465.459 270.01 463.805Z" fill="#636363"/>
<path d="M309.209 518.126C310.402 519.78 312.713 520.155 314.365 518.962C316.018 517.769 316.391 515.459 315.198 513.805C314.004 512.151 311.694 511.777 310.041 512.969C308.388 514.162 308.015 516.473 309.209 518.126Z" fill="#636363"/>
<path d="M379.111 509.608C379.052 509.65 378.961 509.686 378.874 509.69L312.279 516.441C312 516.465 311.774 516.273 311.731 516.009C311.707 515.73 311.898 515.503 312.177 515.48L378.758 508.709C379.036 508.685 379.263 508.876 379.306 509.141C379.327 509.333 379.247 509.509 379.111 509.608Z" fill="#636363"/>
<path d="M312.572 519.634C310.529 519.835 308.723 518.357 308.534 516.334C308.312 514.305 309.808 512.485 311.831 512.298C313.874 512.096 315.68 513.574 315.869 515.598C316.091 517.627 314.614 519.432 312.572 519.634Z" fill="#636363"/>
<path d="M379.186 512.868C381.228 512.667 382.691 510.842 382.483 508.832C382.28 506.789 380.455 505.325 378.446 505.532C376.403 505.734 374.94 507.558 375.149 509.568C375.351 511.611 377.157 513.089 379.186 512.868Z" fill="#636363"/>
<path d="M312.499 516.372C312.285 516.527 311.984 516.478 311.829 516.264L272.631 461.943C272.476 461.729 272.525 461.427 272.739 461.273C272.953 461.119 273.254 461.168 273.408 461.382L312.607 515.703C312.767 515.883 312.732 516.204 312.499 516.372Z" fill="#636363"/>
<path d="M270.011 463.805C268.817 462.151 269.19 459.84 270.843 458.647C272.496 457.455 274.806 457.829 275.999 459.483C277.193 461.137 276.82 463.447 275.167 464.64C273.514 465.833 271.204 465.458 270.011 463.805Z" fill="#636363"/>
<path d="M309.209 518.125C310.402 519.779 312.713 520.153 314.365 518.96C316.018 517.768 316.391 515.457 315.198 513.803C314.004 512.149 311.694 511.775 310.041 512.968C308.388 514.16 308.015 516.471 309.209 518.125Z" fill="#636363"/>
<path d="M273.301 462.054C273.243 462.096 273.151 462.132 273.065 462.136L206.45 468.901C206.171 468.925 205.945 468.733 205.902 468.469C205.878 468.19 206.069 467.963 206.348 467.94L272.962 461.174C273.241 461.15 273.468 461.342 273.511 461.606C273.517 461.779 273.437 461.955 273.301 462.054Z" fill="#636363"/>
<path d="M272.635 457.976C274.678 457.774 276.484 459.252 276.672 461.276C276.895 463.305 275.398 465.125 273.375 465.312C271.333 465.514 269.527 464.036 269.338 462.012C269.13 460.003 270.612 458.164 272.635 457.976Z" fill="#636363"/>
<path d="M206.022 464.742C203.979 464.944 202.516 466.768 202.725 468.778C202.928 470.821 204.753 472.285 206.762 472.078C208.791 471.857 210.267 470.052 210.059 468.042C209.87 466.018 208.05 464.521 206.022 464.742Z" fill="#636363"/>
<path d="M179.268 529.906C179.132 530.004 178.94 530.025 178.778 529.964C178.521 529.854 178.43 529.564 178.521 529.321L205.937 468.234C206.047 467.977 206.337 467.886 206.58 467.977C206.837 468.088 206.927 468.377 206.817 468.634L179.401 529.721C179.39 529.788 179.346 529.85 179.268 529.906Z" fill="#636363"/>
<path d="M203.026 466.902C203.861 465.027 206.054 464.214 207.895 465.045C209.751 465.895 210.585 468.075 209.755 469.916C208.906 471.772 206.727 472.604 204.885 471.773C203.044 470.942 202.196 468.743 203.026 466.902Z" fill="#636363"/>
<path d="M175.609 527.99C174.774 529.865 175.608 532.044 177.469 532.861C179.344 533.698 181.523 532.865 182.339 531.004C183.174 529.13 182.34 526.95 180.479 526.133C178.637 525.302 176.445 526.115 175.609 527.99Z" fill="#636363"/>
<path d="M218.469 584.227C218.255 584.382 217.954 584.333 217.799 584.119L178.601 529.798C178.447 529.584 178.495 529.282 178.709 529.128C178.923 528.974 179.224 529.022 179.379 529.237L218.577 583.558C218.737 583.738 218.702 584.059 218.469 584.227Z" fill="#636363"/>
<path d="M175.98 531.657C174.787 530.003 175.16 527.693 176.813 526.5C178.465 525.307 180.776 525.682 181.969 527.336C183.163 528.989 182.79 531.3 181.137 532.493C179.484 533.685 177.174 533.311 175.98 531.657Z" fill="#636363"/>
<path d="M215.199 585.965C216.392 587.619 218.702 587.993 220.355 586.8C222.008 585.608 222.381 583.297 221.187 581.643C219.994 579.989 217.684 579.615 216.031 580.808C214.359 582.014 214.005 584.311 215.199 585.965Z" fill="#636363"/>
<path d="M285.082 577.46C285.024 577.503 284.932 577.539 284.846 577.542L218.251 584.294C217.972 584.318 217.745 584.126 217.722 583.848C217.698 583.569 217.889 583.342 218.168 583.319L284.749 576.547C285.027 576.524 285.254 576.715 285.297 576.98C285.298 577.186 285.219 577.362 285.082 577.46Z" fill="#636363"/>
<path d="M218.562 587.472C216.52 587.674 214.714 586.196 214.525 584.172C214.303 582.143 215.799 580.324 217.822 580.136C219.865 579.934 221.671 581.412 221.859 583.436C222.082 585.465 220.605 587.271 218.562 587.472Z" fill="#636363"/>
<path d="M285.158 580.721C287.2 580.519 288.663 578.694 288.455 576.685C288.252 574.641 286.426 573.177 284.417 573.384C282.375 573.586 280.912 575.411 281.12 577.421C281.343 579.45 283.148 580.928 285.158 580.721Z" fill="#636363"/>
<path d="M285.083 577.461C284.947 577.559 284.755 577.579 284.593 577.519C284.336 577.408 284.245 577.119 284.356 576.862L311.771 515.775C311.882 515.518 312.171 515.427 312.414 515.518C312.671 515.628 312.762 515.918 312.652 516.175L285.236 577.262C285.206 577.343 285.161 577.404 285.083 577.461Z" fill="#636363"/>
<path d="M288.153 578.56C287.317 580.435 285.125 581.248 283.283 580.417C281.408 579.58 280.594 577.386 281.424 575.545C282.259 573.67 284.452 572.857 286.293 573.688C288.168 574.524 289.002 576.704 288.153 578.56Z" fill="#636363"/>
<path d="M315.568 517.472C316.403 515.597 315.57 513.417 313.708 512.6C311.847 511.783 309.655 512.596 308.839 514.457C308.004 516.332 308.837 518.512 310.698 519.329C312.554 520.179 314.752 519.333 315.568 517.472Z" fill="#636363"/>
<path d="M218.487 584.213C218.273 584.367 217.972 584.319 217.817 584.104L178.619 529.783C178.465 529.569 178.513 529.268 178.727 529.114C178.941 528.959 179.242 529.008 179.397 529.222L218.595 583.543C218.736 583.738 218.701 584.059 218.487 584.213Z" fill="#636363"/>
<path d="M175.998 531.644C174.805 529.99 175.178 527.68 176.831 526.487C178.483 525.295 180.794 525.669 181.987 527.323C183.181 528.977 182.808 531.287 181.155 532.48C179.502 533.672 177.192 533.298 175.998 531.644Z" fill="#636363"/>
<path d="M215.198 585.966C216.391 587.619 218.701 587.994 220.354 586.801C222.007 585.608 222.38 583.298 221.186 581.644C219.993 579.99 217.683 579.616 216.03 580.808C214.377 582.001 214.004 584.312 215.198 585.966Z" fill="#636363"/>
<path d="M261.519 346.643C261.383 346.741 261.191 346.762 261.029 346.701C260.772 346.591 260.681 346.301 260.791 346.044L288.188 284.971C288.298 284.714 288.588 284.624 288.831 284.715C289.088 284.825 289.178 285.115 289.068 285.372L261.652 346.459C261.641 346.526 261.578 346.601 261.519 346.643Z" fill="#636363"/>
<path d="M285.274 283.64C286.124 281.784 288.302 280.952 290.144 281.783C292.019 282.619 292.833 284.813 292.003 286.655C291.154 288.51 288.975 289.343 287.134 288.512C285.273 287.695 284.439 285.515 285.274 283.64Z" fill="#636363"/>
<path d="M257.86 344.728C257.025 346.603 257.859 348.783 259.72 349.6C261.581 350.417 263.773 349.604 264.589 347.743C265.424 345.868 264.591 343.688 262.73 342.871C260.869 342.054 258.69 342.887 257.86 344.728Z" fill="#636363"/>
<path d="M300.718 400.965C300.504 401.119 300.202 401.071 300.048 400.857L260.849 346.535C260.695 346.321 260.744 346.02 260.958 345.866C261.171 345.711 261.473 345.76 261.627 345.974L300.826 400.295C300.98 400.509 300.931 400.811 300.718 400.965Z" fill="#636363"/>
<path d="M258.229 348.396C257.035 346.742 257.408 344.432 259.061 343.239C260.714 342.046 263.024 342.421 264.218 344.074C265.411 345.728 265.038 348.039 263.385 349.232C261.733 350.424 259.422 350.05 258.229 348.396Z" fill="#636363"/>
<path d="M297.428 402.717C298.621 404.371 300.932 404.745 302.585 403.553C304.237 402.36 304.61 400.049 303.417 398.396C302.224 396.742 299.913 396.367 298.26 397.56C296.608 398.753 296.235 401.063 297.428 402.717Z" fill="#636363"/>
<path d="M367.333 394.199C367.275 394.241 367.183 394.278 367.096 394.281L300.501 401.033C300.223 401.056 299.996 400.865 299.972 400.586C299.948 400.307 300.14 400.081 300.418 400.057L366.994 393.319C367.272 393.296 367.499 393.487 367.542 393.752C367.549 393.925 367.469 394.101 367.333 394.199Z" fill="#636363"/>
<path d="M300.806 404.244C298.763 404.446 296.957 402.968 296.768 400.944C296.546 398.915 298.042 397.096 300.065 396.908C302.108 396.706 303.914 398.185 304.103 400.208C304.311 402.218 302.834 404.023 300.806 404.244Z" fill="#636363"/>
<path d="M367.42 397.478C369.462 397.277 370.925 395.452 370.717 393.442C370.514 391.399 368.689 389.935 366.68 390.142C364.637 390.344 363.174 392.169 363.382 394.178C363.571 396.202 365.377 397.68 367.42 397.478Z" fill="#636363"/>
<path d="M300.72 400.965C300.506 401.119 300.204 401.07 300.05 400.856L260.852 346.535C260.697 346.321 260.746 346.02 260.96 345.865C261.174 345.711 261.475 345.76 261.629 345.974L300.828 400.295C301.002 400.495 300.934 400.81 300.72 400.965Z" fill="#636363"/>
<path d="M258.232 348.396C257.038 346.742 257.411 344.431 259.064 343.239C260.717 342.046 263.027 342.421 264.221 344.074C265.414 345.728 265.041 348.039 263.388 349.231C261.736 350.424 259.425 350.05 258.232 348.396Z" fill="#636363"/>
<path d="M297.43 402.716C298.623 404.37 300.933 404.744 302.586 403.552C304.239 402.359 304.612 400.048 303.418 398.395C302.225 396.741 299.915 396.366 298.262 397.559C296.609 398.752 296.236 401.062 297.43 402.716Z" fill="#636363"/>
<path d="M261.516 346.644C261.458 346.686 261.366 346.723 261.28 346.726L194.665 353.492C194.387 353.516 194.16 353.324 194.117 353.059C194.093 352.781 194.284 352.554 194.563 352.53L261.177 345.765C261.456 345.741 261.683 345.933 261.706 346.211C261.732 346.37 261.652 346.546 261.516 346.644Z" fill="#636363"/>
<path d="M260.854 342.567C262.896 342.366 264.702 343.844 264.891 345.867C265.094 347.911 263.617 349.716 261.594 349.904C259.571 350.091 257.746 348.627 257.557 346.603C257.348 344.594 258.845 342.774 260.854 342.567Z" fill="#636363"/>
<path d="M194.239 349.333C192.211 349.554 190.734 351.359 190.942 353.369C191.145 355.412 192.97 356.876 194.979 356.669C197.008 356.448 198.485 354.642 198.276 352.633C198.088 350.609 196.282 349.131 194.239 349.333Z" fill="#636363"/>
<path d="M167.49 414.497C167.354 414.595 167.161 414.615 166.999 414.555C166.742 414.444 166.652 414.155 166.762 413.898L194.178 352.811C194.288 352.554 194.577 352.463 194.82 352.554C195.077 352.664 195.168 352.954 195.058 353.211L167.642 414.298C167.612 414.379 167.567 414.441 167.49 414.497Z" fill="#636363"/>
<path d="M191.245 351.493C192.094 349.638 194.273 348.805 196.114 349.636C197.97 350.487 198.804 352.666 197.974 354.508C197.125 356.363 194.946 357.196 193.104 356.365C191.243 355.548 190.429 353.354 191.245 351.493Z" fill="#636363"/>
<path d="M163.83 412.581C162.994 414.456 163.828 416.636 165.689 417.453C167.545 418.304 169.743 417.457 170.559 415.596C171.394 413.721 170.56 411.541 168.699 410.724C166.858 409.893 164.679 410.726 163.83 412.581Z" fill="#636363"/>
<path d="M206.686 468.818C206.472 468.973 206.171 468.924 206.017 468.71L166.818 414.389C166.664 414.175 166.712 413.873 166.926 413.719C167.14 413.565 167.442 413.613 167.596 413.827L206.794 468.149C206.968 468.349 206.92 468.65 206.686 468.818Z" fill="#636363"/>
<path d="M164.198 416.25C163.004 414.596 163.377 412.285 165.03 411.093C166.683 409.9 168.993 410.274 170.186 411.928C171.38 413.582 171.007 415.893 169.354 417.085C167.701 418.278 165.391 417.903 164.198 416.25Z" fill="#636363"/>
<path d="M203.396 470.57C204.59 472.224 206.9 472.599 208.553 471.406C210.206 470.213 210.579 467.903 209.385 466.249C208.192 464.595 205.881 464.221 204.229 465.413C202.576 466.606 202.203 468.917 203.396 470.57Z" fill="#636363"/>
<path d="M273.3 462.052C273.241 462.094 273.15 462.131 273.063 462.134L206.468 468.886C206.19 468.909 205.963 468.718 205.939 468.439C205.915 468.16 206.106 467.934 206.385 467.91L272.98 461.158C273.259 461.135 273.486 461.326 273.529 461.591C273.516 461.778 273.436 461.954 273.3 462.052Z" fill="#636363"/>
<path d="M206.795 472.084C204.753 472.285 202.947 470.807 202.758 468.783C202.555 466.74 204.032 464.935 206.055 464.747C208.098 464.546 209.904 466.024 210.092 468.047C210.301 470.057 208.804 471.877 206.795 472.084Z" fill="#636363"/>
<path d="M273.389 465.331C275.432 465.13 276.894 463.305 276.686 461.295C276.483 459.252 274.658 457.788 272.649 457.995C270.606 458.197 269.143 460.021 269.352 462.031C269.541 464.055 271.366 465.519 273.389 465.331Z" fill="#636363"/>
<path d="M273.3 462.052C273.163 462.15 272.971 462.171 272.809 462.11C272.552 462 272.461 461.71 272.572 461.453L299.988 400.366C300.098 400.109 300.387 400.018 300.63 400.109C300.887 400.22 300.978 400.509 300.887 400.752L273.471 461.839C273.422 461.934 273.377 461.996 273.3 462.052Z" fill="#636363"/>
<path d="M276.384 463.17C275.535 465.025 273.356 465.858 271.515 465.027C269.64 464.19 268.825 461.997 269.655 460.155C270.49 458.28 272.683 457.467 274.525 458.298C276.366 459.129 277.219 461.295 276.384 463.17Z" fill="#636363"/>
<path d="M303.799 402.082C304.648 400.227 303.801 398.027 301.939 397.21C300.064 396.374 297.886 397.206 297.07 399.067C296.221 400.923 297.068 403.122 298.929 403.939C300.771 404.77 302.969 403.924 303.799 402.082Z" fill="#636363"/>
<path d="M206.705 468.803C206.491 468.957 206.19 468.908 206.036 468.694L166.837 414.373C166.683 414.159 166.731 413.858 166.945 413.703C167.159 413.549 167.461 413.598 167.615 413.812L206.813 468.133C206.968 468.347 206.919 468.648 206.705 468.803Z" fill="#636363"/>
<path d="M164.217 416.235C163.023 414.581 163.396 412.271 165.049 411.078C166.702 409.885 169.012 410.26 170.206 411.914C171.399 413.567 171.026 415.878 169.373 417.071C167.72 418.263 165.41 417.889 164.217 416.235Z" fill="#636363"/>
<path d="M203.414 470.556C204.608 472.209 206.918 472.584 208.571 471.391C210.224 470.198 210.597 467.888 209.403 466.234C208.21 464.58 205.899 464.206 204.247 465.398C202.594 466.591 202.221 468.902 203.414 470.556Z" fill="#636363"/>
<path d="M167.506 414.484C167.428 414.54 167.356 414.563 167.27 414.566L100.655 421.331C100.377 421.355 100.15 421.164 100.126 420.885C100.102 420.606 100.294 420.379 100.572 420.356L167.187 413.59C167.465 413.567 167.692 413.758 167.716 414.037C167.722 414.21 167.642 414.386 167.506 414.484Z" fill="#636363"/>
<path d="M166.841 410.406C168.884 410.204 170.69 411.683 170.878 413.706C171.101 415.735 169.605 417.555 167.581 417.742C165.539 417.944 163.733 416.466 163.544 414.442C163.336 412.433 164.813 410.627 166.841 410.406Z" fill="#636363"/>
<path d="M100.228 417.172C98.1993 417.393 96.7225 419.198 96.9308 421.208C97.1337 423.251 98.959 424.715 100.968 424.508C102.997 424.287 104.473 422.482 104.265 420.472C104.076 418.448 102.271 416.97 100.228 417.172Z" fill="#636363"/>
<path d="M179.288 529.891C179.152 529.989 178.959 530.01 178.797 529.949C178.54 529.839 178.45 529.549 178.54 529.306L205.956 468.219C206.067 467.962 206.356 467.871 206.599 467.962C206.856 468.073 206.947 468.362 206.856 468.605L179.44 529.692C179.41 529.773 179.346 529.849 179.288 529.891Z" fill="#636363"/>
<path d="M182.373 531.009C181.524 532.865 179.345 533.697 177.504 532.866C175.629 532.03 174.814 529.836 175.644 527.994C176.479 526.12 178.672 525.306 180.514 526.138C182.375 526.955 183.208 529.134 182.373 531.009Z" fill="#636363"/>
<path d="M209.787 469.922C210.636 468.066 209.788 465.867 207.927 465.05C206.072 464.2 203.873 465.046 203.058 466.907C202.208 468.763 203.056 470.962 204.917 471.779C206.759 472.61 208.938 471.777 209.787 469.922Z" fill="#636363"/>
<path d="M257.631 211.365L248.987 230.651C248.877 230.908 248.987 231.183 249.224 231.308C249.4 231.388 249.579 231.348 249.715 231.25C249.773 231.208 249.837 231.132 249.867 231.051L258.291 212.279L257.631 211.365Z" fill="#636363"/>
<path d="M246.055 229.334C245.22 231.209 246.054 233.388 247.915 234.205C249.79 235.042 251.969 234.209 252.784 232.348C253.619 230.474 252.786 228.294 250.925 227.477C249.083 226.646 246.904 227.478 246.055 229.334Z" fill="#636363"/>
<path d="M288.915 285.571C288.701 285.726 288.4 285.677 288.245 285.463L249.047 231.142C248.892 230.928 248.941 230.626 249.155 230.472C249.369 230.318 249.67 230.366 249.825 230.58L289.023 284.902C289.197 285.102 289.129 285.417 288.915 285.571Z" fill="#636363"/>
<path d="M246.428 233.002C245.234 231.348 245.607 229.038 247.26 227.845C248.913 226.652 251.223 227.027 252.416 228.68C253.61 230.334 253.237 232.645 251.584 233.838C249.931 235.03 247.621 234.656 246.428 233.002Z" fill="#636363"/>
<path d="M285.625 287.323C286.818 288.977 289.129 289.351 290.781 288.158C292.434 286.966 292.807 284.655 291.614 283.001C290.42 281.347 288.11 280.973 286.457 282.166C284.804 283.358 284.431 285.669 285.625 287.323Z" fill="#636363"/>
<path d="M288.934 285.556C288.72 285.71 288.419 285.661 288.265 285.447L249.066 231.126C248.912 230.912 248.96 230.611 249.174 230.456C249.388 230.302 249.69 230.351 249.844 230.565L289.042 284.886C289.197 285.1 289.148 285.402 288.934 285.556Z" fill="#636363"/>
<path d="M246.446 232.988C245.253 231.334 245.626 229.023 247.278 227.83C248.931 226.638 251.242 227.012 252.435 228.666C253.628 230.32 253.255 232.63 251.603 233.823C249.95 235.016 247.639 234.641 246.446 232.988Z" fill="#636363"/>
<path d="M285.644 287.31C286.837 288.963 289.148 289.338 290.8 288.145C292.453 286.952 292.826 284.642 291.633 282.988C290.439 281.334 288.129 280.96 286.476 282.152C284.823 283.345 284.45 285.656 285.644 287.31Z" fill="#636363"/>
<path d="M249.736 231.236C249.678 231.278 249.586 231.315 249.5 231.318L182.885 238.084C182.607 238.107 182.38 237.916 182.337 237.651C182.313 237.372 182.504 237.146 182.783 237.122L249.397 230.356C249.676 230.333 249.903 230.524 249.946 230.789C249.952 230.962 249.872 231.138 249.736 231.236Z" fill="#636363"/>
<path d="M249.071 227.159C251.113 226.958 252.919 228.436 253.108 230.459C253.33 232.489 251.834 234.308 249.811 234.496C247.768 234.697 245.962 233.219 245.774 231.195C245.565 229.186 247.042 227.38 249.071 227.159Z" fill="#636363"/>
<path d="M182.457 233.925C180.415 234.126 178.952 235.951 179.16 237.961C179.382 239.99 181.188 241.468 183.197 241.261C185.24 241.059 186.703 239.234 186.495 237.225C186.286 235.215 184.48 233.737 182.457 233.925Z" fill="#636363"/>
<path d="M155.705 299.089C155.569 299.187 155.377 299.207 155.215 299.147C154.957 299.036 154.867 298.747 154.958 298.504L182.374 237.417C182.484 237.16 182.773 237.069 183.016 237.16C183.273 237.271 183.364 237.56 183.254 237.817L155.838 298.904C155.827 298.971 155.763 299.047 155.705 299.089Z" fill="#636363"/>
<path d="M179.461 236.085C180.297 234.21 182.489 233.397 184.331 234.228C186.206 235.064 187.02 237.258 186.191 239.1C185.355 240.975 183.163 241.788 181.321 240.957C179.46 240.14 178.626 237.96 179.461 236.085Z" fill="#636363"/>
<path d="M152.047 297.173C151.212 299.048 152.045 301.227 153.906 302.044C155.782 302.881 157.96 302.048 158.776 300.187C159.611 298.312 158.778 296.133 156.916 295.316C155.075 294.485 152.877 295.331 152.047 297.173Z" fill="#636363"/>
<path d="M194.905 353.41C194.691 353.564 194.389 353.515 194.235 353.301L155.036 298.98C154.882 298.766 154.931 298.465 155.145 298.31C155.358 298.156 155.66 298.205 155.814 298.419L195.013 352.74C195.167 352.954 195.118 353.255 194.905 353.41Z" fill="#636363"/>
<path d="M152.416 300.842C151.222 299.188 151.595 296.877 153.248 295.684C154.901 294.492 157.211 294.866 158.405 296.52C159.598 298.174 159.225 300.484 157.572 301.677C155.92 302.87 153.609 302.495 152.416 300.842Z" fill="#636363"/>
<path d="M191.615 355.162C192.808 356.816 195.119 357.19 196.772 355.997C198.424 354.805 198.797 352.494 197.604 350.84C196.411 349.186 194.1 348.812 192.447 350.005C190.795 351.197 190.422 353.508 191.615 355.162Z" fill="#636363"/>
<path d="M261.518 346.644C261.46 346.686 261.368 346.722 261.282 346.725L194.687 353.477C194.408 353.501 194.181 353.309 194.138 353.045C194.115 352.766 194.306 352.539 194.584 352.516L261.179 345.764C261.458 345.74 261.685 345.932 261.728 346.196C261.734 346.369 261.654 346.545 261.518 346.644Z" fill="#636363"/>
<path d="M194.994 356.688C192.951 356.89 191.146 355.412 190.957 353.388C190.734 351.359 192.231 349.54 194.254 349.352C196.296 349.15 198.102 350.628 198.291 352.652C198.499 354.662 197.023 356.467 194.994 356.688Z" fill="#636363"/>
<path d="M261.607 349.923C263.65 349.722 265.113 347.897 264.904 345.887C264.702 343.844 262.876 342.38 260.867 342.587C258.824 342.789 257.362 344.614 257.57 346.623C257.759 348.647 259.565 350.125 261.607 349.923Z" fill="#636363"/>
<path d="M261.516 346.643C261.38 346.742 261.188 346.762 261.026 346.701C260.769 346.591 260.678 346.301 260.788 346.044L288.185 284.971C288.295 284.714 288.584 284.624 288.827 284.715C289.084 284.825 289.175 285.115 289.065 285.372L261.649 346.459C261.638 346.526 261.574 346.601 261.516 346.643Z" fill="#636363"/>
<path d="M264.601 347.762C263.765 349.637 261.573 350.45 259.731 349.619C257.889 348.788 257.042 346.588 257.871 344.747C258.721 342.892 260.899 342.059 262.741 342.89C264.583 343.721 265.416 345.901 264.601 347.762Z" fill="#636363"/>
<path d="M292.015 286.674C292.85 284.799 292.016 282.619 290.155 281.802C288.3 280.952 286.101 281.798 285.286 283.659C284.451 285.534 285.284 287.714 287.145 288.531C288.987 289.362 291.166 288.53 292.015 286.674Z" fill="#636363"/>
<path d="M194.902 353.408C194.688 353.563 194.386 353.514 194.232 353.3L155.034 298.979C154.879 298.765 154.928 298.463 155.142 298.309C155.356 298.155 155.657 298.203 155.811 298.417L195.01 352.739C195.184 352.939 195.135 353.24 194.902 353.408Z" fill="#636363"/>
<path d="M152.414 300.841C151.22 299.187 151.593 296.876 153.246 295.684C154.899 294.491 157.209 294.865 158.403 296.519C159.596 298.173 159.223 300.484 157.57 301.676C155.918 302.869 153.607 302.495 152.414 300.841Z" fill="#636363"/>
<path d="M191.613 355.161C192.806 356.815 195.117 357.189 196.77 355.997C198.422 354.804 198.795 352.493 197.602 350.84C196.409 349.186 194.098 348.811 192.445 350.004C190.793 351.197 190.42 353.507 191.613 355.161Z" fill="#636363"/>
<path d="M155.702 299.09C155.644 299.132 155.552 299.169 155.466 299.172L88.8515 305.937C88.5728 305.961 88.346 305.77 88.3029 305.505C88.2791 305.226 88.4703 304.999 88.749 304.976L155.363 298.21C155.642 298.187 155.869 298.378 155.912 298.643C155.919 298.816 155.839 298.992 155.702 299.09Z" fill="#636363"/>
<path d="M155.039 295.012C157.082 294.811 158.888 296.289 159.076 298.313C159.265 300.336 157.802 302.161 155.779 302.349C153.737 302.55 151.931 301.072 151.742 299.049C151.534 297.039 153.03 295.22 155.039 295.012Z" fill="#636363"/>
<path d="M88.4253 301.778C86.3827 301.98 84.92 303.805 85.1282 305.814C85.3311 307.857 87.1564 309.321 89.1655 309.114C91.2081 308.913 92.6708 307.088 92.4626 305.078C92.2738 303.055 90.4679 301.576 88.4253 301.778Z" fill="#636363"/>
<path d="M61.6748 366.942C61.5387 367.04 61.3464 367.061 61.1844 367C60.9273 366.89 60.8366 366.6 60.9274 366.357L88.3628 305.256C88.473 304.999 88.7625 304.908 89.0055 304.999C89.2625 305.11 89.3532 305.399 89.243 305.656L61.8271 366.743C61.7968 366.824 61.7525 366.886 61.6748 366.942Z" fill="#636363"/>
<path d="M85.4301 303.939C86.2653 302.064 88.4581 301.251 90.2997 302.082C92.1553 302.932 92.9889 305.112 92.1592 306.953C91.324 308.828 89.1312 309.641 87.2896 308.81C85.448 307.979 84.6144 305.8 85.4301 303.939Z" fill="#636363"/>
<path d="M58.0147 365.027C57.1795 366.901 58.0132 369.081 59.8742 369.898C61.7493 370.735 63.9281 369.902 64.7438 368.041C65.579 366.166 64.7453 363.987 62.8843 363.17C61.0427 362.339 58.8639 363.171 58.0147 365.027Z" fill="#636363"/>
<path d="M100.874 421.263C100.66 421.418 100.359 421.369 100.204 421.155L61.0057 366.834C60.8513 366.62 60.9 366.318 61.1138 366.164C61.3277 366.01 61.629 366.059 61.7835 366.273L100.982 420.594C101.156 420.794 101.107 421.095 100.874 421.263Z" fill="#636363"/>
<path d="M58.385 368.694C57.1916 367.04 57.5646 364.729 59.2174 363.536C60.8701 362.344 63.1806 362.718 64.374 364.372C65.5674 366.026 65.1945 368.336 63.5417 369.529C61.8889 370.722 59.5784 370.347 58.385 368.694Z" fill="#636363"/>
<path d="M97.6033 423.001C98.7967 424.655 101.107 425.03 102.76 423.837C104.413 422.644 104.786 420.334 103.592 418.68C102.399 417.026 100.088 416.652 98.4356 417.844C96.7634 419.051 96.4099 421.348 97.6033 423.001Z" fill="#636363"/>
<path d="M167.488 414.498C167.43 414.54 167.338 414.577 167.252 414.58L100.657 421.331C100.378 421.355 100.151 421.164 100.128 420.885C100.104 420.606 100.295 420.379 100.574 420.356L167.169 413.604C167.447 413.581 167.674 413.772 167.717 414.037C167.704 414.224 167.624 414.4 167.488 414.498Z" fill="#636363"/>
<path d="M100.983 424.529C98.9406 424.731 97.1348 423.253 96.946 421.229C96.7237 419.2 98.2199 417.38 100.243 417.193C102.286 416.991 104.092 418.469 104.28 420.493C104.489 422.503 103.012 424.308 100.983 424.529Z" fill="#636363"/>
<path d="M167.576 417.777C169.619 417.575 171.082 415.75 170.874 413.741C170.671 411.697 168.845 410.233 166.836 410.44C164.794 410.642 163.331 412.467 163.539 414.477C163.747 416.486 165.553 417.964 167.576 417.777Z" fill="#636363"/>
<path d="M167.487 414.498C167.351 414.596 167.158 414.616 166.996 414.556C166.739 414.445 166.649 414.156 166.759 413.899L194.175 352.812C194.285 352.555 194.574 352.464 194.818 352.555C195.075 352.665 195.165 352.955 195.055 353.212L167.639 414.299C167.609 414.38 167.565 414.442 167.487 414.498Z" fill="#636363"/>
<path d="M170.572 415.616C169.736 417.49 167.544 418.304 165.702 417.472C163.827 416.636 163.013 414.442 163.842 412.601C164.692 410.745 166.87 409.913 168.712 410.744C170.573 411.561 171.407 413.741 170.572 415.616Z" fill="#636363"/>
<path d="M197.986 354.528C198.821 352.653 197.988 350.473 196.127 349.656C194.271 348.806 192.073 349.652 191.257 351.513C190.422 353.388 191.255 355.568 193.116 356.385C194.958 357.216 197.156 356.369 197.986 354.528Z" fill="#636363"/>
<path d="M100.893 421.248C100.679 421.403 100.378 421.354 100.223 421.14L61.0248 366.819C60.8703 366.605 60.919 366.303 61.1329 366.149C61.3467 365.995 61.6481 366.043 61.8025 366.257L101.001 420.579C101.155 420.793 101.107 421.094 100.893 421.248Z" fill="#636363"/>
<path d="M58.4046 368.68C57.2112 367.026 57.5841 364.715 59.2369 363.523C60.8897 362.33 63.2001 362.704 64.3935 364.358C65.5869 366.012 65.214 368.323 63.5612 369.515C61.9084 370.708 59.598 370.334 58.4046 368.68Z" fill="#636363"/>
<path d="M97.6038 423C98.7972 424.654 101.108 425.028 102.76 423.836C104.413 422.643 104.786 420.332 103.593 418.679C102.399 417.025 100.089 416.65 98.4361 417.843C96.7833 419.036 96.4104 421.346 97.6038 423Z" fill="#636363"/>
<path d="M61.6922 366.928C61.6144 366.984 61.5421 367.006 61.4557 367.01L-5.15871 373.775C-5.43739 373.799 -5.66421 373.608 -5.68794 373.329C-5.71167 373.05 -5.52048 372.823 -5.2418 372.8L61.3726 366.034C61.6513 366.01 61.8781 366.202 61.9018 366.481C61.9083 366.653 61.8283 366.829 61.6922 366.928Z" fill="#636363"/>
<path d="M61.0282 362.851C63.0708 362.649 64.8767 364.127 65.0655 366.151C65.2878 368.18 63.7916 369.999 61.7684 370.187C59.7258 370.389 57.9199 368.911 57.7311 366.887C57.5228 364.877 58.9996 363.072 61.0282 362.851Z" fill="#636363"/>
<path d="M-5.58541 369.616C-7.62802 369.818 -9.09078 371.642 -8.88254 373.652C-8.66025 375.681 -6.85436 377.159 -4.84524 376.952C-2.80262 376.75 -1.33989 374.926 -1.54814 372.916C-1.73695 370.892 -3.5428 369.414 -5.58541 369.616Z" fill="#636363"/>
<path d="M249.737 231.235C249.679 231.277 249.587 231.314 249.501 231.317L182.906 238.069C182.627 238.093 182.4 237.901 182.376 237.622C182.353 237.344 182.544 237.117 182.823 237.093L249.398 230.356C249.677 230.332 249.904 230.524 249.947 230.788C249.953 230.961 249.873 231.137 249.737 231.235Z" fill="#636363"/>
<path d="M183.211 241.28C181.169 241.482 179.363 240.004 179.174 237.98C178.952 235.951 180.448 234.132 182.471 233.944C184.514 233.742 186.32 235.22 186.508 237.244C186.717 239.254 185.24 241.059 183.211 241.28Z" fill="#636363"/>
<path d="M249.826 234.515C251.868 234.313 253.331 232.488 253.123 230.479C252.92 228.436 251.094 226.971 249.085 227.179C247.043 227.38 245.58 229.205 245.788 231.215C245.977 233.238 247.783 234.716 249.826 234.515Z" fill="#636363"/>
<path d="M257.633 211.365L248.974 230.632C248.864 230.889 248.974 231.165 249.231 231.275C249.407 231.355 249.585 231.315 249.721 231.217C249.78 231.175 249.844 231.099 249.874 231.018L258.307 212.299L257.633 211.365Z" fill="#636363"/>
<path d="M252.82 232.355C251.985 234.23 249.792 235.043 247.95 234.212C246.095 233.361 245.261 231.182 246.091 229.34C246.94 227.485 249.119 226.652 250.96 227.483C252.802 228.314 253.636 230.494 252.82 232.355Z" fill="#636363"/>
<path d="M49.8925 251.533C49.7564 251.631 49.5642 251.651 49.4021 251.591C49.1451 251.48 49.0544 251.191 49.1646 250.934L76.5805 189.847C76.6907 189.59 76.9802 189.499 77.2373 189.61C77.4944 189.72 77.5851 190.01 77.4749 190.267L50.0589 251.354C50.0146 251.415 49.9703 251.477 49.8925 251.533Z" fill="#636363"/>
<path d="M73.6478 188.53C74.497 186.674 76.6758 185.842 78.5174 186.673C80.3731 187.523 81.2067 189.703 80.3769 191.544C79.5418 193.419 77.3489 194.232 75.5073 193.401C73.6463 192.584 72.8321 190.39 73.6478 188.53Z" fill="#636363"/>
<path d="M46.2325 249.618C45.3973 251.493 46.2309 253.672 48.092 254.489C49.9476 255.34 52.1458 254.493 52.9616 252.632C53.8108 250.777 52.9631 248.578 51.102 247.761C49.2605 246.93 47.0817 247.762 46.2325 249.618Z" fill="#636363"/>
<path d="M89.0906 305.854C88.8767 306.009 88.5754 305.96 88.421 305.746L49.2226 251.425C49.0681 251.211 49.1168 250.909 49.3307 250.755C49.5445 250.601 49.8459 250.649 50.0003 250.863L89.1987 305.185C89.3726 305.385 89.3239 305.686 89.0906 305.854Z" fill="#636363"/>
<path d="M46.6038 253.285C45.4104 251.631 45.7833 249.321 47.4361 248.128C49.0888 246.935 51.3993 247.31 52.5927 248.963C53.7861 250.617 53.4132 252.928 51.7604 254.121C50.1077 255.313 47.7972 254.939 46.6038 253.285Z" fill="#636363"/>
<path d="M86.6343 302.45C84.9805 303.643 84.6079 305.952 85.8021 307.607C86.9962 309.262 89.3049 309.636 90.9587 308.443C92.6125 307.249 92.9851 304.94 91.791 303.286C90.5968 301.631 88.2881 301.257 86.6343 302.45Z" fill="#636363"/>
<path d="M155.704 299.089C155.646 299.131 155.554 299.168 155.468 299.171L88.873 305.923C88.5943 305.946 88.3675 305.755 88.3438 305.476C88.3201 305.198 88.5113 304.971 88.7899 304.947L155.385 298.196C155.664 298.172 155.89 298.363 155.934 298.628C155.921 298.815 155.841 298.991 155.704 299.089Z" fill="#636363"/>
<path d="M89.1986 309.12C87.156 309.322 85.3501 307.844 85.1613 305.82C84.9585 303.777 86.4352 301.972 88.4584 301.784C90.501 301.582 92.3069 303.061 92.4957 305.084C92.7039 307.094 91.2077 308.913 89.1986 309.12Z" fill="#636363"/>
<path d="M155.794 302.369C157.836 302.167 159.299 300.342 159.091 298.333C158.888 296.289 157.063 294.825 155.054 295.032C153.011 295.234 151.548 297.059 151.757 299.069C151.945 301.092 153.771 302.556 155.794 302.369Z" fill="#636363"/>
<path d="M155.703 299.089C155.567 299.188 155.375 299.208 155.213 299.147C154.956 299.037 154.865 298.747 154.975 298.49L182.391 237.403C182.502 237.146 182.791 237.056 183.034 237.147C183.291 237.257 183.382 237.547 183.291 237.79L155.875 298.877C155.825 298.972 155.781 299.033 155.703 299.089Z" fill="#636363"/>
<path d="M158.79 300.207C157.955 302.082 155.762 302.895 153.92 302.064C152.045 301.228 151.231 299.034 152.061 297.193C152.91 295.337 155.089 294.505 156.93 295.336C158.772 296.167 159.625 298.332 158.79 300.207Z" fill="#636363"/>
<path d="M186.205 239.119C187.054 237.263 186.206 235.064 184.345 234.247C182.47 233.411 180.291 234.243 179.476 236.104C178.66 237.965 179.474 240.159 181.335 240.976C183.196 241.793 185.375 240.96 186.205 239.119Z" fill="#636363"/>
<path d="M89.1082 305.838C88.8943 305.992 88.593 305.944 88.4385 305.729L49.2402 251.408C49.0857 251.194 49.1344 250.893 49.3482 250.739C49.5621 250.584 49.8635 250.633 50.0179 250.847L89.2163 305.168C89.3707 305.382 89.3221 305.684 89.1082 305.838Z" fill="#636363"/>
<path d="M46.6204 253.271C45.427 251.617 45.7999 249.306 47.4527 248.113C49.1055 246.921 51.4159 247.295 52.6093 248.949C53.8027 250.603 53.4298 252.913 51.777 254.106C50.1242 255.299 47.8138 254.924 46.6204 253.271Z" fill="#636363"/>
<path d="M85.8182 307.592C87.0116 309.246 89.322 309.62 90.9748 308.427C92.6276 307.235 93.0005 304.924 91.8071 303.27C90.6137 301.616 88.3032 301.242 86.6504 302.435C84.9977 303.627 84.6248 305.938 85.8182 307.592Z" fill="#636363"/>
<path d="M49.9085 251.52C49.8307 251.576 49.7584 251.599 49.672 251.602L-16.9424 258.367C-17.2211 258.391 -17.4479 258.2 -17.4716 257.921C-17.4954 257.642 -17.3042 257.415 -17.0395 257.372L49.5749 250.607C49.8535 250.583 50.0803 250.774 50.1041 251.053C50.1246 251.245 50.0446 251.422 49.9085 251.52Z" fill="#636363"/>
<path d="M49.2455 247.443C51.2881 247.241 53.0939 248.719 53.2828 250.743C53.5051 252.772 52.0088 254.591 49.9857 254.779C47.9571 255 46.1372 253.502 45.9484 251.479C45.7401 249.469 47.2169 247.664 49.2455 247.443Z" fill="#636363"/>
<path d="M-44.1209 319.373C-44.257 319.471 -44.4493 319.492 -44.6113 319.431C-44.8684 319.321 -44.9591 319.031 -44.8683 318.788L-17.4524 257.701C-17.3422 257.444 -17.0526 257.354 -16.7956 257.464C-16.5385 257.574 -16.4478 257.864 -16.5386 258.107L-43.9546 319.194C-43.9988 319.256 -44.0431 319.317 -44.1209 319.373Z" fill="#636363"/>
<path d="M61.6927 366.927C61.6149 366.983 61.5425 367.006 61.4561 367.009L-5.13881 373.761C-5.41749 373.785 -5.6443 373.593 -5.66804 373.314C-5.69177 373.036 -5.50054 372.809 -5.22187 372.785L61.3731 366.034C61.6517 366.01 61.8785 366.201 61.9023 366.48C61.9087 366.653 61.8288 366.829 61.6927 366.927Z" fill="#636363"/>
<path d="M-4.81167 376.957C-6.85429 377.159 -8.66016 375.681 -8.84897 373.657C-9.05181 371.614 -7.57503 369.808 -5.55186 369.621C-3.50924 369.419 -1.70336 370.897 -1.51456 372.921C-1.32576 374.945 -2.80254 376.75 -4.81167 376.957Z" fill="#636363"/>
<path d="M58.3595 368.639C59.5312 370.31 61.8346 370.715 63.5044 369.544C65.1741 368.373 65.5779 366.07 64.4062 364.399C63.2345 362.728 60.9311 362.323 59.2613 363.494C57.5916 364.665 57.1878 366.968 58.3595 368.639Z" fill="#636363"/>
<path d="M61.6902 366.929C61.5541 367.027 61.3618 367.048 61.1998 366.987C60.9428 366.877 60.8521 366.587 60.9428 366.344L88.3782 305.243C88.4884 304.986 88.7779 304.896 89.0209 304.986C89.278 305.097 89.3687 305.386 89.2779 305.629L61.862 366.716C61.8123 366.811 61.7485 366.887 61.6902 366.929Z" fill="#636363"/>
<path d="M64.7757 368.046C63.9405 369.921 61.7477 370.734 59.9061 369.903C58.031 369.066 57.2168 366.873 58.0466 365.031C58.8958 363.176 61.0746 362.343 62.9162 363.174C64.7772 363.991 65.6108 366.171 64.7757 368.046Z" fill="#636363"/>
<path d="M92.1906 306.959C93.0398 305.103 92.1921 302.904 90.3311 302.087C88.4755 301.236 86.2772 302.083 85.4615 303.944C84.6263 305.819 85.46 307.999 87.321 308.816C89.1626 309.647 91.3414 308.814 92.1906 306.959Z" fill="#636363"/>
<path d="M49.892 251.534C49.8337 251.576 49.7419 251.613 49.6554 251.616L-16.9395 258.368C-17.2182 258.392 -17.445 258.2 -17.4687 257.921C-17.4924 257.643 -17.3012 257.416 -17.0366 257.373L49.5584 250.621C49.837 250.598 50.0638 250.789 50.107 251.054C50.1081 251.26 50.0281 251.436 49.892 251.534Z" fill="#636363"/>
<path d="M49.9818 254.814C52.0244 254.612 53.4871 252.787 53.2789 250.777C53.076 248.734 51.2507 247.27 49.2416 247.477C47.213 247.698 45.7362 249.504 45.9445 251.513C46.1527 253.523 47.9586 255.001 49.9818 254.814Z" fill="#636363"/>
<path d="M49.8925 251.534C49.7564 251.632 49.5642 251.653 49.4021 251.592C49.1451 251.482 49.0544 251.192 49.1646 250.935L76.5805 189.848C76.6907 189.591 76.9802 189.501 77.2373 189.611C77.4944 189.721 77.5851 190.011 77.4749 190.268L50.0589 251.355C50.0146 251.416 49.9703 251.478 49.8925 251.534Z" fill="#636363"/>
<path d="M52.9773 252.652C52.1422 254.527 49.9493 255.34 48.1077 254.509C46.2327 253.673 45.4185 251.479 46.2482 249.638C47.0974 247.782 49.2762 246.95 51.1178 247.781C52.9789 248.598 53.8125 250.777 52.9773 252.652Z" fill="#636363"/>
<path d="M80.3918 191.565C81.2269 189.69 80.3933 187.51 78.5322 186.693C76.6766 185.842 74.4784 186.689 73.6626 188.55C72.8275 190.425 73.6611 192.604 75.5222 193.421C77.3638 194.253 79.562 193.406 80.3918 191.565Z" fill="#636363"/>
<path d="M-44.1205 319.372C-44.2566 319.471 -44.4488 319.491 -44.6109 319.43C-44.8679 319.32 -44.9586 319.03 -44.8679 318.787L-17.4519 257.7C-17.3417 257.443 -17.0522 257.353 -16.7951 257.463C-16.538 257.574 -16.4473 257.863 -16.5381 258.106L-43.9541 319.193C-43.9984 319.255 -44.0427 319.316 -44.1205 319.372Z" fill="#636363"/>
</g>
<defs>
<filter id="filter0_d" x="-564.118" y="50.9966" width="1124.47" height="841.621" filterUnits="userSpaceOnUse" color-interpolation-filters="sRGB">
<feFlood flood-opacity="0" result="BackgroundImageFix"/>
<feColorMatrix in="SourceAlpha" type="matrix" values="0 0 0 0 0 0 0 0 0 0 0 0 0 0 0 0 0 0 127 0"/>
<feOffset dy="4"/>
<feGaussianBlur stdDeviation="2"/>
<feColorMatrix type="matrix" values="0 0 0 0 0 0 0 0 0 0 0 0 0 0 0 0 0 0 0.25 0"/>
<feBlend mode="normal" in2="BackgroundImageFix" result="effect1_dropShadow"/>
<feBlend mode="normal" in="SourceGraphic" in2="effect1_dropShadow" result="shape"/>
</filter>
</defs>
</svg>
