<svg width="380" height="1212" viewBox="0 0 380 1212" fill="none" xmlns="http://www.w3.org/2000/svg">
<g opacity="0.2">
<path d="M457.226 567.969C457.361 567.85 457.564 567.807 457.743 567.855C458.029 567.945 458.157 568.245 458.067 568.531L419.687 683.466C419.597 683.752 419.298 683.88 419.029 683.808C418.742 683.718 418.615 683.419 418.686 683.15L457.065 568.214C457.108 568.108 457.149 568.037 457.226 567.969Z" fill="#545454" fill-opacity="0.5"/>
<path d="M415.222 362.318C415.357 362.198 415.56 362.156 415.739 362.203C416.026 362.294 416.153 362.593 416.082 362.862L377.703 477.798C377.613 478.084 377.313 478.211 377.044 478.14C376.758 478.05 376.63 477.75 376.701 477.481L415.081 362.546C415.104 362.456 415.164 362.369 415.222 362.318Z" fill="#545454" fill-opacity="0.5"/>
<path d="M373.451 476.371C372.76 478.462 373.882 480.7 375.956 481.373C378.046 482.066 380.283 480.945 380.956 478.872C381.664 476.801 380.525 474.543 378.451 473.87C376.378 473.196 374.124 474.298 373.451 476.371Z" fill="#545454" fill-opacity="0.5"/>
<path d="M376.861 477.237C377.073 477.05 377.4 477.07 377.588 477.282L457.948 568.051C458.135 568.263 458.116 568.59 457.904 568.777C457.692 568.965 457.365 568.945 457.177 568.733L376.817 477.964C376.61 477.769 376.63 477.442 376.861 477.237Z" fill="#545454" fill-opacity="0.5"/>
<path d="M374.237 480.248C372.787 478.61 372.938 476.103 374.575 474.654C376.212 473.205 378.719 473.358 380.169 474.996C381.619 476.634 381.467 479.14 379.83 480.59C378.193 482.039 375.687 481.886 374.237 480.248Z" fill="#545454" fill-opacity="0.5"/>
<path d="M376.882 477.22C377.094 477.032 377.421 477.052 377.608 477.264L457.968 568.034C458.156 568.246 458.136 568.572 457.924 568.76C457.712 568.948 457.386 568.928 457.198 568.716L376.838 477.946C376.631 477.751 376.651 477.425 376.882 477.22Z" fill="#545454" fill-opacity="0.5"/>
<path d="M374.256 480.231C372.806 478.593 372.958 476.087 374.595 474.637C376.232 473.188 378.738 473.341 380.188 474.979C381.639 476.617 381.487 479.123 379.85 480.573C378.213 482.022 375.707 481.869 374.256 480.231Z" fill="#545454" fill-opacity="0.5"/>
<path d="M258.142 501.385C258.199 501.334 258.293 501.285 258.385 501.272L377.125 477.106C377.42 477.052 377.682 477.232 377.757 477.51C377.812 477.805 377.632 478.067 377.337 478.122L258.597 502.288C258.302 502.343 258.04 502.163 257.985 501.868C257.923 501.682 258.007 501.504 258.142 501.385Z" fill="#545454" fill-opacity="0.5"/>
<path d="M376.417 473.745C378.576 473.312 380.661 474.698 381.079 476.838C381.513 478.997 380.129 481.081 377.99 481.497C375.848 481.95 373.745 480.545 373.328 478.405C372.911 476.265 374.278 474.161 376.417 473.745Z" fill="#545454" fill-opacity="0.5"/>
<path d="M257.697 497.895C255.555 498.347 254.171 500.432 254.608 502.554C255.061 504.697 257.147 506.082 259.269 505.647C261.428 505.214 262.795 503.11 262.358 500.987C261.941 498.847 259.819 497.459 257.697 497.895Z" fill="#545454" fill-opacity="0.5"/>
<path d="M258.14 501.386C258.275 501.266 258.478 501.224 258.657 501.271C258.944 501.362 259.071 501.661 259 501.93L220.602 616.883C220.511 617.169 220.212 617.296 219.943 617.225C219.657 617.135 219.529 616.835 219.619 616.549L257.999 501.614C258.022 501.524 258.063 501.454 258.14 501.386Z" fill="#545454" fill-opacity="0.5"/>
<path d="M254.731 500.52C255.439 498.449 257.676 497.328 259.731 498.019C261.802 498.729 262.924 500.967 262.235 503.021C261.544 505.111 259.29 506.213 257.235 505.522C255.161 504.849 254.022 502.592 254.731 500.52Z" fill="#545454" fill-opacity="0.5"/>
<path d="M216.35 615.456C215.658 617.546 216.78 619.784 218.854 620.458C220.925 621.168 223.182 620.03 223.854 617.956C224.563 615.885 223.423 613.628 221.35 612.954C219.295 612.264 217.041 613.365 216.35 615.456Z" fill="#545454" fill-opacity="0.5"/>
<path d="M219.759 616.321C219.971 616.134 220.298 616.154 220.486 616.366L300.846 707.135C301.033 707.347 301.014 707.674 300.802 707.861C300.59 708.049 300.263 708.029 300.075 707.817L219.715 617.048C219.528 616.836 219.547 616.509 219.759 616.321Z" fill="#545454" fill-opacity="0.5"/>
<path d="M217.135 619.332C215.685 617.694 215.837 615.188 217.474 613.738C219.111 612.289 221.617 612.442 223.067 614.08C224.517 615.718 224.366 618.225 222.729 619.674C221.092 621.123 218.586 620.97 217.135 619.332Z" fill="#545454" fill-opacity="0.5"/>
<path d="M297.496 710.101C298.946 711.74 301.452 711.893 303.089 710.443C304.726 708.994 304.878 706.488 303.428 704.85C301.977 703.212 299.471 703.059 297.834 704.508C296.197 705.957 296.045 708.463 297.496 710.101Z" fill="#545454" fill-opacity="0.5"/>
<path d="M300.123 707.054C300.2 706.986 300.274 706.954 300.366 706.942L419.087 682.793C419.382 682.738 419.644 682.918 419.699 683.213C419.754 683.508 419.574 683.77 419.279 683.825L300.559 707.974C300.264 708.029 300.002 707.849 299.927 707.571C299.921 707.37 299.988 707.174 300.123 707.054Z" fill="#545454" fill-opacity="0.5"/>
<path d="M301.269 711.335C299.11 711.768 297.025 710.382 296.607 708.242C296.154 706.1 297.557 703.998 299.696 703.582C301.855 703.149 303.94 704.535 304.358 706.675C304.794 708.798 303.428 710.901 301.269 711.335Z" fill="#545454" fill-opacity="0.5"/>
<path d="M457.225 567.969C457.36 567.85 457.563 567.808 457.742 567.855C458.028 567.945 458.156 568.245 458.066 568.531L419.686 683.466C419.596 683.752 419.297 683.88 419.028 683.809C418.741 683.718 418.614 683.419 418.685 683.15L457.064 568.215C457.107 568.108 457.148 568.037 457.225 567.969Z" fill="#545454" fill-opacity="0.5"/>
<path d="M342.753 281.237L415.179 363.045C415.367 363.257 415.694 363.277 415.925 363.072C416.156 362.868 416.176 362.541 415.988 362.329L343.562 280.521L342.753 281.237Z" fill="#545454" fill-opacity="0.5"/>
<path d="M342.771 281.22L415.197 363.028C415.385 363.24 415.712 363.26 415.923 363.073C416.135 362.885 416.174 362.541 415.987 362.329L343.56 280.521L342.771 281.22Z" fill="#545454" fill-opacity="0.5"/>
<path d="M185.652 420.322L258.079 502.13C258.266 502.341 258.593 502.361 258.805 502.174C259.017 501.986 259.037 501.659 258.849 501.447L186.423 419.64L185.652 420.322Z" fill="#545454" fill-opacity="0.5"/>
<path d="M255.517 504.397C256.967 506.036 259.474 506.189 261.111 504.739C262.748 503.29 262.899 500.784 261.449 499.146C259.999 497.508 257.493 497.354 255.856 498.804C254.219 500.253 254.067 502.759 255.517 504.397Z" fill="#545454" fill-opacity="0.5"/>
<path d="M258.16 501.369C258.218 501.318 258.312 501.269 258.404 501.257L377.124 477.108C377.419 477.053 377.681 477.233 377.756 477.511C377.811 477.806 377.631 478.068 377.336 478.123L258.596 502.289C258.301 502.344 258.039 502.164 257.964 501.886C257.941 501.666 258.025 501.489 258.16 501.369Z" fill="#545454" fill-opacity="0.5"/>
<path d="M259.306 505.65C257.147 506.083 255.062 504.697 254.644 502.557C254.21 500.398 255.594 498.314 257.733 497.898C259.892 497.464 261.978 498.85 262.395 500.99C262.812 503.13 261.428 505.214 259.306 505.65Z" fill="#545454" fill-opacity="0.5"/>
<path d="M378.009 481.481C380.168 481.048 381.535 478.944 381.098 476.821C380.664 474.662 378.559 473.294 376.437 473.729C374.278 474.162 372.911 476.266 373.348 478.389C373.782 480.548 375.867 481.934 378.009 481.481Z" fill="#545454" fill-opacity="0.5"/>
<path d="M415.242 362.301C415.376 362.182 415.58 362.14 415.759 362.187C416.045 362.278 416.173 362.577 416.102 362.846L377.722 477.781C377.632 478.067 377.333 478.195 377.064 478.124C376.778 478.033 376.65 477.734 376.721 477.465L415.1 362.53C415.124 362.44 415.184 362.352 415.242 362.301Z" fill="#545454" fill-opacity="0.5"/>
<path d="M380.955 478.872C380.264 480.963 378.01 482.065 375.955 481.374C373.865 480.681 372.762 478.426 373.451 476.372C374.142 474.282 376.396 473.18 378.451 473.871C380.542 474.563 381.664 476.801 380.955 478.872Z" fill="#545454" fill-opacity="0.5"/>
<path d="M8.63885 577.035L7.05957 578.434L101.107 559.284C101.402 559.229 101.565 558.947 101.527 558.671C101.472 558.376 101.19 558.213 100.914 558.251L8.63885 577.035Z" fill="#545454" fill-opacity="0.5"/>
<path d="M145.216 747.874L179.075 646.498C179.165 646.212 179.018 645.93 178.751 645.822C178.555 645.755 178.369 645.817 178.234 645.936C178.176 645.988 178.116 646.075 178.093 646.165L144.414 746.969L145.216 747.874Z" fill="#545454" fill-opacity="0.5"/>
<path d="M100.689 558.347C100.901 558.159 101.228 558.179 101.416 558.391L178.961 645.98C179.148 646.192 179.129 646.519 178.917 646.707C178.705 646.894 178.378 646.874 178.19 646.662L100.645 559.073C100.438 558.878 100.458 558.551 100.689 558.347Z" fill="#545454" fill-opacity="0.5"/>
<path d="M8.65741 577.019L7.07812 578.417L101.106 559.284C101.401 559.229 101.564 558.947 101.526 558.672C101.471 558.377 101.189 558.214 100.913 558.251L8.65741 577.019Z" fill="#545454" fill-opacity="0.5"/>
<path d="M100.67 558.365C100.882 558.177 101.208 558.197 101.396 558.409L178.941 645.998C179.129 646.21 179.109 646.537 178.897 646.725C178.685 646.912 178.358 646.892 178.171 646.68L100.643 559.11C100.419 558.896 100.458 558.552 100.67 558.365Z" fill="#545454" fill-opacity="0.5"/>
<path d="M178.214 645.954C178.271 645.903 178.366 645.854 178.457 645.841L293.027 622.514C293.322 622.459 293.584 622.639 293.659 622.917C293.714 623.212 293.534 623.474 293.256 623.549L178.669 646.857C178.374 646.911 178.112 646.731 178.038 646.453C178.012 646.27 178.079 646.073 178.214 645.954Z" fill="#545454" fill-opacity="0.5"/>
<path d="M229.619 843.211L333.743 822.016C334.038 821.961 334.201 821.679 334.145 821.384C334.09 821.089 333.809 820.926 333.533 820.964L228.817 842.305L229.619 843.211Z" fill="#545454" fill-opacity="0.5"/>
<path d="M370.329 710.215C370.464 710.096 370.667 710.054 370.847 710.101C371.133 710.191 371.261 710.491 371.17 710.777L334.129 821.674C334.039 821.961 333.739 822.088 333.47 822.017C333.184 821.926 333.056 821.627 333.147 821.341L370.188 710.444C370.212 710.354 370.252 710.283 370.329 710.215Z" fill="#545454" fill-opacity="0.5"/>
<path d="M292.784 622.626C292.996 622.438 293.323 622.458 293.511 622.67L371.055 710.26C371.243 710.472 371.223 710.799 371.011 710.986C370.8 711.174 370.473 711.154 370.285 710.942L292.74 623.352C292.533 623.157 292.553 622.831 292.784 622.626Z" fill="#545454" fill-opacity="0.5"/>
<path d="M178.214 645.954C178.271 645.903 178.366 645.854 178.457 645.841L293.008 622.531C293.303 622.476 293.565 622.656 293.639 622.934C293.694 623.229 293.515 623.492 293.237 623.566L178.669 646.857C178.374 646.911 178.112 646.731 178.038 646.453C178.012 646.27 178.079 646.073 178.214 645.954Z" fill="#545454" fill-opacity="0.5"/>
<path d="M145.216 747.874L179.056 646.515C179.146 646.229 178.999 645.947 178.713 645.856C178.516 645.79 178.33 645.851 178.195 645.97C178.138 646.022 178.078 646.109 178.054 646.199L144.414 746.969L145.216 747.874Z" fill="#545454" fill-opacity="0.5"/>
<path d="M292.765 622.643C292.976 622.455 293.303 622.475 293.491 622.687L371.036 710.276C371.224 710.488 371.204 710.815 370.992 711.003C370.78 711.19 370.453 711.171 370.266 710.959L292.738 623.388C292.514 623.174 292.533 622.847 292.765 622.643Z" fill="#545454" fill-opacity="0.5"/>
<path d="M377.834 1010.62L411.693 909.247C411.783 908.961 411.636 908.679 411.369 908.571C411.173 908.504 410.987 908.566 410.852 908.685C410.794 908.736 410.734 908.824 410.711 908.914L377.032 1009.72L377.834 1010.62Z" fill="#545454" fill-opacity="0.5"/>
<path d="M333.307 821.095C333.518 820.908 333.845 820.928 334.033 821.14L411.578 908.729C411.766 908.941 411.746 909.268 411.534 909.456C411.322 909.643 410.995 909.623 410.808 909.411L333.263 821.822C333.056 821.627 333.075 821.3 333.307 821.095Z" fill="#545454" fill-opacity="0.5"/>
<path d="M229.619 843.211L333.743 822.016C334.038 821.961 334.201 821.679 334.145 821.384C334.09 821.089 333.809 820.926 333.533 820.964L228.817 842.305L229.619 843.211Z" fill="#545454" fill-opacity="0.5"/>
<path d="M333.287 821.113C333.499 820.926 333.826 820.946 334.013 821.158L411.558 908.747C411.746 908.959 411.726 909.286 411.514 909.474C411.302 909.661 410.976 909.641 410.788 909.429L333.243 821.84C333.036 821.645 333.075 821.301 333.287 821.113Z" fill="#545454" fill-opacity="0.5"/>
<path d="M370.329 710.215C370.464 710.096 370.667 710.054 370.847 710.101C371.133 710.191 371.261 710.491 371.17 710.777L334.129 821.674C334.039 821.961 333.739 822.088 333.47 822.017C333.184 821.926 333.056 821.627 333.147 821.341L370.188 710.444C370.212 710.354 370.252 710.283 370.329 710.215Z" fill="#545454" fill-opacity="0.5"/>
<path d="M377.834 1010.62L411.674 909.264C411.764 908.978 411.617 908.696 411.331 908.605C411.134 908.539 410.948 908.6 410.814 908.719C410.756 908.771 410.696 908.858 410.672 908.948L377.015 1009.7L377.834 1010.62Z" fill="#545454" fill-opacity="0.5"/>
<path d="M23.3107 610.179L44.9036 605.775C45.1986 605.721 45.3614 605.439 45.3234 605.163C45.2684 604.868 44.9866 604.705 44.7109 604.743L22.5088 609.273L23.3107 610.179Z" fill="#545454" fill-opacity="0.5"/>
<path d="M45.592 609.153C47.7338 608.701 49.1177 606.616 48.6811 604.493C48.2274 602.351 46.1422 600.966 44.0196 601.401C41.8608 601.834 40.494 603.938 40.9306 606.061C41.3842 608.203 43.4695 609.589 45.592 609.153Z" fill="#545454" fill-opacity="0.5"/>
<path d="M67.1983 536.741C67.3331 536.622 67.5361 536.58 67.7156 536.627C68.0017 536.718 68.1294 537.017 68.0392 537.303L45.324 605.438C45.2338 605.724 44.9344 605.851 44.6653 605.78C44.3791 605.69 44.2514 605.39 44.3417 605.104L67.0569 536.97C67.0805 536.88 67.1405 536.792 67.1983 536.741Z" fill="#545454" fill-opacity="0.5"/>
<path d="M48.5578 606.528C47.8492 608.599 45.6122 609.72 43.5578 609.029C41.4671 608.337 40.3641 606.082 41.0534 604.028C41.745 601.937 43.999 600.835 46.0534 601.526C48.1441 602.219 49.2664 604.457 48.5578 606.528Z" fill="#545454" fill-opacity="0.5"/>
<path d="M71.3079 538.396C71.9995 536.306 70.8772 534.068 68.8035 533.394C66.7321 532.684 64.4759 533.822 63.8036 535.896C63.095 537.967 64.2343 540.224 66.308 540.898C68.3987 541.59 70.6356 540.469 71.3079 538.396Z" fill="#545454" fill-opacity="0.5"/>
<path d="M67.1982 536.74C67.256 536.689 67.3501 536.64 67.442 536.627L137.829 522.302C138.124 522.247 138.387 522.427 138.461 522.705C138.516 523 138.336 523.262 138.041 523.317L67.671 537.662C67.3761 537.717 67.1136 537.537 67.0585 537.242C66.9968 537.056 67.0634 536.86 67.1982 536.74Z" fill="#545454" fill-opacity="0.5"/>
<path d="M68.3429 541.022C66.1841 541.455 64.0988 540.069 63.6815 537.929C63.2471 535.77 64.6309 533.686 66.7705 533.27C68.9123 532.817 71.0146 534.222 71.432 536.362C71.8856 538.504 70.4825 540.606 68.3429 541.022Z" fill="#545454" fill-opacity="0.5"/>
<path d="M138.729 526.696C140.871 526.244 142.254 524.159 141.818 522.036C141.383 519.877 139.279 518.509 137.156 518.944C134.998 519.377 133.631 521.481 134.067 523.604C134.502 525.763 136.587 527.148 138.729 526.696Z" fill="#545454" fill-opacity="0.5"/>
<path d="M85.7721 680.732L92.943 659.224C93.0332 658.937 92.8862 658.655 92.6193 658.548C92.4228 658.481 92.2368 658.542 92.102 658.662C92.0442 658.713 91.9843 658.8 91.9606 658.89L84.9702 679.826L85.7721 680.732Z" fill="#545454" fill-opacity="0.5"/>
<path d="M96.2132 660.317C96.9048 658.227 95.7825 655.989 93.7088 655.315C91.6181 654.622 89.3812 655.743 88.7089 657.817C88.0002 659.888 89.1396 662.145 91.2133 662.819C93.2676 663.509 95.5216 662.408 96.2132 660.317Z" fill="#545454" fill-opacity="0.5"/>
<path d="M44.4686 604.856C44.6804 604.668 45.0073 604.688 45.195 604.9L92.8309 658.707C93.0186 658.919 92.9988 659.246 92.787 659.433C92.5751 659.621 92.2482 659.601 92.0605 659.389L44.4417 605.602C44.2347 605.407 44.2567 605.043 44.4686 604.856Z" fill="#545454" fill-opacity="0.5"/>
<path d="M95.4276 656.441C96.8778 658.079 96.7262 660.585 95.0891 662.034C93.452 663.484 90.9459 663.33 89.4956 661.692C88.0454 660.054 88.1971 657.548 89.8341 656.099C91.4712 654.649 93.9773 654.803 95.4276 656.441Z" fill="#545454" fill-opacity="0.5"/>
<path d="M47.7918 602.634C46.3416 600.996 43.8354 600.843 42.1984 602.292C40.5613 603.741 40.4097 606.248 41.8599 607.886C43.3101 609.524 45.8163 609.677 47.4534 608.228C49.0904 606.778 49.2421 604.272 47.7918 602.634Z" fill="#545454" fill-opacity="0.5"/>
<path d="M23.3107 610.179L44.9207 605.794C45.2156 605.74 45.3785 605.458 45.3405 605.182C45.2854 604.887 45.0037 604.724 44.728 604.762L22.5088 609.273L23.3107 610.179Z" fill="#545454" fill-opacity="0.5"/>
<path d="M44.0195 601.401C46.1613 600.949 48.2637 602.354 48.681 604.494C49.1347 606.636 47.7316 608.737 45.592 609.153C43.4502 609.606 41.3478 608.201 40.9305 606.061C40.4961 603.902 41.88 601.817 44.0195 601.401Z" fill="#545454" fill-opacity="0.5"/>
<path d="M44.4477 604.873C44.6595 604.686 44.9864 604.706 45.1741 604.918L92.8101 658.724C92.9977 658.936 92.978 659.263 92.7661 659.451C92.5542 659.638 92.2274 659.618 92.0397 659.406L44.4208 605.619C44.2331 605.407 44.2358 605.061 44.4477 604.873Z" fill="#545454" fill-opacity="0.5"/>
<path d="M95.4071 656.458C96.8573 658.096 96.7057 660.603 95.0686 662.052C93.4315 663.501 90.9254 663.348 89.4751 661.71C88.0249 660.072 88.1766 657.566 89.8136 656.116C91.4507 654.667 93.9568 654.82 95.4071 656.458Z" fill="#545454" fill-opacity="0.5"/>
<path d="M47.7723 602.651C46.3221 601.012 43.8159 600.859 42.1789 602.309C40.5418 603.758 40.3901 606.264 41.8404 607.902C43.2906 609.54 45.7968 609.694 47.4338 608.244C49.0709 606.795 49.2225 604.289 47.7723 602.651Z" fill="#545454" fill-opacity="0.5"/>
<path d="M92.0848 658.678C92.1426 658.627 92.2367 658.578 92.3286 658.566L162.716 644.24C163.011 644.185 163.274 644.365 163.348 644.643C163.403 644.938 163.223 645.2 162.945 645.275L92.5576 659.601C92.2626 659.655 92.0001 659.475 91.9258 659.197C91.8834 658.994 91.95 658.798 92.0848 658.678Z" fill="#545454" fill-opacity="0.5"/>
<path d="M93.2277 662.96C91.0688 663.393 88.9836 662.007 88.5662 659.867C88.1126 657.725 89.5157 655.624 91.6553 655.207C93.7971 654.755 95.8994 656.16 96.3168 658.3C96.7534 660.423 95.3866 662.526 93.2277 662.96Z" fill="#545454" fill-opacity="0.5"/>
<path d="M163.615 648.634C165.774 648.201 167.141 646.097 166.705 643.974C166.251 641.832 164.166 640.446 162.043 640.882C159.884 641.315 158.517 643.419 158.954 645.542C159.408 647.684 161.493 649.069 163.615 648.634Z" fill="#545454" fill-opacity="0.5"/>
<path d="M185.223 576.22C185.358 576.101 185.561 576.059 185.74 576.106C186.026 576.197 186.154 576.496 186.083 576.765L163.348 644.917C163.258 645.203 162.959 645.33 162.673 645.24C162.386 645.149 162.259 644.85 162.349 644.564L185.101 576.432C185.105 576.359 185.165 576.272 185.223 576.22Z" fill="#545454" fill-opacity="0.5"/>
<path d="M166.582 646.007C165.891 648.098 163.637 649.199 161.582 648.509C159.492 647.816 158.388 645.561 159.078 643.507C159.769 641.416 162.023 640.314 164.078 641.005C166.169 641.698 167.291 643.936 166.582 646.007Z" fill="#545454" fill-opacity="0.5"/>
<path d="M189.332 577.875C190.024 575.785 188.902 573.547 186.828 572.873C184.737 572.18 182.5 573.301 181.828 575.375C181.119 577.446 182.259 579.703 184.332 580.377C186.387 581.067 188.66 579.949 189.332 577.875Z" fill="#545454" fill-opacity="0.5"/>
<path d="M137.584 522.415C137.796 522.228 138.123 522.248 138.311 522.46L185.947 576.266C186.134 576.478 186.115 576.805 185.903 576.992C185.691 577.18 185.364 577.16 185.176 576.948L137.558 523.161C137.37 522.949 137.373 522.603 137.584 522.415Z" fill="#545454" fill-opacity="0.5"/>
<path d="M188.546 574C189.996 575.638 189.844 578.144 188.207 579.594C186.57 581.043 184.064 580.89 182.614 579.252C181.164 577.613 181.315 575.107 182.952 573.658C184.589 572.209 187.096 572.362 188.546 574Z" fill="#545454" fill-opacity="0.5"/>
<path d="M140.91 520.194C139.46 518.556 136.954 518.402 135.317 519.852C133.679 521.301 133.528 523.807 134.978 525.445C136.428 527.083 138.934 527.237 140.572 525.787C142.209 524.338 142.36 521.832 140.91 520.194Z" fill="#545454" fill-opacity="0.5"/>
<path d="M67.1981 536.74C67.2559 536.689 67.35 536.64 67.4419 536.628L137.81 522.319C138.105 522.264 138.368 522.444 138.442 522.722C138.497 523.017 138.317 523.279 138.022 523.334L67.6709 537.662C67.3759 537.717 67.1134 537.537 67.0391 537.259C66.9967 537.056 67.0633 536.86 67.1981 536.74Z" fill="#545454" fill-opacity="0.5"/>
<path d="M137.158 518.942C139.3 518.49 141.402 519.895 141.82 522.035C142.273 524.177 140.87 526.278 138.731 526.694C136.589 527.147 134.487 525.742 134.069 523.602C133.616 521.46 134.999 519.375 137.158 518.942Z" fill="#545454" fill-opacity="0.5"/>
<path d="M66.7714 533.268C64.6125 533.701 63.2457 535.805 63.6823 537.928C64.1167 540.088 66.2212 541.456 68.3438 541.02C70.5026 540.587 71.8694 538.483 71.4328 536.361C70.9984 534.201 68.9132 532.816 66.7714 533.268Z" fill="#545454" fill-opacity="0.5"/>
<path d="M67.1992 536.741C67.3341 536.622 67.5371 536.579 67.7165 536.627C68.0027 536.717 68.1304 537.017 68.0402 537.303L45.325 605.437C45.2348 605.723 44.9354 605.851 44.6663 605.78C44.3801 605.689 44.2524 605.39 44.3426 605.104L67.0578 536.969C67.0815 536.88 67.1415 536.792 67.1992 536.741Z" fill="#545454" fill-opacity="0.5"/>
<path d="M63.8056 535.895C64.4972 533.805 66.7512 532.703 68.8056 533.394C70.877 534.104 71.9993 536.341 71.31 538.395C70.6013 540.467 68.3644 541.588 66.31 540.897C64.2386 540.187 63.1163 537.949 63.8056 535.895Z" fill="#545454" fill-opacity="0.5"/>
<path d="M41.0546 604.027C40.3459 606.098 41.4853 608.355 43.559 609.029C45.6304 609.739 47.8866 608.601 48.5589 606.528C49.2505 604.437 48.1282 602.199 46.0545 601.526C43.983 600.816 41.7461 601.937 41.0546 604.027Z" fill="#545454" fill-opacity="0.5"/>
<path d="M137.586 522.415C137.798 522.228 138.125 522.248 138.312 522.46L185.948 576.266C186.136 576.478 186.116 576.805 185.904 576.992C185.692 577.18 185.366 577.16 185.178 576.948L137.559 523.161C137.352 522.966 137.355 522.62 137.586 522.415Z" fill="#545454" fill-opacity="0.5"/>
<path d="M188.547 574C189.997 575.638 189.845 578.144 188.208 579.594C186.571 581.043 184.065 580.89 182.615 579.252C181.165 577.613 181.316 575.107 182.953 573.658C184.59 572.209 187.096 572.362 188.547 574Z" fill="#545454" fill-opacity="0.5"/>
<path d="M140.912 520.193C139.462 518.555 136.956 518.402 135.319 519.851C133.681 521.301 133.53 523.807 134.98 525.445C136.43 527.083 138.936 527.236 140.573 525.787C142.211 524.338 142.362 521.831 140.912 520.193Z" fill="#545454" fill-opacity="0.5"/>
<path d="M185.222 576.22C185.28 576.169 185.374 576.12 185.466 576.107L255.854 561.781C256.149 561.727 256.411 561.907 256.486 562.185C256.541 562.48 256.361 562.742 256.083 562.816L185.695 577.142C185.4 577.197 185.138 577.017 185.063 576.739C185.021 576.536 185.088 576.339 185.222 576.22Z" fill="#545454" fill-opacity="0.5"/>
<path d="M186.366 580.501C184.208 580.934 182.122 579.549 181.705 577.409C181.251 575.267 182.654 573.165 184.794 572.749C186.936 572.297 189.038 573.701 189.455 575.841C189.892 577.964 188.506 580.085 186.366 580.501Z" fill="#545454" fill-opacity="0.5"/>
<path d="M256.753 566.176C258.912 565.743 260.279 563.639 259.842 561.516C259.408 559.356 257.303 557.988 255.181 558.424C253.022 558.857 251.655 560.961 252.092 563.083C252.526 565.243 254.611 566.628 256.753 566.176Z" fill="#545454" fill-opacity="0.5"/>
<path d="M162.47 644.353C162.682 644.165 163.009 644.185 163.197 644.397L210.833 698.204C211.02 698.416 211 698.743 210.789 698.93C210.577 699.118 210.25 699.098 210.062 698.886L162.426 645.079C162.256 644.887 162.258 644.541 162.47 644.353Z" fill="#545454" fill-opacity="0.5"/>
<path d="M213.431 695.938C214.882 697.576 214.73 700.082 213.093 701.532C211.456 702.981 208.95 702.828 207.5 701.19C206.049 699.552 206.201 697.045 207.838 695.596C209.475 694.147 211.981 694.3 213.431 695.938Z" fill="#545454" fill-opacity="0.5"/>
<path d="M165.795 642.132C164.345 640.494 161.838 640.341 160.201 641.79C158.564 643.239 158.413 645.745 159.863 647.384C161.313 649.022 163.819 649.175 165.456 647.726C167.093 646.276 167.245 643.77 165.795 642.132Z" fill="#545454" fill-opacity="0.5"/>
<path d="M92.0828 658.68C92.1406 658.629 92.2347 658.58 92.3266 658.568L162.714 644.242C163.009 644.187 163.272 644.367 163.327 644.662C163.382 644.957 163.202 645.219 162.924 645.294L92.5557 659.602C92.2607 659.657 91.9982 659.477 91.9238 659.199C91.8815 658.996 91.948 658.8 92.0828 658.68Z" fill="#545454" fill-opacity="0.5"/>
<path d="M162.041 640.882C164.2 640.449 166.285 641.834 166.702 643.975C167.156 646.117 165.753 648.218 163.613 648.634C161.455 649.067 159.369 647.682 158.952 645.542C158.498 643.4 159.882 641.315 162.041 640.882Z" fill="#545454" fill-opacity="0.5"/>
<path d="M91.6542 655.208C89.4953 655.641 88.1285 657.745 88.5651 659.868C88.9995 662.027 91.1041 663.396 93.2266 662.96C95.3854 662.527 96.7522 660.423 96.3156 658.3C95.8812 656.141 93.796 654.756 91.6542 655.208Z" fill="#545454" fill-opacity="0.5"/>
<path d="M85.7726 680.732L92.9605 659.243C93.0508 658.957 92.9038 658.674 92.6176 658.584C92.4212 658.517 92.2352 658.579 92.1003 658.698C92.0426 658.749 91.9826 658.837 91.9589 658.926L84.9707 679.826L85.7726 680.732Z" fill="#545454" fill-opacity="0.5"/>
<path d="M88.6896 657.833C89.3983 655.762 91.6352 654.641 93.6896 655.332C95.761 656.042 96.8833 658.28 96.194 660.334C95.4854 662.405 93.2484 663.526 91.194 662.835C89.1226 662.125 88.0003 659.888 88.6896 657.833Z" fill="#545454" fill-opacity="0.5"/>
<path d="M162.469 644.354C162.68 644.167 163.007 644.187 163.195 644.399L210.831 698.205C211.019 698.417 210.999 698.744 210.787 698.931C210.575 699.119 210.248 699.099 210.061 698.887L162.442 645.1C162.235 644.905 162.257 644.542 162.469 644.354Z" fill="#545454" fill-opacity="0.5"/>
<path d="M213.429 695.939C214.879 697.577 214.727 700.083 213.09 701.533C211.453 702.982 208.947 702.829 207.497 701.191C206.046 699.553 206.198 697.046 207.835 695.597C209.472 694.148 211.978 694.301 213.429 695.939Z" fill="#545454" fill-opacity="0.5"/>
<path d="M165.793 642.133C164.343 640.495 161.836 640.342 160.199 641.791C158.562 643.24 158.411 645.746 159.861 647.385C161.311 649.023 163.817 649.176 165.454 647.727C167.091 646.277 167.243 643.771 165.793 642.133Z" fill="#545454" fill-opacity="0.5"/>
<path d="M210.106 698.159C210.164 698.108 210.258 698.059 210.35 698.046L280.738 683.72C281.033 683.666 281.295 683.846 281.369 684.124C281.425 684.419 281.245 684.681 280.95 684.736L210.579 699.081C210.284 699.136 210.022 698.956 209.967 698.661C209.905 698.475 209.972 698.278 210.106 698.159Z" fill="#545454" fill-opacity="0.5"/>
<path d="M211.25 702.44C209.108 702.893 207.006 701.488 206.589 699.348C206.154 697.189 207.538 695.104 209.678 694.688C211.817 694.272 213.922 695.641 214.339 697.781C214.757 699.921 213.39 702.024 211.25 702.44Z" fill="#545454" fill-opacity="0.5"/>
<path d="M281.638 688.114C283.78 687.662 285.164 685.577 284.727 683.454C284.293 681.295 282.188 679.927 280.066 680.362C277.907 680.795 276.54 682.899 276.977 685.022C277.413 687.145 279.496 688.567 281.638 688.114Z" fill="#545454" fill-opacity="0.5"/>
<path d="M303.245 615.702C303.38 615.583 303.583 615.54 303.762 615.588C304.048 615.678 304.176 615.978 304.086 616.264L281.334 684.396C281.244 684.682 280.945 684.81 280.676 684.739C280.389 684.648 280.262 684.349 280.352 684.063L303.103 615.93C303.127 615.841 303.168 615.77 303.245 615.702Z" fill="#545454" fill-opacity="0.5"/>
<path d="M284.604 685.489C283.895 687.56 281.658 688.681 279.604 687.99C277.55 687.3 276.41 685.043 277.1 682.988C277.791 680.898 280.045 679.796 282.1 680.487C284.173 681.161 285.293 683.435 284.604 685.489Z" fill="#545454" fill-opacity="0.5"/>
<path d="M307.356 617.356C308.064 615.285 306.925 613.028 304.851 612.354C302.78 611.644 300.524 612.782 299.851 614.856C299.16 616.946 300.282 619.184 302.356 619.858C304.41 620.548 306.664 619.447 307.356 617.356Z" fill="#545454" fill-opacity="0.5"/>
<path d="M255.608 561.895C255.82 561.708 256.147 561.728 256.335 561.94L303.971 615.746C304.158 615.958 304.139 616.285 303.927 616.473C303.715 616.66 303.388 616.64 303.2 616.428L255.581 562.641C255.374 562.446 255.377 562.1 255.608 561.895Z" fill="#545454" fill-opacity="0.5"/>
<path d="M306.569 613.48C308.019 615.118 307.868 617.625 306.231 619.074C304.594 620.523 302.087 620.37 300.637 618.732C299.187 617.094 299.339 614.588 300.976 613.138C302.613 611.689 305.119 611.842 306.569 613.48Z" fill="#545454" fill-opacity="0.5"/>
<path d="M258.595 565.267C260.233 563.817 260.385 561.313 258.933 559.674C257.482 558.035 254.978 557.882 253.34 559.332C251.702 560.782 251.55 563.286 253.002 564.925C254.453 566.565 256.957 566.718 258.595 565.267Z" fill="#545454" fill-opacity="0.5"/>
<path d="M185.222 576.221C185.279 576.17 185.373 576.121 185.465 576.109L255.834 561.8C256.128 561.745 256.391 561.925 256.446 562.22C256.501 562.515 256.321 562.777 256.043 562.852L185.694 577.143C185.399 577.198 185.137 577.018 185.063 576.74C185.02 576.537 185.087 576.341 185.222 576.221Z" fill="#545454" fill-opacity="0.5"/>
<path d="M255.163 558.44C257.322 558.007 259.407 559.392 259.825 561.532C260.259 563.692 258.875 565.776 256.736 566.192C254.577 566.625 252.491 565.24 252.074 563.1C251.62 560.958 253.024 558.856 255.163 558.44Z" fill="#545454" fill-opacity="0.5"/>
<path d="M184.795 572.749C182.636 573.182 181.269 575.286 181.706 577.409C182.14 579.568 184.245 580.937 186.367 580.501C188.526 580.068 189.893 577.964 189.456 575.842C189.022 573.682 186.917 572.314 184.795 572.749Z" fill="#545454" fill-opacity="0.5"/>
<path d="M185.222 576.22C185.357 576.101 185.56 576.059 185.739 576.106C186.026 576.197 186.153 576.496 186.063 576.782L163.329 644.934C163.238 645.22 162.939 645.347 162.653 645.257C162.367 645.167 162.239 644.867 162.31 644.598L185.061 576.466C185.104 576.359 185.145 576.289 185.222 576.22Z" fill="#545454" fill-opacity="0.5"/>
<path d="M181.827 575.376C182.536 573.305 184.773 572.184 186.827 572.874C188.918 573.567 190.021 575.822 189.332 577.876C188.623 579.947 186.386 581.068 184.332 580.378C182.241 579.685 181.119 577.447 181.827 575.376Z" fill="#545454" fill-opacity="0.5"/>
<path d="M159.076 643.508C158.367 645.579 159.507 647.836 161.58 648.51C163.671 649.202 165.908 648.081 166.58 646.008C167.289 643.937 166.15 641.68 164.076 641.006C162.005 640.296 159.748 641.434 159.076 643.508Z" fill="#545454" fill-opacity="0.5"/>
<path d="M255.588 561.912C255.8 561.725 256.127 561.745 256.315 561.957L303.951 615.763C304.138 615.975 304.119 616.302 303.907 616.49C303.695 616.677 303.368 616.657 303.18 616.445L255.561 562.658C255.374 562.446 255.376 562.1 255.588 561.912Z" fill="#545454" fill-opacity="0.5"/>
<path d="M306.549 613.497C307.999 615.135 307.847 617.642 306.21 619.091C304.573 620.54 302.067 620.387 300.617 618.749C299.167 617.111 299.318 614.605 300.955 613.155C302.592 611.706 305.098 611.859 306.549 613.497Z" fill="#545454" fill-opacity="0.5"/>
<path d="M258.913 559.691C257.463 558.053 254.957 557.9 253.319 559.349C251.682 560.798 251.531 563.305 252.981 564.943C254.431 566.581 256.937 566.734 258.574 565.285C260.212 563.835 260.363 561.329 258.913 559.691Z" fill="#545454" fill-opacity="0.5"/>
<path d="M303.227 615.718C303.304 615.65 303.378 615.618 303.47 615.605L373.858 601.279C374.153 601.224 374.415 601.404 374.47 601.699C374.525 601.994 374.345 602.257 374.051 602.312L303.699 616.64C303.404 616.695 303.142 616.515 303.087 616.22C303.025 616.034 303.092 615.837 303.227 615.718Z" fill="#545454" fill-opacity="0.5"/>
<path d="M304.37 619.999C302.228 620.451 300.126 619.046 299.709 616.906C299.255 614.764 300.658 612.663 302.798 612.247C304.957 611.814 307.042 613.199 307.459 615.339C307.896 617.462 306.529 619.566 304.37 619.999Z" fill="#545454" fill-opacity="0.5"/>
<path d="M374.757 605.673C376.899 605.221 378.283 603.136 377.846 601.013C377.412 598.854 375.307 597.486 373.185 597.921C371.026 598.354 369.659 600.458 370.096 602.581C370.513 604.721 372.615 606.125 374.757 605.673Z" fill="#545454" fill-opacity="0.5"/>
<path d="M234.992 820.097C235.05 820.046 235.144 819.997 235.236 819.985L305.623 805.659C305.918 805.604 306.181 805.784 306.255 806.062C306.31 806.357 306.13 806.619 305.835 806.674L235.448 821C235.153 821.055 234.89 820.875 234.816 820.597C234.791 820.413 234.857 820.217 234.992 820.097Z" fill="#545454" fill-opacity="0.5"/>
<path d="M236.136 824.379C233.977 824.812 231.892 823.426 231.474 821.286C231.021 819.144 232.424 817.043 234.563 816.627C236.722 816.193 238.808 817.579 239.225 819.719C239.662 821.842 238.295 823.945 236.136 824.379Z" fill="#545454" fill-opacity="0.5"/>
<path d="M306.524 810.053C308.683 809.62 310.05 807.516 309.613 805.393C309.176 803.27 307.074 801.866 304.952 802.301C302.81 802.753 301.426 804.838 301.862 806.961C302.299 809.084 304.401 810.488 306.524 810.053Z" fill="#545454" fill-opacity="0.5"/>
<path d="M328.132 737.639C328.267 737.52 328.47 737.478 328.649 737.525C328.935 737.616 329.063 737.915 328.992 738.184L306.241 806.316C306.15 806.603 305.851 806.73 305.582 806.659C305.296 806.569 305.168 806.269 305.258 805.983L328.01 737.851C328.014 737.778 328.074 737.691 328.132 737.639Z" fill="#545454" fill-opacity="0.5"/>
<path d="M309.491 807.426C308.799 809.517 306.545 810.618 304.491 809.928C302.4 809.235 301.297 806.98 301.986 804.926C302.695 802.855 304.932 801.734 306.986 802.424C309.06 803.098 310.199 805.355 309.491 807.426Z" fill="#545454" fill-opacity="0.5"/>
<path d="M332.241 739.294C332.933 737.204 331.811 734.966 329.737 734.292C327.646 733.599 325.409 734.72 324.737 736.794C324.046 738.884 325.168 741.122 327.242 741.796C329.296 742.486 331.569 741.368 332.241 739.294Z" fill="#545454" fill-opacity="0.5"/>
<path d="M280.493 683.834C280.704 683.646 281.031 683.666 281.219 683.878L328.855 737.685C329.043 737.897 329.023 738.223 328.811 738.411C328.599 738.599 328.272 738.579 328.085 738.367L280.449 684.56C280.278 684.368 280.281 684.021 280.493 683.834Z" fill="#545454" fill-opacity="0.5"/>
<path d="M331.454 735.419C332.904 737.057 332.753 739.563 331.115 741.012C329.478 742.462 326.972 742.308 325.522 740.67C324.072 739.032 324.223 736.526 325.86 735.077C327.498 733.627 330.004 733.781 331.454 735.419Z" fill="#545454" fill-opacity="0.5"/>
<path d="M283.819 681.612C282.369 679.973 279.863 679.82 278.226 681.27C276.589 682.719 276.437 685.225 277.887 686.863C279.337 688.501 281.844 688.655 283.481 687.205C285.118 685.756 285.269 683.25 283.819 681.612Z" fill="#545454" fill-opacity="0.5"/>
<path d="M210.108 698.159C210.166 698.108 210.26 698.059 210.352 698.047L280.72 683.738C281.015 683.683 281.278 683.863 281.352 684.141C281.407 684.436 281.227 684.698 280.932 684.753L210.581 699.081C210.286 699.136 210.024 698.956 209.949 698.678C209.907 698.475 209.973 698.279 210.108 698.159Z" fill="#545454" fill-opacity="0.5"/>
<path d="M280.068 680.361C282.227 679.928 284.312 681.314 284.73 683.454C285.183 685.596 283.78 687.697 281.641 688.114C279.482 688.547 277.397 687.161 276.979 685.021C276.526 682.879 277.91 680.795 280.068 680.361Z" fill="#545454" fill-opacity="0.5"/>
<path d="M209.68 694.687C207.521 695.12 206.154 697.224 206.591 699.347C207.025 701.506 209.129 702.875 211.252 702.439C213.411 702.006 214.778 699.902 214.341 697.779C213.907 695.62 211.821 694.235 209.68 694.687Z" fill="#545454" fill-opacity="0.5"/>
<path d="M280.494 683.834C280.706 683.646 281.033 683.666 281.22 683.878L328.856 737.685C329.044 737.897 329.024 738.224 328.812 738.411C328.601 738.599 328.274 738.579 328.086 738.367L280.45 684.56C280.26 684.385 280.263 684.039 280.494 683.834Z" fill="#545454" fill-opacity="0.5"/>
<path d="M331.455 735.419C332.905 737.057 332.753 739.563 331.116 741.012C329.479 742.462 326.973 742.309 325.523 740.671C324.073 739.032 324.224 736.526 325.861 735.077C327.499 733.628 330.005 733.781 331.455 735.419Z" fill="#545454" fill-opacity="0.5"/>
<path d="M283.82 681.612C282.37 679.974 279.864 679.821 278.227 681.27C276.59 682.719 276.438 685.226 277.888 686.864C279.338 688.502 281.845 688.655 283.482 687.206C285.119 685.756 285.27 683.25 283.82 681.612Z" fill="#545454" fill-opacity="0.5"/>
<path d="M328.131 737.639C328.188 737.588 328.283 737.539 328.374 737.526L398.762 723.2C399.057 723.146 399.319 723.326 399.394 723.604C399.449 723.899 399.269 724.161 398.974 724.216L328.586 738.542C328.291 738.597 328.029 738.417 327.955 738.139C327.929 737.955 327.996 737.758 328.131 737.639Z" fill="#545454" fill-opacity="0.5"/>
<path d="M329.276 741.92C327.117 742.353 325.031 740.968 324.614 738.828C324.16 736.686 325.564 734.584 327.703 734.168C329.862 733.735 331.947 735.12 332.365 737.26C332.801 739.383 331.415 741.504 329.276 741.92Z" fill="#545454" fill-opacity="0.5"/>
<path d="M421.271 655.181C421.405 655.061 421.608 655.019 421.788 655.067C422.074 655.157 422.202 655.456 422.131 655.726L399.379 723.858C399.289 724.144 398.99 724.271 398.721 724.2C398.434 724.11 398.307 723.81 398.397 723.524L421.148 655.392C421.153 655.319 421.194 655.249 421.271 655.181Z" fill="#545454" fill-opacity="0.5"/>
<path d="M373.635 601.374C373.847 601.187 374.173 601.207 374.361 601.419L421.997 655.225C422.185 655.437 422.165 655.764 421.953 655.952C421.741 656.139 421.414 656.119 421.227 655.907L373.591 602.101C373.401 601.925 373.404 601.579 373.635 601.374Z" fill="#545454" fill-opacity="0.5"/>
<path d="M376.939 599.171C375.489 597.533 372.983 597.38 371.346 598.829C369.709 600.278 369.557 602.785 371.007 604.423C372.458 606.061 374.964 606.214 376.601 604.765C378.257 603.298 378.39 600.809 376.939 599.171Z" fill="#545454" fill-opacity="0.5"/>
<path d="M303.247 615.701C303.304 615.65 303.399 615.601 303.49 615.588L373.859 601.279C374.154 601.224 374.416 601.404 374.471 601.699C374.526 601.994 374.346 602.257 374.051 602.312L303.7 616.64C303.405 616.695 303.143 616.515 303.068 616.237C303.045 616.016 303.112 615.82 303.247 615.701Z" fill="#545454" fill-opacity="0.5"/>
<path d="M373.188 597.92C375.347 597.487 377.433 598.872 377.85 601.012C378.304 603.154 376.9 605.256 374.761 605.672C372.602 606.105 370.517 604.72 370.099 602.58C369.646 600.438 371.03 598.353 373.188 597.92Z" fill="#545454" fill-opacity="0.5"/>
<path d="M302.819 612.229C300.66 612.662 299.294 614.766 299.73 616.889C300.165 619.048 302.269 620.417 304.392 619.981C306.55 619.548 307.917 617.444 307.481 615.321C307.027 613.179 304.942 611.794 302.819 612.229Z" fill="#545454" fill-opacity="0.5"/>
<path d="M303.246 615.701C303.381 615.582 303.584 615.54 303.763 615.587C304.049 615.677 304.177 615.977 304.087 616.263L281.335 684.395C281.245 684.681 280.946 684.809 280.677 684.738C280.39 684.647 280.263 684.348 280.353 684.062L303.104 615.93C303.128 615.84 303.169 615.769 303.246 615.701Z" fill="#545454" fill-opacity="0.5"/>
<path d="M299.853 614.856C300.544 612.765 302.798 611.664 304.853 612.354C306.943 613.047 308.046 615.302 307.357 617.356C306.665 619.447 304.411 620.548 302.357 619.858C300.266 619.165 299.144 616.927 299.853 614.856Z" fill="#545454" fill-opacity="0.5"/>
<path d="M277.101 682.988C276.41 685.078 277.532 687.316 279.606 687.99C281.679 688.663 283.933 687.562 284.606 685.488C285.297 683.398 284.175 681.16 282.101 680.486C280.03 679.776 277.774 680.914 277.101 682.988Z" fill="#545454" fill-opacity="0.5"/>
<path d="M373.614 601.392C373.826 601.204 374.152 601.224 374.34 601.436L421.976 655.242C422.164 655.454 422.144 655.781 421.932 655.969C421.72 656.156 421.393 656.136 421.206 655.924L373.57 602.118C373.399 601.925 373.402 601.579 373.614 601.392Z" fill="#545454" fill-opacity="0.5"/>
<path d="M376.938 599.17C375.488 597.532 372.982 597.379 371.345 598.828C369.708 600.278 369.556 602.784 371.006 604.422C372.457 606.06 374.963 606.213 376.6 604.764C378.237 603.315 378.389 600.808 376.938 599.17Z" fill="#545454" fill-opacity="0.5"/>
<path d="M353.013 859.579C353.148 859.46 353.351 859.418 353.53 859.465C353.816 859.555 353.944 859.855 353.854 860.141L331.121 928.256C331.031 928.542 330.732 928.67 330.463 928.599C330.177 928.508 330.049 928.209 330.139 927.923L352.891 859.79C352.895 859.718 352.955 859.63 353.013 859.579Z" fill="#545454" fill-opacity="0.5"/>
<path d="M334.373 929.366C333.665 931.437 331.428 932.558 329.374 931.868C327.283 931.175 326.18 928.92 326.869 926.866C327.578 924.794 329.815 923.673 331.869 924.364C333.943 925.038 335.065 927.276 334.373 929.366Z" fill="#545454" fill-opacity="0.5"/>
<path d="M357.124 861.234C357.815 859.144 356.693 856.906 354.619 856.232C352.545 855.559 350.291 856.66 349.619 858.734C348.928 860.824 350.05 863.062 352.124 863.735C354.197 864.409 356.434 863.288 357.124 861.234Z" fill="#545454" fill-opacity="0.5"/>
<path d="M305.376 805.773C305.588 805.586 305.915 805.606 306.103 805.818L353.739 859.624C353.926 859.836 353.907 860.163 353.695 860.35C353.483 860.538 353.156 860.518 352.968 860.306L305.332 806.5C305.145 806.288 305.165 805.961 305.376 805.773Z" fill="#545454" fill-opacity="0.5"/>
<path d="M356.337 857.358C357.787 858.996 357.635 861.503 355.998 862.952C354.361 864.401 351.855 864.248 350.405 862.61C348.955 860.972 349.106 858.465 350.743 857.016C352.38 855.567 354.887 855.72 356.337 857.358Z" fill="#545454" fill-opacity="0.5"/>
<path d="M308.701 803.552C307.251 801.914 304.745 801.761 303.108 803.21C301.471 804.659 301.319 807.165 302.769 808.804C304.219 810.442 306.725 810.595 308.363 809.146C310 807.696 310.151 805.19 308.701 803.552Z" fill="#545454" fill-opacity="0.5"/>
<path d="M234.989 820.099C235.047 820.048 235.141 819.999 235.233 819.986L305.601 805.678C305.896 805.623 306.159 805.803 306.214 806.098C306.269 806.393 306.089 806.655 305.794 806.71L235.445 821.002C235.15 821.057 234.887 820.877 234.813 820.599C234.788 820.415 234.854 820.218 234.989 820.099Z" fill="#545454" fill-opacity="0.5"/>
<path d="M304.933 802.282C307.092 801.849 309.177 803.234 309.594 805.374C310.048 807.517 308.645 809.618 306.505 810.034C304.347 810.467 302.261 809.082 301.844 806.942C301.407 804.819 302.791 802.734 304.933 802.282Z" fill="#545454" fill-opacity="0.5"/>
<path d="M234.547 816.607C232.388 817.04 231.021 819.144 231.458 821.267C231.892 823.427 233.997 824.795 236.119 824.359C238.278 823.926 239.645 821.822 239.208 819.7C238.791 817.56 236.706 816.174 234.547 816.607Z" fill="#545454" fill-opacity="0.5"/>
<path d="M305.377 805.773C305.589 805.586 305.915 805.606 306.103 805.818L353.739 859.624C353.927 859.836 353.907 860.163 353.695 860.35C353.483 860.538 353.156 860.518 352.969 860.306L305.333 806.5C305.126 806.305 305.165 805.961 305.377 805.773Z" fill="#545454" fill-opacity="0.5"/>
<path d="M356.338 857.358C357.788 858.996 357.636 861.502 355.999 862.952C354.362 864.401 351.856 864.248 350.406 862.61C348.956 860.971 349.107 858.465 350.744 857.016C352.381 855.567 354.887 855.72 356.338 857.358Z" fill="#545454" fill-opacity="0.5"/>
<path d="M308.701 803.551C307.251 801.913 304.745 801.76 303.108 803.209C301.471 804.659 301.319 807.165 302.769 808.803C304.219 810.441 306.725 810.594 308.363 809.145C310 807.696 310.151 805.189 308.701 803.551Z" fill="#545454" fill-opacity="0.5"/>
<path d="M353.016 859.578C353.073 859.527 353.167 859.478 353.259 859.465L423.647 845.14C423.942 845.085 424.204 845.265 424.279 845.543C424.334 845.838 424.154 846.1 423.859 846.155L353.471 860.481C353.176 860.536 352.914 860.356 352.859 860.061C352.814 859.894 352.881 859.698 353.016 859.578Z" fill="#545454" fill-opacity="0.5"/>
<path d="M354.158 863.859C352 864.292 349.914 862.907 349.497 860.767C349.063 858.608 350.446 856.523 352.586 856.107C354.726 855.691 356.83 857.059 357.247 859.199C357.684 861.322 356.281 863.424 354.158 863.859Z" fill="#545454" fill-opacity="0.5"/>
<path d="M328.128 737.64C328.186 737.589 328.28 737.54 328.372 737.527L398.74 723.218C399.035 723.163 399.298 723.344 399.353 723.639C399.408 723.934 399.228 724.196 398.933 724.251L328.565 738.56C328.27 738.615 328.007 738.435 327.933 738.157C327.927 737.956 327.994 737.759 328.128 737.64Z" fill="#545454" fill-opacity="0.5"/>
<path d="M327.684 734.149C325.526 734.582 324.159 736.686 324.595 738.809C325.03 740.968 327.134 742.336 329.257 741.901C331.416 741.468 332.782 739.364 332.346 737.241C331.929 735.101 329.824 733.733 327.684 734.149Z" fill="#545454" fill-opacity="0.5"/>
<path d="M328.129 737.64C328.264 737.52 328.467 737.478 328.647 737.526C328.933 737.616 329.06 737.915 328.97 738.202L306.219 806.334C306.128 806.62 305.829 806.747 305.56 806.676C305.274 806.586 305.146 806.286 305.217 806.017L327.969 737.885C328.012 737.778 328.052 737.708 328.129 737.64Z" fill="#545454" fill-opacity="0.5"/>
<path d="M324.718 736.775C325.427 734.704 327.664 733.583 329.718 734.274C331.809 734.967 332.912 737.222 332.223 739.276C331.531 741.366 329.277 742.468 327.223 741.777C325.168 741.086 324.027 738.866 324.718 736.775Z" fill="#545454" fill-opacity="0.5"/>
<path d="M301.967 804.908C301.258 806.979 302.398 809.236 304.471 809.909C306.562 810.602 308.799 809.481 309.471 807.408C310.18 805.337 309.041 803.08 306.967 802.406C304.913 801.715 302.656 802.853 301.967 804.908Z" fill="#545454" fill-opacity="0.5"/>
<path d="M421.25 655.198C421.385 655.079 421.588 655.037 421.767 655.084C422.053 655.175 422.181 655.474 422.11 655.743L399.358 723.875C399.268 724.161 398.969 724.289 398.7 724.218C398.414 724.127 398.286 723.828 398.357 723.559L421.108 655.427C421.132 655.337 421.192 655.249 421.25 655.198Z" fill="#545454" fill-opacity="0.5"/>
<path d="M371.589 1003.57L378.759 982.061C378.85 981.775 378.703 981.493 378.436 981.385C378.239 981.319 378.053 981.38 377.918 981.5C377.861 981.551 377.801 981.638 377.777 981.728L370.787 1002.66L371.589 1003.57Z" fill="#545454" fill-opacity="0.5"/>
<path d="M382.029 983.155C382.72 981.064 381.598 978.827 379.524 978.153C377.434 977.46 375.197 978.581 374.524 980.654C373.833 982.745 374.955 984.983 377.029 985.656C379.083 986.347 381.32 985.226 382.029 983.155Z" fill="#545454" fill-opacity="0.5"/>
<path d="M330.282 927.693C330.494 927.506 330.821 927.526 331.008 927.738L378.644 981.544C378.832 981.756 378.812 982.083 378.6 982.271C378.389 982.458 378.062 982.438 377.874 982.226L330.238 928.42C330.031 928.225 330.07 927.881 330.282 927.693Z" fill="#545454" fill-opacity="0.5"/>
<path d="M381.243 979.278C382.693 980.916 382.542 983.423 380.905 984.872C379.267 986.321 376.761 986.168 375.311 984.53C373.861 982.892 374.013 980.386 375.65 978.936C377.287 977.487 379.793 977.64 381.243 979.278Z" fill="#545454" fill-opacity="0.5"/>
<path d="M333.607 925.472C332.157 923.834 329.651 923.681 328.014 925.13C326.377 926.58 326.225 929.086 327.675 930.724C329.126 932.362 331.632 932.515 333.269 931.066C334.906 929.617 335.058 927.11 333.607 925.472Z" fill="#545454" fill-opacity="0.5"/>
<path d="M330.261 927.711C330.473 927.523 330.8 927.543 330.988 927.755L378.624 981.562C378.811 981.774 378.791 982.1 378.58 982.288C378.368 982.476 378.041 982.456 377.853 982.244L330.217 928.437C330.03 928.225 330.049 927.898 330.261 927.711Z" fill="#545454" fill-opacity="0.5"/>
<path d="M381.222 979.296C382.672 980.934 382.52 983.44 380.883 984.889C379.246 986.339 376.74 986.186 375.29 984.548C373.839 982.909 373.991 980.403 375.628 978.954C377.265 977.505 379.771 977.658 381.222 979.296Z" fill="#545454" fill-opacity="0.5"/>
<path d="M333.587 925.489C332.137 923.851 329.63 923.698 327.993 925.147C326.356 926.597 326.205 929.103 327.655 930.741C329.105 932.379 331.611 932.532 333.248 931.083C334.885 929.634 335.037 927.127 333.587 925.489Z" fill="#545454" fill-opacity="0.5"/>
<path d="M377.899 981.516C377.957 981.465 378.051 981.416 378.143 981.404L448.53 967.078C448.825 967.023 449.088 967.203 449.162 967.481C449.217 967.776 449.037 968.038 448.742 968.093L378.355 982.419C378.06 982.474 377.798 982.294 377.723 982.016C377.698 981.832 377.764 981.636 377.899 981.516Z" fill="#545454" fill-opacity="0.5"/>
<path d="M379.043 985.797C376.884 986.231 374.799 984.845 374.382 982.705C373.928 980.563 375.331 978.461 377.471 978.045C379.63 977.612 381.715 978.998 382.132 981.138C382.569 983.261 381.185 985.345 379.043 985.797Z" fill="#545454" fill-opacity="0.5"/>
<path d="M353.014 859.578C353.071 859.527 353.165 859.478 353.257 859.465L423.626 845.156C423.92 845.102 424.183 845.282 424.257 845.56C424.312 845.855 424.132 846.117 423.837 846.172L353.469 860.481C353.174 860.536 352.912 860.356 352.837 860.078C352.812 859.894 352.879 859.697 353.014 859.578Z" fill="#545454" fill-opacity="0.5"/>
<path d="M352.569 856.087C350.41 856.52 349.044 858.624 349.48 860.747C349.915 862.906 352.019 864.274 354.142 863.839C356.3 863.406 357.667 861.302 357.231 859.179C356.813 857.039 354.728 855.654 352.569 856.087Z" fill="#545454" fill-opacity="0.5"/>
<path d="M353.014 859.579C353.149 859.459 353.352 859.417 353.531 859.465C353.817 859.555 353.945 859.854 353.855 860.141L331.122 928.256C331.032 928.542 330.733 928.669 330.464 928.598C330.177 928.508 330.05 928.208 330.14 927.922L352.892 859.79C352.896 859.717 352.956 859.63 353.014 859.579Z" fill="#545454" fill-opacity="0.5"/>
<path d="M349.603 858.714C350.295 856.623 352.549 855.521 354.603 856.212C356.658 856.903 357.797 859.16 357.108 861.214C356.399 863.285 354.162 864.406 352.108 863.715C350.053 863.025 348.931 860.787 349.603 858.714Z" fill="#545454" fill-opacity="0.5"/>
<path d="M326.853 926.846C326.161 928.936 327.284 931.174 329.357 931.848C331.429 932.558 333.685 931.419 334.357 929.346C335.049 927.256 333.926 925.018 331.853 924.344C329.798 923.654 327.561 924.775 326.853 926.846Z" fill="#545454" fill-opacity="0.5"/>
<path d="M377.898 981.518C377.956 981.467 378.05 981.418 378.142 981.405L448.51 967.096C448.805 967.042 449.068 967.222 449.123 967.517C449.178 967.812 448.998 968.074 448.703 968.129L378.354 982.421C378.059 982.476 377.797 982.296 377.722 982.018C377.697 981.834 377.763 981.637 377.898 981.518Z" fill="#545454" fill-opacity="0.5"/>
<path d="M377.454 978.027C375.295 978.46 373.928 980.564 374.365 982.687C374.799 984.846 376.904 986.214 379.026 985.779C381.185 985.346 382.552 983.242 382.115 981.119C381.698 978.979 379.613 977.594 377.454 978.027Z" fill="#545454" fill-opacity="0.5"/>
<path d="M371.589 1003.57L378.777 982.081C378.867 981.794 378.72 981.512 378.434 981.422C378.238 981.355 378.052 981.417 377.917 981.536C377.859 981.587 377.799 981.675 377.775 981.764L370.77 1002.64L371.589 1003.57Z" fill="#545454" fill-opacity="0.5"/>
<path d="M374.488 980.652C375.18 978.562 377.434 977.46 379.488 978.15C381.56 978.86 382.682 981.098 381.993 983.152C381.284 985.224 379.047 986.345 376.993 985.654C374.938 984.963 373.816 982.725 374.488 980.652Z" fill="#545454" fill-opacity="0.5"/>
</g>
</svg>
