<svg width="12" height="12" viewBox="0 0 12 12" fill="none" xmlns="http://www.w3.org/2000/svg">
<ellipse cx="5.98779" cy="5.85767" rx="5.17187" ry="5.17188" fill="#434343"/>
<g clip-path="url(#clip0)">
<path d="M3.3022 9.16738C3.82479 9.16738 4.24844 8.74374 4.24844 8.22114C4.24844 7.69855 3.82479 7.2749 3.3022 7.2749C2.7796 7.2749 2.35596 7.69855 2.35596 8.22114C2.35596 8.74374 2.7796 9.16738 3.3022 9.16738Z" fill="#909BA6"/>
<path d="M9.39011 8.32832C9.84368 8.32832 10.2114 7.96063 10.2114 7.50706C10.2114 7.05348 9.84368 6.68579 9.39011 6.68579C8.93654 6.68579 8.56885 7.05348 8.56885 7.50706C8.56885 7.96063 8.93654 8.32832 9.39011 8.32832Z" fill="#C8D2DC"/>
<path d="M8.63986 4.18622C9.01455 4.18622 9.3183 3.88247 9.3183 3.50778C9.3183 3.13309 9.01455 2.82935 8.63986 2.82935C8.26517 2.82935 7.96143 3.13309 7.96143 3.50778C7.96143 3.88247 8.26517 4.18622 8.63986 4.18622Z" fill="#E9EDF1"/>
<path d="M2.55642 6.85783C3.11101 6.85783 3.5606 6.41921 3.5606 5.87814C3.5606 5.33706 3.11101 4.89844 2.55642 4.89844C2.00183 4.89844 1.55225 5.33706 1.55225 5.87814C1.55225 6.41921 2.00183 6.85783 2.55642 6.85783Z" fill="#7E8B96"/>
<path d="M5.44121 10.3816C5.94539 10.3816 6.3541 9.98338 6.3541 9.49209C6.3541 9.00081 5.94539 8.60254 5.44121 8.60254C4.93704 8.60254 4.52832 9.00081 4.52832 9.49209C4.52832 9.98338 4.93704 10.3816 5.44121 10.3816Z" fill="#A2ABB8"/>
<path d="M7.78716 9.99182C8.26612 9.99182 8.6544 9.61376 8.6544 9.1474C8.6544 8.68104 8.26612 8.30298 7.78716 8.30298C7.3082 8.30298 6.91992 8.68104 6.91992 9.1474C6.91992 9.61376 7.3082 9.99182 7.78716 9.99182Z" fill="#B9C3CD"/>
<path d="M3.64307 4.58244C4.22286 4.58244 4.69288 4.12365 4.69288 3.5577C4.69288 2.99175 4.22286 2.53296 3.64307 2.53296C3.06328 2.53296 2.59326 2.99175 2.59326 3.5577C2.59326 4.12365 3.06328 4.58244 3.64307 4.58244Z" fill="#5F6C75"/>
<path d="M9.64949 6.1347C10.078 6.1347 10.4254 5.79373 10.4254 5.37313C10.4254 4.95254 10.078 4.61157 9.64949 4.61157C9.22094 4.61157 8.87354 4.95254 8.87354 5.37313C8.87354 5.79373 9.22094 6.1347 9.64949 6.1347Z" fill="#DCE6EB"/>
<path d="M6.24804 3.72215C6.85937 3.72215 7.35496 3.22656 7.35496 2.61522C7.35496 2.00389 6.85937 1.5083 6.24804 1.5083C5.6367 1.5083 5.14111 2.00389 5.14111 2.61522C5.14111 3.22656 5.6367 3.72215 6.24804 3.72215Z" fill="#4E5A61"/>
</g>
<defs>
<clipPath id="clip0">
<rect width="8.87324" height="8.87324" fill="white" transform="translate(1.55225 1.5083)"/>
</clipPath>
</defs>
</svg>
