<svg width="34" height="34" viewBox="0 0 34 34" fill="none" xmlns="http://www.w3.org/2000/svg">
<g clip-path="url(#clip0)">
<path d="M12.4004 26.3223L7.52469 28.9818C7.23857 29.1378 6.98144 29.3296 6.74219 29.5386C9.58484 31.9355 13.2544 33.3815 17.2637 33.3815C21.2434 33.3815 24.8896 31.957 27.7242 29.5929C27.4627 29.3721 27.1791 29.1736 26.8646 29.017L21.6436 26.4068C20.969 26.0695 20.5429 25.3801 20.5429 24.6259V22.5775C20.6897 22.4104 20.8574 22.1958 21.0369 21.9424C21.7485 20.9373 22.2868 19.8317 22.6598 18.6718C23.3295 18.4652 23.8228 17.8467 23.8228 17.1117V14.9251C23.8228 14.4442 23.6088 14.0144 23.2765 13.7135V10.5526C23.2765 10.5526 23.9258 5.63379 17.2643 5.63379C10.6029 5.63379 11.2522 10.5526 11.2522 10.5526V13.7135C10.9192 14.0144 10.7059 14.4442 10.7059 14.9251V17.1117C10.7059 17.6876 11.0086 18.1945 11.4619 18.4874C12.0082 20.8657 13.4388 22.5775 13.4388 22.5775V24.5754C13.4382 25.303 13.0398 25.9733 12.4004 26.3223Z" fill="#E7ECED"/>
<path d="M17.5428 0.702629C8.51968 0.548471 1.07944 7.73836 0.925286 16.7615C0.837725 21.8777 3.11802 26.4759 6.74873 29.5337C6.98613 29.3265 7.2408 29.1366 7.52383 28.9825L12.3995 26.3229C13.039 25.9739 13.4373 25.3036 13.4373 24.5748V22.5769C13.4373 22.5769 12.0061 20.8652 11.4604 18.4868C11.0078 18.1939 10.7044 17.6877 10.7044 17.1111V14.9246C10.7044 14.4436 10.9184 14.0138 11.2507 13.7129V10.552C11.2507 10.552 10.6014 5.63319 17.2629 5.63319C23.9243 5.63319 23.275 10.552 23.275 10.552V13.7129C23.608 14.0138 23.8213 14.4436 23.8213 14.9246V17.1111C23.8213 17.8461 23.328 18.4646 22.6584 18.6712C22.2853 19.8311 21.747 20.9367 21.0354 21.9418C20.856 22.1952 20.6882 22.4098 20.5415 22.5769V24.6254C20.5415 25.3795 20.9676 26.0695 21.6422 26.4062L26.8631 29.0164C27.1764 29.173 27.4594 29.3709 27.7203 29.5911C31.2412 26.6547 33.516 22.2643 33.6004 17.3202C33.7558 8.29703 26.5665 0.856786 17.5428 0.702629Z" fill="#3E3E3E"/>
</g>
<defs>
<clipPath id="clip0">
<rect width="32.6813" height="32.6813" fill="white" transform="translate(0.922852 0.700195)"/>
</clipPath>
</defs>
</svg>
